<?xml version="1.0" encoding="UTF-8"?><svg id="Layer_2" xmlns="http://www.w3.org/2000/svg" viewBox="0 0 595.29 340.32"><g id="Layer_1-2"><g><path d="M13.27,73.34c.04,.76,.24,1.56,.68,2.37,.05,.09,.1,.17,.14,.26,1.15,4.6,4.7,8.96,8.2,12.67,.83,1.1,1.67,2.18,2.57,3.23,.18,.21,.35,.43,.53,.64,4.24,4.84,8.91,9.07,13.89,12.82,2.39-12.18,12.28-19.49,23.41-24.24,14.48-6.18,30.18-10.14,45.54-13.42,29.08-6.21,58.81-8.88,88.47-10.2,30.7-1.36,61.71-2.34,92.42-1.22,31,1.13,61.85,5.64,92.11,12.37,16.3,3.62,38.3,7.91,50.6,20.38,4.47,4.53,7.67,10.13,8.83,17.18,7.86-4.81,15-10.55,19.36-17.35,5.22-8.14,6.44-17.81,.07-29.28-1.18-2.13-2.55-4.09-4.04-5.92-2.55-3.14-5.51-5.88-8.75-8.27-.11-.07-.21-.14-.3-.22-4.8-3.5-10.19-6.28-15.76-8.59-2.9-1.2-5.83-2.28-8.76-3.25-16.29-5.45-33.12-9.5-49.98-12.73-69.68-13.38-141.34-10.54-211.77-6.25-30.64,1.87-61.71,4.38-91.03,14.08-14.21,4.71-27.83,11.28-39.93,20.13-4.03,2.94-8.33,6.27-11.61,10.28-1.5,1.83-2.79,3.81-3.73,5.95-.17,.39-.32,.79-.47,1.2-.8,2.3-1.1,4.84-.77,7.24,.03,.04,.05,.09,.08,.14Z" style="fill:#fff;"/><path d="M381.23,68.62c-30.26-6.73-61.11-11.24-92.11-12.37-30.71-1.12-61.73-.14-92.42,1.22-29.66,1.31-59.4,3.99-88.47,10.2-15.36,3.28-31.06,7.24-45.54,13.42-11.12,4.75-21.02,12.06-23.41,24.24,2.72,2.05,5.53,3.95,8.43,5.72,18.88,11.56,41.18,17.72,62.49,23.38,34.96,9.29,70.01,18.4,106.23,20.9,.58,.04,1.16,.07,1.74,.1,1.95,.13,3.91,.24,5.86,.33,14.49,.7,29.01,.56,43.47-.38,5.6-.36,11.18-.86,16.76-1.45,45.09-4.83,89.45-17.16,131-35.13,4.6-1.99,9.88-4.31,15.24-7,2.52-1.27,5.04-2.65,7.54-4.09,.88-.51,1.78-1,2.65-1.53-1.16-7.05-4.36-12.65-8.83-17.18-12.3-12.47-34.3-16.76-50.6-20.38Z" style="fill:#ffb003;"/><path d="M2.91,76.85c-.89-.63-1.78-1.25-2.69-1.86C.09,78.51,.01,82.04,0,85.58c2.02-.54,4.09-.95,6.18-1.31-1.53-2.21-2.63-4.71-3.27-7.42Z" style="fill:#ff8199;"/><path d="M438.94,252.05c2.99-5.37,5.73-10.88,8.28-16.48-.09,.01-.17,.03-.26,.05-8.65,1.13-17.24-1.39-24.12-6.68-1.15-.88-1.53-2.56-.64-3.77,5.09-6.98,12.58-11.82,21.15-13.26,4.53-.76,8.88-.32,13.12,.72,2.92-8.15,5.56-16.42,8.01-24.72-.02-.02-.04-.04-.06-.05-.28,.35-.57,.69-.87,1.02-3.7,4.84-9.76,7.75-15.9,6.34-8.01-1.84-15.2-8.29-14.15-17.11,1.06-8.91,9.98-16.32,18.89-15.97,8.06,.31,14.6,6.63,15.33,14.52,.93-3.34,1.85-6.68,2.75-10.01,.45-.17,.89-.41,1.3-.71,2.74-15.39,5.81-30.72,9.21-45.98-.41,.32-.82,.64-1.22,.98,.88-7.53,1.37-15.08,1.36-22.63-1.33,1.73-2.68,3.44-4.08,5.13-.8,8.8-4.84,16.55-10.53,23.26-5.65,6.66-13.2,12.92-22.42,10.09-1.32-.4-2.33-2.02-1.79-3.38,3.31-8.48,7.66-16.4,13.36-23.52,.25-.31,.5-.62,.75-.92-13.23,10.35-30.89,17.28-44.18,22.79-51.91,21.5-108.1,34.5-164.44,35.27,3.91,11.05-4.17,25.5-16.71,26.03-7.91,.33-13.89-6.04-15.24-13.46-.61-3.34-.32-6.64,.74-9.65,.27-1.28,.7-2.52,1.25-3.69-7.56-.5-15.12-1.21-22.65-2.18-19.41-2.51-38.54-6.57-57.52-11.29-18.6-4.63-37.32-9.28-55.61-15.05-18.86-5.95-37.99-14.4-53.34-27.02,.09,8.51-1.55,17.75-10.04,21.64-1.25,.57-3.08,.04-3.59-1.33-3.16-8.54-5.18-17.34-5.66-26.45-.03-.5-.05-1-.07-1.5-2.06,2.83-4.4,5.4-7.16,7.48-.38,.29-.78,.57-1.17,.84,2.52,30.16,9.65,60.32,21.24,88.46,2.47-4.2,4.78-8.51,7-12.85-.4-.19-.8-.39-1.19-.62-5.56-2.5-9.77-7.73-9.8-14.03-.04-8.22,4.6-16.69,13.42-17.68,8.92-1,18.16,5.99,19.86,14.75,1.62,8.34-3.63,16.57-11.86,18.61-1.73,.43-3.44,.54-5.09,.4-3.04,5.95-6.23,11.86-9.75,17.52,3.02,6.86,6.31,13.58,9.86,20.14,3.38-.51,6.74-1.12,10.08-1.83-1.79-6.28-.51-13.86,4.87-17.85,12.5-9.25,31.75,2.93,29.74,18.01-1.04,7.84-8.36,12.63-15.9,12.67-3.39,.02-6.6-.84-9.38-2.4-2.79-1.13-5.27-2.99-7-5.42-3.2,.7-6.42,1.29-9.64,1.81,12.91,22.65,29.12,43.23,48.54,60.45,2.2-1.92,4.66-3.56,7.34-4.88,1.3-.64,2.97-.24,3.67,1.09,2.58,4.93,3.92,10.37,3.88,15.83,8.59,6.34,17.71,12.06,27.37,17.08,.68-3.27,2.36-6.28,5.11-8.48,6.42-5.13,15.94-6.76,22.19-.46,5.21,5.25,6.29,14.04,3.26,20.76,17.44,4.72,35.51,6.64,54.02,7.28,30.73,1.07,61.66,1.08,92.14-3.4,2.3-.34,4.6-.72,6.89-1.12-.94-4.19-1.24-8.55-1.05-12.95,.38-8.72,2.51-18.3,11.52-21.71,1.29-.49,3.08,.17,3.49,1.57,2.58,8.73,4,17.65,3.87,26.77,0,.5-.02,1-.03,1.5,2.24-2.68,4.75-5.09,7.65-6.99,7.3-4.78,16.13-6.26,24.62-4.49,.67,.14,1.26,.52,1.68,1.04,6.87-3.02,13.57-6.44,20.02-10.32,2.55-1.53,5.02-3.15,7.46-4.82-4.63-3.1-7.77-8.02-7.05-14.06,1.06-8.91,9.98-16.32,18.89-15.97,5.79,.22,10.78,3.56,13.41,8.34,2.15-2.3,4.25-4.65,6.26-7.08,.53,.6,1.08,1.18,1.64,1.75,4.83-8.61,9.78-17.15,14.84-25.63-.05-.04-.11-.08-.17-.12Zm-262.45-6.51c-7.93,3.04-16.95-.7-20.38-8.45-.72-1.63-1.13-3.29-1.28-4.94-15.56-4.77-31.01-10.39-43.85-20.41,2.09,12.57,5.57,24.85,10.34,36.67,5.87-2.85,13.56-2.91,18.42,1.7,11.28,10.7,2.63,31.78-12.57,32.42-7.91,.33-13.89-6.04-15.24-13.46-.61-3.34-.32-6.64,.74-9.65,.63-2.95,2.03-5.71,4.12-7.84-5.85-14.29-9.83-29.15-11.93-44.51-5.93-6.55-8.9-14.78-9.97-23.5-1.07-8.66-.56-18.46,7.76-23.32,1.19-.69,3.06-.34,3.7,.97,3.99,8.18,6.87,16.75,8.25,25.76,.08,.49,.15,.99,.22,1.49,1.77-3.02,3.84-5.81,6.38-8.16,6.4-5.92,14.86-8.85,23.54-8.51,1.45,.06,2.73,1.2,2.71,2.71-.11,8.64-3.42,16.92-9.57,23.05-6.26,6.25-14.55,8.46-22.85,10.52,11.84,9.04,26.02,14.19,40.27,18.57,.12-.43,.25-.86,.4-1.28,1.5-5.91,5.91-10.97,12.12-12.09,8.08-1.47,17.24,1.63,19.74,10.15,2.53,8.61-2.74,18.93-11.07,22.12Zm126.12,29.28c-8.12,2.94-17.04,2.77-24.95-.82-8.06-3.65-13.05-10.62-17.91-17.66-4.27,14.27-4.08,29.36-3.16,44.24,.44-.04,.89-.07,1.34-.08,6.06-.68,12.35,1.66,15.59,7.07,4.23,7.05,4.56,16.7-2.52,22.06-7.16,5.41-18.68,4.12-24.61-2.55-5.64-6.35-5.33-16.1,.71-22.05,1.27-1.25,2.68-2.22,4.17-2.94-1.03-16.24-1.23-32.69,3.61-48.23-11.03,6.39-21.29,13.99-30.65,22.62,4.74,4.49,7.51,11.66,4.92,17.84-6.03,14.34-28.8,13.68-34.77-.32-3.1-7.28,.75-15.13,7.21-19.01,2.91-1.75,6.1-2.64,9.29-2.72,2.98-.45,6.06-.12,8.79,1.09,11.3-10.52,23.8-19.48,37.43-26.88,4.03-7.86,10.68-13.54,18.47-17.63,7.73-4.06,17.07-7.04,24.56-.97,1.07,.87,1.4,2.74,.4,3.81-6.24,6.62-13.24,12.34-21.19,16.82-.44,.25-.87,.49-1.32,.73,3.45,.59,6.79,1.54,9.88,3.09,7.8,3.9,13.53,10.78,16.27,19.02,.46,1.38-.16,2.98-1.58,3.49Zm85.03-95.48c-.76,3.31-2.32,6.23-4.48,8.58-1.74,2.46-4.11,4.45-6.88,5.58-.25,15.44-2.45,30.66-6.57,45.61,2.87,8.36,2.36,17.09-.09,25.53-2.43,8.38-6.76,17.19-16.32,18.38-1.37,.17-2.95-.89-3.02-2.35-.45-9.09,.28-18.1,2.56-26.93,.13-.48,.25-.97,.38-1.46-2.81,2.08-5.82,3.82-9.08,4.98-8.22,2.92-17.15,2.28-24.99-1.45-1.31-.62-2.03-2.18-1.42-3.55,3.51-7.89,9.81-14.2,17.88-17.42,8.22-3.27,16.7-2.04,25.14-.67-7.32-12.97-18.33-23.29-29.7-32.93-.28,.35-.57,.69-.87,1.02-3.7,4.84-9.76,7.75-15.9,6.34-8.01-1.84-15.2-8.29-14.15-17.11,1.06-8.91,9.98-16.32,18.89-15.97,8.49,.33,15.3,7.32,15.41,15.79,.02,1.78-.26,3.47-.77,5.05,12.42,10.52,24.41,21.77,32.27,36.03,3.04-12.38,4.67-25.04,4.94-37.77-6.52,.3-13.61-2.67-16.27-8.82-6.16-14.28,10.1-30.24,24.33-24.84,7.4,2.81,10.39,11.03,8.71,18.37Z" style="fill:#fff;"/><path d="M585.86,144.84c-5.88-12.37-13.52-24.7-25.42-32.06-12.5-7.73-27.82-9.27-42.12-7.34-9.31,1.26-19,3.84-27.59,8.25-3.05,13.21-5.85,26.48-8.41,39.8,10.31-10.4,24.41-19.12,38.19-16.63,17.56,3.17,28.81,22.7,31.46,38.89,5.72,34.92-19.76,71.8-52.24,83.85-1.47,.55-2.96,1.06-4.46,1.5-3.82,1.12-7.76,1.88-11.73,2.31-8.45,.91-17.08,.23-25.25-2.05-3.39-.95-6.7-2.17-9.87-3.68-.82-.39-1.63-.8-2.43-1.22-5.28,8.84-10.45,17.76-15.48,26.75,17.49,12.95,41.66,14.06,62.69,10.38,26.31-4.61,51.86-16.69,70.9-35.62,19.29-19.16,31.18-45.76,31.2-73.09,0-14.01-3.44-27.44-9.43-40.04Z" style="fill:#fff;"/><path d="M408.33,290.13c2.47-1.18,.97-5.18-1.52-4-3.76,1.79-5.99,5.44-5.75,9.62,.03,.53,.22,.94,.5,1.24,1.32-1.08,2.62-2.16,3.9-3.28,.37-1.54,1.4-2.89,2.87-3.59Z" style="fill:#000c40;"/><path d="M474.33,83.13c.97,4.14,1.67,8.35,2.02,12.62,1.57-2.01,3.07-4.06,4.55-6.14-.43-7.89-1.45-15.77-3.2-23.62-.59-2.65-2.55-3.83-4.62-3.87,.96,3.1,1.62,6.41,1.93,9.96,.33,3.93,.07,7.6-.68,11.05Z" style="fill:#fff;"/><path d="M6.18,84.27c.5,.73,1.04,1.43,1.63,2.09,.96,1.67,1.97,3.3,3.03,4.88,4.97,7.41,11.05,13.84,17.87,19.45,15.35,12.61,34.48,21.06,53.34,27.02,18.29,5.77,37.01,10.42,55.61,15.05,18.98,4.72,38.11,8.79,57.52,11.29,7.53,.97,15.09,1.69,22.65,2.18,1.58,.1,3.17,.21,4.75,.29,2.01,.11,4.02,.19,6.04,.26,6.39,.23,12.78,.3,19.17,.21,56.33-.77,112.53-13.77,164.44-35.27,13.29-5.51,30.95-12.44,44.18-22.79,5.37-4.21,10.01-8.98,13.33-14.45,.19-.31,.39-.62,.57-.94,.12-.21,.22-.42,.33-.63,.1,.77,.19,1.55,.26,2.33,.23,2.52,.34,5.07,.3,7.65-.03,2.1,2.93,4,4.54,2.1,.44-.53,.88-1.06,1.32-1.59,1.39-1.69,2.75-3.4,4.08-5.13,0-2.89-.08-5.78-.23-8.67-1.47,2.07-2.98,4.13-4.55,6.14-.35-4.28-1.06-8.48-2.02-12.62,.75-3.45,1.01-7.12,.68-11.05-.3-3.54-.96-6.85-1.93-9.96-1.9-6.13-5.03-11.42-9-16.03-2.02-2.34-4.25-4.51-6.67-6.52-1.15-.96-2.35-1.87-3.58-2.75-5.18-3.73-10.98-6.86-17.07-9.53-12.1-5.31-25.29-8.84-36.75-11.72C324.85-3.35,246.47-1.5,169.7,2.96c-33.67,1.95-68.04,3.98-100.41,14.21-15.41,4.87-30.36,11.65-43.58,21.01-3.45,2.44-7.02,5.16-10.31,8.18-1.55,1.43-3.03,2.92-4.42,4.48-3.82,4.32-6.83,9.17-8.08,14.62-1.12,.72-1.99,1.86-2.3,3.41-.05,.27-.1,.55-.11,.85-.1,1.76-.19,3.52-.26,5.28,.91,.6,1.8,1.22,2.69,1.86,.64,2.71,1.74,5.21,3.27,7.42Zm7.77-18.31c.14-.41,.29-.81,.47-1.2,.94-2.14,2.23-4.12,3.73-5.95,3.28-4,7.59-7.33,11.61-10.28,12.11-8.86,25.72-15.43,39.93-20.13,29.32-9.71,60.39-12.22,91.03-14.08,70.43-4.29,142.09-7.13,211.77,6.25,16.86,3.24,33.69,7.28,49.98,12.73,2.92,.98,5.86,2.06,8.76,3.25,5.56,2.3,10.95,5.09,15.76,8.59,.09,.08,.19,.16,.3,.22,3.24,2.39,6.2,5.13,8.75,8.27,1.49,1.83,2.85,3.79,4.04,5.92,6.37,11.47,5.15,21.14-.07,29.28-4.36,6.8-11.5,12.54-19.36,17.35-.87,.53-1.76,1.02-2.65,1.53-2.49,1.44-5.01,2.82-7.54,4.09-5.36,2.69-10.64,5.01-15.24,7-41.55,17.97-85.9,30.3-131,35.13-5.58,.6-11.17,1.09-16.76,1.45-14.46,.94-28.97,1.08-43.47,.38-1.95-.09-3.91-.21-5.86-.33-.58-.04-1.16-.06-1.74-.1-36.22-2.5-71.27-11.61-106.23-20.9-21.3-5.66-43.6-11.82-62.49-23.38-2.9-1.77-5.71-3.67-8.43-5.72-4.99-3.75-9.65-7.98-13.89-12.82-.18-.21-.35-.43-.53-.64-.9-1.05-1.74-2.13-2.57-3.23-3.5-3.71-7.05-8.08-8.2-12.67-.05-.09-.1-.17-.14-.26-.43-.81-.64-1.61-.68-2.37-.03-.04-.05-.1-.08-.14-.33-2.4-.03-4.94,.77-7.24Z" style="fill:#000c40;"/><path d="M120.56,260.19c-1.34-2.85-2.59-5.72-3.78-8.61-2.09,2.13-3.49,4.89-4.12,7.84-1.06,3.01-1.35,6.31-.74,9.65,1.35,7.41,7.33,13.79,15.24,13.46,15.2-.64,23.86-21.72,12.57-32.42-4.86-4.61-12.55-4.55-18.42-1.7,1.23,3.05,2.52,6.07,3.93,9.05,1.48,3.14-3.19,5.88-4.67,2.73Zm7.08,1.51c1.51-2.42,5.34-.19,3.83,2.24-2.23,3.57-6.79,5.33-10.79,3.8-2.64-1.01-1.49-5.3,1.18-4.28,2.13,.82,4.54,.24,5.79-1.76Z" style="fill:#ff8199;"/><path d="M167.81,213.27c-6.2,1.12-10.62,6.19-12.12,12.09-.15,.42-.28,.85-.4,1.28,2.58,.79,5.17,1.57,7.74,2.33,3.34,.99,1.91,6.21-1.44,5.22-2.26-.67-4.52-1.35-6.78-2.04,.15,1.65,.56,3.31,1.28,4.94,3.44,7.75,12.45,11.49,20.38,8.45,8.33-3.19,13.61-13.51,11.07-22.12-2.51-8.52-11.66-11.61-19.74-10.15Zm.65,23.36c-1.82,2.07-4.78-1.02-2.97-3.08,1.43-1.63,1.69-4.02,.73-5.94-1.22-2.46,2.5-4.56,3.73-2.09,1.87,3.74,1.26,7.98-1.49,11.11Z" style="fill:#ff8199;"/><path d="M109.19,203.11c1.87,1.78,3.81,3.43,5.83,4.96,8.3-2.06,16.58-4.27,22.85-10.52,6.15-6.13,9.46-14.42,9.57-23.05,.02-1.5-1.26-2.65-2.71-2.71-8.67-.34-17.13,2.59-23.54,8.51-2.54,2.35-4.61,5.14-6.38,8.16-.07-.5-.14-.99-.22-1.49-1.38-9.02-4.26-17.58-8.25-25.76-.64-1.31-2.51-1.67-3.7-.97-8.32,4.87-8.83,14.66-7.76,23.32,1.08,8.73,4.04,16.95,9.97,23.5-.09-.68-.19-1.36-.28-2.04-.31-2.47,3.1-3.36,4.62-1.91Z" style="fill:#0099a9;"/><path d="M443.35,211.9c-8.57,1.44-16.06,6.28-21.15,13.26-.89,1.22-.51,2.89,.64,3.77,6.88,5.29,15.47,7.81,24.12,6.68,.09-.01,.17-.03,.26-.05,3.41-7.5,6.47-15.17,9.25-22.95-4.25-1.04-8.59-1.48-13.12-.72Z" style="fill:#0099a9;"/><path d="M121.85,263.46c-2.67-1.02-3.82,3.26-1.18,4.28,4,1.53,8.57-.23,10.79-3.8,1.51-2.43-2.32-4.66-3.83-2.24-1.25,2-3.65,2.58-5.79,1.76Z" style="fill:#000c40;"/><path d="M166.23,227.61c.96,1.92,.7,4.31-.73,5.94-1.81,2.05,1.15,5.14,2.97,3.08,2.75-3.13,3.36-7.36,1.49-11.11-1.23-2.47-4.95-.37-3.73,2.09Z" style="fill:#000c40;"/><path d="M163.04,228.97c-2.57-.76-5.16-1.53-7.74-2.33-14.25-4.38-28.44-9.54-40.27-18.57-2.01-1.54-3.96-3.19-5.83-4.96-1.52-1.45-4.93-.56-4.62,1.91,.09,.68,.18,1.36,.28,2.04,2.1,15.36,6.08,30.22,11.93,44.51,1.19,2.89,2.44,5.77,3.78,8.61,1.48,3.15,6.15,.4,4.67-2.73-1.4-2.98-2.7-6-3.93-9.05-4.77-11.81-8.25-24.09-10.34-36.67,12.84,10.02,28.3,15.63,43.85,20.41,2.26,.69,4.52,1.37,6.78,2.04,3.35,.99,4.78-4.23,1.44-5.22Z" style="fill:#000c40;"/><path d="M228.63,166.79c-2.01-.07-4.03-.16-6.04-.26-1.58-.08-3.17-.19-4.75-.29-.56,1.17-.98,2.41-1.25,3.69-1.06,3.01-1.35,6.32-.74,9.65,1.35,7.41,7.33,13.79,15.24,13.46,12.55-.53,20.62-14.99,16.71-26.03-6.39,.09-12.78,.02-19.17-.21Zm6.76,7.66c-2.23,3.57-6.79,5.33-10.79,3.8-2.64-1.01-1.49-5.3,1.18-4.28,2.13,.82,4.54,.24,5.79-1.76,1.51-2.42,5.34-.19,3.83,2.24Z" style="fill:#ff8199;"/><path d="M231.57,172.21c-1.25,2-3.65,2.58-5.79,1.76-2.67-1.02-3.82,3.26-1.18,4.28,4,1.53,8.57-.23,10.79-3.8,1.51-2.43-2.32-4.66-3.83-2.24Z" style="fill:#010000;"/><path d="M378.93,160.96c-14.22-5.4-30.48,10.56-24.33,24.84,2.65,6.15,9.74,9.12,16.27,8.82,.07-3.28,.07-6.57-.04-9.86-.12-3.47,5.25-4.15,5.37-.67,.11,3.14,.13,6.28,.08,9.41,2.76-1.13,5.14-3.12,6.88-5.58,2.16-2.35,3.73-5.27,4.48-8.58,1.68-7.35-1.31-15.56-8.71-18.37Zm-2.63,19.61c-1.64-1.59-4.07-2.01-6.01-.66-2.34,1.63-4.98-1.93-2.64-3.56,3.45-2.41,8.34-2.23,11.42,.76,2.03,1.97-.72,5.45-2.77,3.47Z" style="fill:#ff8199;"/><path d="M328.24,191.82c1.81,1.5,3.62,3.02,5.43,4.54,.51-1.58,.79-3.27,.77-5.05-.1-8.48-6.92-15.47-15.41-15.79-8.92-.35-17.83,7.06-18.89,15.97-1.05,8.82,6.14,15.27,14.15,17.11,6.14,1.41,12.2-1.5,15.9-6.34,.31-.33,.59-.67,.87-1.02-2.06-1.75-4.13-3.48-6.2-5.19-2.68-2.22,.69-6.46,3.38-4.23Zm-6.85,4.22c.16,2.74-4.09,3.2-4.25,.45-.24-4.18,1.98-7.83,5.75-9.62,2.48-1.18,3.99,2.82,1.52,4-1.96,.93-3.14,3.03-3.01,5.17Z" style="fill:#ff8199;"/><path d="M364.16,241.03c-1.02-2.37-2.16-4.65-3.4-6.86-8.44-1.38-16.93-2.61-25.14,.67-8.07,3.22-14.37,9.53-17.88,17.42-.61,1.38,.11,2.93,1.42,3.55,7.84,3.73,16.77,4.37,24.99,1.45,3.26-1.16,6.27-2.91,9.08-4.98-.13,.49-.26,.97-.38,1.46-2.28,8.83-3.01,17.84-2.56,26.93,.07,1.46,1.66,2.52,3.02,2.35,9.57-1.19,13.89-9.99,16.32-18.38,2.45-8.45,2.96-17.18,.09-25.53-.18,.66-.36,1.33-.55,1.99-.69,2.39-4.17,1.87-5-.06Z" style="fill:#0099a9;"/><path d="M367.66,176.35c-2.35,1.64,.3,5.19,2.64,3.56,1.94-1.35,4.37-.93,6.01,.66,2.05,1.99,4.8-1.49,2.77-3.47-3.07-2.98-7.96-3.16-11.42-.76Z" style="fill:#000c40;"/><path d="M322.89,186.87c-3.76,1.79-5.99,5.44-5.75,9.62,.16,2.75,4.41,2.29,4.25-.45-.12-2.15,1.05-4.24,3.01-5.17,2.47-1.18,.97-5.18-1.52-4Z" style="fill:#000c40;"/><path d="M376.2,184.09c-.12-3.48-5.49-2.8-5.37,.67,.12,3.29,.11,6.58,.04,9.86-.27,12.73-1.9,25.4-4.94,37.77-7.85-14.26-19.85-25.52-32.27-36.03-1.8-1.53-3.62-3.04-5.43-4.54-2.69-2.23-6.06,2.01-3.38,4.23,2.07,1.72,4.14,3.44,6.2,5.19,11.37,9.64,22.38,19.97,29.7,32.93,1.25,2.21,2.39,4.49,3.4,6.86,.83,1.93,4.31,2.45,5,.06,.19-.66,.37-1.33,.55-1.99,4.12-14.95,6.32-30.17,6.57-45.61,.05-3.13,.03-6.26-.08-9.41Z" style="fill:#000c40;"/><path d="M461.6,178.43c1.51,1.26,3.03,2.53,4.54,3.8,.3,.25,.59,.49,.89,.74,.51-1.58,.79-3.27,.77-5.05,0-.43-.04-.85-.08-1.27-.73-7.89-7.27-14.21-15.33-14.52-8.92-.35-17.83,7.06-18.89,15.97-1.05,8.82,6.14,15.27,14.15,17.11,6.14,1.41,12.2-1.5,15.9-6.34,.31-.33,.59-.67,.87-1.02-2.06-1.75-4.13-3.48-6.2-5.19-2.68-2.22,.69-6.46,3.38-4.23Zm-6.85,4.22c.16,2.74-4.09,3.2-4.25,.45-.24-4.18,1.99-7.83,5.75-9.62,2.49-1.18,3.99,2.82,1.52,4-1.96,.93-3.14,3.03-3.01,5.17Z" style="fill:#ff8199;"/><path d="M402.96,274.79c-8.92-.35-17.83,7.06-18.89,15.97-.72,6.04,2.43,10.96,7.05,14.06,3.61-2.46,7.09-5.07,10.45-7.82-.28-.3-.47-.71-.5-1.24-.24-4.18,1.99-7.83,5.75-9.62,2.49-1.18,3.99,2.82,1.52,4-1.47,.7-2.5,2.05-2.87,3.59,3.82-3.35,7.45-6.89,10.91-10.59-2.63-4.78-7.62-8.12-13.41-8.34Z" style="fill:#ff8199;"/><path d="M456.25,173.48c-3.76,1.79-5.99,5.44-5.75,9.62,.16,2.75,4.41,2.29,4.25-.45-.12-2.15,1.05-4.24,3.01-5.17,2.47-1.18,.97-5.18-1.52-4Z" style="fill:#000c40;"/><path d="M461.6,178.43c-2.69-2.23-6.06,2.01-3.38,4.23,2.07,1.71,4.14,3.44,6.2,5.19,.02,.02,.04,.04,.06,.05,.56-1.89,1.11-3.78,1.66-5.68-1.51-1.27-3.02-2.54-4.54-3.8Z" style="fill:#000c40;"/><path d="M212.94,279.92c2.19-2.26,4.44-4.45,6.73-6.58-2.73-1.21-5.81-1.54-8.79-1.09-3.19,.07-6.38,.97-9.29,2.72-6.46,3.88-10.31,11.73-7.21,19.01,5.97,13.99,28.74,14.65,34.77,.32,2.6-6.18-.18-13.35-4.92-17.84-2.42,2.23-4.79,4.5-7.08,6.87-2.41,2.49-6.63-.91-4.21-3.41Zm.34,11.53c-4.13-.82-7.39-4.47-7.37-8.75,.01-2.83,4.43-3.26,4.42-.41-.01,2.28,1.38,4.33,3.69,4.79,2.8,.56,2.06,4.93-.74,4.37Z" style="fill:#ff8199;"/><path d="M251.76,309.14c-.17-2.35-.34-4.7-.49-7.06-1.49,.73-2.9,1.69-4.17,2.94-6.04,5.95-6.35,15.71-.71,22.05,5.93,6.67,17.45,7.96,24.61,2.55,7.09-5.35,6.75-15.01,2.52-22.06-3.24-5.41-9.54-7.75-15.59-7.07-.45,0-.89,.03-1.34,.08,.17,2.7,.36,5.39,.55,8.07,.25,3.47-5.14,3.98-5.39,.5Zm7.79,2.02c1.87-2.01,5.15,.73,3.27,2.75-2.84,3.07-7.02,4-10.92,2.53-2.57-.97-.73-4.83,1.83-3.86,2.03,.77,4.36,.16,5.82-1.41Z" style="fill:#ff8199;"/><path d="M287.91,252.31c-3.1-1.55-6.44-2.5-9.88-3.09,.44-.24,.88-.49,1.32-.73,7.95-4.47,14.95-10.19,21.19-16.82,1-1.06,.67-2.94-.4-3.81-7.49-6.07-16.83-3.09-24.56,.97-7.79,4.09-14.44,9.77-18.47,17.63,.6-.33,1.21-.66,1.81-.98,2.2-1.16,4.24,1.71,3.42,3.65-1,2.37-1.86,4.78-2.59,7.2,4.86,7.04,9.85,14.01,17.91,17.66,7.91,3.59,16.83,3.76,24.95,.82,1.41-.51,2.04-2.11,1.58-3.49-2.75-8.23-8.47-15.12-16.27-19.02Z" style="fill:#0099a9;"/><path d="M214.03,287.08c-2.32-.46-3.7-2.51-3.69-4.79,.01-2.86-4.4-2.42-4.42,.41-.02,4.28,3.24,7.93,7.37,8.75,2.81,.56,3.54-3.82,.74-4.37Z" style="fill:#000c40;"/><path d="M253.73,312.57c-2.56-.97-4.4,2.89-1.83,3.86,3.9,1.47,8.07,.54,10.92-2.53,1.87-2.02-1.41-4.76-3.27-2.75-1.46,1.58-3.79,2.18-5.82,1.41Z" style="fill:#000c40;"/><path d="M258.91,245.49c-.61,.32-1.21,.65-1.81,.98-13.63,7.39-26.13,16.36-37.43,26.88-2.29,2.13-4.53,4.32-6.73,6.58-2.42,2.5,1.79,5.9,4.21,3.41,2.29-2.36,4.66-4.64,7.08-6.87,9.37-8.63,19.63-16.23,30.65-22.62-4.84,15.55-4.64,31.99-3.61,48.23,.15,2.36,.32,4.71,.49,7.06,.25,3.48,5.64,2.98,5.39-.5-.2-2.68-.39-5.37-.55-8.07-.93-14.88-1.12-29.97,3.16-44.24,.73-2.43,1.58-4.83,2.59-7.2,.82-1.94-1.22-4.81-3.42-3.65Z" style="fill:#000c40;"/><path d="M361.96,318.92c-8.5-1.77-17.32-.29-24.62,4.49-2.89,1.9-5.4,4.3-7.65,6.99,.01-.5,.02-1,.03-1.5,.13-9.12-1.28-18.04-3.87-26.77-.42-1.4-2.2-2.06-3.49-1.57-9.01,3.42-11.14,12.99-11.52,21.71-.19,4.4,.1,8.76,1.05,12.95,17.74-3.08,35.26-8,51.75-15.26-.41-.52-1-.9-1.68-1.04Z" style="fill:#0099a9;"/><path d="M155.58,311.69c-6.26-6.31-15.78-4.68-22.19,.46-2.75,2.2-4.43,5.22-5.11,8.48,.04,.02,.09,.05,.13,.07,3.48,1.81,7,3.44,10.54,4.93-.05-.04-.09-.08-.14-.11-2.25-1.58,.03-5.2,2.29-3.61,2.18,1.53,3.56,3.72,4.04,6.16,4.52,1.67,9.09,3.14,13.7,4.39,3.03-6.72,1.95-15.51-3.26-20.76Z" style="fill:#ff8199;"/><path d="M93.36,286.62c-2.67,1.31-5.13,2.96-7.34,4.88,4.77,4.23,9.73,8.25,14.88,12.05,.04-5.47-1.3-10.9-3.88-15.83-.7-1.33-2.37-1.73-3.67-1.09Z" style="fill:#0099a9;"/><path d="M141.1,321.9c-2.25-1.59-4.53,2.03-2.29,3.61,.05,.03,.09,.08,.14,.11,2.05,.86,4.12,1.67,6.19,2.43-.48-2.44-1.86-4.62-4.04-6.16Z" style="fill:#000c40;"/><path d="M56.27,227.01c-3.04,.82-6.08,1.56-9.14,2.23,1.73,2.43,4.21,4.29,7,5.42,2.78,1.56,5.99,2.42,9.38,2.4,7.53-.04,14.85-4.83,15.9-12.67,2.01-15.08-17.24-27.27-29.74-18.01-5.38,3.99-6.66,11.57-4.87,17.85,3.21-.68,6.42-1.43,9.59-2.29,3.35-.91,5.24,4.16,1.88,5.08Zm5.59-10.09c3.13,2.81,4.07,7.62,1.87,11.29-1.46,2.43-5.47,.55-4.01-1.9,1.17-1.96,1.02-4.43-.73-6-2.12-1.9,.74-5.29,2.87-3.38Z" style="fill:#ff8199;"/><path d="M37.8,182.08c-1.05,2.11-2.11,4.22-3.19,6.32,1.65,.14,3.36,.03,5.09-.4,8.23-2.04,13.48-10.27,11.86-18.61-1.7-8.76-10.95-15.75-19.86-14.75-8.83,.99-13.46,9.46-13.42,17.68,.03,6.3,4.25,11.53,9.8,14.03,.39,.22,.78,.43,1.19,.62,1.23-2.41,2.44-4.82,3.64-7.22,1.55-3.12,6.45-.8,4.89,2.32Zm-7.08-9.74c4.01-1.19,8.08,.14,10.68,3.4,1.72,2.15-1.83,4.53-3.54,2.39-1.36-1.69-3.66-2.36-5.72-1.75-2.63,.78-4.05-3.25-1.41-4.03Z" style="fill:#ff8199;"/><path d="M59.73,226.31c-1.47,2.45,2.55,4.33,4.01,1.9,2.2-3.67,1.26-8.48-1.87-11.29-2.13-1.91-4.99,1.48-2.87,3.38,1.76,1.58,1.91,4.05,.73,6Z" style="fill:#000c40;"/><path d="M37.85,178.13c1.71,2.14,5.26-.24,3.54-2.39-2.6-3.25-6.67-4.59-10.68-3.4-2.64,.78-1.22,4.81,1.41,4.03,2.06-.61,4.37,.06,5.72,1.75Z" style="fill:#000c40;"/><path d="M37.8,182.08c1.56-3.12-3.34-5.44-4.89-2.32-1.2,2.4-2.41,4.81-3.64,7.22-2.22,4.34-4.52,8.65-7,12.85,.84,2.04,1.7,4.07,2.59,6.09,3.53-5.66,6.71-11.56,9.75-17.52,1.08-2.11,2.13-4.22,3.19-6.32Z" style="fill:#000c40;"/><path d="M56.27,227.01c3.36-.91,1.47-5.99-1.88-5.08-3.18,.86-6.38,1.61-9.59,2.29-3.34,.71-6.71,1.31-10.08,1.83,.91,1.67,1.83,3.34,2.77,4.99,3.22-.52,6.44-1.11,9.64-1.81,3.06-.66,6.1-1.4,9.14-2.23Z" style="fill:#000c40;"/><path d="M471.2,102.9c.04-2.58-.06-5.13-.3-7.65-.07-.78-.16-1.55-.26-2.33-.11,.21-.21,.42-.33,.63-.18,.32-.38,.63-.57,.94-3.32,5.47-7.95,10.24-13.33,14.45-.25,.31-.5,.61-.75,.92-5.7,7.12-10.05,15.04-13.36,23.52-.53,1.36,.48,2.98,1.79,3.38,9.22,2.82,16.77-3.43,22.42-10.09,5.69-6.7,9.73-14.46,10.53-23.26-.44,.53-.87,1.06-1.32,1.59-1.61,1.9-4.57,0-4.54-2.1Z" style="fill:#0099a9;"/><path d="M9.36,103.04c.02,.5,.04,1,.07,1.5,.48,9.11,2.5,17.92,5.66,26.45,.51,1.37,2.34,1.91,3.59,1.33,8.5-3.9,10.14-13.13,10.04-21.64-6.82-5.61-12.9-12.04-17.87-19.45-1.06-1.58-2.07-3.21-3.03-4.88-.59-.66-1.13-1.36-1.63-2.09-2.09,.36-4.16,.77-6.18,1.31-.03,8.56,.31,17.17,1.03,25.78,.39-.27,.79-.55,1.17-.84,2.76-2.09,5.1-4.66,7.16-7.48Z" style="fill:#0099a9;"/><path d="M473.1,164.55c2.5-3.62,5.62-7.44,9.21-11.05,2.56-13.32,5.36-26.59,8.41-39.8-3.45,1.77-6.72,3.85-9.73,6.25-3.4,15.26-6.47,30.59-9.21,45.98,.48-.36,.93-.81,1.33-1.38Z" style="fill:#000c40;"/><path d="M439.1,252.17c-5.06,8.48-10.01,17.02-14.84,25.63,1.96,2,4.05,3.8,6.23,5.42,5.03-8.99,10.19-17.91,15.48-26.75-2.38-1.26-4.68-2.69-6.87-4.3Z" style="fill:#000c40;"/></g></g></svg>