<?xml version="1.0" encoding="UTF-8"?><svg id="Layer_2" xmlns="http://www.w3.org/2000/svg" viewBox="0 0 566.95 430.63"><g id="Layer_1-2"><g><path d="M234.52,374.2c-.28,0-.57,0-.85,0-2.51,0-5.02-.02-7.53-.05-9.14-.1-18.28-.36-27.41-.8-2.73-.13-5.45-.28-8.18-.45-3.02-.18-6.04-.4-9.06-.62-1.01,16.32-1.8,32.66-2.38,49.01,.82,.44,1.65,.88,2.49,1.29,2.49,1.23,5.05,2.33,7.65,3.28,20.82,7.59,44.84,6.2,64.41-4.6,1.02-.56,1.94-1.17,2.85-1.73-.75-15.17-1.82-30.33-3.22-45.46-6.27,.12-12.54,.14-18.78,.13Z" style="fill:#ffb003;"/><path d="M322.6,364.69c-3.49,1.15-7.03,2.17-10.62,3.05-14.27,3.46-28.89,5.08-43.58,5.83-2.33,.12-4.67,.21-7.01,.28,1.37,14.78,2.43,29.58,3.18,44.4,2.71,.77,5.38,1.97,8.09,2.89,.77,.26,1.53,.5,2.31,.7,7.3,1.84,14.93,2.75,22.46,2.68,15.19-.16,30.07-4.25,43.24-11.77,2.16-1.23,3.01-3.78,2.49-6.11-.09-.38-.17-.77-.26-1.15-3.36-14.88-6.72-29.76-10.08-44.64-1.89,.81-3.81,1.56-5.74,2.28-1.48,.55-2.97,1.08-4.47,1.58Z" style="fill:#ffb003;"/><path d="M143.58,368.19c-7.71-1.11-15.44-2.34-23.13-3.81-3.55-.68-7.09-1.41-10.62-2.21-4.48,15.08-8.03,30.37-10.66,45.88-.53,3.11,.81,5.52,3.78,6.66,21.73,8.33,45.79,14.71,68.03,6.61,.59-16.58,1.4-33.14,2.42-49.7-9.97-.88-19.92-2.01-29.83-3.44Z" style="fill:#ffb003;"/><path d="M337.04,49.87c-46.18-6.54-93.18-6.28-139.59-2.38-22.01,1.85-43.94,4.55-65.78,7.84-1.26,.19-2.52,.37-3.77,.57-19.12,2.94-39.16,5.33-57.23,12.72,9.71,1.68,19.45,2.98,28.93,4.26,5.87,.79,11.75,1.49,17.64,2.14,27.72,3.07,55.59,4.67,83.46,5.54,30.17,.95,60.4,1.27,90.59,1.1,29.9-.16,59.99-1.33,89.4-7.1,8.44-1.66,17.02-3.56,25.17-6.51-9.18-6.38-20.6-8.86-31.35-11.3-12.38-2.81-24.89-5.1-37.47-6.88Z" style="fill:#000c40;"/><path d="M276.91,340.92c1.86-1,3.75-1.99,5.65-2.98,0,0,0,0,0,0,.86-3.46,1.73-6.91,2.59-10.37,0,0,0,0,0,0-1.8,.82-3.59,1.66-5.36,2.54-.06,.03-.11,.06-.17,.08-1.75,.87-3.49,1.76-5.2,2.69-.95,.51-1.88,1.04-2.82,1.58-.65,.37-1.29,.76-1.93,1.15-.24,.15-.49,.29-.74,.44-.81,.5-1.62,1.01-2.43,1.53-.04,.03-.09,.06-.14,.09-.85,.55-1.7,1.12-2.54,1.69,0,0,0,0,0,0,.29,.67,.3,1.47-.18,2.29-1.63,2.81-3.1,5.7-4.44,8.65,3.44-1.86,6.89-3.68,10.33-5.49,2.46-1.29,4.92-2.58,7.35-3.89Z" style="fill:#fff;"/><path d="M317.01,317.9c1.25-.93,2.48-1.88,3.69-2.86,.78-.64,1.56-1.29,2.32-1.96-2.44,.88-4.9,1.75-7.36,2.63-.2,.07-.4,.14-.6,.21,.03,.45-.03,.92-.25,1.4-.44,.97-.81,1.96-1.15,2.97,.25-.17,.5-.35,.75-.53,.87-.61,1.74-1.23,2.6-1.86Z" style="fill:#fff;"/><path d="M242.92,359.92c1.03-.68,2.07-1.35,3.12-2,.46-.29,.91-.57,1.37-.86,1.41-.86,2.82-1.71,4.25-2.54,0,0,0,0,0,0,1.13-3.03,2.4-6,3.8-8.9,0,0,0,0,0,0-1.35,1.1-2.68,2.22-3.98,3.37-4.78,4.26-10.28,9.14-14.08,14.76,1.38-1.01,2.79-1.99,4.2-2.95,.44-.3,.88-.59,1.32-.88Z" style="fill:#fff;"/><path d="M293.74,332.11c2.92-1.55,5.82-3.12,8.68-4.77,.08-.05,.16-.09,.25-.14,1.46-.84,2.91-1.7,4.34-2.58,.38-2.2,.95-4.34,1.69-6.42-.12,.04-.24,.09-.35,.13-1.72,.62-3.43,1.25-5.14,1.89-.44,.16-.88,.33-1.32,.49-1.98,.74-3.95,1.5-5.91,2.28-.49,.19-.98,.39-1.46,.59-.84,.34-1.68,.68-2.52,1.03-.24,.1-.47,.2-.7,.3,0,.23-.02,.46-.08,.71-.75,3-1.5,5.99-2.25,8.99,1.38-.72,2.77-1.44,4.15-2.17,.21-.11,.41-.22,.62-.33Z" style="fill:#fff;"/><path d="M426.72,153.13c.21-.93,.42-1.86,.63-2.79,.7-3.2,1.4-6.39,2.09-9.59,.07-.33,.14-.66,.21-1-7.81,3.55-16.07,5.89-24.49,7.67,7.47,.24,14.93,2.22,21.57,5.72Z" style="fill:#fff;"/><path d="M365.25,155.35c.05-.34,.12-.68,.21-1.01-2.37,.39-4.74,.78-7.11,1.18-.06,.13-.13,.27-.2,.38,3.05,2.1,5.92,4.42,8.5,7.01-1.23-2.18-1.82-4.74-1.4-7.56Z" style="fill:#fff;"/><path d="M283.44,343.56c-2.28,1.22-4.59,2.43-6.91,3.64-2.75,1.43-5.52,2.86-8.29,4.31,0,0-.02,0-.03,.01,6.53,0,13.15,.76,19.27,1.58,.36,.05,.67,.16,.96,.31,.28-.1,.56-.19,.84-.29,.27-.1,.54-.2,.81-.3,.91-.34,1.83-.7,2.73-1.07,.05-.02,.09-.04,.14-.06,.66-.28,1.32-.56,1.97-.86,.08-.03,.15-.07,.23-.11,.63-.29,1.26-.58,1.88-.89,.07-.03,.14-.07,.2-.1,.64-.32,1.28-.64,1.91-.98,.04-.02,.08-.04,.12-.06,1.04-.55,2.06-1.13,3.06-1.74,.36-.22,.7-.45,1.06-.68,.62-.39,1.23-.77,1.83-1.18-6.62-1.05-13.24-1.98-19.96-2.1-.22,0-.43-.03-.63-.08-.4,.21-.81,.43-1.21,.64Z" style="fill:#fff;"/><path d="M249.66,361.91c.92-.23,1.84-.45,2.77-.66,.29-.07,.58-.13,.87-.19,.65-.14,1.31-.28,1.97-.42,.32-.07,.64-.13,.96-.2,.7-.14,1.4-.28,2.1-.41,.64-.12,1.28-.24,1.92-.36,.41-.07,.81-.15,1.22-.22,1.41-.25,2.82-.5,4.22-.74,1.46-.26,2.93-.51,4.38-.78,.02,0,.03,0,.05,0,1.44-.26,2.88-.53,4.31-.82,.02,0,.04,0,.06-.01-6.35-.42-12.8-.31-18.6,1.11-.96,.55-1.92,1.1-2.87,1.67-1.12,.67-2.25,1.34-3.35,2.03Z" style="fill:#fff;"/><path d="M322.38,323.82s0,0,0,0c.56-1.47,1.08-2.95,1.57-4.46-1.74,1.41-3.54,2.76-5.36,4.06,1.25,.18,2.52,.32,3.79,.4Z" style="fill:#fff;"/><path d="M311.01,340.57s.06-.06,.09-.09c.57-.51,1.12-1.04,1.67-1.57,.1-.1,.2-.19,.3-.29,.6-.6,1.19-1.21,1.76-1.85,.56-.62,1.08-1.26,1.58-1.9,.33-.42,.63-.86,.93-1.29,.15-.21,.3-.41,.44-.63,.39-.58,.76-1.17,1.11-1.77,.03-.05,.07-.11,.1-.16,.37-.64,.73-1.29,1.07-1.95,0-.01,0-.02,.01-.03-2.64-.27-5.24-.74-7.82-1.39-5.98,3.77-12.24,7.15-18.5,10.45,5.78,.58,11.52,1.53,17.27,2.46Z" style="fill:#fff;"/><path d="M440.04,58c-1.83,2.49-4.03,4.77-6.34,6.79-1.79,1.56-3.65,2.98-5.48,4.21-6.7,4.52-14.13,7.78-21.83,10.29-5.86,15.4-15.39,29.28-27.81,40.19-13.85,12.17-29.75,18.12-46.67,23.71,4.2,1.25,8.34,2.87,12.44,4.86,3.12,1.51,6.24,3.14,9.27,4.94,.07-.17,.16-.32,.23-.48,.04-.57,.28-1.09,.71-1.47,6.47-12.66,19.89-20.57,33.34-24.25,14.5-3.97,29.92-3.23,44.3,.87,4.33-20.56,8.44-41.16,12.29-61.81,.83-4.43,1.64-8.86,2.45-13.29,.37-2.01-.29-3.68-1.42-4.86-.2-.21-.42-.41-.65-.59-.14,.9-.34,1.79-.6,2.66-.86,2.92-2.35,5.68-4.23,8.23Z" style="fill:#0099a9;"/><path d="M47.94,130.8c7.46,.98,14.4,4.74,19.36,10.39,3.92,4.46,6.23,8.43,12.86,8.48,5.32,.04,10.88-1.49,16.11-2.36,.03,0,.05,0,.08,0,5.53-4.85,10.57-10.12,13.6-16.88-2.65-2.18-5.6-4.03-8.5-5.48-5.03-2.51-10.35-4.37-15.48-6.65-2.83-1.26-5.07-2.58-5.82-5.34-22.45,8.61-49.42,6.37-65.54-11.69-1.17,.41-2.39,.66-3.62,.73,2.96,11.98,5.93,23.97,8.89,35.95,1.24-.61,2.47-1.2,3.65-1.78,7.6-3.74,15.83-6.5,24.4-5.37Z" style="fill:#0099a9;"/><path d="M34.53,152.45c-1.23-1.08-2.46-2.16-3.69-3.23-2.47-2.15-4.95-4.28-7.44-6.4-.12-.1-.22-.21-.31-.32h0c-.61,.33-1.23,.66-1.84,1,1.1,4.46,2.21,8.92,3.31,13.38,4-1.13,8.02-2.14,12.05-3.07-.86-.53-1.87-1.15-2.09-1.35Z" style="fill:#fff;"/><path d="M40.03,136.31c-.48,.06-.96,.11-1.43,.2-.01,0-.02,0-.04,0-.45,.08-.91,.17-1.36,.27-.11,.02-.23,.05-.34,.08-.36,.08-.72,.17-1.08,.26-.49,.13-.98,.27-1.47,.42-.54,.17-1.07,.35-1.6,.54-.32,.12-.64,.24-.96,.36-.19,.07-.38,.14-.57,.21-.43,.17-.86,.35-1.29,.53-.06,.03-.12,.05-.19,.08-.48,.21-.96,.42-1.44,.64,0,0,0,0,0,0,3.13,2.68,6.25,5.36,9.35,8.08,1.46,1.28,3.83,2.7,5.02,4.51,3.92-.81,7.86-1.53,11.82-2.16,0,0,0,0,0,0-4.44-4.46-9-8.78-13.7-12.95-.37-.33-.6-.69-.73-1.07Z" style="fill:#fff;"/><path d="M59.03,140.88c-.45-.32-.9-.63-1.35-.92-.22-.14-.45-.27-.68-.4-.23-.14-.46-.28-.69-.41-.31-.17-.63-.33-.95-.48-.15-.07-.3-.15-.45-.23-.37-.18-.75-.34-1.13-.49-.09-.04-.19-.08-.28-.12-.42-.17-.85-.32-1.28-.46-.05-.02-.1-.04-.15-.05-.46-.15-.93-.29-1.39-.41-.02,0-.04-.01-.06-.02-.49-.13-.98-.24-1.47-.34,0,0,0,0,0,0-.5-.1-1-.18-1.5-.25,0,0,0,0,0,0,4.53,4.13,8.93,8.38,13.2,12.78,.09,.09,.15,.18,.22,.27,0,0,0,0,0,0,1.79-.24,3.59-.46,5.38-.67-2.36-2.69-4.5-5.68-7.42-7.81Z" style="fill:#fff;"/><path d="M56.87,162.51c.77-.6,1.54-1.19,2.28-1.82,.04-.04,.08-.07,.12-.11,.69-.59,1.36-1.19,2.03-1.81,.1-.09,.2-.18,.3-.28,.6-.57,1.19-1.15,1.77-1.74,.13-.14,.27-.27,.41-.41,.69-.71,1.36-1.43,2.02-2.18-1.61,.19-3.22,.4-4.83,.62-1.64,2.43-2.89,5.06-4.1,7.73Z" style="fill:#fff;"/><path d="M30.84,174.73c1.3-3.69,2.6-7.38,3.9-11.08,.25-.71,1.12-2.49,1.91-4.3-3.61,.85-7.21,1.76-10.78,2.77,1.1,4.44,2.2,8.88,3.29,13.32,.54-.11,1.07-.25,1.6-.38,.03-.11,.04-.22,.08-.33Z" style="fill:#fff;"/><path d="M40.67,163.08c-1.19,3.37-2.37,6.75-3.56,10.12,.29-.1,.59-.19,.87-.29,.21-.08,.43-.15,.64-.23,1.06-.39,2.11-.8,3.14-1.25,.2-.08,.4-.17,.59-.26,1.08-.47,2.15-.96,3.21-1.49,.01,0,.02-.01,.03-.02,.91-.46,1.81-.96,2.7-1.46,.03-.38,.13-.77,.36-1.18,2.07-3.6,3.54-7.51,5.43-11.19-3.78,.62-7.55,1.35-11.3,2.14-.64,1.84-1.62,3.68-2.12,5.1Z" style="fill:#fff;"/><path d="M10.69,66.42c-.24-1.39,.1-2.91,1.3-4.3,.1-.11,.22-.24,.33-.36-.05-.03-.11-.05-.16-.08-1.08-.57-2.17-1.13-3.24-1.74-1.66,.56-3.58,.3-5.18-1.38-.84-.88-1.51-1.76-2.05-2.64-.96,1.16-1.43,2.74-.97,4.62,1.92,7.78,3.85,15.56,5.77,23.34,.67-.32,1.34-.62,2.04-.87-.43-5.65,.37-11.28,2.14-16.59Z" style="fill:#0099a9;"/><path d="M366.2,269.03c2.41,2.65,4.82,5.3,7.21,7.97,.03,.03,.06,.07,.09,.1,.44-2.18,.52-5,.77-6.38,.51-2.83,1.03-5.67,1.54-8.5-.02-.03-.03-.06-.05-.1-.39-.77-.79-1.53-1.19-2.3-.21-.4-.43-.81-.65-1.21-.29-.55-.59-1.1-.89-1.65-.21-.39-.43-.78-.64-1.16-.38-.68-.77-1.35-1.16-2.03-.14-.24-.27-.48-.41-.72-.52-.89-1.06-1.77-1.6-2.64-.16-.26-.33-.52-.5-.78-.42-.66-.86-1.32-1.3-1.97-.18-.26-.35-.53-.53-.79-.6-.87-1.22-1.74-1.85-2.58-.17-.23-.37-.44-.55-.67,.31,8.18,.63,16.36,.94,24.54,.26,.28,.51,.57,.77,.85Z" style="fill:#fff;"/><path d="M352.1,252.92c.05,.06,.1,.12,.14,.17,.76,.93,1.54,1.86,2.32,2.78,.06,.07,.11,.13,.17,.2,1.65,1.95,3.35,3.88,5.05,5.81-.29-7.66-.59-15.33-.88-22.99-.01-.38,.05-.72,.15-1.02-.08-.08-.17-.15-.25-.23-.57-.51-1.15-1.01-1.74-1.5-.19-.16-.38-.31-.57-.47-.59-.48-1.19-.95-1.79-1.42-.23-.18-.47-.35-.7-.53-.57-.43-1.14-.86-1.72-1.28-.33-.24-.66-.47-.99-.7-.5-.35-1.01-.7-1.51-1.05-.02,6.41-.04,12.82-.07,19.23,0,0,0,0,0,0,.79,1,1.59,2,2.4,2.99Z" style="fill:#fff;"/><path d="M332.35,220.36c.28,.76,.58,1.52,.88,2.27,.15,.37,.3,.73,.45,1.09,.32,.75,.64,1.49,.98,2.23,.14,.31,.28,.63,.43,.94,.46,.99,.94,1.97,1.44,2.95,.02,.04,.04,.08,.06,.12,.54,1.04,1.1,2.08,1.67,3.1,.12,.22,.25,.43,.37,.65,.45,.8,.92,1.59,1.39,2.37,.16,.27,.33,.54,.49,.8,.47,.76,.95,1.52,1.44,2.27,.14,.22,.29,.45,.43,.67,.63,.96,1.27,1.9,1.92,2.84,0,0,0,0,0,0,.02-5.23,.04-10.46,.05-15.69,0,0,0,0,0,0-.53-.37-1.06-.74-1.6-1.11-4.26-2.99-8.23-6.26-11.9-9.85,.35,1.12,.72,2.22,1.11,3.32,.12,.34,.25,.68,.38,1.01Z" style="fill:#fff;"/><path d="M386.85,289.64c-.13-.62-.26-1.24-.41-1.86-.14-.56-.3-1.11-.45-1.66-.13-.47-.25-.94-.39-1.41-.19-.64-.4-1.28-.61-1.92-.12-.36-.23-.73-.36-1.09-.25-.72-.51-1.44-.78-2.15-.1-.27-.2-.53-.3-.8-.31-.79-.62-1.58-.95-2.36-.07-.18-.14-.35-.22-.53-.36-.86-.74-1.72-1.13-2.57-.04-.09-.08-.17-.12-.26-.42-.93-.86-1.85-1.31-2.77,0,0,0,0,0,0l-.96,5.31c-.31,1.69-.4,4.38-1.04,6.46,1.65,1.91,3.28,3.84,4.87,5.79,.11,.14,.23,.28,.34,.42,.63,.78,1.26,1.56,1.88,2.35,.18,.23,.36,.45,.53,.68,.74,.95,1.47,1.9,2.19,2.86-.14-1.07-.32-2.14-.53-3.2-.08-.43-.19-.85-.28-1.28Z" style="fill:#fff;"/><path d="M386.17,150.89c-1.46,.25-2.91,.5-4.37,.74,.33,.3,.66,.59,.97,.91,1.11-.61,2.25-1.16,3.4-1.65Z" style="fill:#fff;"/><path d="M357.6,127.23c6.01-3.12,11.77-6.84,17.16-11.57,10.81-9.5,19.35-21.25,25.01-34.39-4.02,1.1-8.07,2.04-12.1,2.89-5.67,1.2-11.37,2.22-17.09,3.11,2.19,14.69-2.73,29.49-12.97,39.97Z" style="fill:#0099a9;"/><path d="M355.98,120.98c.32-.39,.64-.78,.95-1.18,.15-.19,.3-.38,.44-.58,.34-.46,.67-.93,1-1.4,.08-.12,.17-.24,.25-.36,.38-.56,.73-1.14,1.08-1.71,.15-.24,.28-.49,.42-.73,.21-.37,.42-.74,.62-1.12,.14-.27,.29-.54,.43-.81,.2-.4,.39-.8,.58-1.2,.11-.23,.2-.46,.3-.69-1.62,.85-3.23,1.74-4.81,2.67-.11,.06-.22,.1-.32,.15-.4,1.47-.82,2.93-1.27,4.39-.02,.06-.03,.12-.05,.18-.47,1.5-.96,3.01-1.49,4.51,.5-.52,.97-1.05,1.44-1.59,.15-.17,.29-.34,.43-.51Z" style="fill:#fff;"/><path d="M360.96,93.44c-.61,4.54-1.36,9-2.31,13.42,0,0,0,0,0,0,1.5-.8,3.02-1.58,4.57-2.31,.43-.2,.85-.28,1.25-.28,0,0,0,0,0,0,.3-1.22,.55-2.45,.74-3.7,.02-.1,.04-.21,.05-.31,.07-.45,.12-.9,.17-1.35,.03-.29,.07-.58,.1-.87,.04-.4,.06-.8,.09-1.21,.02-.35,.04-.7,.06-1.05,.01-.37,.02-.74,.03-1.1,0-.4,0-.8,0-1.2,0-.33-.01-.66-.02-.99-.02-.47-.05-.95-.09-1.42-.02-.26-.03-.53-.06-.79-.07-.74-.16-1.49-.28-2.23-1.22,.17-2.44,.33-3.67,.49-.18,1.55-.37,3.09-.57,4.63-.01,.09-.03,.19-.04,.28Z" style="fill:#fff;"/><path d="M87.14,265.22c.4,2.21,.79,4.42,1.17,6.64,.13,.79,.27,1.58,.4,2.37,.26,1.55,.51,3.09,.76,4.64,.13,.79,.26,1.59,.38,2.38,.31,1.94,.61,3.88,.9,5.81,.09,.62,.19,1.24,.28,1.86,.3,1.95,.59,3.91,.88,5.86,.3,2.03,.61,4.07,.91,6.1,.12,.84,.25,1.67,.37,2.51,.36,2.39,.72,4.77,1.08,7.15,.28-1.26,.56-2.53,.83-3.8,.04-.2,.08-.41,.13-.61,.23-1.09,.46-2.18,.69-3.28,.03-.14,.06-.28,.08-.42,.24-1.17,.47-2.34,.7-3.51,.01-.07,.03-.14,.04-.21,.24-1.24,.47-2.49,.69-3.73,0-.02,0-.04,.01-.06,.23-1.3,.45-2.61,.66-3.92,.16-.98,.3-1.96,.45-2.95,.05-.34,.11-.68,.15-1.02,.13-.9,.24-1.8,.36-2.7,.06-.44,.12-.88,.17-1.32,.1-.81,.18-1.62,.27-2.42,.05-.45,.1-.89,.14-1.34-3.93-4.9-8.11-9.57-12.51-14.04,0,0,0,0,0,.01Z" style="fill:#fff;"/><path d="M74.03,198.47c.05,.73,.11,1.45,.17,2.18,.04,.42,.08,.84,.12,1.26,.07,.67,.14,1.34,.21,2.01,.05,.43,.1,.87,.15,1.3,.08,.7,.18,1.39,.27,2.08,.08,.59,.16,1.18,.25,1.76,.12,.78,.23,1.56,.36,2.34,.09,.58,.19,1.15,.29,1.73,.08,.46,.16,.93,.24,1.39,.11,.62,.23,1.24,.34,1.86,.03,.18,.07,.36,.1,.55,4.95-.05,9.93,1.6,14.35,4.1,0-.01-.01-.02-.02-.03-1.68-3.59-3.54-7.11-5.58-10.52,0,0,0-.01-.01-.02-.66-1.1-1.33-2.19-2.02-3.27-.03-.05-.06-.1-.09-.15-.65-1.02-1.32-2.03-2-3.03-.07-.11-.14-.22-.22-.32-.64-.93-1.29-1.85-1.95-2.77-.12-.17-.24-.34-.36-.5-.63-.86-1.27-1.72-1.92-2.56-.16-.21-.31-.42-.47-.62-.81-1.04-1.62-2.07-2.46-3.09,.03,1.09,.09,2.18,.15,3.26,.02,.36,.05,.72,.07,1.08Z" style="fill:#fff;"/><path d="M82.53,243.33c.53,2.24,1.05,4.48,1.55,6.72,.43,1.93,.83,3.87,1.23,5.81,5.28,4.93,10.25,10.15,14.92,15.65,0-.17,.02-.34,.03-.52,.05-1.12,.09-2.23,.11-3.35,0-.41,.03-.82,.03-1.23,.02-1.53,.02-3.06-.01-4.6,0-.24-.01-.48-.02-.72-.03-1.28-.09-2.55-.17-3.83-.02-.38-.04-.75-.07-1.13-.11-1.52-.23-3.03-.4-4.55-.08-.7-.19-1.39-.28-2.08-.41-.09-.82-.27-1.21-.58-3.93-3.22-10.3-5.81-15.7-5.59Z" style="fill:#fff;"/><path d="M77.81,223.12c.51,2.34,1.03,4.68,1.58,7.02,.03,.12,.06,.25,.09,.37,.59,2.51,1.19,5.01,1.79,7.52,0,0,0,0,0,0,5.73-.48,11.86,1.34,16.91,4.34-.03-.12-.05-.24-.07-.35-.05-.24-.12-.49-.17-.73-.21-.89-.42-1.78-.65-2.67-.12-.47-.25-.93-.38-1.4-.17-.62-.35-1.24-.53-1.85-.18-.61-.37-1.21-.56-1.82-.14-.43-.28-.85-.42-1.27-.24-.72-.48-1.44-.74-2.15,0-.02-.02-.05-.03-.07-.3-.11-.59-.27-.86-.51-4.35-3.75-10.2-6.78-16.1-7.16,.05,.24,.1,.48,.15,.72Z" style="fill:#fff;"/><path d="M346.29,254s-.01,0-.02,0c-4.73-1.83-9.53-3.4-14.41-4.74,0,0,0,0,0,0,.19,.73,.4,1.46,.61,2.18,.14,.49,.3,.97,.45,1.45,.14,.42,.28,.85,.42,1.27,.24,.69,.48,1.39,.74,2.07,.18,.49,.37,.98,.56,1.47,.19,.46,.38,.93,.58,1.39,.19,.45,.39,.89,.59,1.33,.3,.65,.6,1.29,.92,1.93,.23,.47,.47,.94,.72,1.41,.22,.41,.43,.81,.66,1.21,.06,.1,.12,.2,.18,.3,6.49,.71,12.98,1.43,19.47,2.14-3.94-4.4-7.81-8.83-11.47-13.4Z" style="fill:#fff;"/><path d="M373.8,285.4c-1.11,.15-2.28,.14-3.25,.26-1.48,.18-2.94,.44-4.4,.72,.2,.06,.39,.13,.59,.19,1.21,.37,2.42,.73,3.64,1.09,.71,.21,1.42,.43,2.13,.64,.55,.17,1.1,.34,1.65,.51,.3,.1,.61,.19,.91,.29,.86,.28,1.71,.56,2.56,.86-1.25-1.53-2.53-3.05-3.82-4.56,0,0,0,0,0,0Z" style="fill:#fff;"/><path d="M338.64,243.72s-.03-.04-.04-.06c-1.68-2.47-3.27-4.99-4.75-7.57-.07-.13-.14-.25-.21-.38-.39-.68-.77-1.37-1.14-2.07-.13-.24-.26-.48-.38-.72-.31-.6-.62-1.19-.93-1.8-.14-.28-.28-.55-.41-.83-.3-.6-.58-1.21-.87-1.82-.12-.26-.24-.52-.36-.78-.39-.86-.77-1.73-1.14-2.61,.07,1.41,.17,2.81,.28,4.21,.02,.29,.05,.58,.07,.88,.11,1.27,.23,2.55,.37,3.82,.01,.13,.03,.26,.04,.38,.34,3,.78,5.99,1.35,8.93,0,0,0,0,0,0,3.32,.85,6.6,1.8,9.84,2.87-.58-.81-1.15-1.63-1.7-2.45Z" style="fill:#fff;"/><path d="M369.57,280.55c-2.1-2.37-4.22-4.72-6.34-7.07-.03-.04-.07-.07-.1-.11-.1,0-.21,.02-.31,0-6.9-.76-13.8-1.52-20.69-2.27,.29,.39,.58,.77,.89,1.15,.23,.28,.44,.57,.68,.85,.68,.82,1.39,1.63,2.14,2.43,.47,.5,.96,.97,1.45,1.43,.16,.15,.32,.29,.48,.43,.35,.3,.7,.6,1.05,.89,.19,.15,.38,.3,.57,.45,.36,.28,.74,.54,1.11,.8,.17,.12,.34,.25,.52,.36,.5,.34,1.02,.65,1.54,.96,.27,.16,.55,.31,.83,.47,.28,.16,.56,.31,.84,.46,.32,.17,.64,.33,.96,.49,.23,.11,.47,.23,.7,.34,.36,.17,.73,.33,1.1,.49,2.85-.84,5.71-1.57,8.64-2.1,.9-.16,2.52-.21,3.99-.39-.01-.02-.03-.03-.04-.05Z" style="fill:#fff;"/><path d="M167.91,157.66c.43-.8,.85-1.6,1.25-2.4,.08-.15,.15-.3,.23-.46,.33-.67,.67-1.34,.99-2.01,.05-.1,.09-.2,.14-.3,.35-.73,.69-1.47,1.03-2.21,.02-.04,.04-.09,.06-.13,.36-.8,.71-1.6,1.06-2.41,0,0,0,0,0,0-4,.07-8,.01-12.01-.15-.12,.49-.25,.98-.36,1.48,2.85,2.55,5.41,5.45,7.61,8.6Z" style="fill:#fff;"/><path d="M176.2,130.25c-2.68,.3-5.37,.61-8.05,.91-.1,.15-.19,.29-.29,.44-.43,.65-.84,1.3-1.25,1.96-.18,.3-.36,.61-.54,.92-.36,.61-.71,1.22-1.04,1.84-.23,.43-.44,.86-.65,1.29-.26,.52-.53,1.03-.77,1.56-.45,.97-.87,1.95-1.25,2.95-.01,.04-.03,.08-.04,.12,4.19,.14,8.38,.15,12.58,.03,0,0,0,0,0-.01,.49-1.25,.98-2.51,1.46-3.77,.5-1.31,.99-2.63,1.49-3.95,.07-.18,.14-.37,.21-.55,.43-1.16,.85-2.31,1.26-3.48,.08-.23,.16-.47,.24-.7-.98-.09-2.48,.36-3.36,.46Z" style="fill:#fff;"/><path d="M180.79,124.32c.18,.01,.35,.03,.52,.06,.23-.79,.46-1.59,.67-2.38,.06-.21,.11-.43,.16-.64,.17-.66,.33-1.32,.48-1.99,.1-.45,.19-.9,.28-1.35,.1-.48,.2-.97,.28-1.45,.17-.98,.32-1.95,.43-2.94-2.15,1.75-4.05,3.92-5.89,5.86-1.71,1.8-3.37,3.64-4.96,5.55,0,0,0,0,0,0,2.72-.46,5.53-.89,8.03-.71Z" style="fill:#fff;"/><path d="M345.62,117.74c.05,.23,.11,.46,.16,.7,.16,.64,.32,1.28,.5,1.91,.03,.09,.05,.18,.08,.27,.17,.58,.35,1.16,.53,1.74,.06,.18,.11,.35,.17,.53,.22,.65,.44,1.29,.67,1.92,.52-1.3,1-2.61,1.46-3.91,.17-.47,.32-.95,.48-1.42,.28-.82,.55-1.64,.8-2.47,.18-.58,.36-1.15,.53-1.73,.22-.74,.42-1.48,.62-2.21,.16-.59,.33-1.19,.49-1.78,0,0,0,0,0,0-.26-.26-.47-.58-.63-.97-1.49-3.78-4.23-6.87-6.51-10.22-.07,.36-.15,.72-.21,1.08,0,.02,0,.04-.01,.06-.08,.49-.15,.99-.21,1.49-.03,.24-.06,.48-.08,.73-.04,.38-.07,.77-.1,1.15-.02,.25-.02,.49-.03,.74-.03,.64-.04,1.29-.03,1.94,0,.28,0,.56,.01,.84,.01,.36,.02,.73,.04,1.09,.02,.45,.06,.89,.1,1.34,.04,.42,.08,.85,.13,1.27,.04,.37,.09,.74,.14,1.11,.04,.3,.08,.61,.13,.91,.09,.6,.19,1.21,.31,1.81,.04,.21,.09,.42,.13,.63,.1,.48,.2,.96,.31,1.44Z" style="fill:#fff;"/><path d="M347.41,93.27c-.03,.06-.06,.12-.1,.18,.11,.14,.21,.3,.3,.48,1.71,3.46,4.14,6.43,6.24,9.62,.18-.92,.37-1.84,.54-2.76,.07-.41,.15-.83,.22-1.24,.14-.82,.27-1.64,.4-2.46,.1-.65,.2-1.29,.29-1.94,.09-.64,.19-1.28,.27-1.92,.18-1.34,.35-2.68,.51-4.03-2.15,.25-4.29,.47-6.44,.68-.45,.56-.87,1.13-1.26,1.73-.35,.54-.67,1.09-.97,1.65Z" style="fill:#fff;"/><path d="M135,130.74c1.39,2.19,2.17,4.73,2.5,7.33,5.61,.82,10.92,2.83,15.72,5.72,.89,.05,1.79,.33,2.61,.92,1.92-6.83,5.26-13.21,9.57-19.03,4.78-6.45,11.2-15.26,18.96-18.99,.25-.37,.6-.65,.99-.83-2.16-4.74-4.66-9.36-7.16-13.88-.47-.51-.93-1.03-1.4-1.55-21.25-1.04-42.48-2.64-63.62-5.07-5.87,10.97-15.89,19.65-27.6,25.27,3.47,3.23,10.28,3.5,14.44,5.02,4.33,1.58,8.38,3.75,12,6.6,3.35,2.65,6.14,5.85,8.26,9.42,.45-.67,.96-1.32,1.58-1.92,3.85-3.78,10.08-3.87,13.17,1Z" style="fill:#0099a9;"/><path d="M183.48,134.83s0,0,0,0c-.62,1.7-1.26,3.39-1.9,5.08-.68,1.79-1.37,3.58-2.08,5.36,0,0,0,0,0,0,1.4,3.96,2.77,7.93,4.12,11.9,.62-1.14,1.21-2.28,1.77-3.44,.18-.38,.36-.75,.54-1.13,.19-.4,.38-.81,.56-1.21,.37-.83,.73-1.65,1.07-2.49,.05-.11,.09-.23,.14-.34,.37-.93,.72-1.87,1.04-2.82,0,0,0,0,0,0-.1-.16-.19-.34-.27-.53-1.4-3.64-3.13-7.02-4.99-10.39Z" style="fill:#fff;"/><path d="M177.34,167.41c.11-.16,.21-.31,.32-.47,.8-1.19,1.58-2.4,2.35-3.61,.11-.17,.21-.34,.31-.51-.41-.3-.74-.74-.94-1.33-.98-2.94-1.99-5.87-3-8.8,0,0,0,0,0,0-.39,.86-.78,1.71-1.19,2.56-.04,.09-.09,.17-.13,.26-.37,.76-.74,1.53-1.12,2.28-.15,.3-.31,.59-.46,.88-.29,.56-.58,1.13-.88,1.68-.47,.87-.96,1.74-1.46,2.6,1.42,2.68,2.6,5.47,3.49,8.36,.92-1.28,1.82-2.59,2.71-3.9Z" style="fill:#fff;"/><path d="M188.38,118.21c-.04,.22-.09,.43-.14,.65-.17,.87-.35,1.74-.56,2.61-.04,.17-.09,.33-.13,.5-.23,.92-.46,1.84-.72,2.75-.02,.08-.05,.16-.07,.24-.28,1-.58,1.99-.9,2.98,0,0,0,0,0,0,2.01,2.73,3.66,5.86,5.08,9.06,.03-.2,.07-.39,.1-.58,1.12-7.47,.06-14.61-2.14-21.48-.14,1.1-.32,2.19-.52,3.27Z" style="fill:#fff;"/><path d="M200.14,104.51c5.21,3.94,10.69,7.52,16.43,10.72,2.03-1.71,4.8-2.42,7.76-1.39,2.45,.85,4.64,2.36,6.51,4.19,4.1-2.38,8.55-3.96,13.14-4.84,4.88-.62,9.77-.77,14.63-.43,12.38,1.52,24.28,7.7,31.93,17.59,2.89,3.74,5.51,7.67,7.8,11.75,8.01-1.92,15.88-2.21,23.58-1.11,.26-.22,.57-.41,.96-.53,7.65-2.49,15.15-4.87,22.39-7.7-6.17-12.55-9.18-29.89-2.53-42.24-17.46,1.44-35.03,1.9-52.53,1.98-33.7,.16-67.45-.2-101.13-1.51-1.11-.04-2.21-.1-3.32-.15,4.62,4.73,9.4,9.31,14.37,13.67Z" style="fill:#0099a9;"/><path d="M388.33,132.3s-.08,.03-.12,.04c-.64,.19-1.29,.39-1.93,.6-.23,.08-.46,.16-.69,.23-.45,.15-.91,.31-1.36,.47-.27,.1-.53,.2-.8,.3-.42,.16-.84,.32-1.25,.48-.28,.11-.55,.22-.83,.34-.41,.17-.81,.34-1.21,.52-.27,.12-.55,.24-.82,.37-.41,.19-.82,.38-1.22,.58-.26,.13-.52,.25-.77,.38-.44,.22-.88,.46-1.31,.69-.21,.12-.43,.23-.64,.34-.64,.36-1.28,.73-1.9,1.11-.02,.01-.03,.02-.05,.03-.61,.37-1.2,.76-1.79,1.16-.2,.13-.39,.28-.59,.41-.4,.28-.8,.56-1.19,.86-.22,.17-.44,.34-.66,.51-.35,.28-.71,.55-1.05,.84-.23,.19-.45,.38-.67,.57-.33,.29-.66,.58-.97,.88-.21,.2-.43,.4-.63,.6-.32,.31-.63,.63-.94,.95-.19,.2-.38,.4-.57,.6-.33,.36-.64,.72-.95,1.09-.15,.18-.31,.35-.45,.54-.45,.56-.88,1.12-1.29,1.71,5.91-.98,11.81-1.95,17.72-2.94,.04-.07,.06-.13,.1-.2l8.86-14.06s0,0,0,0Z" style="fill:#fff;"/><path d="M427.06,131.91c-1.13-.27-2.27-.52-3.41-.75-.08-.02-.17-.03-.25-.05-1.17-.23-2.34-.43-3.51-.61-.06,0-.11-.02-.17-.03-1.23-.19-2.46-.34-3.7-.47-.03,0-.05,0-.08,0-2.35,3.61-5.06,7.24-7.23,11.04,.94-.23,1.88-.45,2.81-.69,.03,0,.07-.02,.1-.03,1.86-.49,3.7-1.02,5.53-1.6,.13-.04,.26-.08,.39-.12,.76-.24,1.51-.5,2.26-.76,.17-.06,.33-.11,.5-.17,1.72-.61,3.42-1.26,5.1-1.98,.22-.09,.44-.19,.66-.29,.62-.27,1.24-.55,1.86-.83,.24-.11,.47-.22,.71-.33,.81-.39,1.62-.78,2.42-1.2,0-.02,0-.04,.01-.06-1.11-.32-2.23-.61-3.36-.89-.22-.05-.44-.11-.66-.16Z" style="fill:#fff;"/><path d="M406.93,129.58c-.76,0-1.51,.03-2.27,.06-.18,0-.35,.02-.53,.02-.66,.03-1.33,.08-1.99,.13-.19,.01-.38,.03-.56,.04-.82,.07-1.64,.15-2.46,.25-.01,0-.03,0-.04,0-1.15,.14-2.29,.31-3.44,.51-.02,0-.04,0-.06,.01-.06,.29-.17,.59-.36,.9-2.9,4.61-5.81,9.22-8.71,13.83,3.5-.6,7-1.21,10.49-1.85,1.69-.31,3.37-.63,5.05-.97,0,0,0,0,0,0,.04-.25,.1-.5,.21-.75,1.9-4.26,4.78-8.25,7.46-12.18-.06,0-.11,0-.17,0-.81-.02-1.62-.02-2.43-.02-.06,0-.12,0-.19,0Z" style="fill:#fff;"/><path d="M179.83,311.13c1.42-2.17,3.4-3.93,5.64-5.31-.04-.15-.08-.31-.12-.46-4.58,.99-9.06,2.31-13.47,3.95-1.03,2.49-2.07,4.97-3.16,7.44-4.12,9.41-9.75,16.52-16.99,23.15,10.2-5.37,19.52-12.23,28.35-19.65-1.87-2.57-2.26-6.01-.24-9.12Z" style="fill:#fff;"/><path d="M186.16,278.38c-.22,.4-.44,.8-.65,1.2,.3-.08,.59-.16,.89-.24,.53-1.55,1.14-3.08,1.82-4.57-.7,1.2-1.38,2.41-2.05,3.62Z" style="fill:#fff;"/><path d="M184.16,289.14c-.44-1.1-.49-2.39,.04-3.73-.27,.05-.53,.12-.79,.16-.37,.06-.75,.07-1.11,.02-2.84,5.58-5.29,11.3-7.67,17.04,3.16-1.02,6.37-1.87,9.62-2.57-.5-3.62-.52-7.29-.1-10.92Z" style="fill:#fff;"/><path d="M70.96,216.71s.02,0,.03-.01c-.89-4.79-1.61-9.59-2.07-14.43-.03-.3-.06-.61-.08-.91-.14-1.52-.25-3.03-.33-4.56-4.31,8.64-8.2,17.49-10.38,26.92-.19,.82-.36,1.64-.51,2.46-.14,.76-.27,1.51-.38,2.26,0,.05-.02,.09-.02,.14,3.57-4.89,8.23-8.95,13.76-11.87Z" style="fill:#fff;"/><path d="M56.69,241.17s0,.07,0,.1c.04,.54,.09,1.07,.14,1.61,.02,.2,.04,.39,.06,.59,.06,.53,.12,1.06,.19,1.59,.02,.17,.05,.34,.07,.51,.24,1.69,.56,3.38,.94,5.06,.06,.25,.11,.5,.17,.74,.11,.45,.23,.9,.34,1.35,.08,.3,.16,.6,.24,.9,.12,.43,.24,.86,.37,1.29,.1,.32,.2,.64,.3,.96,.13,.41,.28,.81,.42,1.22,3.72-7.4,9.03-13.6,15.9-18.46,0,0,0,0,0-.01-1.31-5.44-2.6-10.89-3.75-16.36-7.3,4.31-12.67,10.86-15.41,18.89Z" style="fill:#fff;"/><path d="M85.9,291.05c-.28-1.88-.57-3.76-.87-5.65-.11-.72-.23-1.45-.34-2.17-.31-1.97-.63-3.93-.95-5.89-.09-.54-.17-1.07-.26-1.61-.36-2.14-.73-4.28-1.11-6.42-.07-.39-.14-.79-.21-1.18-3.05,4.86-5.53,10.03-6.12,15.85-.08,.83-.47,1.46-.99,1.89,0,0,0,0,0,0,1.7,2,3.5,3.91,5.29,5.84,.37,.4,.74,.8,1.11,1.21,.26,.28,.51,.57,.77,.85,.69,.77,1.37,1.54,2.03,2.34,1.08,1.3,2.07,2.64,3.01,4.01-.35-2.38-.71-4.75-1.07-7.13-.1-.65-.2-1.3-.3-1.95Z" style="fill:#fff;"/><path d="M79.65,255.14c-.4-1.88-.8-3.75-1.23-5.62-.39-1.72-.8-3.44-1.21-5.16-6.04,4.64-10.79,10.73-13.71,17.81-.25,.61-.65,1.05-1.12,1.34,.12,.28,.23,.55,.35,.83,2.47,5.56,5.08,11.19,8.41,16.3,0,0,0,0,0,0,1.49-7.43,5.27-13.83,9.6-20.06-.36-1.82-.72-3.63-1.1-5.44Z" style="fill:#fff;"/><path d="M362.18,290.64c-9.86-3-17.89-7.62-24.07-16.03-14.72-20.04-15.53-44.82-15.48-68.72,0-2.16,3.1-3.83,4.62-1.91,6.83,8.64,15.05,15.05,24.1,21.19,7.62,5.17,14.49,10.67,19.74,18.32,5.92,8.62,10.95,18.36,15.24,27.88,2.69,5.97,4.82,12.08,6.06,18.41,1.22-3.71,2.36-7.46,3.44-11.21,1.68-5.86,3.23-11.74,4.77-17.57,.11-.42,.22-.84,.33-1.26,1.09-4.11,2.16-8.23,3.22-12.35,.3-1.17,.59-2.33,.89-3.5-24.95-11.24-44-39.8-39.79-66.64-15.15-19.5-38.55-31.91-63.69-28.9,7.16,15.51,9.46,32.72,3.79,49.36,2.47,.83,4.7,2.16,6.38,4.36,2.59,3.39,2.94,8.1,.63,11.77-2.61,4.14-7.75,5.51-12.06,3.16-2.83-1.54-4.91-4.27-6.15-7.26-43.06,17.96-94.83-35.48-77.11-78.33-2.6-2.58-4.15-6.09-3.64-10.19,.01-.11,.04-.22,.06-.33-5.08-2.74-9.74-6.25-14.21-10.04-.63-.53-1.23-1.09-1.85-1.63-2.47-1.85-4.88-3.79-7.23-5.79,4.59,10.05,7.72,20.62,6.43,31.92-1.84,16.13-11.01,30.18-20.41,42.97,.3,2.14,.47,4.31,.44,6.48-.3,24.48-9.45,48.58-30.27,61.98,1.42,2.18,2.34,4.61,2.29,7.37-.07,4.27-2.73,8.17-6.82,9.61-4.61,1.63-9.49-.5-11.41-5.01-1.26-2.97-1.19-6.4-.3-9.51-44.7-12.63-52.19-86.07-12.28-108.98-.86-1.99-2.06-3.85-3.49-5.57-2.77,5.06-6.51,9.28-10.72,13.14-2.71,2.66-5.62,5.16-8.59,7.61-4.65,3.84-9.35,7.63-13.45,12.07-1.58,1.72-3.07,3.53-4.39,5.46-2,3.48-3.29,7.33-3.49,11.65,.13,.31,.2,.65,.18,1.03,0,.07,0,.14,0,.22,15.57,17.53,27.59,38.88,30.84,62.32,3.63,26.15-2.46,52.39-8.46,77.71-.76,3.21-5.01,2.1-5.32-.72-.78-7.11-3.02-13.92-6.76-20.03-3.46-5.65-8.34-10.05-12.61-15.04-7.97-9.3-13.55-21.38-17.45-32.93-.23-.7-.45-1.39-.66-2.08-.06-.21-.12-.41-.18-.62-.15-.51-.28-1.02-.41-1.53-.05-.21-.11-.41-.16-.62-.17-.69-.32-1.37-.46-2.06,0-.02,0-.04-.01-.06-.14-.67-.25-1.34-.36-2-.04-.21-.07-.43-.1-.64-.08-.5-.15-.99-.21-1.49-.03-.21-.05-.42-.08-.64-.08-.68-.15-1.35-.2-2.03-.4-.56-.56-1.29-.31-2.16,.05-.17,.11-.34,.16-.51h0c-.04-1.14-.04-2.27-.02-3.4,0-.06,0-.12,0-.19,.03-1.13,.08-2.26,.17-3.38,0-.05,0-.1,.01-.15,.18-2.26,.47-4.51,.87-6.75,.01-.08,.03-.16,.04-.24,.4-2.21,.89-4.4,1.46-6.58,.03-.1,.05-.2,.08-.31,.58-2.16,1.24-4.31,1.96-6.44,.04-.11,.08-.22,.11-.33,.37-1.07,.75-2.14,1.15-3.2,0,0,0,0,0,0,.39-1.04,.8-2.09,1.22-3.12,.05-.12,.09-.23,.14-.35,.42-1.03,.85-2.06,1.29-3.08,.04-.1,.09-.21,.14-.31,.42-.96,.84-1.91,1.27-2.86,.05-.11,.1-.21,.14-.32,.45-.99,.92-1.98,1.38-2.97,.08-.17,.16-.34,.25-.51,.44-.92,.88-1.83,1.33-2.74,.04-.08,.08-.16,.12-.24,.47-.96,.95-1.92,1.44-2.87,.11-.22,.22-.44,.33-.66,.48-.94,.96-1.87,1.44-2.81-1.6-4.49,1.09-9.92,3.3-13.88,.49-.88,1.02-1.73,1.58-2.56,3.63-6.27,9.28-11.23,15.23-16.03-4.42,.74-8.92,1.1-12.97-.01-.57-.16-1.11-.36-1.63-.58-10.66,13.73-25.83,23.21-42.52,26.84,5.49,22.18,10.98,44.37,16.46,66.55,3.81,15.39,7.61,30.77,11.42,46.16,3.4,13.73,6.2,27.87,12.1,40.81,4.92,10.78,11.8,18.41,21.89,22.87,.41,0,.83,0,1.24-.02,.13-.05,.27-.1,.42-.12,16.3-3.14,32.85-6.29,48.25-12.66-.07-.36-.07-.75,.02-1.17,1.7-7.87,1.38-15.94,2.34-23.9,.73-6.01,1.9-11.95,3.57-17.77,3.62-12.57,9.36-24.58,16.76-35.36,14.56-21.2,35.1-37.51,58.1-48.76,1.5-.73,3.55-.19,3.98,1.62,2.01,8.53,3.8,17.4,2.72,25.96,17.46-3.82,35.58-2.17,51.01,7.75,1.4-2.2,3.23-4.04,5.76-5.14,3.91-1.7,8.57-.91,11.58,2.22,3.39,3.53,3.48,8.85,.17,12.46-2.18,2.38-5.32,3.74-8.53,4.22,7.08,46.12-57.25,83.51-94.57,56.01-2.56,1.55-5.55,2.26-8.66,1.66-21.57,20.68-49.64,33.87-79.21,37.45,.85,.2,1.7,.41,2.56,.61,3.52,.8,7.06,1.53,10.62,2.21,7.69,1.47,15.42,2.71,23.13,3.81,9.92,1.42,19.86,2.55,29.83,3.44,2.69,.24,5.39,.45,8.08,.66,3.02,.23,6.04,.44,9.06,.62,2.72,.17,5.45,.31,8.18,.45,9.13,.44,18.26,.7,27.41,.8,.04-.56,.29-1.13,.83-1.66,.42-.41,.86-.8,1.29-1.2-.05-.36-.03-.75,.09-1.18,2.74-9.27,10.4-16.7,17.3-23.12,6.97-6.48,14.67-12.22,22.89-17.01,19.03-11.08,40.97-17.49,61.49-25.21,1.85-.7,4.04,1.47,3.33,3.33-.1,.26-.19,.53-.29,.79,.27,.83,.16,1.79-.61,2.62-.15,.16-.31,.31-.47,.48-2.94,8.87-4.86,17.81-10.74,25.48-6.03,7.87-14.29,13.83-23.27,17.93-9.68,4.42-20.01,6.9-30.42,8.87-1.56,.29-3.11,.58-4.67,.85-1.07,.19-2.15,.38-3.24,.57-.03,0-.05,0-.08,.01-2.23,.39-4.48,.8-6.71,1.27-6.78,1.43-13.43,3.41-19.19,7.23,.28,0,.57,0,.85,0,6.24,0,12.5-.02,18.78-.13,2.34-.04,4.68-.1,7.02-.17,.36-.01,.72-.03,1.08-.04,2.34-.08,4.67-.16,7.01-.28,14.68-.75,29.31-2.37,43.58-5.83,3.59-.87,7.13-1.89,10.62-3.05,1.5-.5,2.99-1.03,4.47-1.58,.19-13.01,5.52-26.06,15.21-34.79,12.45-11.21,27.58-19.25,43.57-21.22,.56-1.28,1.11-2.57,1.64-3.86-.93-1.4-1.87-2.78-2.85-4.15-6.53-4.43-14.96-6.17-22.46-8.45Z" style="fill:#0099a9;"/><path d="M196.4,251.81c1.99-2.9,4.02-5.77,6.09-8.61,.06-.09,.13-.18,.19-.27,2.06-2.84,4.15-5.65,6.27-8.45,1.44-1.9,2.89-3.79,4.35-5.68-1.59,.95-3.16,1.93-4.71,2.94-.28,.18-.56,.36-.83,.54-1.58,1.03-3.14,2.08-4.67,3.17-.04,.03-.07,.05-.11,.08-3.3,2.34-6.51,4.8-9.6,7.4,0,0,0,0,0,0,.01,.04,.03,.07,.05,.1,.99,2.93,1.99,5.85,2.98,8.78Z" style="fill:#fff;"/><path d="M168.63,302.72c.19-.47,.38-.94,.58-1.41,.29-.7,.59-1.4,.88-2.1,.21-.49,.42-.99,.63-1.48,.33-.78,.67-1.56,1.02-2.34,.17-.4,.35-.8,.53-1.2,.37-.83,.74-1.66,1.12-2.49,.15-.33,.3-.67,.46-1,.4-.88,.81-1.75,1.22-2.62,.13-.27,.26-.54,.39-.81,.44-.92,.89-1.84,1.34-2.76,.09-.18,.18-.37,.28-.55,.5-.99,1-1.98,1.51-2.97-.45-1.29-1.45-2.8-1.87-3.76-.58-1.32-1.16-2.63-1.76-3.94-1.1-2.41-2.24-4.8-3.39-7.18-1.02,1.39-2.01,2.8-2.97,4.25-3.51,5.28-6.6,10.83-9.24,16.58,.22,.19,.42,.41,.59,.71l8.69,15.06Z" style="fill:#fff;"/><path d="M166.06,309.09c-3.09-5.35-6.18-10.71-9.27-16.06-1.6,4.09-2.99,8.28-4.11,12.54-2.56,9.79-2.62,19.78-3.72,29.67,3.33-2.96,6.47-6.11,8.99-9.81,3.44-5.04,5.87-10.69,8.11-16.34Z" style="fill:#fff;"/><path d="M180.81,273.19c.25,.56,.59,1.23,.97,1.95,.15-.26,.3-.52,.45-.78,2.3-4.06,4.71-8.06,7.21-12.01,.26-.4,.51-.81,.77-1.21,.82-1.28,1.64-2.55,2.48-3.82,0,0,0,0,0,0-.14-.21-.27-.43-.36-.7-1.12-3.29-2.23-6.58-3.35-9.87,0,0,0,0,0,0-1.23,1.12-2.44,2.26-3.62,3.42-.05,.05-.1,.1-.15,.15-1.09,1.08-2.17,2.17-3.22,3.29-.13,.13-.25,.27-.38,.4-1.15,1.22-2.27,2.47-3.37,3.73-.51,.58-.99,1.18-1.48,1.77-.53,.64-1.07,1.27-1.59,1.91,.18,.19,.34,.4,.47,.67,1.8,3.66,3.54,7.35,5.19,11.07Z" style="fill:#fff;"/><path d="M224.46,243.98c.75-6.15-.22-12.53-1.55-18.7-6.41,8.09-12.7,16.3-18.67,24.73,6.89-1.48,13.62-3.49,20.22-6.03Z" style="fill:#fff;"/><path d="M203.51,255.68c-1.19,.24-2.39,.46-3.59,.67-.03,0-.05,0-.08,0-1.8,2.66-3.58,5.33-5.31,8.04,2.6-3.29,5.62-6.22,8.98-8.71Z" style="fill:#fff;"/><path d="M8.93,59.94c1.07,.61,2.15,1.17,3.24,1.74,.05,.03,.11,.05,.16,.08,24.13,12.66,52.2,16.94,78.86,20.78,7.31,1.05,14.64,1.98,21.98,2.82,21.14,2.43,42.36,4.03,63.62,5.07,3,.15,6,.27,8.99,.39,1.11,.05,2.21,.1,3.32,.15,33.68,1.32,67.43,1.67,101.13,1.51,17.5-.08,35.06-.54,52.53-1.98,2.3-.19,4.59-.4,6.89-.62,2.15-.21,4.3-.44,6.44-.68,1.83-.21,3.66-.43,5.49-.67,1.22-.16,2.45-.32,3.67-.49,1.78-.25,3.56-.51,5.33-.78,5.72-.89,11.42-1.91,17.09-3.11,4.03-.85,8.08-1.79,12.1-2.89,2.22-.61,4.44-1.26,6.63-1.98,7.7-2.52,15.13-5.78,21.83-10.29,1.82-1.23,3.69-2.64,5.48-4.21,2.32-2.02,4.51-4.31,6.34-6.79,1.88-2.55,3.37-5.31,4.23-8.23,.26-.87,.46-1.76,.6-2.66,.38-2.55,.25-5.2-.56-7.91-3.9-13.09-22.69-15.22-33.72-18.09-16.14-4.21-32.46-7.75-48.89-10.61-32.31-5.63-64.9-8.38-97.66-9.28C230.77,.31,197.42-.34,164.14,.2c-33.77,.55-68.51,1.69-101.41,10.05-15.31,3.89-30.37,9.62-43.85,17.93C10.36,33.43-5.15,44.8,1.7,55.93c.54,.88,1.21,1.76,2.05,2.64,1.6,1.67,3.51,1.94,5.18,1.38Zm29.44-29.91c11.45-5.25,23.67-8.78,35.97-11.38,27.31-5.76,55.6-6.89,83.43-7.51,30.42-.68,60.87-.04,91.29,.56,30.52,.6,60.97,2,91.22,6.3,14.45,2.06,28.83,4.64,43.09,7.73,14.43,3.13,29.31,6.25,43.27,11.12,16.04,5.6,1.61,19.6-6.95,24.72-.93,.55-1.87,1.08-2.81,1.59-3.55,1.91-7.25,3.51-11.04,4.88-8.15,2.95-16.73,4.85-25.17,6.51-29.41,5.77-59.5,6.94-89.4,7.1-30.19,.16-60.41-.16-90.59-1.1-27.86-.87-55.74-2.48-83.46-5.54-5.89-.65-11.77-1.35-17.64-2.14-9.48-1.28-19.21-2.58-28.93-4.26-5.1-.88-10.2-1.88-15.25-3.03-12.99-2.97-25.67-7-37.34-13.03-2.39-1.23-4.73-2.54-7.03-3.95,2.28-6.14,24.36-17.21,27.33-18.57Z" style="fill:#ff4300;"/><path d="M563.58,43.72c-4.31-15.98-14.84-32.48-31.59-37.24-17.9-5.09-39.64,1.71-55.15,10.81-12.7,7.45-23.56,17.94-31.32,30.41,1.13,1.18,1.79,2.85,1.42,4.86-.8,4.43-1.62,8.86-2.45,13.29-3.85,20.65-7.96,41.25-12.29,61.81-.37,1.77-.75,3.54-1.13,5.31,0,.02,0,.04-.01,.06-.48,2.24-.94,4.48-1.42,6.71-.07,.33-.14,.66-.21,1-.69,3.2-1.39,6.4-2.09,9.59,7.76,7.03,20.03,3.32,25.36-5.08,3.33-5.24,4.08-11.51,4.69-17.54,.8-7.87,2.17-15.36,4.67-22.88,7.02-21.13,23.15-58.74,51.35-54.05,29.09,4.85,15.04,52.46,10.68,70.18-3.49,14.18-6.73,29.33-13.46,42.38-6.53,12.66-17.4,22.22-28.18,31.23-7.55,6.32-15.38,12.26-23.4,17.94-16.48,11.68-33.76,22.24-51.09,32.61-1.27,.76-2.54,1.52-3.81,2.28-1.07,4.12-2.14,8.24-3.22,12.35-.11,.42-.22,.84-.33,1.26-1.54,5.83-3.09,11.71-4.77,17.57-1.08,3.76-2.22,7.5-3.44,11.21-.46,1.41-.93,2.81-1.42,4.21,.66,.9,1.46,1.71,2.36,2.42,.96,.75,2.05,1.39,3.26,1.87,8.14,3.17,16.14-2.58,20.53-9.08,2.21-3.27,3.71-6.96,5.87-10.26,2.55-3.89,6.03-7.12,9.84-9.75,6.96-4.8,14.8-8.11,22.43-11.68,29.91-13.99,56.33-35.02,76.22-61.42,9.76-12.95,17.66-27.21,23.41-42.38,6.75-17.81,9.37-36.48,10.8-55.39,1.36-18.09,2.67-36.89-2.11-54.63Z" style="fill:#000c40;"/><path d="M184.38,323.52c-1.79-.69-3.28-1.85-4.32-3.28-8.83,7.42-18.14,14.28-28.35,19.65,7.24-6.64,12.87-13.74,16.99-23.15,1.08-2.47,2.13-4.96,3.16-7.44,4.41-1.64,8.89-2.95,13.47-3.95-.48-1.75-.85-3.51-1.09-5.29-3.26,.7-6.46,1.55-9.62,2.57,2.38-5.75,4.84-11.47,7.67-17.04,.36,.05,.73,.05,1.11-.02,.27-.05,.53-.11,.79-.16,.1-.25,.21-.5,.35-.75,.17-.31,.36-.63,.57-.96,.35-1.47,.78-2.93,1.27-4.37-.3,.08-.59,.16-.89,.24,.22-.4,.43-.8,.65-1.2,.68-1.21,1.36-2.42,2.05-3.62,1.68-3.69,3.8-7.19,6.31-10.37,1.73-2.71,3.5-5.38,5.31-8.04,.03,0,.05,0,.08,0,1.2-.21,2.4-.43,3.59-.67,2.57-1.91,5.33-3.56,8.28-4.85,4.01-1.77,8.12-3.27,12.3-4.47,1.33-.38,2.66-.72,4-1.04,.55-.13,1.1-.27,1.65-.39,1.08-8.55-.71-17.43-2.72-25.96-.43-1.81-2.48-2.35-3.98-1.62-22.99,11.25-43.54,27.56-58.1,48.76-7.4,10.78-13.14,22.79-16.76,35.36-1.67,5.82-2.85,11.76-3.57,17.77-.96,7.97-.64,16.03-2.34,23.9-.09,.42-.09,.81-.02,1.17-15.4,6.36-31.95,9.52-48.25,12.66-.15,.03-.28,.08-.42,.12-.41,0-.83,.01-1.24,.02,2.14,.95,4.42,1.76,6.86,2.42,2.67,.72,5.37,1.39,8.07,2.02,29.57-3.58,57.64-16.77,79.21-37.45-.7-.13-1.4-.31-2.1-.58Zm40.08-79.54c-6.61,2.54-13.34,4.54-20.22,6.03,5.97-8.43,12.26-16.64,18.67-24.73,1.34,6.17,2.31,12.55,1.55,18.7Zm-31.09-1.05c3.1-2.59,6.3-5.06,9.6-7.4,.04-.03,.07-.05,.11-.08,1.54-1.09,3.1-2.14,4.67-3.17,.28-.18,.55-.36,.83-.54,1.55-1,3.12-1.99,4.71-2.94-1.46,1.88-2.91,3.78-4.35,5.68-2.12,2.8-4.21,5.61-6.27,8.45-.06,.09-.13,.18-.19,.27-2.06,2.85-4.1,5.72-6.09,8.61-.99-2.93-1.99-5.85-2.98-8.78-.01-.04-.03-.07-.05-.1,0,0,0,0,0,0Zm-16.63,16.6c.49-.59,.98-1.19,1.48-1.77,1.1-1.27,2.23-2.51,3.37-3.73,.13-.13,.25-.27,.38-.4,1.06-1.11,2.13-2.21,3.22-3.29,.05-.05,.1-.1,.15-.15,1.19-1.16,2.39-2.31,3.62-3.42,0,0,0,0,0,0,1.12,3.29,2.23,6.58,3.35,9.87,.09,.27,.22,.49,.36,.7,0,0,0,0,0,0-.84,1.27-1.66,2.54-2.48,3.82-.26,.4-.52,.81-.77,1.21-2.5,3.94-4.9,7.94-7.21,12.01-.15,.26-.3,.52-.45,.78-.38-.73-.72-1.4-.97-1.95-1.65-3.73-3.39-7.42-5.19-11.07-.13-.27-.3-.48-.47-.67,.52-.65,1.06-1.28,1.59-1.91Zm-8.15,10.84c.96-1.44,1.95-2.85,2.97-4.25,1.16,2.38,2.3,4.77,3.39,7.18,.6,1.31,1.18,2.62,1.76,3.94,.42,.96,1.42,2.47,1.87,3.76h0c-.51,.99-1.02,1.98-1.51,2.97-.09,.18-.19,.37-.28,.55-.46,.92-.9,1.84-1.34,2.76-.13,.27-.26,.54-.39,.81-.41,.87-.82,1.74-1.22,2.62-.15,.33-.31,.67-.46,1-.38,.83-.75,1.66-1.12,2.49-.18,.4-.35,.8-.53,1.2-.34,.78-.68,1.56-1.02,2.34-.21,.49-.42,.98-.63,1.48-.29,.7-.59,1.4-.88,2.1-.19,.47-.39,.94-.58,1.41l-8.69-15.06c-.17-.29-.37-.52-.59-.71,2.64-5.75,5.73-11.3,9.24-16.58Zm-19.63,64.87c1.1-9.89,1.16-19.89,3.72-29.67,1.12-4.27,2.5-8.45,4.11-12.54,3.09,5.35,6.18,10.71,9.27,16.06-2.25,5.65-4.67,11.3-8.11,16.34-2.52,3.7-5.66,6.85-8.99,9.81Z" style="fill:#ffb003;"/><path d="M290.55,130.35c-7.64-9.89-19.55-16.07-31.93-17.59-4.87-.33-9.76-.19-14.63,.43-4.59,.88-9.05,2.46-13.14,4.84-1.88-1.84-4.06-3.34-6.51-4.19-2.96-1.03-5.74-.33-7.76,1.39-1.62,1.37-2.75,3.38-3.11,5.68-.02,.11-.04,.22-.06,.33-.51,4.1,1.04,7.61,3.64,10.19-17.72,42.84,34.05,96.29,77.11,78.33,1.24,2.99,3.32,5.72,6.15,7.26,4.31,2.35,9.45,.98,12.06-3.16,2.31-3.67,1.96-8.38-.63-11.77-1.68-2.19-3.91-3.53-6.38-4.36,5.67-16.64,3.38-33.85-3.79-49.36-.98-2.12-2.05-4.22-3.21-6.27-2.29-4.08-4.91-8.01-7.8-11.75Zm-30.23,61.6c-.93,1.18-2.29,1.62-3.75,1.52-.43-.03-.85-.11-1.25-.21-1-.07-1.99-.35-2.86-.87-2.2-1.29-3.47-3.55-3.17-6.13,.25-2.2,2.44-3.74,4.57-3.47,2.11,.26,3.86,1.23,5.22,2.65,.41,.26,.79,.57,1.09,.95,.38,.47,.6,1,.71,1.55,0,0,0,0,0,.01,.65,1.23,.23,2.97-.58,4Zm9.37-16.99c3.34-.37,6.48,1.52,7.77,4.6,.55,1.31,.29,2.89-.58,4-.94,1.2-2.28,1.6-3.75,1.52-.61-.03-1.2-.16-1.77-.34-.85-.14-1.68-.46-2.51-1-1.56-1-2.3-2.52-2.71-4.26-.5-2.12,1.54-4.3,3.54-4.52Zm7.31,26.6c-1.18,.17-2.32,.08-3.39-.22-3.16-.26-5.52-2.26-6.18-5.52-.42-2.09,1.48-4.35,3.54-4.52,3.45-.29,6.65,1.09,8.8,3.81,1.94,2.45,.16,6.03-2.78,6.45Z" style="fill:#ff8199;"/><path d="M171.14,162.95c-.97-1.83-2.05-3.59-3.24-5.29-2.2-3.15-4.76-6.04-7.61-8.6-.82-.74-1.66-1.45-2.53-2.13-.21-.33-.43-.64-.64-.92-.4-.54-.84-.97-1.31-1.3-.82-.58-1.71-.87-2.61-.92-4.8-2.9-10.11-4.91-15.72-5.72-.33-2.6-1.11-5.14-2.5-7.33-3.09-4.87-9.31-4.78-13.17-1-.62,.61-1.13,1.26-1.58,1.92-1.69,2.53-2.24,5.44-1.9,8.32-.18,.1-.35,.21-.52,.31-39.91,22.91-32.42,96.35,12.28,108.98-.89,3.11-.96,6.54,.3,9.51,1.92,4.51,6.79,6.64,11.41,5.01,4.09-1.44,6.74-5.35,6.82-9.61,.05-2.76-.87-5.19-2.29-7.37,20.82-13.4,29.97-37.5,30.27-61.98,.03-2.17-.14-4.34-.44-6.48-.34-2.38-.85-4.73-1.56-7.03-.89-2.89-2.07-5.68-3.49-8.36Zm-57.85,38.44c-.24-.36-.44-.73-.6-1.11-.56-.83-.95-1.78-1.08-2.79-.34-2.53,.65-4.92,2.86-6.28,1.89-1.16,4.45-.39,5.55,1.46,1.1,1.83,1.41,3.79,1.14,5.74,.05,.48,.03,.97-.07,1.45-.13,.59-.41,1.09-.78,1.52,0,0,0,.01,0,.02-.57,1.26-2.2,2.01-3.51,2.01-1.51,0-2.69-.8-3.51-2.01Zm13.02,19.27c-.74,3.04-4.65,3.85-6.79,1.79-.86-.83-1.49-1.78-1.92-2.8-1.74-2.64-1.63-5.73,.53-8.26,1.39-1.63,4.33-1.52,5.74,0,2.35,2.54,3.25,5.9,2.43,9.27Zm10.81-11.41c-.69,1.24-2.1,2.01-3.51,2.01-1.52,0-2.67-.81-3.51-2.01-.35-.5-.62-1.04-.82-1.6-.41-.76-.67-1.6-.77-2.59-.17-1.84,.57-3.36,1.68-4.76,1.36-1.71,4.33-1.44,5.74,0,2.35,2.4,2.81,6.03,1.17,8.96Z" style="fill:#ff8199;"/><path d="M80.15,112.96c1.83-.7,3.64-1.48,5.41-2.32,11.72-5.61,21.73-14.3,27.6-25.27-7.34-.84-14.67-1.77-21.98-2.82-26.66-3.84-54.73-8.12-78.86-20.78-.11,.12-.23,.24-.33,.36-1.2,1.4-1.54,2.92-1.3,4.3-1.78,5.32-2.57,10.94-2.14,16.59-.7,.25-1.38,.55-2.04,.87,1.49,6.04,2.99,12.08,4.48,18.12,1.23-.07,2.45-.32,3.62-.73,16.13,18.06,43.09,20.3,65.54,11.69Zm-24.42-11.79c1.94,2.45,.16,6.03-2.78,6.45-1.18,.17-2.32,.08-3.39-.22-3.16-.26-5.52-2.26-6.18-5.52-.42-2.09,1.48-4.35,3.54-4.52,3.45-.29,6.65,1.09,8.8,3.81Zm-10.09-20.15c3.34-.37,6.48,1.51,7.77,4.6,.55,1.31,.29,2.89-.58,4-.94,1.2-2.28,1.6-3.75,1.52-.61-.03-1.2-.16-1.77-.34-.85-.14-1.68-.46-2.51-1-1.56-1-2.3-2.52-2.71-4.26-.5-2.13,1.54-4.3,3.54-4.52Zm-20.39,11.3c.25-2.2,2.44-3.74,4.57-3.47,2.11,.26,3.85,1.23,5.22,2.65,.41,.26,.79,.57,1.09,.95,.38,.47,.6,1,.71,1.55,0,0,0,0,0,.01,.65,1.23,.23,2.97-.58,4-.93,1.18-2.29,1.62-3.75,1.52-.43-.03-.85-.11-1.25-.21-1-.07-1.99-.35-2.86-.87-2.2-1.29-3.47-3.55-3.17-6.13Z" style="fill:#ff8199;"/><path d="M55.41,65.58c5.05,1.15,10.15,2.15,15.25,3.03,18.06-7.38,38.11-9.77,57.23-12.72,1.26-.19,2.52-.38,3.77-.57,21.84-3.29,43.77-5.99,65.78-7.84,46.4-3.9,93.4-4.17,139.59,2.38,12.57,1.78,25.08,4.07,37.47,6.88,10.74,2.44,22.17,4.92,31.35,11.3,3.79-1.37,7.49-2.98,11.04-4.88,.95-.51,1.89-1.03,2.81-1.59,8.56-5.12,22.99-19.12,6.95-24.72-13.96-4.87-28.84-7.99-43.27-11.12-14.26-3.1-28.64-5.68-43.09-7.73-30.25-4.3-60.7-5.71-91.22-6.3-30.42-.6-60.87-1.24-91.29-.56-27.83,.62-56.11,1.75-83.43,7.51-12.3,2.59-24.53,6.13-35.97,11.38-2.96,1.36-25.05,12.44-27.33,18.57,2.3,1.41,4.64,2.71,7.03,3.95,11.67,6.02,24.34,10.06,37.34,13.03Z" style="fill:#fff;"/><path d="M403.85,223.57c-.42-2.09,1.48-4.35,3.54-4.52,1.33-.11,2.61,.03,3.82,.39,.66-2.66,1.3-5.32,1.94-7.97-.93,1.07-2.21,1.44-3.61,1.36-.61-.03-1.2-.16-1.77-.34-.85-.14-1.68-.46-2.51-1-1.56-1-2.3-2.52-2.71-4.26-.5-2.12,1.54-4.3,3.54-4.52,3.34-.37,6.48,1.51,7.77,4.6,.07,.16,.13,.33,.17,.51,4.41-18.19,8.64-36.42,12.67-54.69-6.64-3.49-14.09-5.48-21.57-5.72-1.61,.34-3.23,.66-4.85,.96-4.7,.88-9.41,1.7-14.13,2.51-1.15,.5-2.29,1.04-3.4,1.65-.31-.32-.64-.61-.97-.91-1.61-1.46-3.42-2.68-5.44-3.43-5.05-1.89-9.67,1.34-10.9,6.14-.08,.33-.15,.67-.21,1.01-.42,2.82,.17,5.38,1.4,7.56,.55,.98,1.22,1.89,2,2.71-1.68,3.81-2.79,7.71-3.4,11.65-4.2,26.83,14.85,55.4,39.79,66.64,1.28-5,2.55-10,3.8-15-2.56-.61-4.43-2.49-5-5.33Zm-7.11-3.87c-.93,1.18-2.29,1.62-3.75,1.52-.43-.03-.85-.11-1.25-.21-1-.07-1.99-.35-2.86-.87-2.2-1.29-3.47-3.55-3.17-6.13,.25-2.2,2.44-3.74,4.57-3.47,2.11,.26,3.86,1.23,5.22,2.65,.41,.26,.79,.57,1.09,.95,.38,.47,.6,1,.71,1.55,0,0,0,0,0,.01,.65,1.23,.23,2.97-.58,4Z" style="fill:#ff8199;"/><path d="M327.08,363.12c1.94-.72,3.86-1.46,5.74-2.28,8.13-3.5,15.81-7.89,22.77-13.28-.18-.03-.35-.07-.52-.11-1-.07-1.99-.35-2.86-.87-2.2-1.29-3.47-3.55-3.17-6.13,.25-2.2,2.44-3.74,4.57-3.47,2.11,.26,3.85,1.23,5.22,2.65,.41,.26,.79,.57,1.09,.95,.38,.47,.6,1,.71,1.55,0,0,0,0,0,.01,.16,.3,.25,.62,.29,.96,2.22-2,4.34-4.11,6.36-6.35-.71-.87-1.13-1.93-1.41-3.09-.5-2.12,1.54-4.3,3.54-4.52,1.28-.14,2.52,.05,3.65,.51,5.15-7.03,9.3-14.63,12.78-22.55-15.99,1.97-31.12,10.01-43.57,21.22-9.69,8.73-15.02,21.78-15.21,34.79Z" style="fill:#ff8199;"/><path d="M252.86,366.97c2.23-.47,4.48-.88,6.71-1.27,.03,0,.05,0,.08-.01,1.08-.19,2.16-.38,3.24-.57,1.56-.28,3.12-.56,4.67-.85,10.41-1.97,20.74-4.44,30.42-8.87,8.98-4.1,17.24-10.06,23.27-17.93,5.88-7.67,7.8-16.61,10.74-25.48,.15-.16,.32-.31,.47-.48,.77-.82,.89-1.78,.61-2.62,.1-.26,.19-.53,.29-.79,.71-1.86-1.48-4.03-3.33-3.33-20.52,7.72-42.46,14.14-61.49,25.21-8.23,4.79-15.93,10.52-22.89,17.01-6.9,6.42-14.56,13.85-17.3,23.12-.13,.43-.15,.82-.09,1.18-.43,.4-.87,.79-1.29,1.2-.54,.53-.79,1.1-.83,1.66,2.51,.03,5.02,.05,7.53,.05,5.76-3.83,12.41-5.81,19.19-7.23Zm69.52-43.15s0,0,0,0c-1.27-.08-2.54-.22-3.79-.4,0,0-.01,0-.02,0,1.83-1.3,3.64-2.64,5.38-4.06-.49,1.5-1.01,2.99-1.57,4.46Zm-7.57-6.49c.22-.48,.28-.96,.25-1.4,.2-.07,.4-.14,.6-.21,2.46-.87,4.91-1.75,7.36-2.63-.76,.67-1.54,1.32-2.32,1.96-1.2,.98-2.44,1.93-3.69,2.86-.85,.63-1.72,1.25-2.6,1.86-.25,.18-.5,.35-.75,.53,.34-1,.71-2,1.15-2.97Zm-2.57,10.34c2.57,.65,5.18,1.11,7.82,1.39,0,.01,0,.02-.01,.03-.34,.66-.69,1.31-1.07,1.95-.03,.05-.07,.11-.1,.16-.35,.6-.72,1.19-1.11,1.77-.14,.21-.3,.42-.44,.63-.3,.43-.6,.87-.93,1.29-.5,.64-1.02,1.28-1.58,1.9-.57,.64-1.16,1.25-1.76,1.85-.1,.1-.2,.19-.3,.29-.55,.54-1.1,1.06-1.67,1.57-.03,.03-.06,.06-.09,.09,0,0,0,0,0,0-5.75-.93-11.49-1.89-17.27-2.46,0,0,0,0,0,0,6.26-3.3,12.51-6.69,18.49-10.45,0,0,0,0,.01,0Zm-21.03-2.04c.06-.25,.08-.49,.08-.71,.23-.1,.47-.2,.7-.3,.84-.35,1.68-.69,2.52-1.03,.49-.2,.97-.4,1.46-.59,1.96-.78,3.93-1.53,5.91-2.28,.44-.17,.88-.33,1.32-.49,1.71-.64,3.42-1.27,5.14-1.89,.12-.04,.24-.09,.35-.13-.74,2.08-1.31,4.22-1.69,6.42-1.44,.88-2.88,1.74-4.34,2.58-.08,.05-.16,.09-.25,.14-2.86,1.64-5.77,3.22-8.68,4.77-.21,.11-.41,.22-.62,.33-1.38,.73-2.77,1.45-4.15,2.17,.75-3,1.5-5.99,2.25-8.99Zm14.02,19.47c-.6,.41-1.22,.8-1.83,1.18-.35,.22-.7,.46-1.06,.68-1,.61-2.03,1.19-3.06,1.74-.04,.02-.08,.04-.12,.06-.63,.34-1.27,.66-1.91,.98-.07,.03-.14,.07-.2,.1-.62,.3-1.25,.6-1.88,.89-.08,.03-.15,.07-.23,.11-.65,.29-1.31,.58-1.97,.86-.05,.02-.09,.04-.14,.06-.9,.37-1.81,.73-2.73,1.07-.27,.1-.54,.2-.81,.3-.28,.1-.56,.19-.84,.29-.28-.15-.6-.26-.96-.31-6.12-.82-12.74-1.58-19.27-1.58h0s.02,0,.03-.01c2.77-1.45,5.54-2.87,8.29-4.31,2.32-1.21,4.63-2.41,6.91-3.64,.4-.22,.8-.43,1.21-.64,.19,.05,.4,.07,.63,.08,6.72,.12,13.34,1.05,19.96,2.1Zm-46.02,5.21c1.33-2.95,2.8-5.83,4.44-8.65,.48-.82,.47-1.62,.18-2.29,0,0,0,0,0,0,.84-.57,1.69-1.14,2.54-1.69,.05-.03,.09-.06,.14-.09,.8-.52,1.61-1.03,2.43-1.53,.24-.15,.49-.29,.74-.44,.64-.39,1.28-.77,1.93-1.15,.93-.54,1.87-1.07,2.82-1.58,1.71-.93,3.45-1.83,5.2-2.69,.06-.03,.11-.06,.17-.08,1.77-.87,3.56-1.72,5.36-2.54,0,0,0,0,0,0h0c-.86,3.46-1.73,6.91-2.59,10.37,0,0,0,0,0,0-1.9,.99-3.78,1.98-5.65,2.98-2.43,1.31-4.89,2.6-7.35,3.89-3.45,1.81-6.9,3.63-10.33,5.49h0Zm15.27,6.8s-.04,0-.06,.01c-1.43,.28-2.87,.56-4.31,.82-.02,0-.03,0-.05,0-1.46,.26-2.92,.52-4.38,.78-1.41,.25-2.82,.49-4.22,.74-.41,.07-.81,.15-1.22,.22-.64,.12-1.28,.24-1.92,.36-.7,.13-1.4,.27-2.1,.41-.32,.06-.64,.13-.96,.2-.66,.14-1.31,.27-1.97,.42-.29,.06-.58,.13-.87,.19-.93,.21-1.85,.43-2.77,.66,1.11-.69,2.23-1.36,3.35-2.03,.95-.56,1.91-1.12,2.87-1.67,5.8-1.42,12.25-1.53,18.6-1.11Zm-23.01-8.11c1.3-1.16,2.63-2.27,3.98-3.37,0,0,0,0,0,0h0c-1.4,2.91-2.67,5.87-3.8,8.9,0,0,0,0,0,0-1.43,.83-2.84,1.68-4.25,2.54-.46,.28-.91,.57-1.37,.86-1.05,.66-2.09,1.32-3.12,2-.44,.29-.88,.58-1.32,.88-1.42,.96-2.83,1.93-4.2,2.95,3.8-5.62,9.3-10.49,14.08-14.76Z" style="fill:#ffb003;"/><path d="M386.34,271.38c-4.29-9.52-9.32-19.26-15.24-27.88-5.25-7.66-12.13-13.15-19.74-18.32-9.05-6.14-17.27-12.55-24.1-21.19-1.52-1.92-4.62-.25-4.62,1.91-.05,23.89,.75,48.68,15.48,68.72,6.18,8.41,14.21,13.03,24.07,16.03,7.5,2.28,15.93,4.02,22.46,8.45,.98,1.37,1.92,2.75,2.85,4.15,1.24-3.04,2.4-6.13,3.49-9.24,.49-1.4,.96-2.8,1.42-4.21-1.24-6.33-3.36-12.45-6.06-18.41Zm-21.3-27.07c.63,.84,1.25,1.71,1.85,2.58,.18,.26,.36,.52,.53,.79,.44,.65,.87,1.31,1.3,1.97,.17,.26,.34,.52,.5,.78,.55,.87,1.08,1.75,1.6,2.64,.14,.24,.28,.48,.41,.72,.39,.67,.78,1.35,1.16,2.03,.22,.39,.43,.77,.64,1.16,.3,.55,.6,1.1,.89,1.65,.22,.4,.43,.81,.65,1.21,.4,.76,.8,1.53,1.19,2.3,.02,.03,.03,.06,.05,.1-.51,2.83-1.03,5.67-1.54,8.5-.25,1.38-.33,4.19-.77,6.38-.03-.03-.06-.07-.09-.1-2.39-2.67-4.8-5.32-7.21-7.97-.26-.28-.51-.57-.77-.85-.31-8.18-.63-16.36-.94-24.54,.18,.23,.37,.44,.55,.67Zm-15.34,5.61c.02-6.41,.05-12.82,.07-19.23,.5,.35,1.01,.7,1.51,1.05,.33,.23,.66,.47,.99,.7,.58,.42,1.15,.85,1.72,1.28,.23,.17,.47,.35,.7,.53,.61,.46,1.2,.94,1.79,1.42,.19,.16,.38,.31,.57,.47,.59,.49,1.17,.99,1.74,1.5,.08,.08,.17,.15,.25,.23-.11,.3-.17,.63-.15,1.02,.29,7.66,.59,15.33,.88,22.99-1.7-1.92-3.4-3.86-5.05-5.81-.06-.07-.11-.13-.17-.2-.78-.92-1.55-1.85-2.32-2.78-.05-.06-.1-.12-.14-.17-.81-.99-1.61-1.99-2.4-2.99,0,0,0,0,0,0h0Zm-6.93-24.05c.53,.37,1.06,.74,1.6,1.11,0,0,0,0,0,0-.02,5.23-.04,10.46-.05,15.69,0,0,0,0,0,0-.65-.94-1.29-1.89-1.92-2.84-.15-.22-.29-.45-.43-.67-.49-.75-.97-1.51-1.44-2.27-.16-.27-.33-.53-.49-.8-.47-.78-.94-1.57-1.39-2.37-.12-.22-.25-.43-.37-.65-.57-1.02-1.13-2.05-1.67-3.1-.02-.04-.04-.08-.06-.12-.5-.97-.98-1.95-1.44-2.95-.15-.31-.29-.63-.43-.94-.34-.74-.66-1.48-.98-2.23-.15-.36-.3-.73-.45-1.09-.3-.75-.6-1.51-.88-2.27-.13-.34-.26-.67-.38-1.01-.39-1.09-.77-2.2-1.11-3.32,3.67,3.59,7.63,6.86,11.9,9.85Zm-12.27,17.42c-.57-2.94-1.01-5.93-1.35-8.93-.01-.13-.03-.26-.04-.38-.14-1.27-.26-2.54-.37-3.82-.02-.29-.05-.58-.07-.88-.11-1.4-.2-2.81-.28-4.21,.36,.88,.75,1.75,1.14,2.61,.12,.26,.24,.52,.36,.78,.28,.61,.57,1.22,.87,1.82,.14,.28,.28,.55,.41,.83,.3,.6,.61,1.2,.93,1.8,.13,.24,.25,.48,.38,.72,.37,.69,.76,1.38,1.14,2.07,.07,.13,.14,.25,.21,.38,1.49,2.59,3.08,5.11,4.75,7.57,.01,.02,.03,.04,.04,.06,.56,.82,1.13,1.64,1.7,2.45-3.24-1.07-6.52-2.03-9.84-2.87,0,0,0,0,0,0Zm7.79,21.97s0,0-.01,0c-.06-.1-.11-.2-.16-.3-.23-.4-.44-.8-.66-1.21-.25-.47-.49-.93-.72-1.41-.32-.64-.63-1.28-.92-1.93-.2-.44-.4-.88-.59-1.33-.2-.46-.39-.92-.58-1.39-.19-.49-.38-.98-.56-1.47-.26-.69-.5-1.38-.74-2.07-.14-.42-.28-.84-.42-1.27-.15-.48-.31-.97-.45-1.45-.21-.72-.42-1.45-.61-2.18,0,0,0,0,0,0,4.88,1.34,9.68,2.91,14.41,4.74,0,0,.01,0,.02,0h0c3.66,4.56,7.54,9,11.48,13.4,0,0,0,0,0,0-6.49-.71-12.98-1.43-19.47-2.14Zm18.69,17.82c-.37-.16-.74-.32-1.1-.49-.23-.11-.47-.22-.7-.34-.32-.16-.64-.32-.96-.49-.28-.15-.56-.3-.84-.46-.28-.15-.55-.31-.83-.47-.52-.31-1.03-.63-1.54-.96-.17-.12-.34-.24-.52-.36-.38-.26-.75-.53-1.11-.8-.19-.15-.38-.3-.57-.45-.36-.29-.71-.58-1.05-.89-.16-.14-.33-.28-.48-.43-.5-.46-.98-.93-1.45-1.43-.74-.79-1.45-1.6-2.14-2.43-.23-.28-.45-.57-.68-.85-.31-.38-.62-.76-.92-1.15,.01,0,.02,0,.03,0,6.9,.76,13.8,1.52,20.69,2.27,.1,.01,.21,0,.31,0h0s.07,.08,.1,.11c2.12,2.35,4.24,4.7,6.34,7.07,.01,.02,.03,.03,.04,.05-1.47,.18-3.09,.23-3.99,.39-2.93,.53-5.79,1.25-8.64,2.1Zm18.09,6.03c-.3-.1-.6-.19-.91-.29-.55-.17-1.1-.34-1.65-.51-.71-.22-1.42-.43-2.13-.64-1.21-.36-2.43-.73-3.64-1.09-.2-.06-.39-.12-.59-.19,1.46-.29,2.92-.54,4.4-.72,.96-.12,2.13-.11,3.25-.26,0,0,0,0,0,0,1.29,1.51,2.57,3.03,3.82,4.56-.85-.3-1.7-.58-2.56-.86Zm10.39,2.16c-.18-.23-.36-.45-.53-.68-.62-.79-1.25-1.57-1.88-2.35-.11-.14-.23-.28-.34-.42-1.59-1.95-3.22-3.87-4.87-5.78,0,0,0,0,0,0,.64-2.08,.73-4.76,1.04-6.46l.96-5.31s0,0,0,0c.45,.92,.88,1.84,1.31,2.77,.04,.09,.08,.17,.12,.26,.39,.85,.76,1.71,1.13,2.57,.07,.17,.14,.35,.22,.53,.33,.78,.65,1.57,.95,2.36,.1,.27,.2,.53,.3,.8,.27,.71,.53,1.43,.78,2.15,.12,.36,.24,.73,.36,1.09,.21,.64,.42,1.28,.61,1.92,.14,.47,.26,.94,.39,1.41,.15,.55,.31,1.11,.45,1.66,.15,.62,.28,1.24,.41,1.86,.09,.43,.2,.85,.28,1.28,.2,1.06,.38,2.12,.53,3.2-.72-.96-1.45-1.91-2.19-2.86Z" style="fill:#ffb003;"/><path d="M387.9,126.79c-13.44,3.68-26.87,11.59-33.34,24.25-.43,.39-.67,.91-.71,1.47-.07,.16-.16,.32-.23,.48-3.03-1.8-6.15-3.44-9.27-4.94-4.09-1.98-8.24-3.61-12.44-4.86,16.91-5.59,32.82-11.54,46.67-23.71,12.42-10.92,21.94-24.79,27.81-40.19-2.19,.72-4.4,1.37-6.63,1.98-5.66,13.14-14.2,24.89-25.01,34.39-5.39,4.74-11.14,8.46-17.16,11.57,10.24-10.47,15.16-25.28,12.97-39.97-1.78,.27-3.55,.53-5.33,.78,.11,.74,.2,1.48,.28,2.23,.03,.26,.04,.53,.06,.79,.04,.47,.07,.95,.09,1.42,.01,.33,.02,.66,.02,.99,0,.4,.01,.8,0,1.2,0,.37-.01,.74-.03,1.1-.01,.35-.03,.7-.06,1.05-.03,.4-.05,.81-.09,1.21-.03,.29-.06,.58-.1,.87-.05,.45-.1,.9-.17,1.35-.02,.1-.04,.21-.05,.31-.19,1.24-.44,2.48-.74,3.7,0,0,0,0,0,0-.4,0-.82,.08-1.25,.28-1.54,.73-3.06,1.51-4.57,2.31,0,0,0,0,0,0,.95-4.42,1.69-8.88,2.31-13.42,.01-.09,.03-.19,.04-.28,.21-1.53,.4-3.07,.57-4.63-1.83,.24-3.66,.46-5.49,.67-.16,1.35-.33,2.69-.51,4.03-.09,.64-.18,1.28-.27,1.92-.09,.65-.19,1.3-.29,1.94-.13,.82-.26,1.64-.4,2.46-.07,.41-.15,.83-.22,1.24-.16,.92-.36,1.84-.54,2.76-2.09-3.19-4.53-6.16-6.24-9.62-.09-.18-.19-.34-.3-.48,.03-.06,.06-.12,.1-.18,.3-.56,.62-1.12,.97-1.65,.39-.59,.81-1.17,1.26-1.73-2.29,.23-4.59,.43-6.89,.62-6.65,12.36-3.64,29.69,2.53,42.24-7.24,2.83-14.75,5.21-22.39,7.7-.38,.12-.7,.31-.96,.53-7.7-1.1-15.57-.82-23.58,1.11,1.16,2.05,2.23,4.15,3.21,6.27,25.14-3.01,48.54,9.4,63.69,28.9,.62-3.94,1.73-7.85,3.4-11.65-.79-.82-1.45-1.73-2-2.71-2.58-2.6-5.45-4.92-8.5-7.01,.08-.12,.14-.25,.2-.38,2.37-.4,4.74-.79,7.11-1.18,1.22-4.79,5.85-8.02,10.9-6.14,2.02,.75,3.83,1.97,5.44,3.43,1.46-.24,2.92-.49,4.37-.74,4.72-.81,9.43-1.63,14.13-2.51,1.62-.3,3.24-.62,4.85-.96,8.42-1.78,16.69-4.12,24.49-7.67,.48-2.24,.95-4.48,1.42-6.71-.8,.42-1.61,.81-2.42,1.2-.23,.11-.47,.22-.71,.33-.62,.29-1.24,.56-1.86,.83-.22,.1-.44,.19-.66,.29-1.68,.71-3.38,1.37-5.1,1.98-.17,.06-.33,.12-.5,.17-.75,.26-1.51,.51-2.26,.76-.13,.04-.26,.08-.39,.12-1.83,.58-3.67,1.11-5.53,1.6-.03,0-.07,.02-.1,.03-.93,.25-1.87,.46-2.81,.69,2.17-3.8,4.88-7.43,7.23-11.04,0,0,0,0,0,0,.03,0,.05,0,.08,0,1.23,.13,2.47,.29,3.7,.47,.06,0,.11,.02,.17,.03,1.17,.18,2.35,.38,3.51,.61,.08,.02,.17,.03,.25,.05,1.14,.23,2.27,.48,3.41,.75,.22,.05,.44,.11,.66,.16,1.12,.28,2.25,.57,3.36,.89,.38-1.77,.75-3.54,1.13-5.31-14.38-4.1-29.8-4.84-44.3-.87Zm-32.3-8.21c.02-.06,.03-.12,.05-.18,.45-1.46,.87-2.92,1.27-4.39,.11-.05,.21-.09,.32-.15,1.58-.93,3.19-1.82,4.81-2.67-.1,.23-.2,.47-.3,.69-.19,.4-.38,.8-.58,1.2-.14,.27-.28,.54-.43,.81-.2,.38-.41,.75-.62,1.12-.14,.24-.28,.49-.42,.73-.35,.58-.71,1.15-1.08,1.71-.08,.12-.17,.24-.25,.36-.32,.47-.65,.94-1,1.4-.15,.19-.29,.39-.44,.58-.31,.4-.63,.79-.95,1.18-.14,.17-.28,.34-.43,.51-.47,.54-.94,1.08-1.44,1.59,.53-1.5,1.03-3,1.49-4.51Zm-10.42-2.91c-.12-.6-.22-1.2-.31-1.81-.05-.3-.09-.61-.13-.91-.05-.37-.09-.74-.14-1.11-.05-.42-.09-.85-.13-1.27-.04-.45-.07-.9-.1-1.34-.02-.37-.03-.73-.04-1.09,0-.28-.01-.56-.01-.84,0-.65,0-1.3,.03-1.94,.01-.25,.02-.5,.03-.74,.02-.39,.06-.77,.1-1.15,.02-.24,.05-.49,.08-.73,.06-.5,.13-1,.21-1.49,0-.02,0-.04,.01-.06,.06-.36,.13-.72,.21-1.08,2.28,3.35,5.02,6.43,6.51,10.22,.15,.39,.37,.71,.63,.97h0s0,0,0,0c-.15,.59-.32,1.19-.49,1.78-.2,.74-.41,1.48-.62,2.21-.17,.58-.35,1.15-.53,1.73-.26,.82-.53,1.65-.8,2.47-.16,.47-.32,.95-.48,1.42-.46,1.3-.94,2.61-1.46,3.91-.23-.63-.46-1.28-.67-1.92-.06-.18-.12-.35-.17-.53-.18-.57-.36-1.15-.53-1.74-.03-.09-.06-.18-.08-.27-.18-.63-.34-1.27-.5-1.91-.06-.23-.11-.46-.16-.7-.11-.48-.21-.96-.31-1.44-.04-.21-.09-.42-.13-.63Zm34.29,30.69c-.04,.07-.06,.13-.1,.2-5.9,.99-11.81,1.96-17.72,2.94,.41-.58,.84-1.15,1.29-1.71,.15-.18,.3-.36,.45-.54,.31-.37,.62-.74,.95-1.09,.19-.2,.38-.4,.57-.6,.31-.32,.62-.64,.94-.95,.21-.2,.42-.4,.63-.6,.32-.3,.64-.59,.97-.88,.22-.19,.44-.38,.67-.57,.34-.29,.7-.56,1.05-.84,.22-.17,.44-.35,.66-.51,.39-.29,.79-.58,1.19-.86,.2-.14,.39-.28,.59-.41,.59-.4,1.19-.78,1.79-1.16,.02-.01,.03-.02,.05-.03,.62-.38,1.26-.75,1.9-1.11,.21-.12,.43-.23,.64-.34,.43-.23,.87-.47,1.31-.69,.26-.13,.51-.25,.77-.38,.41-.2,.81-.39,1.22-.58,.27-.13,.55-.25,.82-.37,.4-.18,.81-.35,1.21-.52,.28-.11,.55-.23,.83-.34,.42-.17,.83-.33,1.25-.48,.27-.1,.53-.2,.8-.3,.45-.16,.91-.32,1.36-.47,.23-.08,.46-.16,.69-.23,.64-.21,1.29-.41,1.93-.6,.04-.01,.08-.03,.12-.04,0,0,0,0,0,0h0s-8.86,14.06-8.86,14.06Zm30.24-16.76c-2.68,3.94-5.56,7.92-7.46,12.18-.11,.25-.17,.5-.21,.75,0,0,0,0,0,0-1.68,.34-3.36,.66-5.05,.97-3.49,.63-6.99,1.25-10.49,1.85,2.9-4.61,5.81-9.22,8.71-13.83,.19-.3,.3-.6,.36-.9,.02,0,.04,0,.06-.01,1.14-.2,2.29-.37,3.44-.51,.01,0,.03,0,.04,0,.82-.1,1.64-.18,2.46-.25,.19-.02,.38-.03,.56-.04,.66-.05,1.33-.1,1.99-.13,.18,0,.35-.02,.53-.02,.76-.03,1.51-.05,2.27-.06,.06,0,.12,0,.19,0,.81,0,1.62,0,2.43,.02,.06,0,.11,0,.17,0Z" style="fill:#ffb003;"/><path d="M72.98,153.88c.52,.22,1.05,.43,1.63,.58,4.05,1.12,8.54,.76,12.97,.01-5.95,4.8-11.6,9.77-15.23,16.03-.55,.84-1.09,1.69-1.58,2.56-2.21,3.96-4.9,9.39-3.3,13.88-.48,.93-.96,1.87-1.44,2.81-.11,.22-.22,.44-.33,.66-.48,.95-.96,1.91-1.44,2.87-.04,.08-.08,.16-.12,.24-.45,.91-.89,1.83-1.33,2.74-.08,.17-.16,.34-.25,.51-.47,.99-.93,1.98-1.38,2.97-.05,.11-.1,.21-.14,.32-.43,.95-.86,1.91-1.27,2.86-.05,.1-.09,.21-.14,.31-.44,1.02-.87,2.05-1.29,3.08-.05,.12-.09,.23-.14,.35-.42,1.04-.83,2.08-1.22,3.12,0,0,0,0,0,0-.4,1.06-.78,2.13-1.15,3.2-.04,.11-.08,.22-.11,.33-.73,2.14-1.38,4.28-1.96,6.44-.03,.1-.05,.2-.08,.31-.58,2.18-1.07,4.37-1.46,6.58-.01,.08-.03,.16-.04,.24-.39,2.24-.69,4.49-.87,6.75,0,.05,0,.1-.01,.15-.09,1.12-.14,2.25-.17,3.38,0,.06,0,.12,0,.19-.02,1.13-.02,2.26,.02,3.4h0c-.05,.17-.11,.34-.16,.51-.25,.87-.09,1.6,.31,2.16,.05,.67,.12,1.35,.2,2.03,.02,.21,.05,.42,.08,.64,.06,.5,.13,.99,.21,1.49,.03,.21,.06,.43,.1,.64,.11,.67,.23,1.34,.36,2,0,.02,0,.04,.01,.06,.14,.69,.3,1.37,.46,2.06,.05,.21,.1,.41,.16,.62,.13,.51,.27,1.02,.41,1.53,.06,.21,.12,.41,.18,.62,.21,.69,.42,1.39,.66,2.08,3.9,11.55,9.49,23.63,17.45,32.93,4.27,4.99,9.15,9.4,12.61,15.04,3.74,6.11,5.99,12.92,6.76,20.03,.31,2.82,4.56,3.93,5.32,.72,6.01-25.32,12.09-51.56,8.46-77.71-3.25-23.44-15.27-44.79-30.84-62.32,0-.07,0-.14,0-.22,.02-.38-.05-.72-.18-1.03,.2-4.32,1.49-8.17,3.49-11.65,1.32-1.93,2.8-3.74,4.39-5.46,4.1-4.44,8.8-8.23,13.45-12.07,2.97-2.45,5.88-4.95,8.59-7.61,4.21-3.86,7.95-8.08,10.72-13.14,1.43,1.72,2.63,3.58,3.49,5.57,.18-.1,.35-.21,.52-.31-.34-2.88,.21-5.79,1.9-8.32-2.11-3.57-4.9-6.77-8.26-9.42-3.62-2.86-7.67-5.03-12-6.6-4.16-1.52-10.97-1.79-14.44-5.02-1.77,.85-3.57,1.62-5.41,2.32,.75,2.76,2.99,4.08,5.82,5.34,5.14,2.28,10.45,4.14,15.48,6.65,2.9,1.45,5.85,3.3,8.5,5.48-3.03,6.76-8.07,12.04-13.6,16.88-.03,0-.05,0-.08,0-5.23,.87-10.79,2.4-16.11,2.36-6.62-.05-8.94-4.03-12.86-8.48-4.96-5.65-11.9-9.4-19.36-10.39-8.57-1.13-16.81,1.63-24.4,5.37-1.18,.58-2.41,1.17-3.65,1.78,.46,1.85,.91,3.69,1.37,5.54,.61-.34,1.22-.67,1.84-1h0c.1,.11,.19,.22,.31,.32,2.49,2.12,4.97,4.25,7.44,6.4,1.23,1.07,2.46,2.15,3.69,3.23,.22,.2,1.23,.82,2.09,1.35,0,0,.01,0,.02,.01-4.04,.93-8.07,1.93-12.08,3.06,.43,1.75,.87,3.51,1.3,5.26,3.57-1.01,7.17-1.92,10.78-2.77-.78,1.82-1.66,3.6-1.91,4.3-1.3,3.69-2.6,7.38-3.9,11.08-.04,.12-.06,.22-.08,.33,0,0,0,0,0,0-.53,.13-1.07,.26-1.6,.37,.44,1.76,.87,3.52,1.31,5.28,16.69-3.63,31.85-13.11,42.52-26.84Zm-15.76,74.56c.11-.75,.24-1.51,.38-2.26,.16-.82,.32-1.64,.51-2.46,2.18-9.43,6.07-18.29,10.38-26.92,.08,1.52,.2,3.04,.33,4.56,.03,.3,.05,.61,.08,.91,.47,4.84,1.2,9.64,2.09,14.43,0,0,0,0-.01,0-.01,0-.02,0-.03,.01-5.53,2.91-10.19,6.98-13.76,11.87,0,0,0,0,0,0,0-.05,.02-.09,.02-.14Zm13.93,52.2s0,0,0,0c-3.33-5.11-5.94-10.75-8.41-16.3-.12-.28-.23-.55-.35-.83,.47-.29,.87-.73,1.12-1.34,2.92-7.07,7.67-13.17,13.71-17.81,.41,1.72,.81,3.44,1.21,5.16,.43,1.87,.83,3.74,1.23,5.62,.38,1.81,.74,3.62,1.1,5.44-4.32,6.23-8.1,12.64-9.6,20.06Zm13.11,15.47c-.66-.8-1.34-1.57-2.03-2.34-.26-.29-.51-.57-.77-.85-.37-.4-.74-.81-1.11-1.21-1.79-1.93-3.59-3.84-5.29-5.84,0,0,0,0,0,0,.52-.43,.9-1.06,.99-1.89,.59-5.82,3.06-10.99,6.12-15.85,.07,.39,.14,.79,.21,1.18,.38,2.14,.75,4.27,1.11,6.42,.09,.54,.18,1.07,.26,1.61,.32,1.96,.64,3.93,.95,5.89,.11,.72,.23,1.45,.34,2.17,.29,1.88,.58,3.76,.87,5.65,.1,.65,.2,1.3,.3,1.95,.36,2.38,.71,4.75,1.07,7.13-.93-1.37-1.93-2.71-3.01-4.01Zm15.24-15.53c-.09,.81-.17,1.62-.27,2.42-.05,.44-.11,.88-.17,1.32-.12,.9-.23,1.8-.36,2.7-.05,.34-.1,.68-.15,1.02-.14,.98-.29,1.96-.45,2.95-.21,1.31-.43,2.61-.66,3.92,0,.02,0,.04-.01,.06-.22,1.25-.45,2.49-.69,3.73-.01,.07-.03,.14-.04,.21-.22,1.17-.46,2.34-.7,3.51-.03,.14-.06,.28-.08,.42-.22,1.09-.45,2.19-.69,3.28-.04,.2-.08,.41-.13,.61-.27,1.27-.55,2.53-.83,3.8-.37-2.38-.73-4.76-1.08-7.15-.13-.84-.25-1.67-.37-2.51-.3-2.03-.61-4.07-.91-6.1-.29-1.95-.59-3.91-.88-5.86-.09-.62-.19-1.24-.28-1.86-.3-1.94-.6-3.88-.9-5.81-.13-.79-.25-1.59-.38-2.38-.25-1.55-.5-3.09-.76-4.64-.13-.79-.26-1.58-.4-2.37-.38-2.22-.76-4.43-1.17-6.64,0,0,0,0,0-.01,4.4,4.47,8.58,9.14,12.51,14.04-.04,.45-.1,.89-.14,1.34Zm-.06-31.08c.09,.69,.2,1.38,.28,2.08,.17,1.52,.3,3.03,.4,4.55,.03,.38,.05,.75,.07,1.13,.08,1.28,.14,2.55,.17,3.83,0,.24,.02,.48,.02,.72,.03,1.53,.03,3.07,.01,4.6,0,.41-.02,.82-.03,1.23-.03,1.12-.06,2.23-.11,3.35,0,.17-.02,.34-.03,.52-4.67-5.5-9.63-10.72-14.92-15.65-.4-1.94-.8-3.88-1.23-5.81-.5-2.24-1.02-4.48-1.55-6.72,5.4-.21,11.77,2.38,15.7,5.59,.39,.32,.8,.5,1.21,.58Zm-4.82-19.43s.02,.05,.03,.07c.26,.71,.5,1.43,.74,2.15,.14,.42,.28,.85,.42,1.27,.19,.6,.38,1.21,.56,1.82,.18,.62,.36,1.23,.53,1.85,.13,.46,.26,.93,.38,1.4,.23,.89,.45,1.78,.65,2.67,.06,.24,.12,.49,.17,.73,.03,.12,.05,.24,.07,.35-5.05-3-11.17-4.82-16.91-4.34,0,0,0,0,0,0-.6-2.51-1.2-5.01-1.79-7.52-.03-.12-.06-.25-.09-.37-.55-2.34-1.07-4.68-1.58-7.02-.05-.24-.1-.48-.15-.72,5.9,.38,11.76,3.41,16.1,7.16,.28,.24,.57,.4,.86,.51Zm-18.37-32.86c.16,.2,.31,.42,.47,.62,.65,.85,1.29,1.7,1.92,2.56,.12,.17,.24,.34,.36,.5,.66,.92,1.32,1.84,1.95,2.77,.07,.11,.14,.22,.22,.32,.68,1,1.35,2.01,2,3.03,.03,.05,.06,.1,.09,.15,.69,1.08,1.36,2.17,2.02,3.27,0,0,0,.01,.01,.02,2.03,3.42,3.9,6.93,5.58,10.52,0,.01,.01,.02,.02,.03-4.42-2.49-9.4-4.15-14.35-4.1,0,0,0,0,0,0-.03-.18-.07-.36-.1-.55-.12-.62-.23-1.24-.34-1.86-.08-.46-.16-.93-.24-1.39-.1-.58-.2-1.15-.29-1.73-.13-.78-.24-1.56-.36-2.34-.09-.59-.17-1.17-.25-1.76-.09-.69-.19-1.39-.27-2.08-.05-.43-.1-.86-.15-1.3-.07-.67-.15-1.34-.21-2.01-.04-.42-.08-.84-.12-1.26-.06-.73-.12-1.45-.17-2.18-.02-.36-.05-.72-.07-1.08-.07-1.09-.12-2.17-.15-3.26,.83,1.02,1.65,2.05,2.46,3.09Zm-.41,41.43s0,0,0,.01c-6.87,4.86-12.18,11.06-15.9,18.46-.14-.41-.29-.81-.42-1.22-.1-.32-.2-.64-.3-.96-.13-.43-.25-.86-.37-1.29-.08-.3-.17-.6-.24-.9-.12-.45-.24-.9-.34-1.35-.06-.25-.11-.5-.17-.74-.38-1.68-.7-3.36-.94-5.06-.02-.17-.05-.34-.07-.51-.07-.53-.13-1.06-.19-1.59-.02-.2-.04-.39-.06-.59-.05-.54-.1-1.07-.14-1.61,0-.03,0-.07,0-.1,0,0,0,0,0,0,2.74-8.04,8.12-14.58,15.41-18.89,0,0,0,0,0,0,1.14,5.47,2.44,10.92,3.75,16.36Zm-27.19-71.61c-.23,.4-.34,.8-.36,1.18-.89,.5-1.79,1-2.7,1.46-.01,0-.02,.01-.03,.02-1.06,.53-2.13,1.02-3.21,1.49-.2,.09-.39,.18-.59,.26-1.04,.44-2.08,.86-3.14,1.25-.21,.08-.43,.15-.64,.23-.29,.1-.58,.19-.87,.29,1.19-3.37,2.37-6.75,3.56-10.12,.5-1.42,1.48-3.26,2.12-5.1,3.75-.79,7.51-1.52,11.3-2.14-1.89,3.68-3.36,7.59-5.43,11.19Zm5.8-16.7c-3.95,.63-7.89,1.37-11.81,2.18,0,0,0-.01-.01-.02-1.19-1.81-3.56-3.23-5.02-4.51-3.1-2.72-6.22-5.4-9.35-8.08,0,0,0,0,0,0,.48-.22,.95-.43,1.44-.64,.06-.03,.12-.05,.19-.08,.43-.18,.85-.36,1.29-.53,.19-.07,.38-.14,.57-.21,.32-.12,.64-.25,.96-.36,.53-.19,1.06-.37,1.6-.54,.49-.15,.98-.29,1.47-.42,.36-.09,.72-.18,1.08-.26,.11-.03,.23-.06,.34-.08,.45-.1,.91-.19,1.36-.27,.01,0,.02,0,.04,0,.48-.08,.95-.14,1.43-.2,.13,.37,.36,.73,.73,1.07,4.7,4.18,9.26,8.5,13.7,12.95,0,0,0,0,0,0Zm9.32,6.02c-.13,.14-.27,.27-.41,.41-.58,.59-1.17,1.17-1.77,1.74-.1,.09-.2,.18-.3,.28-.66,.62-1.34,1.22-2.03,1.81-.04,.04-.08,.07-.12,.11-.74,.63-1.51,1.23-2.28,1.82,1.21-2.66,2.46-5.3,4.1-7.73,1.61-.22,3.21-.43,4.83-.62-.66,.74-1.33,1.47-2.02,2.18Zm-2.72-7s0,0,0,0c-.07-.09-.13-.18-.22-.27-4.27-4.39-8.68-8.65-13.2-12.78,0,0,0,0,0,0,.5,.07,1,.15,1.5,.25,0,0,0,0,0,0,.49,.1,.98,.21,1.47,.34,.02,0,.04,.01,.06,.02,.47,.12,.93,.26,1.39,.41,.05,.02,.1,.04,.15,.05,.43,.14,.86,.29,1.28,.46,.09,.04,.19,.08,.28,.12,.38,.16,.76,.31,1.13,.49,.15,.07,.3,.15,.45,.23,.32,.16,.63,.31,.95,.48,.23,.13,.46,.27,.69,.41,.23,.13,.46,.26,.68,.4,.46,.29,.91,.6,1.35,.92,2.91,2.12,5.05,5.12,7.42,7.81-1.8,.2-3.59,.43-5.38,.67Z" style="fill:#ffb003;"/><path d="M216.57,115.23c-5.73-3.2-11.22-6.78-16.43-10.72-4.98-4.37-9.75-8.94-14.37-13.67-3-.12-6-.25-8.99-.39,.47,.51,.93,1.04,1.4,1.55,2.5,4.51,5,9.14,7.16,13.88-.39,.19-.74,.46-.99,.83-7.75,3.73-14.18,12.54-18.96,18.99-4.31,5.82-7.65,12.2-9.57,19.03,.47,.33,.91,.76,1.31,1.3,.21,.28,.42,.59,.64,.92,.87,.68,1.71,1.39,2.53,2.13,.1-.5,.23-.99,.35-1.48,0,0,0,0,0,0,4,.16,8,.22,12.01,.15,0,0,0,0,0,0-.35,.81-.7,1.61-1.06,2.41-.02,.04-.04,.09-.06,.13-.33,.74-.68,1.48-1.03,2.21-.05,.1-.09,.2-.14,.3-.32,.67-.65,1.34-.99,2.01-.08,.15-.15,.3-.23,.46-.41,.81-.83,1.61-1.25,2.4,1.19,1.7,2.27,3.46,3.24,5.29,.5-.86,.99-1.73,1.46-2.6,.3-.56,.59-1.12,.88-1.68,.15-.29,.31-.59,.46-.88,.38-.76,.75-1.52,1.12-2.28,.04-.09,.09-.17,.13-.26,.4-.85,.8-1.7,1.19-2.56,0,0,0,0,0,0,1.01,2.93,2.02,5.86,3,8.8,.2,.59,.54,1.03,.94,1.33-.11,.17-.21,.34-.31,.51-.77,1.22-1.55,2.42-2.35,3.61-.11,.16-.21,.31-.32,.47-.89,1.31-1.79,2.62-2.71,3.9,.71,2.3,1.22,4.65,1.56,7.03,9.4-12.79,18.57-26.84,20.41-42.97,1.29-11.31-1.85-21.88-6.43-31.92,2.35,2,4.76,3.94,7.23,5.79,.62,.54,1.23,1.1,1.85,1.63,4.47,3.78,9.13,7.29,14.21,10.04,.37-2.3,1.5-4.31,3.11-5.68Zm-43.81,9.8c1.59-1.9,3.25-3.75,4.96-5.55,1.84-1.94,3.74-4.11,5.89-5.86-.11,.99-.26,1.97-.43,2.94-.08,.49-.19,.97-.28,1.45-.09,.45-.18,.9-.28,1.35-.15,.66-.31,1.33-.48,1.99-.05,.21-.11,.43-.16,.64-.21,.8-.44,1.59-.67,2.38-.17-.02-.33-.04-.52-.06-2.5-.18-5.31,.25-8.03,.71,0,0,0,0,0,0Zm6.55,5.47c-.41,1.16-.83,2.32-1.26,3.48-.07,.18-.14,.37-.21,.55-.49,1.32-.99,2.64-1.49,3.95-.48,1.26-.96,2.52-1.46,3.77,0,0,0,0,0,.01-4.2,.12-8.39,.11-12.58-.03,0,0,0,0,0,0,.01-.04,.03-.08,.05-.12,.38-1,.81-1.98,1.25-2.95,.24-.53,.51-1.04,.77-1.56,.22-.43,.42-.86,.65-1.29,.33-.62,.68-1.23,1.04-1.84,.18-.31,.35-.61,.54-.92,.4-.66,.82-1.31,1.25-1.96,.1-.15,.19-.29,.29-.44,2.68-.3,5.37-.61,8.05-.91,.88-.1,2.38-.55,3.36-.46-.08,.23-.16,.47-.24,.7Zm9.43,15.25s0,0,0,0c-.32,.95-.67,1.89-1.04,2.82-.04,.11-.09,.23-.14,.34-.34,.84-.7,1.67-1.07,2.49-.18,.41-.37,.81-.56,1.21-.18,.38-.36,.75-.54,1.13-.56,1.16-1.16,2.31-1.77,3.44-1.35-3.98-2.72-7.95-4.12-11.9,0,0,0,0,0,0,.71-1.78,1.4-3.57,2.08-5.36,.64-1.69,1.27-3.39,1.9-5.08,0,0,0,0,0,0,1.86,3.36,3.59,6.74,4.99,10.39,.07,.19,.17,.37,.27,.53h0Zm2.3-9.33c-.03,.2-.07,.39-.1,.58-1.42-3.2-3.07-6.33-5.08-9.06,0,0,0,0,0,0,.32-.99,.61-1.99,.9-2.98,.02-.08,.05-.16,.07-.24,.26-.91,.49-1.83,.72-2.75,.04-.17,.09-.33,.13-.5,.21-.86,.39-1.73,.56-2.61,.04-.22,.1-.43,.14-.65,.2-1.08,.38-2.17,.52-3.27,2.2,6.87,3.27,14.01,2.14,21.48Z" style="fill:#ffb003;"/><path d="M118.14,211.39c-2.16,2.53-2.27,5.62-.53,8.26,.43,1.03,1.06,1.98,1.92,2.8,2.14,2.06,6.05,1.25,6.79-1.79,.82-3.37-.08-6.73-2.43-9.27-1.41-1.52-4.35-1.63-5.74,0Z" style="fill:#000c40;"/><path d="M120.3,201.39s0-.01,0-.02c.37-.42,.65-.93,.78-1.52,.11-.47,.12-.96,.07-1.45,.27-1.95-.04-3.92-1.14-5.74-1.11-1.85-3.67-2.62-5.55-1.46-2.21,1.36-3.2,3.75-2.86,6.28,.13,1,.52,1.96,1.08,2.79,.17,.38,.36,.75,.6,1.11,.82,1.21,2,2.01,3.51,2.01,1.31,0,2.94-.75,3.51-2.01Z" style="fill:#000c40;"/><path d="M130.2,200.29c-1.12,1.4-1.86,2.92-1.68,4.76,.09,.99,.36,1.84,.77,2.59,.2,.56,.47,1.09,.82,1.6,.84,1.2,1.98,2.01,3.51,2.01,1.41,0,2.81-.77,3.51-2.01,1.63-2.92,1.17-6.56-1.17-8.96-1.41-1.44-4.38-1.71-5.74,0Z" style="fill:#000c40;"/><path d="M266.26,290.98c3.24,.77,6.04-.54,7.59-3.3,.72-.85,1.28-1.84,1.62-2.98,.86-2.84-1.65-5.95-4.69-5.22-3.37,.81-5.96,3.14-7.15,6.39-.71,1.94,.54,4.62,2.62,5.11Z" style="fill:#000c40;"/><path d="M256.38,293.62s-.01,0-.02,0c-.55-.13-1.12-.15-1.71,0-.47,.12-.92,.33-1.32,.59-1.86,.65-3.47,1.82-4.59,3.63-1.14,1.83-.66,4.46,1.24,5.61,2.22,1.35,4.79,1.14,6.89-.32,.83-.58,1.51-1.36,1.99-2.24,.26-.32,.51-.66,.72-1.04,.7-1.28,.88-2.7,.19-4.04-.6-1.17-2-2.28-3.39-2.2Z" style="fill:#000c40;"/><path d="M250.88,285.31c1.75,.35,3.45,.32,5.01-.67,.84-.54,1.47-1.15,1.96-1.86,.4-.43,.76-.92,1.05-1.46,.69-1.29,.88-2.68,.19-4.04-.64-1.25-1.97-2.15-3.39-2.2-3.35-.12-6.37,1.95-7.44,5.13-.64,1.91,.48,4.68,2.62,5.11Z" style="fill:#000c40;"/><path d="M270.98,191.31c-2.06,.17-3.97,2.42-3.54,4.52,.66,3.26,3.02,5.26,6.18,5.52,1.07,.3,2.21,.39,3.39,.22,2.94-.41,4.71-3.99,2.78-6.45-2.15-2.72-5.35-4.1-8.8-3.81Z" style="fill:#000c40;"/><path d="M260.9,187.94c-.11-.55-.33-1.08-.71-1.55-.31-.38-.68-.69-1.09-.95-1.37-1.42-3.11-2.38-5.22-2.65-2.14-.27-4.32,1.27-4.57,3.47-.29,2.58,.97,4.83,3.17,6.13,.87,.51,1.86,.8,2.86,.87,.4,.1,.81,.18,1.25,.21,1.46,.1,2.82-.33,3.75-1.52,.81-1.03,1.23-2.77,.58-4,0,0,0,0,0-.01Z" style="fill:#000c40;"/><path d="M268.86,183.75c.84,.54,1.67,.85,2.51,1,.56,.18,1.15,.31,1.77,.34,1.46,.08,2.81-.32,3.75-1.52,.87-1.11,1.13-2.69,.58-4-1.29-3.09-4.44-4.97-7.77-4.6-2,.22-4.05,2.39-3.54,4.52,.41,1.74,1.15,3.26,2.71,4.26Z" style="fill:#000c40;"/><path d="M407.39,219.05c-2.06,.17-3.97,2.42-3.54,4.52,.57,2.84,2.44,4.72,5,5.33,.79-3.15,1.58-6.3,2.36-9.45-1.21-.36-2.49-.5-3.82-.39Z" style="fill:#000c40;"/><path d="M397.31,215.69c-.11-.55-.33-1.08-.71-1.55-.31-.38-.68-.69-1.09-.95-1.37-1.42-3.11-2.38-5.22-2.65-2.14-.27-4.32,1.27-4.57,3.47-.29,2.58,.97,4.83,3.17,6.13,.87,.51,1.86,.8,2.86,.87,.4,.1,.81,.18,1.25,.21,1.46,.1,2.82-.33,3.75-1.52,.81-1.03,1.23-2.77,.58-4,0,0,0,0,0-.01Z" style="fill:#000c40;"/><path d="M406.1,202.71c-2,.22-4.05,2.39-3.54,4.52,.41,1.74,1.15,3.26,2.71,4.26,.84,.54,1.67,.85,2.51,1,.56,.18,1.15,.31,1.77,.34,1.39,.08,2.68-.29,3.61-1.36,.3-1.22,.59-2.43,.89-3.65-.04-.17-.1-.34-.17-.51-1.29-3.09-4.44-4.97-7.77-4.6Z" style="fill:#000c40;"/><path d="M46.93,97.36c-2.06,.17-3.97,2.42-3.54,4.52,.66,3.26,3.02,5.26,6.18,5.52,1.07,.3,2.21,.39,3.39,.22,2.94-.41,4.71-3.99,2.78-6.45-2.15-2.72-5.35-4.1-8.8-3.81Z" style="fill:#000c40;"/><path d="M28.42,98.45c.87,.51,1.86,.8,2.86,.87,.4,.1,.81,.18,1.25,.21,1.46,.1,2.82-.33,3.75-1.52,.81-1.03,1.23-2.77,.58-4,0,0,0,0,0-.01-.11-.55-.33-1.08-.71-1.55-.31-.38-.68-.69-1.09-.95-1.37-1.42-3.11-2.38-5.22-2.65-2.14-.27-4.32,1.27-4.57,3.47-.29,2.58,.97,4.83,3.17,6.13Z" style="fill:#000c40;"/><path d="M44.81,89.8c.84,.54,1.67,.85,2.51,1,.56,.18,1.15,.31,1.77,.34,1.46,.08,2.81-.32,3.75-1.52,.87-1.11,1.13-2.69,.58-4-1.29-3.09-4.44-4.97-7.77-4.6-2,.22-4.05,2.39-3.54,4.52,.41,1.74,1.15,3.26,2.71,4.26Z" style="fill:#000c40;"/><path d="M360.63,342.13c-.11-.55-.33-1.08-.71-1.55-.31-.38-.68-.69-1.09-.95-1.37-1.42-3.11-2.38-5.22-2.65-2.14-.27-4.32,1.27-4.57,3.47-.29,2.58,.97,4.83,3.17,6.13,.87,.51,1.86,.8,2.86,.87,.17,.04,.34,.08,.52,.11,1.83-1.42,3.61-2.9,5.34-4.46-.04-.34-.13-.67-.29-.96,0,0,0,0,0-.01Z" style="fill:#000c40;"/><path d="M369.43,329.15c-2,.22-4.05,2.39-3.54,4.52,.27,1.16,.7,2.21,1.41,3.09,1.69-1.87,3.32-3.81,4.87-5.85,.31-.41,.61-.83,.91-1.24-1.13-.46-2.37-.65-3.65-.51Z" style="fill:#000c40;"/><path d="M224.08,246.36c-4.17,1.2-8.29,2.7-12.3,4.47-2.94,1.3-5.71,2.95-8.28,4.85-3.35,2.49-6.38,5.42-8.98,8.71-2.52,3.18-4.63,6.68-6.31,10.37-.68,1.5-1.29,3.02-1.82,4.57-.49,1.44-.92,2.89-1.27,4.37-.21,.33-.4,.66-.57,.96-.14,.25-.25,.5-.35,.75-.53,1.34-.48,2.62-.04,3.73-.42,3.63-.4,7.3,.1,10.92,.24,1.78,.61,3.55,1.09,5.29,.04,.15,.08,.31,.12,.46-2.23,1.38-4.22,3.14-5.64,5.31-2.03,3.11-1.64,6.54,.24,9.12,1.04,1.42,2.52,2.59,4.32,3.28,.71,.27,1.41,.45,2.1,.58,3.11,.6,6.1-.11,8.66-1.66,37.32,27.5,101.65-9.89,94.57-56.01,3.2-.48,6.35-1.84,8.53-4.22,3.31-3.62,3.23-8.94-.17-12.46-3.01-3.12-7.66-3.92-11.58-2.22-2.53,1.1-4.37,2.94-5.76,5.14-15.43-9.92-33.54-11.57-51.01-7.75-.55,.12-1.1,.26-1.65,.39-1.34,.32-2.67,.66-4,1.04Zm39.56,39.51c1.19-3.25,3.77-5.58,7.15-6.39,3.04-.73,5.54,2.38,4.69,5.22-.34,1.14-.9,2.14-1.62,2.98-1.56,2.76-4.36,4.06-7.59,3.3-2.08-.49-3.33-3.17-2.62-5.11Zm-4.07,13.99c-.21,.38-.45,.72-.72,1.04-.48,.88-1.16,1.66-1.99,2.24-2.1,1.46-4.67,1.66-6.89,.32-1.9-1.15-2.38-3.78-1.24-5.61,1.13-1.81,2.73-2.99,4.59-3.63,.41-.26,.85-.47,1.32-.59,.58-.15,1.16-.13,1.71,0,0,0,.01,0,.02,0,1.38-.07,2.79,1.04,3.39,2.2,.69,1.34,.51,2.76-.19,4.04Zm-11.31-19.66c1.07-3.18,4.09-5.25,7.44-5.13,1.42,.05,2.75,.95,3.39,2.2,.69,1.35,.5,2.74-.19,4.04-.29,.54-.65,1.03-1.05,1.46-.49,.71-1.12,1.33-1.96,1.86-1.56,1-3.25,1.03-5.01,.67-2.14-.43-3.26-3.2-2.62-5.11Z" style="fill:#ff8199;"/><path d="M173.41,371.62c-1.02,16.55-1.83,33.12-2.42,49.7,1.59-.58,3.18-1.23,4.75-1.96,1.11,.68,2.23,1.31,3.37,1.93,.58-16.35,1.37-32.68,2.38-49.01-2.69-.2-5.39-.42-8.08-.66Z" style="fill:#000c40;"/><path d="M260.31,373.9c-2.34,.07-4.68,.13-7.02,.17,1.4,15.13,2.47,30.28,3.22,45.46,2.05-1.25,4.02-2.22,6.72-1.63,.35,.08,.7,.17,1.05,.27,.1,.03,.19,.06,.29,.09-.75-14.82-1.81-29.62-3.18-44.4-.36,.01-.72,.03-1.08,.04Z" style="fill:#000c40;"/></g></g></svg>