<?xml version="1.0" encoding="UTF-8"?>
<svg id="Layer_2" xmlns="http://www.w3.org/2000/svg" viewBox="0 0 552.31 469.75">
  <g id="Layer_1-2">
    <g transform="scale(0.9) translate(55 45)">
      <path d="M35.1,118.51c5.85,2.46,11.83,4.66,17.81,6.73,1.87,.65,3.74,1.28,5.61,1.91,.16,.05,.32,.11,.48,.16,2.18,.73,4.36,1.43,6.55,2.12,1.66,.52,3.32,1.04,4.98,1.54,1.7,.51,3.41,1.01,5.12,1.5,1.63,.46,3.26,.92,4.89,1.37,0,0,0,0,0,0,.07,.01,.15,.02,.23,.05,.22,.07,.45,.13,.68,.2,.36,.1,.72,.2,1.08,.3,0,.01,.01,.02,.02,.03,1.26,.39,2.52,.76,3.78,1.13,.18,.05,.35,.09,.53,.13,.04-.05,.1-.08,.14-.13,6.23,1.6,12.49,3.07,18.78,4.4,6.51,1.38,13.05,2.61,19.61,3.72,1.79,.3,3.58,.6,5.38,.88,23.51,3.72,47.29,5.81,71.06,6.68,32.32,1.18,64.7,.13,96.95-2.16,16.38-1.16,32.82-2.34,49.05-4.88,16.4-2.56,32.37-7.15,47.9-12.97,2.35-.88,4.84-1.8,7.44-2.77,2.02-.75,4.09-1.54,6.21-2.36,6.67-2.59,13.73-5.52,20.51-8.97,1.3-.66,2.59-1.35,3.87-2.05,2.1-1.15,4.17-2.36,6.17-3.62,.24-.15,.48-.32,.73-.47,.59-.38,1.2-.76,1.78-1.15,.63-.43,1.25-.86,1.86-1.3,4.91-3.51,9.31-7.43,12.83-11.85,4.36-6.92,6.99-15.59,7.27-22.68,.25-6.31-1.51-12.54-4.21-18.22-1.04-2.18-2.26-4.23-3.46-6.29-18.71-20.01-46.74-28.36-72.91-34.91-20.03-5.01-40.16-9.73-60.68-12.21C302.16-.17,280.97,0,259.89,0c-31.72,.02-63.96,.53-95.84,3.52-1.72,.16-3.45,.33-5.17,.5-16.67,1.71-33.22,4.13-49.54,7.55-1.8,.38-3.59,.76-5.38,1.16-2.44,.55-4.87,1.11-7.29,1.71-1.73,.42-3.45,.87-5.17,1.32-2.38,.62-4.75,1.26-7.11,1.93-1.68,.47-3.35,.97-5.02,1.46-2.45,.73-4.9,1.49-7.34,2.28-1.79,.58-3.57,1.17-5.35,1.78-2.38,.81-4.75,1.66-7.11,2.53-1.84,.68-3.68,1.38-5.51,2.09-5.19,2.03-10.34,4.21-15.44,6.55-.82,.38-1.65,.74-2.47,1.12-1.16,.54-2.32,1.11-3.49,1.69-2.94,1.47-5.89,3.08-8.76,4.85-2.05,1.27-4.06,2.61-5.99,4.06-1.25,.94-2.47,1.92-3.64,2.93-1.61,1.4-3.14,2.88-4.55,4.45C5.08,58.61,1.68,64.64,.47,71.82c-2.13,12.74,3.07,26.25,12.9,34.43,.37,.97,1.07,1.87,2.21,2.54,2.63,1.57,5.33,3.04,8.06,4.43,.05,.03,.1,.05,.15,.08,1.48,.75,2.99,1.46,4.5,2.17,2.25,1.05,4.51,2.07,6.81,3.04Zm-9.13-55.5c.87-6.42,11.99-11,16.92-13.31,3.92-1.84,7.97-3.37,12.08-4.66,.16-.06,.32-.13,.48-.19,.15-.06,.3-.12,.46-.18,.33-.12,.66-.26,1-.38,3.71-1.34,7.47-2.5,11.27-3.55,.55-.15,1.1-.31,1.65-.45,1.4-.37,2.81-.73,4.23-1.07,6.78-1.64,13.64-2.94,20.52-4.06,5.71-.93,11.45-1.78,17.19-2.59,.78-.11,1.56-.23,2.35-.33,.68-.09,1.36-.2,2.03-.29,.46-.06,.93-.12,1.39-.18,10.09-1.36,20.22-2.55,30.35-3.6,2.66-.28,5.32-.53,7.98-.79,8.72-.84,17.44-1.6,26.15-2.26,59.54-4.54,119.82-4.02,178.81,5.92,13.68,2.3,27.44,4.91,40.49,9.72,10.63,3.91,24.54,10.28,28.36,22.03,2.83,8.7-2.95,15.37-9.84,20.25-3.02,2.13-6.25,3.93-9.07,5.39-.99,.52-2.01,.99-3.01,1.47-11.23,5.38-23.33,8.79-35.53,11.15-28.5,5.51-58.16,6.54-87.1,7.61-30.6,1.13-61.26,1.02-91.85-.35-6.93-.31-13.87-.66-20.82-1.06-1.74-.1-3.47-.21-5.21-.32-9.07-.58-18.14-1.29-27.18-2.2-.5-.05-1.01-.1-1.51-.15-7.41-.77-14.81-1.69-22.17-2.79-.69-.1-1.38-.2-2.07-.31-1.09-.17-2.18-.35-3.27-.53-.96-.16-1.93-.31-2.89-.47-3.91-.66-7.81-1.38-11.7-2.17-6.26-1.26-12.49-2.72-18.66-4.38-1.97-.53-3.94-1.08-5.91-1.66-.57-.17-1.14-.35-1.71-.52-2.95-.89-5.89-1.83-8.81-2.83-1.43-.49-2.85-.99-4.27-1.51-.51-.19-1.01-.38-1.52-.57-1.64-.61-3.27-1.23-4.89-1.88-.38-.15-.79-.32-1.21-.49-.04-.02-.08-.03-.13-.05-.41-.17-.83-.35-1.26-.53-.06-.03-.12-.05-.17-.07-.44-.19-.88-.38-1.34-.59-.05-.02-.11-.05-.16-.07-.47-.21-.95-.43-1.44-.66-.04-.02-.07-.03-.11-.05-2.09-.98-4.31-2.11-6.46-3.39-.01,0-.03-.02-.04-.02-.53-.32-1.06-.64-1.58-.98-.01,0-.03-.02-.04-.03-2.64-1.71-5.09-3.64-6.96-5.79,0-.01-.02-.02-.03-.03-.37-.42-.71-.85-1.03-1.29,0-.01-.02-.03-.03-.04-.32-.44-.61-.89-.88-1.35-1.37-2-2.14-4.19-1.83-6.53Z" style="fill:#000c40;" />
      <path d="M406.18,264.3c-.49-.06-.89-.24-1.24-.48-1.98,1.93-4.1,3.73-6.36,5.37,2.51,3.63,5.53,6.87,9.02,9.59,.92-2.91,1.82-5.82,2.76-8.72,.37-1.58,.75-3.16,1.11-4.74-1.74-.43-3.5-.78-5.29-1.01Z" style="fill:#ff4300;" />
      <path d="M412.62,260.26c.66-2.94,1.3-5.89,1.92-8.84-1.63,2.85-3.51,5.54-5.6,8.05,1.24,.22,2.47,.49,3.68,.78Z" style="fill:#ff4300;" />
      <path d="M126.59,257.52c-.1-1.24-.06-2.42,.11-3.56-.52,.31-1.18,.38-1.95,.07-6.16-2.51-12.33-5.02-18.49-7.53-3.1-1.26-1.73-6.34,1.4-5.07l18.49,7.53c.78,.32,1.28,.88,1.53,1.52,.72-1.76,1.77-3.36,3.04-4.8-.05-.05-.1-.08-.15-.14-5.89-6.53-11.36-13.4-16.42-20.59-1.95-2.77,2.6-5.39,4.54-2.65,4.81,6.82,10.01,13.32,15.6,19.53,.11,.12,.2,.25,.28,.38,1.37-.99,2.85-1.86,4.38-2.61,1.29-.63,2.62-1.18,3.95-1.63,.31-.1,.62-.19,.93-.29-1.26-10.96-7.44-20.64-13.76-29.46-5.34-7.46-12.2-14.3-21.74-15.37-8.04-.9-16.26,2.88-18.84,10.94-2.51,7.81,.52,15.18,4.73,21.71-12.35-.82-26.4,10.28-23.16,23.38,2.16,8.71,11.89,10.57,19.44,12.09,11.79,2.37,23.77,3.47,35.78,3.44,.62,0,1.13-.18,1.52-.48-.45-1.56-.8-3.14-1.02-4.73-.08-.56-.14-1.12-.19-1.68Z" style="fill:#ff4300;" />
      <path d="M171.85,306.49c-.58-.2-1.15-.4-1.73-.6-.15,.34-.3,.68-.46,1.02-4.14,9.21-10.2,17.42-17.79,23.92-1.4,1.2-2.85,2.35-4.35,3.42-2.62,1.88-5.4,3.58-8.31,5.05-11.36,23.52-15.52,49.87-12.04,75.74,1.79,.31,3.59,.62,5.38,.91,2.26,.37,4.53,.73,6.8,1.06,.11,.02,.22,.03,.33,.05,1.82,.27,3.64,.52,5.47,.77-6.71-35.56,1.38-72.87,21.92-102.6,1.23-2.49,2.53-4.89,3.84-7.15,.31-.54,.63-1.08,.94-1.6Z" style="fill:#0099a9;" />
      <path d="M192.95,309.26c.09,.16,.17,.34,.24,.54,1.28,3.97,2.57,7.94,3.85,11.91,1.04,3.23-4.03,4.6-5.07,1.4-1.28-3.97-2.57-7.94-3.85-11.91-.19-.6-.18-1.14-.01-1.59-.46,0-.92-.01-1.39-.03,.1,.39,.12,.83,0,1.31-1.17,4.59-1.96,9.23-2.31,13.96-.25,3.36-5.51,3.37-5.25,0,.39-5.19,1.21-10.31,2.5-15.36,.04-.16,.1-.3,.16-.44-1.58-.26-3.17-.6-4.75-1.01-1.75-.45-3.49-.97-5.21-1.55-.31,.52-.63,1.06-.94,1.6-1.31,2.26-2.61,4.65-3.84,7.15-4.61,9.38-8.07,20.11-6,29.63,2.16,9.91,13.43,18.36,22.72,10.98,1.55-1.23,2.85-2.79,3.57-4.65,.21-.54,.35-2.97,.7-3.23-.02,.01,2.5,1.98,3.48,2.8,4.5,3.78,9.19,8.03,15.31,8.62,11.83,1.12,19.73-10.82,18.73-21.59-1.29-13.94-12.5-23.75-22.57-32.66-1.53,1.13-3.14,2.03-4.83,2.71-1.69,.68-3.44,1.15-5.25,1.43Z" style="fill:#ff4300;" />
      <path d="M417.78,219.09c.97,1.11,1.82,2.3,2.48,3.59,.51-2.71,1.01-5.42,1.51-8.12-1.26,1.48-2.54,2.95-3.85,4.4-.05,.05-.1,.09-.15,.14Z" style="fill:#ff4300;" />
      <path d="M551.25,159.64c-5.98-33.87-41.53-51.23-73.28-42.87-11.36,2.99-21.52,8.67-30.04,16.18-5.23,4.61-9.83,9.9-13.71,15.7-.14,.22-.3,.42-.44,.64,.9-4.54,1.83-9.08,2.79-13.61-5.41,5.06-12.14,8.17-20.29,6.95-6.02-.9-11.87-4.97-12.96-11.28-.17-1.01-.21-1.97-.14-2.88-2.59,.97-5.09,1.89-7.44,2.77-15.53,5.82-31.5,10.41-47.9,12.97-16.23,2.53-32.67,3.72-49.05,4.88-32.25,2.28-64.63,3.34-96.95,2.16-23.77-.87-47.55-2.97-71.06-6.68,.81,5.17,.48,10.4-1.93,15.37-3.54,7.27-11.14,12.19-19.33,10.06-7.94-2.07-12.55-8.57-15.8-15.61-5.92,10.87-22.82,16.8-32.14,7.04-6.2-6.49-2.56-15.7,.2-22.89,1.18-3.07,2.45-6.1,3.8-9.09-2.19-.69-4.37-1.39-6.55-2.12-.16-.05-.32-.11-.48-.16-2.79,2.43-5.89,4.51-9.3,6.12-6.01,2.83-15.8,4.02-22.26,1.13,2.27,14.66,4.68,29.31,7.24,43.92,1.54-1.85,3.43-3.5,5.73-4.9,5.21-3.15,12.3-3.75,17.18,.41,4.25,3.63,4.58,8.71,3.65,13.7,9.25-1.81,17.81,8.14,13.13,18.04-5.34,11.31-20.38,13.84-32.43,12.19,5.25,27.16,11.01,54.22,17.27,81.17,6.65,28.61,12.76,58.25,25.56,84.89,4.62,9.61,10.51,18.92,18.22,26.37,1.21,1.17,2.46,2.3,3.77,3.37,1.73,1.42,3.52,2.72,5.36,3.92-.05,1.76-.07,3.53-.06,5.29,.05,10.53,1.19,20.98,3.36,31.32,.37,1.78,1.99,3.18,3.67,3.67,31.04,9.08,63.36,12.04,95.61,11.98,1.91,0,3.83-.01,5.74-.04,2.13-.03,4.26-.06,6.39-.12,11.06-.27,22.11-.83,33.15-1.56,1.42-.09,2.84-.19,4.26-.29,3.29-.23,6.58-.46,9.87-.71,1.81-.14,3.61-.28,5.41-.42,.09,0,.17-.01,.26-.02,.5-.04,.99-.08,1.49-.12,.04,0,.08,0,.12,0,1.13-.09,2.26-.17,3.39-.25,.6-.04,1.21-.08,1.81-.13,4.33-.3,8.71-.58,13.09-.94,1.76-.14,3.51-.3,5.27-.47,1.37-.14,2.74-.3,4.11-.46,1.42-.02,2.84-.09,4.25-.21,1.96-.18,3.91-.46,5.84-.84,3.36-.66,6.66-1.61,9.86-2.87,.63-.25,1.26-.5,1.88-.77,1.2-.41,2.39-.84,3.56-1.3,.41-.16,.78-.36,1.13-.56,.52-.31,.97-.67,1.35-1.09,.81-.88,1.3-2.01,1.38-3.42,.07-1.35,.16-2.7,.24-4.06,.5-8.51,1.07-17.02,1.74-25.51,.1-1.28,.21-2.55,.31-3.83,0-.07,.01-.14,.02-.22,.03-.35,.06-.71,.09-1.06,.05-.64,.1-1.28,.16-1.91,.04-.47,.07-.93,.11-1.4,.07-.76-.02-1.44-.21-2.03,2.64-1.82,5.12-3.84,7.48-5.98-5.14,1.26-10.31,2.45-15.48,3.56-24.16,5.17-48.68,8.69-73.31,10.54-13.23,.99-26.49,1.51-39.75,1.54-3.13-1.77-5.8-4.19-7.56-7.61-6.56-12.77,4-26.27,17.56-25.71,1.79,.07,9.59,1.94,10.12,.39,.39-1.14-5.39-6.22-6.36-7.85-3.12-5.23-3.07-11.41,.26-16.52,7.97-12.24,24.36-9.55,34.7-2.2,12.35,8.79,18.71,24.28,17.03,39.19,1.01-.21,2.03-.39,3.06-.53-.06-.32-.05-.68,.05-1.08,2.04-8.2,4.08-16.39,6.12-24.59,1.68-6.77,3.16-13.94,7.05-19.85,5.56-8.44,21.72-18.78,31-10.38,4.22,3.82,5.28,9.74,4.64,15.16-.12,1.01-1.42,4.93,.22,5.63,.65,.27,3.75-2.03,4.42-2.39,2.52-1.36,5.14-2.48,7.96-3.03,13.07-2.57,18.62,8.77,18.7,19.9,3.27-5.45,6.27-11.07,9.1-16.63,5.58-10.98,10.48-22.28,14.83-33.8,.09-.24,.18-.47,.27-.71,2.01,3.37,4.99,6.26,8.5,8.4,.68,.42,1.38,.81,2.1,1.17,1.81,.89,3.73,1.58,5.71,2.04,.83,.19,1.66,.35,2.51,.46,.98,.12,1.96,.19,2.93,.21,1.78,.03,3.55-.11,5.26-.42,10.75-1.94,19.19-10.37,13.77-22.58-.45-1.01-.89-1.89-1.24-2.7,.21-.07,.42-.14,.63-.22,5.44-2.17,8.82-7.54,9.47-13.21,1.25-.97,2.5-1.94,3.71-2.93,7.78-6.33,15.56-12.67,23.34-19,14.65-11.93,29.71-23.51,43.7-36.22,24.03-21.83,44.45-51.45,38.44-85.53Zm-298.17,52.93s-.04,.06-.07,.08c-9.68,8.82-17.56,19.18-25.16,29.77,4.54-1.36,9.33-1.96,14.15-1.64,12.66,.84,27.06,9.12,25.49,23.64-.66,6.06-4.53,10.88-10.25,12.96-1.78,.65-9.48,.93-9.89,2.06-.57,1.54,6.66,5.02,8.09,6.1,10.86,8.14,10.5,25.28-2.65,31.03-6.97,3.04-14.23,.79-20.72-2.38-8.35-4.08-16.36-8.96-24.15-14.01-1.49,2-3.12,3.63-4.88,4.94,10.07,8.92,21.28,18.72,22.57,32.66,1,10.77-6.9,22.71-18.73,21.59-6.13-.58-10.81-4.84-15.31-8.62-.98-.82-3.5-2.78-3.48-2.8-.36,.27-.49,2.69-.7,3.23-.73,1.86-2.02,3.42-3.57,4.65-9.29,7.38-20.56-1.07-22.72-10.98-2.07-9.52,1.39-20.24,6-29.63-20.54,29.73-28.64,67.03-21.92,102.6-1.82-.25-3.65-.51-5.47-.77-.11-.02-.22-.03-.33-.05-2.27-.34-4.53-.7-6.8-1.06-1.8-.29-3.59-.6-5.38-.91-3.47-25.87,.68-52.22,12.04-75.74-.91,.46-1.83,.91-2.77,1.32-6.3,2.82-13.79,5.17-20.54,2.48-5.74-2.28-9.19-8.13-9.56-14.15-.24-3.91,.79-7.73,2.5-11.22,.84-1.71,3.72-5.04,2.68-7-.88-1.65-4.85-2.4-6.43-2.73-7.52-1.59-15.45-.24-22.64-3.45-14.92-6.67-3.68-24.19,5.76-30.18,12.63-8.02,28.94-8.17,42.59-2.77-.08-.19-.17-.38-.24-.57-1.13-2.3-2.07-4.67-2.77-7.1-.39,.29-.9,.47-1.52,.48-12.02,.03-24-1.07-35.78-3.44-7.54-1.52-17.28-3.38-19.44-12.09-3.25-13.1,10.81-24.2,23.16-23.38-4.21-6.52-7.23-13.9-4.73-21.71,2.59-8.06,10.8-11.84,18.84-10.94,9.54,1.07,16.39,7.9,21.74,15.37,6.32,8.82,12.5,18.5,13.76,29.46,.72-.22,1.44-.41,2.16-.58-3.76-14.94-3.65-31.59,5.91-44.42,6.96-9.34,19.19-15.72,28.13-4.94,1.84,2.21,3.15,4.73,4.25,7.38,.29,.7,1.24,4.45,1.91,4.65,1.71,.5,3.19-3.37,3.73-4.22,2.93-4.61,7.5-8.52,13.18-8.81,12.5-.64,18.48,17.59,17.45,27.64-.72,7.04-4.12,13.53-7.09,19.84-2.29,4.86-4.58,9.72-6.87,14.57,9.84-17.49,22.44-33.27,37.35-46.75-2.33-12.36-1.27-26.24,10.49-33.34,5.21-3.15,12.3-3.75,17.18,.41,4.25,3.63,4.58,8.71,3.65,13.7,9.25-1.81,17.81,8.14,13.13,18.04-5.77,12.23-22.88,14.19-35.29,11.71Zm254.35-12.14c-6.28,10.2-15.92,18.44-24.4,26.77-7.24,7.12-14.57,14.15-21.94,21.14-1.23,1.16-2.45,2.33-3.68,3.49-.84,.79-1.66,1.59-2.5,2.37-13.11,12.3-26.44,24.36-39.95,36.22-4.31,3.78-8.64,7.55-12.99,11.29,1.33-4.45,2.6-8.92,3.8-13.41,.36-1.34,.7-2.69,1.05-4.04,.44-1.68,.89-3.36,1.31-5.05,.77-3.05,1.5-6.1,2.23-9.16-.93,2.9-1.84,5.82-2.76,8.72-.55,1.75-1.11,3.5-1.66,5.26-2.31,7.41-4.56,14.84-6.76,22.29-1,3.39-2,6.77-2.98,10.17-3.82-9.77-8.77-19.13-14.79-27.84,4.61,9.38,8.07,20.11,6,29.63-2.16,9.91-13.43,18.36-22.72,10.98-1.55-1.23-2.85-2.79-3.57-4.65-.21-.54-.35-2.97-.7-3.23,.02,.01-2.5,1.98-3.48,2.8-4.5,3.78-9.19,8.03-15.31,8.62-11.83,1.12-19.73-10.82-18.73-21.59,1.29-13.94,12.5-23.75,22.57-32.66-1.76-1.31-3.39-2.94-4.88-4.94-7.79,5.05-15.8,9.93-24.15,14.01-6.49,3.17-13.75,5.42-20.72,2.38-13.16-5.74-13.52-22.88-2.65-31.03,1.43-1.07,8.66-4.56,8.09-6.1-.42-1.13-8.11-1.41-9.89-2.06-5.72-2.08-9.59-6.9-10.25-12.96-1.57-14.52,12.83-22.8,25.49-23.64,15.13-1,29.85,6.98,37.97,19.59,.65-.8,1.33-1.59,2.03-2.35-.25-.21-.47-.5-.65-.87-3.6-7.64-7.21-15.28-10.81-22.92-2.98-6.31-6.37-12.8-7.09-19.84-1.03-10.06,4.95-28.28,17.45-27.64,5.68,.29,10.25,4.21,13.18,8.81,.54,.85,2.02,4.72,3.73,4.22,.67-.2,1.62-3.95,1.91-4.65,1.1-2.65,2.41-5.17,4.25-7.38,8.94-10.78,21.17-4.4,28.13,4.94,9.57,12.83,9.67,29.49,5.91,44.42,.73,.17,1.45,.36,2.16,.58,1.26-10.96,7.44-20.64,13.76-29.46,3.27-4.57,7.12-8.9,11.79-11.82-2.07,11.15-4.08,22.32-6.05,33.49-.26,1.46-.51,2.93-.77,4.39,.59,.91,1.23,1.78,1.94,2.55,1.99,2.18,4.48,3.73,7.5,4.17,1.48,.21,3.09,.17,4.85-.21,5.35-1.15,9.44-4.59,12.52-8.91,2.83-3.96,4.83-8.66,6.17-13.05,1.54-5.05,2.28-10.32,2.41-15.59,.01-.4,.03-.8,.03-1.2,.05-5.9-.51-11.88,3.34-16.81,5.94-7.61,17.51-10.56,26.73-10.58,11.61-.03,19.14,5.23,21.87,16.63,2.94,12.24,3.46,24.69-3.34,35.74Z" style="fill:#fff;" />
      <path d="M105.78,139.96c-6.29-1.33-12.55-2.8-18.78-4.4-.04,.05-.09,.09-.14,.13h0c-.18-.05-.35-.09-.53-.13-1.26-.37-2.53-.75-3.78-1.13,0-.01-.01-.02-.02-.03-.36-.1-.72-.2-1.08-.3-.22-.07-.45-.13-.68-.2-.08-.02-.15-.04-.23-.05h0s0,0,0,0c-1.63-.45-3.26-.9-4.89-1.37-1.71-.49-3.42-.99-5.12-1.5-1.67-.5-3.33-1.02-4.98-1.54-1.35,2.99-2.63,6.02-3.8,9.09-2.76,7.18-6.4,16.4-.2,22.89,9.33,9.76,26.23,3.83,32.14-7.04,3.26,7.05,7.86,13.55,15.8,15.61,8.19,2.13,15.79-2.78,19.33-10.06,2.42-4.96,2.74-10.2,1.93-15.37-1.79-.28-3.59-.58-5.38-.88-6.56-1.11-13.1-2.34-19.61-3.72Z" style="fill:#ff4300;" />
      <path d="M164.5,237.24c-1.68-7.28-3.11-14.6-4.25-21.99-.51-3.31,4.55-4.73,5.07-1.4,1.23,7.97,2.78,15.88,4.65,23.73,.09,.39,.1,.75,.04,1.09,3.59,1.11,7.11,2.54,10.5,4.19,0-.59,.19-1.2,.68-1.75,3.95-4.46,7.89-8.92,11.84-13.38,2.25-2.54,5.95,1.19,3.72,3.72-3.94,4.46-7.89,8.92-11.84,13.38-.07,.08-.15,.14-.22,.21,4.23,2.35,8.16,5.01,11.64,7.73,.64,.5,1.26,1.02,1.88,1.56,1.26,1.1,2.47,2.27,3.63,3.51,.06,.06,.12,.13,.18,.19,.25-.21,.47-.5,.65-.87,1.31-2.78,2.62-5.56,3.94-8.35,2.29-4.86,4.58-9.72,6.87-14.57,2.98-6.31,6.37-12.8,7.09-19.84,1.03-10.06-4.95-28.28-17.45-27.64-5.68,.29-10.25,4.21-13.18,8.81-.54,.85-2.02,4.72-3.73,4.22-.67-.2-1.62-3.95-1.91-4.65-1.1-2.65-2.41-5.17-4.25-7.38-8.94-10.78-21.17-4.4-28.13,4.94-9.57,12.83-9.67,29.49-5.91,44.42,1.71-.4,3.45-.66,5.2-.81,4.38-.37,8.87,0,13.32,.94Z" style="fill:#ff4300;" />
      <path d="M276.59,62.19c-23.98-.81-47.99-1.95-71.98-2.28-8.34-.12-16.64,.17-24.91,.78-2.32,.17-4.65,.36-6.97,.58-9.17,.87-18.3,2.11-27.41,3.62-3.7,.61-7.4,1.27-11.1,1.96-2.86,.54-5.74,1.07-8.63,1.61-.48,.09-.95,.18-1.43,.26-1.25,.23-2.5,.46-3.75,.7-16.21,3.03-32.59,6.34-48.16,11.68-1.56,.53-3.1,1.09-4.64,1.66-.32,.12-.63,.25-.95,.37-2.74,1.05-5.46,2.15-8.13,3.35-.58,.26-1.06,.58-1.45,.93,1.42,.52,2.84,1.02,4.27,1.51,2.92,1,5.86,1.94,8.81,2.83,.57,.17,1.14,.35,1.71,.52,1.96,.58,3.93,1.13,5.91,1.66,6.17,1.66,12.4,3.12,18.66,4.38,3.89,.78,7.79,1.5,11.7,2.17,.96,.16,1.93,.31,2.89,.47,1.09,.18,2.18,.36,3.27,.53,.69,.11,1.38,.2,2.07,.31,7.36,1.1,14.76,2.02,22.17,2.79,.5,.05,1.01,.1,1.51,.15,9.04,.91,18.11,1.62,27.18,2.2,1.74,.11,3.47,.22,5.21,.32,6.95,.41,13.89,.75,20.82,1.06,30.6,1.37,61.25,1.49,91.85,.35,28.94-1.07,58.61-2.1,87.1-7.61,12.2-2.36,24.3-5.77,35.53-11.15,1.01-.48,2.02-.96,3.01-1.47,2.82-1.46,6.05-3.25,9.07-5.39-.6-.68-1.43-1.22-2.53-1.51-46.16-12.44-93.02-17.72-140.71-19.33Z" style="fill:#ff8199;" />
      <path d="M288.37,200.86c4.68-9.9-3.88-19.85-13.13-18.04,.94-4.98,.61-10.06-3.65-13.7-4.88-4.16-11.97-3.56-17.18-.41-11.76,7.11-12.82,20.98-10.49,33.34,.38,2.01,.85,3.99,1.38,5.88,.21,.76,.43,1.51,.66,2.24,.16,.52,.44,.91,.77,1.2,.81,.71,1.98,.78,2.92,.37-.86,0-1.61-.49-2.09-1.17-.44-.64-.65-1.45-.46-2.19,0-.05,0-.1,0-.15,.1-.77,.21-1.54,.35-2.3,.34-1.93,.8-3.82,1.37-5.67,.18-.57,.36-1.13,.56-1.69,.9-2.56,2.04-5.05,3.44-7.46,1.7-2.92,6.24-.28,4.54,2.65-1.91,3.27-3.34,6.74-4.23,10.38,3.63-2.05,7.25-4.1,10.88-6.15,2.95-1.67,5.6,2.87,2.65,4.54-3.2,1.81-6.41,3.62-9.61,5.43-1.15,.65-2.3,1.3-3.45,1.95-.88,.5-1.76,.99-2.64,1.49-.42,.24-.84,.35-1.23,.36,1.07,.31,2.19,.57,3.35,.81,12.42,2.48,29.52,.52,35.29-11.71Z" style="fill:#ff4300;" />
      <path d="M73.88,205.57c4.68-9.9-3.88-19.85-13.13-18.04,.94-4.98,.61-10.06-3.65-13.7-4.88-4.16-11.97-3.56-17.18-.41-2.3,1.39-4.19,3.05-5.73,4.9,.46,2.66,.93,5.31,1.41,7.97,.65,3.64,1.31,7.28,1.98,10.91,.25-.46,.49-.92,.76-1.38,1.7-2.92,6.24-.28,4.54,2.65-1.49,2.56-2.69,5.25-3.57,8.04,.11,.59,.23,1.18,.34,1.77,3.29-1.86,6.58-3.72,9.88-5.58,2.95-1.67,5.6,2.87,2.65,4.54-3.2,1.81-6.41,3.62-9.61,5.43-.63,.35-1.25,.71-1.88,1.06,.26,1.34,.51,2.69,.77,4.03,12.05,1.65,27.09-.88,32.43-12.19Z" style="fill:#ff4300;" />
      <path d="M35.16,216.47s.05,0,.07,0c-.02,0-.03,0-.05-.01,0,0-.02,0-.03,0Z" style="fill:#010000;" />
      <path d="M52.17,207.24c2.94-1.66,.3-6.2-2.65-4.54-3.29,1.86-6.58,3.72-9.88,5.58,.25,1.34,.51,2.68,.77,4.03,.09,.47,.18,.95,.27,1.42,.63-.35,1.25-.71,1.88-1.06,3.2-1.81,6.41-3.62,9.61-5.43Z" style="fill:#000c40;" />
      <path d="M38.34,195.83c-.27,.46-.51,.92-.76,1.38,.57,3.11,1.14,6.21,1.73,9.32,.88-2.79,2.07-5.48,3.57-8.04,1.71-2.93-2.83-5.58-4.54-2.65Z" style="fill:#000c40;" />
      <path d="M439.93,111.46c-2,1.27-4.07,2.47-6.17,3.62-1.28,.7-2.57,1.39-3.87,2.05-6.79,3.45-13.84,6.38-20.51,8.97-2.12,.82-4.19,1.61-6.21,2.36-.07,.92-.03,1.88,.14,2.88,1.09,6.32,6.94,10.38,12.96,11.28,8.15,1.22,14.89-1.89,20.29-6.95,.47-2.24,.97-4.47,1.46-6.7,.92-4.68,1.82-9.36,2.75-14.03,.18-.89,.52-1.6,.96-2.17,.12-.51,.24-1.02,.36-1.53,.11-.47,.22-.94,.34-1.41-.58,.39-1.18,.77-1.78,1.15-.24,.16-.48,.32-.73,.47Z" style="fill:#ff4300;" />
      <path d="M210.53,252.51c-2.47,2.34-4.65,4.98-6.5,7.86,.45,.56,.89,1.12,1.32,1.7,.65,.87,1.26,1.77,1.84,2.68,1.43,2.25,2.66,4.61,3.64,7.04,5.9-.55,11.79-1.26,17.65-2.16,3.31-.51,4.73,4.56,1.4,5.07-5.79,.88-11.59,1.61-17.42,2.18,.57,2.41,.87,4.86,.86,7.31,.45-.03,.93,.04,1.42,.29,5.08,2.57,10.16,5.14,15.24,7.7,3.02,1.53,.36,6.06-2.65,4.54-4.85-2.45-9.69-4.9-14.54-7.35-.43,2.14-1.13,4.25-2.14,6.33-.63,1.3-1.36,2.58-2.24,3.83-.16,.23-.33,.43-.49,.65,7.79,5.05,15.8,9.93,24.15,14.01,6.49,3.17,13.75,5.42,20.72,2.38,13.16-5.74,13.52-22.88,2.65-31.03-1.43-1.07-8.66-4.56-8.09-6.1,.42-1.13,8.11-1.41,9.89-2.06,5.72-2.08,9.59-6.9,10.25-12.96,1.57-14.52-12.83-22.8-25.49-23.64-4.82-.32-9.61,.27-14.15,1.64-2.74,.82-5.4,1.93-7.92,3.28-3.41,1.83-6.58,4.13-9.4,6.81Z" style="fill:#ff4300;" />
      <path d="M210.64,295.7c1.01-2.07,1.71-4.19,2.14-6.33,.35-1.72,.52-3.45,.53-5.18,.02-2.45-.28-4.9-.86-7.31-.41-1.72-.96-3.42-1.62-5.09-.97-2.43-2.2-4.8-3.64-7.04-.58-.91-1.2-1.81-1.84-2.68-.43-.58-.87-1.14-1.32-1.7-.65-.8-1.33-1.59-2.03-2.35-.06-.06-.12-.13-.18-.19-1.16-1.24-2.37-2.41-3.63-3.51-.62-.54-1.24-1.06-1.88-1.56-3.48-2.73-7.41-5.38-11.64-7.73-1.36-.76-2.75-1.48-4.17-2.17-3.39-1.65-6.91-3.08-10.5-4.19-1.82-.56-3.66-1.04-5.5-1.43-4.45-.93-8.94-1.3-13.32-.94-1.75,.15-3.49,.41-5.2,.81-.73,.17-1.45,.36-2.16,.58-.31,.09-.62,.18-.93,.29-1.33,.45-2.66,1-3.95,1.63-1.53,.74-3,1.61-4.38,2.61-1.42,1.03-2.72,2.19-3.85,3.47-1.27,1.45-2.32,3.05-3.04,4.8-.45,1.1-.79,2.26-.98,3.48-.17,1.14-.21,2.33-.11,3.56,.05,.56,.11,1.12,.19,1.68,.22,1.59,.57,3.17,1.02,4.73,.69,2.43,1.63,4.8,2.77,7.1,.08,.19,.16,.38,.24,.57,.86,2.07,1.83,4.07,2.92,6.01,1.68,2.99,3.63,5.82,5.82,8.46,1.26,1.51,2.59,2.97,4,4.34,1.98,1.93,4.1,3.73,6.36,5.37,1.41,1.02,2.87,1.98,4.38,2.88,1.58,.94,3.21,1.81,4.9,2.61,1.93,.91,3.97,1.83,6.09,2.72,1.58,.66,3.2,1.3,4.85,1.89,.57,.21,1.15,.41,1.73,.6,1.72,.58,3.46,1.1,5.21,1.55,1.58,.4,3.17,.75,4.75,1.01,1.65,.27,3.29,.45,4.91,.53,.46,.02,.93,.03,1.39,.03,1.64,0,3.26-.1,4.84-.35,1.81-.28,3.56-.75,5.25-1.43,1.69-.68,3.3-1.57,4.83-2.71,1.76-1.31,3.39-2.94,4.88-4.94,.16-.22,.33-.42,.49-.65,.88-1.26,1.61-2.54,2.24-3.83Z" style="fill:#ffb003;" />
      <path d="M169.96,237.59c-1.86-7.85-3.41-15.76-4.65-23.73-.52-3.33-5.58-1.92-5.07,1.4,1.14,7.39,2.57,14.71,4.25,21.99,1.84,.39,3.68,.87,5.5,1.43,.06-.33,.05-.69-.04-1.09Z" style="fill:#000c40;" />
      <path d="M196.74,231.45c2.23-2.52-1.47-6.25-3.72-3.72-3.95,4.46-7.89,8.92-11.84,13.38-.49,.55-.68,1.16-.68,1.75,1.42,.69,2.81,1.41,4.17,2.17,.07-.07,.15-.13,.22-.21,3.95-4.46,7.89-8.92,11.84-13.38Z" style="fill:#000c40;" />
      <path d="M229.87,274.7c3.33-.51,1.92-5.57-1.4-5.07-5.86,.9-11.74,1.61-17.65,2.16,.67,1.67,1.21,3.37,1.62,5.09,5.83-.57,11.63-1.3,17.42-2.18Z" style="fill:#000c40;" />
      <path d="M227.31,296.72c3.01,1.52,5.67-3.01,2.65-4.54-5.08-2.57-10.16-5.14-15.24-7.7-.49-.25-.97-.32-1.42-.29-.01,1.73-.19,3.46-.53,5.18,4.85,2.45,9.69,4.9,14.54,7.35Z" style="fill:#000c40;" />
      <path d="M179.15,324.85c-.25,3.37,5,3.36,5.25,0,.36-4.73,1.14-9.36,2.31-13.96,.12-.48,.11-.92,0-1.31-1.62-.07-3.26-.26-4.91-.53-.06,.14-.12,.28-.16,.44-1.29,5.05-2.11,10.16-2.5,15.36Z" style="fill:#000c40;" />
      <path d="M188.12,311.2c1.28,3.97,2.57,7.94,3.85,11.91,1.04,3.2,6.11,1.83,5.07-1.4-1.28-3.97-2.57-7.94-3.85-11.91-.06-.2-.14-.38-.24-.54-1.58,.25-3.2,.36-4.84,.35-.16,.45-.18,.99,.01,1.59Z" style="fill:#000c40;" />
      <path d="M125.45,296.31c5.29-2.78,10.94-4.63,16.87-5.42,.49-.06,.89-.24,1.24-.48-1.41-1.38-2.74-2.83-4-4.34-5.86,1.04-11.43,2.9-16.75,5.7-2.99,1.57-.34,6.11,2.65,4.54Z" style="fill:#000c40;" />
      <path d="M140.34,305.82c-2.67,2.01-.05,6.57,2.65,4.54,4.4-3.32,8.17-7.19,11.3-11.69-1.51-.9-2.97-1.86-4.38-2.88-2.64,3.83-5.84,7.23-9.57,10.04Z" style="fill:#000c40;" />
      <path d="M126.14,248.96l-18.49-7.53c-3.13-1.27-4.49,3.81-1.4,5.07,6.16,2.51,12.33,5.02,18.49,7.53,.77,.31,1.44,.24,1.95-.07,.18-1.22,.52-2.37,.98-3.48-.26-.64-.75-1.2-1.53-1.52Z" style="fill:#000c40;" />
      <path d="M118.68,222.3c-1.93-2.74-6.49-.12-4.54,2.65,5.07,7.19,10.54,14.06,16.42,20.59,.05,.05,.1,.09,.15,.14,1.13-1.28,2.43-2.44,3.85-3.47-.08-.13-.17-.26-.28-.38-5.59-6.2-10.79-12.7-15.6-19.53Z" style="fill:#000c40;" />
      <path d="M151.88,330.83c7.59-6.5,13.65-14.7,17.79-23.92,.15-.34,.31-.68,.46-1.02-1.65-.6-3.27-1.23-4.85-1.89-2.12-.89-4.16-1.81-6.09-2.72-1.68-.79-3.32-1.67-4.9-2.61-3.12,4.5-6.89,8.38-11.3,11.69-2.7,2.04-5.32-2.53-2.65-4.54,3.72-2.81,6.93-6.21,9.57-10.04-2.26-1.64-4.38-3.44-6.36-5.37-.34,.24-.75,.42-1.24,.48-5.93,.78-11.58,2.64-16.87,5.42-2.99,1.57-5.65-2.96-2.65-4.54,5.33-2.8,10.89-4.66,16.75-5.7-2.19-2.63-4.14-5.46-5.82-8.46-1.09-1.94-2.06-3.94-2.92-6.01-13.65-5.4-29.95-5.25-42.59,2.77-9.45,6-20.68,23.52-5.76,30.18,7.19,3.21,15.13,1.87,22.64,3.45,1.58,.33,5.55,1.08,6.43,2.73,1.05,1.97-1.84,5.29-2.68,7-1.71,3.49-2.74,7.31-2.5,11.22,.37,6.01,3.82,11.86,9.56,14.15,6.74,2.69,14.24,.33,20.54-2.48,.94-.42,1.86-.86,2.77-1.32,2.91-1.48,5.69-3.17,8.31-5.05,1.5-1.08,2.95-2.22,4.35-3.42Z" style="fill:#ff4300;" />
      <path d="M355.54,282.67c1.58,.25,3.2,.36,4.84,.35,.46,0,.92-.01,1.39-.03,1.62-.07,3.26-.26,4.91-.53,1.58-.26,3.17-.6,4.75-1.01,1.75-.45,3.49-.97,5.21-1.55,.58-.2,1.15-.4,1.73-.6,1.65-.6,3.27-1.23,4.85-1.89,2.12-.89,4.16-1.81,6.09-2.72,1.68-.79,3.32-1.67,4.9-2.61,1.51-.9,2.97-1.86,4.38-2.88,2.26-1.64,4.38-3.44,6.36-5.37,1.41-1.38,2.74-2.83,4-4.34,2.09-2.52,3.97-5.21,5.6-8.05,.08-.13,.14-.27,.22-.4-.04-.02-.08-.04-.12-.06,.36-1.7,.72-3.41,1.07-5.11,1.59-7.71,3.09-15.43,4.55-23.17-.66-1.29-1.51-2.48-2.48-3.59-1.13-1.28-2.43-2.44-3.85-3.47-1.37-.99-2.85-1.86-4.38-2.61-1.29-.63-2.62-1.18-3.95-1.63-.31-.1-.62-.19-.93-.29-.72-.22-1.44-.41-2.16-.58-1.71-.4-3.45-.66-5.2-.81-4.38-.37-8.87,0-13.32,.94-1.84,.39-3.68,.87-5.5,1.43-3.59,1.11-7.11,2.54-10.5,4.19-1.42,.69-2.81,1.41-4.17,2.17-4.23,2.35-8.16,5.01-11.64,7.73-.64,.5-1.26,1.02-1.88,1.56-1.32,1.15-2.6,2.39-3.8,3.7-.7,.76-1.38,1.54-2.03,2.35-1.14,1.4-2.2,2.86-3.17,4.38-1.43,2.25-2.66,4.61-3.64,7.04-.67,1.67-1.22,3.37-1.62,5.09-.57,2.41-.87,4.86-.86,7.31,.01,1.73,.19,3.46,.53,5.18,.43,2.14,1.13,4.25,2.14,6.33,.63,1.3,1.36,2.58,2.24,3.83,.16,.23,.33,.43,.49,.65,1.49,2,3.12,3.63,4.88,4.94,1.53,1.13,3.14,2.03,4.83,2.71,1.69,.68,3.44,1.15,5.25,1.43Z" style="fill:#ffb003;" />
      <path d="M350.3,227.73c.62-.54,1.24-1.06,1.88-1.56,3.48-2.73,7.41-5.38,11.64-7.73-.07-.07-.15-.13-.22-.21-3.95-4.46-7.89-8.92-11.84-13.38-2.23-2.52,1.47-6.25,3.72-3.72,3.95,4.46,7.89,8.92,11.84,13.38,.49,.55,.68,1.16,.68,1.75,3.39-1.65,6.91-3.08,10.5-4.19-.05-.33-.05-.69,.04-1.09,1.86-7.85,3.41-15.76,4.65-23.73,.52-3.33,5.58-1.92,5.07,1.4-1.14,7.39-2.57,14.71-4.25,21.99,4.45-.93,8.94-1.3,13.32-.94,1.75,.15,3.49,.41,5.2,.81,3.76-14.94,3.65-31.59-5.91-44.42-6.96-9.34-19.19-15.72-28.13-4.94-1.84,2.21-3.15,4.73-4.25,7.38-.29,.7-1.24,4.45-1.91,4.65-1.71,.5-3.19-3.37-3.73-4.22-2.93-4.61-7.5-8.52-13.18-8.81-12.5-.64-18.48,17.59-17.45,27.64,.72,7.04,4.12,13.53,7.09,19.84,3.6,7.64,7.21,15.28,10.81,22.92,.18,.37,.4,.65,.65,.87,1.21-1.31,2.48-2.55,3.8-3.7Z" style="fill:#ff4300;" />
      <path d="M337.86,269.11c-1.01-2.07-1.71-4.19-2.14-6.33-4.85,2.45-9.69,4.9-14.54,7.35-3.01,1.52-5.67-3.01-2.65-4.54,5.08-2.57,10.16-5.14,15.24-7.7,.49-.25,.97-.32,1.42-.29-.02-2.45,.28-4.9,.86-7.31-5.83-.57-11.63-1.3-17.42-2.18-3.33-.51-1.92-5.57,1.4-5.07,5.86,.9,11.74,1.61,17.65,2.16,.97-2.43,2.2-4.8,3.64-7.04,.97-1.52,2.03-2.98,3.17-4.38-8.12-12.61-22.84-20.59-37.97-19.59-12.66,.84-27.06,9.12-25.49,23.64,.66,6.06,4.53,10.88,10.25,12.96,1.78,.65,9.48,.93,9.89,2.06,.57,1.54-6.66,5.02-8.09,6.1-10.86,8.14-10.5,25.28,2.65,31.03,6.97,3.04,14.23,.79,20.72-2.38,8.35-4.08,16.36-8.96,24.15-14.01-.16-.22-.33-.42-.49-.65-.88-1.26-1.61-2.54-2.24-3.83Z" style="fill:#ff4300;" />
      <path d="M394.2,272.07c-1.58,.94-3.21,1.81-4.9,2.61-1.93,.91-3.97,1.83-6.09,2.72-1.58,.66-3.2,1.3-4.85,1.89,.15,.34,.3,.68,.46,1.02,4.14,9.21,10.2,17.42,17.79,23.92,.84,.72,1.7,1.41,2.57,2.08,2.2-7.44,4.45-14.87,6.76-22.29-.15-.07-.29-.16-.44-.27-4.4-3.32-8.17-7.19-11.3-11.69Z" style="fill:#ff4300;" />
      <path d="M376.64,279.9c-1.72,.58-3.46,1.1-5.21,1.55-1.58,.4-3.17,.75-4.75,1.01,.06,.14,.12,.28,.16,.44,1.29,5.05,2.11,10.16,2.5,15.36,.25,3.37-5,3.36-5.25,0-.36-4.73-1.14-9.36-2.31-13.96-.12-.48-.11-.92,0-1.31-.46,.02-.93,.03-1.39,.03,.16,.45,.18,.99-.01,1.59-1.28,3.97-2.57,7.94-3.85,11.91-1.04,3.2-6.11,1.83-5.07-1.4,1.28-3.97,2.57-7.94,3.85-11.91,.06-.2,.14-.38,.24-.54-1.81-.28-3.56-.75-5.25-1.43-1.69-.68-3.3-1.57-4.83-2.71-10.07,8.92-21.28,18.72-22.57,32.66-1,10.77,6.9,22.71,18.73,21.59,6.13-.58,10.81-4.84,15.31-8.62,.98-.82,3.5-2.78,3.48-2.8,.36,.26,.49,2.69,.7,3.23,.73,1.86,2.02,3.42,3.57,4.65,9.29,7.38,20.56-1.07,22.72-10.98,2.07-9.52-1.39-20.24-6-29.63-1.23-2.49-2.53-4.89-3.84-7.15-.31-.54-.63-1.08-.94-1.6Z" style="fill:#ff4300;" />
      <path d="M409.56,213.02c1.53,.74,3,1.61,4.38,2.61,.08-.13,.17-.26,.28-.38,3.47-3.86,6.78-7.84,9.95-11.93,1.98-11.17,3.99-22.34,6.05-33.49-4.68,2.92-8.52,7.25-11.79,11.82-6.32,8.82-12.5,18.5-13.76,29.46,.31,.09,.62,.18,.93,.29,1.33,.45,2.66,1,3.95,1.63Z" style="fill:#ff4300;" />
      <path d="M383.17,187.27c-1.23,7.97-2.78,15.88-4.65,23.73-.09,.39-.1,.75-.04,1.09,1.82-.56,3.66-1.04,5.5-1.43,1.68-7.28,3.11-14.6,4.25-21.99,.51-3.31-4.55-4.73-5.07-1.4Z" style="fill:#000c40;" />
      <path d="M355.47,201.14c-2.25-2.54-5.95,1.19-3.72,3.72,3.95,4.46,7.89,8.92,11.84,13.38,.07,.08,.15,.14,.22,.21,1.36-.76,2.75-1.48,4.17-2.17,0-.59-.19-1.2-.68-1.75-3.95-4.46-7.89-8.92-11.84-13.38Z" style="fill:#000c40;" />
      <path d="M318.62,248.11c5.79,.88,11.59,1.61,17.42,2.18,.41-1.72,.96-3.42,1.62-5.09-5.9-.55-11.79-1.27-17.65-2.16-3.31-.51-4.73,4.56-1.4,5.07Z" style="fill:#000c40;" />
      <path d="M333.77,257.89c-5.08,2.57-10.16,5.14-15.24,7.7-3.02,1.53-.36,6.06,2.65,4.54,4.85-2.45,9.69-4.9,14.54-7.35-.35-1.72-.52-3.45-.53-5.18-.45-.03-.93,.04-1.42,.29Z" style="fill:#000c40;" />
      <path d="M361.78,284.3c1.17,4.59,1.96,9.23,2.31,13.96,.25,3.36,5.51,3.37,5.25,0-.39-5.19-1.21-10.31-2.5-15.36-.04-.16-.1-.3-.16-.44-1.65,.27-3.29,.45-4.91,.53-.1,.39-.12,.83,0,1.31Z" style="fill:#000c40;" />
      <path d="M355.3,283.21c-1.28,3.97-2.57,7.94-3.85,11.91-1.04,3.23,4.03,4.6,5.07,1.4,1.28-3.97,2.57-7.94,3.85-11.91,.19-.6,.18-1.14,.01-1.59-1.64,0-3.26-.1-4.84-.35-.09,.16-.17,.34-.24,.54Z" style="fill:#000c40;" />
      <path d="M404.94,263.82c.34,.24,.75,.42,1.24,.48,1.79,.24,3.56,.58,5.29,1.01,.39-1.68,.77-3.37,1.15-5.05-1.21-.3-2.44-.56-3.68-.78-1.26,1.51-2.59,2.97-4,4.34Z" style="fill:#000c40;" />
      <path d="M398.58,269.19c-1.41,1.02-2.87,1.98-4.38,2.88,3.12,4.5,6.89,8.38,11.3,11.69,.15,.11,.3,.2,.44,.27,.55-1.75,1.11-3.5,1.66-5.26-3.48-2.72-6.51-5.96-9.02-9.59Z" style="fill:#000c40;" />
      <path d="M413.93,215.62c1.42,1.03,2.72,2.19,3.85,3.47,.05-.05,.1-.08,.15-.14,1.31-1.45,2.58-2.92,3.85-4.4,.45-2.43,.89-4.86,1.33-7.28,.09,.15,.2,.28,.29,.43,.26-1.46,.51-2.93,.77-4.39-3.17,4.09-6.48,8.07-9.95,11.93-.11,.12-.2,.25-.28,.38Z" style="fill:#000c40;" />
      <path d="M378.82,280.32c-.15-.34-.31-.68-.46-1.02-.57,.21-1.15,.41-1.73,.6,.31,.52,.63,1.06,.94,1.6,1.31,2.26,2.61,4.65,3.84,7.15,6.02,8.71,10.96,18.07,14.79,27.84,.98-3.39,1.98-6.78,2.98-10.17-.87-.68-1.73-1.37-2.57-2.08-7.59-6.5-13.65-14.7-17.79-23.92Z" style="fill:#0099a9;" />
      <path d="M349.51,361.41c-2.82,.55-5.44,1.67-7.96,3.03-.67,.36-3.77,2.67-4.42,2.39-1.64-.69-.34-4.62-.22-5.63,.65-5.42-.42-11.34-4.64-15.16-9.28-8.4-25.43,1.94-31,10.38-3.89,5.91-5.37,13.09-7.05,19.85-2.04,8.2-4.08,16.39-6.12,24.59-.1,.4-.11,.76-.05,1.08,1.76-.25,3.53-.4,5.29-.46,.82-.03,1.63-.04,2.44-.02,4.42,.08,9.14,.52,13.91,1.37-.01-.1-.04-.19-.04-.3-.24-5.95-.47-11.9-.71-17.85-.13-3.37,5.09-3.92,5.23-.53,.24,5.95,.47,11.9,.71,17.85,.03,.74-.21,1.33-.58,1.79,3.66,.86,7.3,1.99,10.78,3.4,.17-.29,.4-.57,.72-.81,6.41-4.9,12.61-10.05,18.61-15.44,2.51-2.25,5.53,2.04,3.04,4.29-5.56,5-11.29,9.77-17.2,14.35,.71,.37,1.39,.76,2.08,1.16,5.18-1.11,10.34-2.3,15.48-3.56,5.02-4.56,9.49-9.76,13.51-15.35,2.44-3.39,4.73-6.91,6.89-10.51-.07-11.12-5.63-22.46-18.7-19.9Z" style="fill:#ff4300;" />
      <path d="M243.97,415.92c-3.29-.72-2.49-5.92,.81-5.19,5.56,1.22,11.12,2.45,16.68,3.67,.54,.12,.95,.36,1.28,.67,1.54-1.91,3.33-3.62,5.3-5.13-4.15-4.13-8.2-8.36-12.12-12.7-2.26-2.5,2.04-5.53,4.29-3.04,3.98,4.4,8.08,8.67,12.31,12.83,2.29-1.27,4.74-2.32,7.27-3.15,1.71-.56,3.46-1.03,5.22-1.39,1.68-14.9-4.67-30.39-17.03-39.19-10.34-7.36-26.73-10.05-34.7,2.2-3.32,5.11-3.37,11.3-.26,16.52,.97,1.63,6.75,6.71,6.36,7.85-.53,1.55-8.33-.32-10.12-.39-13.56-.56-24.12,12.94-17.56,25.71,1.76,3.42,4.44,5.84,7.56,7.61,13.26-.03,26.52-.54,39.75-1.54,.27-.63,.56-1.25,.87-1.84-5.3-1.17-10.61-2.33-15.91-3.5Z" style="fill:#ff4300;" />
      <path d="M347.44,395.22c2.49-2.24-.54-6.54-3.04-4.29-6,5.4-12.2,10.54-18.61,15.44-.32,.24-.55,.52-.72,.81,1.77,.72,3.5,1.51,5.17,2.37,5.91-4.57,11.64-9.35,17.2-14.35Z" style="fill:#000c40;" />
      <path d="M325.07,407.2c-3.48-1.41-7.12-2.53-10.78-3.4-1.53-.36-3.07-.68-4.6-.96-4.76-.85-9.49-1.29-13.91-1.37-.81-.02-1.62,0-2.44,.02-1.75,.06-3.52,.21-5.29,.46-1.02,.14-2.04,.32-3.06,.53-1.77,.37-3.51,.83-5.22,1.39-2.53,.83-4.98,1.89-7.27,3.15-1.57,.87-3.06,1.84-4.47,2.91-1.97,1.51-3.76,3.22-5.3,5.13-1.09,1.35-2.04,2.8-2.86,4.35-.32,.6-.6,1.22-.87,1.84,24.64-1.85,49.15-5.37,73.31-10.54-.69-.4-1.37-.79-2.08-1.16-1.67-.87-3.4-1.66-5.17-2.37Z" style="fill:#ffb003;" />
      <path d="M314.87,402.01c-.24-5.95-.47-11.9-.71-17.85-.13-3.39-5.36-2.84-5.23,.53,.24,5.95,.47,11.9,.71,17.85,0,.11,.03,.2,.04,.3,1.53,.27,3.07,.59,4.6,.96,.37-.46,.61-1.05,.58-1.79Z" style="fill:#000c40;" />
      <path d="M255.91,397.24c3.93,4.35,7.97,8.57,12.12,12.7,1.4-1.07,2.9-2.04,4.47-2.91-4.23-4.16-8.33-8.43-12.31-12.83-2.25-2.49-6.54,.54-4.29,3.04Z" style="fill:#000c40;" />
      <path d="M244.78,410.73c-3.31-.73-4.11,4.47-.81,5.19,5.3,1.17,10.61,2.33,15.91,3.5,.82-1.55,1.78-3,2.86-4.35-.33-.31-.74-.55-1.28-.67-5.56-1.22-11.12-2.45-16.68-3.67Z" style="fill:#000c40;" />
      <path d="M49.22,133.27c3.41-1.61,6.51-3.69,9.3-6.12-1.87-.63-3.74-1.26-5.61-1.91-5.98-2.07-11.96-4.27-17.81-6.73-2.29-.96-4.56-1.98-6.81-3.04-1.51-.71-3.02-1.42-4.5-2.17,1.02,7.04,2.08,14.07,3.16,21.09,6.46,2.89,16.25,1.7,22.26-1.13Z" style="fill:#ff4300;" />
      <path d="M27.8,69.54c.26,.46,.56,.91,.88,1.35,0,.01,.02,.03,.03,.04,.32,.44,.66,.87,1.03,1.29,0,.01,.02,.02,.03,.03,1.87,2.15,4.32,4.08,6.96,5.79,.01,0,.03,.02,.04,.03,.52,.33,1.05,.66,1.58,.98,.01,0,.03,.02,.04,.02,2.15,1.28,4.36,2.41,6.46,3.39,.04,.02,.07,.03,.11,.05,.49,.23,.97,.45,1.44,.66,.05,.02,.11,.05,.16,.07,.46,.2,.91,.4,1.34,.59,.06,.03,.12,.05,.17,.07,.43,.18,.86,.36,1.26,.53,.04,.02,.08,.03,.13,.05,.42,.17,.82,.34,1.21,.49,1.62,.65,3.26,1.27,4.89,1.88,.51,.19,1.01,.38,1.52,.57,.39-.36,.86-.67,1.45-.93,2.68-1.2,5.39-2.3,8.13-3.35,.32-.12,.63-.25,.95-.37,1.54-.58,3.09-1.13,4.64-1.66,15.56-5.34,31.94-8.64,48.16-11.68,1.25-.23,2.5-.47,3.75-.7,.48-.09,.95-.18,1.43-.26,2.89-.53,5.77-1.07,8.63-1.61,3.7-.7,7.4-1.35,11.1-1.96,9.11-1.51,18.24-2.75,27.41-3.62,2.32-.22,4.64-.41,6.97-.58,8.27-.61,16.57-.9,24.91-.78,24,.33,48,1.47,71.98,2.28,47.68,1.61,94.54,6.89,140.71,19.33,1.1,.3,1.93,.84,2.53,1.51,6.89-4.88,12.67-11.55,9.84-20.25-3.82-11.74-17.73-18.12-28.36-22.03-13.05-4.8-26.81-7.41-40.49-9.72-58.99-9.94-119.27-10.46-178.81-5.92-8.72,.66-17.44,1.42-26.15,2.26-2.66,.26-5.32,.52-7.98,.79-10.14,1.05-20.26,2.24-30.35,3.6-.46,.06-.93,.12-1.39,.18-.68,.09-1.36,.2-2.03,.29-.78,.11-1.56,.22-2.35,.33-5.74,.81-11.47,1.66-17.19,2.59-6.88,1.12-13.74,2.42-20.52,4.06-1.41,.34-2.82,.7-4.23,1.07-.55,.15-1.1,.3-1.65,.45-3.8,1.05-7.56,2.21-11.27,3.55-.33,.12-.66,.26-1,.38-.15,.06-.3,.12-.46,.18-.16,.06-.32,.13-.48,.19-4.12,1.29-8.16,2.82-12.08,4.66-4.93,2.31-16.05,6.9-16.92,13.31-.32,2.33,.46,4.52,1.83,6.53,0,0,0,0,0,0Z" style="fill:#fff;" />
      <path d="M249.68,211.75s-.02,0-.03,0c-.94,.41-2.11,.33-2.92-.37-.33-.29-.61-.68-.77-1.2-.23-.73-.45-1.48-.66-2.24-.53-1.9-1-3.87-1.38-5.88-14.91,13.49-27.5,29.27-37.35,46.75-1.31,2.78-2.62,5.56-3.94,8.35-.18,.37-.4,.65-.65,.87,.7,.76,1.38,1.54,2.03,2.35,1.85-2.88,4.03-5.52,6.5-7.86,2.82-2.68,5.99-4.97,9.4-6.81,2.52-1.35,5.18-2.46,7.92-3.28,7.6-10.59,15.48-20.95,25.16-29.77,.03-.03,.05-.05,.07-.08-1.16-.23-2.29-.5-3.35-.81-.02,0-.03,0-.05-.01Z" style="fill:#0099a9;" />
      <path d="M249.73,211.76c.39-.01,.81-.12,1.23-.36,.88-.5,1.76-.99,2.64-1.49,1.15-.65,2.3-1.3,3.45-1.95,3.2-1.81,6.41-3.62,9.61-5.43,2.94-1.66,.3-6.2-2.65-4.54-3.63,2.05-7.25,4.1-10.88,6.15,.89-3.64,2.33-7.1,4.23-10.38,1.71-2.93-2.83-5.58-4.54-2.65-1.4,2.41-2.53,4.9-3.44,7.46-.2,.56-.38,1.13-.56,1.69-.57,1.85-1.03,3.74-1.37,5.67-.13,.76-.25,1.53-.35,2.3,0,.05,0,.1,0,.15-.18,.75,.02,1.55,.46,2.19,.47,.68,1.22,1.17,2.09,1.17,0,0,.02,0,.03,0,.02,0,.03,0,.05,.01Z" style="fill:#000c40;" />
      <path d="M447.42,112.55s-.03-.03-.05-.05c0,.01,.02,.03,.03,.04,0,0,.02,0,.03,0Z" style="fill:#a8d5f3;" />
      <path d="M438.02,128.98c.29-1.33,.57-2.65,.87-3.98,.17-.75,.33-1.5,.51-2.25,.71-3.11,1.43-6.21,2.18-9.3,.05-.22,.11-.45,.16-.67-.44,.56-.78,1.28-.96,2.17-.93,4.68-1.83,9.36-2.75,14.03Z" style="fill:#a8d5f3;" />
    </g>
  </g>
</svg>