<?xml version="1.0" encoding="UTF-8"?><svg id="Layer_2" xmlns="http://www.w3.org/2000/svg" viewBox="0 0 504.46 378.65"><g id="Layer_1-2"><g><path d="M476,48.58c-29.69-15.77-62.39-25.2-95.45-30.67-35.93-5.95-72.51-7.02-108.87-6.99-35.65,.03-71.41,.36-106.98,2.88-35.16,2.49-70.68,7.25-104.37,17.95-14.77,4.69-29.52,11.03-41.36,21.25-2.89,2.5-7.2,5.77-7.95,9.76-.17,.89-.11,1.72,.09,2.51,1.29-.08,2.63,.45,3.75,1.84,4.28,5.34,9.22,10,14.97,13.74,15.53,10.1,33.93,14.36,52.5,16.95,2.76,.39,5.53,.74,8.3,1.06,.17-1.18,.75-2.33,1.84-3.25,.18-.15,.37-.3,.57-.43,19.94-13.26,45.78-18.63,69.07-22.46,44.17-7.26,89.13-5.63,133.54-1.55,42.8,3.93,86.64,8.28,126.12,26.5,.93,.43,1.61,1.01,2.06,1.66,3.98-.92,7.95-1.89,11.92-2.91,8.53-2.21,17-4.66,25.39-7.36,7.68-2.47,15.81-4.77,22.68-9.13,5.73-3.63,11.39-10.51,9.41-17.79-1.88-6.92-11.49-10.52-17.21-13.55Z" style="fill:#fff;"/><path d="M352.43,340.49c-1.34,.36-2.68,.72-4.03,1.04-1.12,.27-2.25,.52-3.38,.78-1.36,.31-2.72,.6-4.09,.88-.75,.16-1.51,.31-2.26,.46-.88,.17-1.77,.31-2.65,.47-2.31,.41-4.63,.78-6.95,1.12-2.33,.35-4.67,.65-7.01,.93-1.99,.24-3.98,.46-5.97,.65-1.27,.12-2.53,.24-3.8,.35-.37,.03-.74,.05-1.1,.08-1.97,.16-3.94,.3-5.91,.42-2.21,.13-4.42,.24-6.63,.33-2.67,.1-5.33,.17-8,.21-.48,0-.95,.02-1.43,.03-3.14,.04-6.28,.03-9.42,0-1.58-.02-3.16-.03-4.74-.06-2.14-.04-4.27-.11-6.41-.17-.47-.01-.93-.02-1.4-.04-.24,0-.49-.01-.73-.02-2.02-.07-4.03-.17-6.05-.26-1.44-.06-2.88-.12-4.32-.19-2.5-.12-5.01-.25-7.51-.4-3.29-.19-6.58-.4-9.88-.61-.3-.02-.6-.04-.9-.06-1.24-.08-2.48-.18-3.72-.26-2.09-.15-4.19-.29-6.29-.44-.26-.02-.53-.04-.79-.06-.34-.03-.68-.06-1.02-.09-2.99-.23-5.98-.49-8.97-.76-.63-.06-1.25-.1-1.88-.16-2.95-.27-5.9-.58-8.85-.91-.42-.05-.84-.08-1.26-.13-5.4-.6-10.8-1.29-16.17-2.08-.23-.03-.47-.07-.7-.11-.67-.1-1.34-.21-2.02-.31-2.57-.4-5.13-.81-7.69-1.27-.34-.06-.68-.13-1.03-.19-.71-.13-1.42-.26-2.14-.39-5.12-.95-10.22-2.02-15.29-3.23-.47-.11-.94-.22-1.42-.33-.13-.03-.27-.07-.4-.1-2.45-.6-4.88-1.25-7.31-1.92-.78-.22-1.56-.45-2.33-.68-.24-.07-.48-.14-.73-.21-2.69-.79-5.37-1.61-8.02-2.51,0,.19,0,.39,.01,.59,.2,2.92,.44,6.06,.85,9.23,3.12,.85,6.26,1.67,9.4,2.45,3.71,.93,7.43,1.8,11.15,2.65,4.76,1.08,9.53,2.08,14.32,3.01,.55,.11,1.09,.22,1.64,.33,0,0,0,0,0,0,2.61,.5,5.22,.97,7.84,1.42,.76,.13,1.52,.25,2.27,.38,6,1.01,12.02,1.89,18.05,2.67,3.57,.46,7.15,.88,10.74,1.26,2.93,.31,5.86,.59,8.8,.84,1.89,.17,3.77,.33,5.66,.47,.8,.06,1.6,.11,2.4,.17,1.1,.08,2.2,.17,3.3,.24,7.68,.49,15.37,.79,23.06,.92,.69,.01,1.38,.01,2.08,.02,.86,0,1.72,.02,2.57,.03,1.57,.01,3.15,0,4.72,0,4.02-.01,8.03-.05,12.05-.17,3.59-.1,7.18-.24,10.77-.42,4.63-.23,9.25-.52,13.88-.88,2.07-.16,4.14-.32,6.21-.51,.14-.01,.29-.03,.43-.04,1.35-.12,2.7-.27,4.04-.4,1.76-.18,3.53-.35,5.29-.55,2.41-.27,4.82-.55,7.22-.85,3.72-.47,7.44-1,11.15-1.55,3.69-.55,7.37-1.14,11.05-1.77,2.74-.48,5.48-.97,8.21-1.49,.17-1.78,.22-3.59,.2-5.39-.02-1.46-.08-2.91-.16-4.35-1.08,.33-2.17,.64-3.26,.95-1.13,.32-2.26,.64-3.39,.95Z" style="fill:#fff;"/><path d="M500.82,53.18c-4.34-6.34-11.94-9.96-18.5-13.49-8.11-4.35-16.47-8.21-24.98-11.73-16.78-6.94-34.21-12.23-51.92-16.21C367.81,3.29,329.14,.72,290.68,.21c-39.54-.53-79.3-.14-118.77,2.29-37.92,2.34-76.32,7.03-112.73,18.27C40.98,26.39-16.77,50.68,4.73,75.44c1.28,1.48,2.83,2.95,4.7,4.43,3.82,3.01,7.81,5.82,11.84,8.58,3.41,2.34,6.84,4.64,10.2,6.99,1.43,1,2.84,1.16,4.07,.79,.33,.15,.67,.29,1,.44,8.06,3.59,16.66,6.18,25.41,8.13,1.39,.31,2.78,.58,4.17,.86,5.94,1.2,11.91,2.15,17.79,2.96,1.02,.14,2.04,.29,3.05,.42,.1,.01,.2,.03,.3,.04,9.05,1.17,18.12,2.29,27.2,3.36,4.02,.47,8.04,.91,12.06,1.36,2.58,.29,5.16,.59,7.74,.88,3.61,.39,7.21,.77,10.82,1.15,4.22,.44,8.45,.87,12.68,1.28,13.88,1.36,27.76,2.59,41.65,3.68,1.55,.12,3.1,.25,4.65,.37,2.52,.19,5.04,.38,7.56,.56,.84,.06,1.69,.11,2.54,.17,17.98,1.24,36.04,2.11,54.11,2.46,2.58,.05,5.17,.09,7.75,.12,2.7,.03,5.4,.05,8.1,.05,2.2,0,4.4-.02,6.6-.04,13.54-.09,27.08-.5,40.59-1.31,7.7-.47,15.39-1.07,23.06-1.8,11.01-1.05,21.99-2.39,32.93-4.06,8.99-1.37,17.96-2.98,26.88-4.81,6.86-1.41,13.7-2.95,20.51-4.66,.65-.16,1.3-.32,1.95-.48,6.68-1.7,13.32-3.55,19.92-5.55,2.49-.75,4.97-1.52,7.44-2.32,5.37-1.73,10.89-3.44,16.16-5.63,2.61-1.09,5.17-2.29,7.6-3.69,.7-.4,1.38-.84,2.06-1.29,4.03-2.71,7.67-6.37,10.32-10.54,4.83-7.61,6.33-16.9,.67-25.16Zm-17.02,26.75c-6.87,4.36-15,6.65-22.68,9.13-8.39,2.7-16.86,5.15-25.39,7.36-3.96,1.03-7.93,1.99-11.92,2.91-5.67,1.31-11.36,2.52-17.06,3.63-41.7,8.12-84.24,10.99-126.77,10.74-8.78-.05-17.55-.24-26.32-.54-5.27-.18-10.53-.4-15.79-.66-4.56-.22-9.11-.47-13.66-.75-4.31-.26-8.62-.56-12.93-.86-25.31-1.81-50.56-4.31-75.79-7.08-1.87-.2-3.74-.42-5.6-.63-5.29-.59-10.58-1.17-15.86-1.77-.14-.02-.28-.03-.42-.05-2.74-.31-5.51-.61-8.3-.9-4.85-.51-9.76-1.02-14.69-1.6-2.76-.32-5.53-.67-8.3-1.06-18.57-2.59-36.97-6.85-52.5-16.95-5.75-3.74-10.69-8.4-14.97-13.74-1.12-1.4-2.46-1.92-3.75-1.84-.21-.78-.26-1.62-.09-2.51,.75-3.99,5.06-7.27,7.95-9.76,11.84-10.22,26.6-16.56,41.36-21.25,33.69-10.7,69.21-15.46,104.37-17.95,35.57-2.52,71.33-2.84,106.98-2.88,36.36-.03,72.93,1.04,108.87,6.99,33.06,5.47,65.77,14.9,95.45,30.67,5.72,3.04,15.33,6.64,17.21,13.55,1.98,7.28-3.68,14.16-9.41,17.79Z" style="fill:#ffb003;"/><path d="M309.76,181.93c4.39-.94,8.86-1.36,13.32-1.3,2.43-12.54,6.5-24.76,12.44-36.01,4.77-9.03,11.08-17.03,18.84-23.25-7.67,.73-15.36,1.34-23.06,1.8-13.5,.82-27.04,1.22-40.59,1.31,5.53,7.17,9.56,15.53,12.31,24.53,3.27,10.69,5.47,21.75,6.73,32.92Z" style="fill:#ff8199;"/><path d="M359.76,208.94c-2.79-3.34-6-6.32-9.65-8.86-2.2-1.53-4.56-2.92-7.08-4.12-3.47-1.65-7.14-2.84-10.89-3.59-3.53-.71-7.14-1.03-10.74-.96-3.6,.07-7.2,.54-10.7,1.38-3.63,.87-7.16,2.15-10.5,3.84-.05,.02-.09,.05-.14,.07-5.26,2.67-9.86,6.18-13.88,10.3-2.39,2.44-4.56,5.11-6.54,7.94-7.11,10.15-11.73,22.5-14.51,35.06,4.39,1.25,8.65,2.97,12.67,5.21,2.12,1.18,4.11,2.47,6.01,3.85,1.87-5.94,4.36-11.68,7.71-17.04,6.82-10.92,19.34-24.23,33.47-22.69,14.01,1.53,23.97,15.3,29.63,27.01,1.62,3.34,3,6.77,4.19,10.25,1.49-.65,3.01-1.26,4.58-1.8,4.19-1.43,8.52-2.35,12.88-2.81-1.32-7.69-3.13-15.29-5.54-22.71-2.46-7.6-6.08-14.51-10.97-20.34Z" style="fill:#ff8199;"/><path d="M185.22,176.73c6.77-.35,13.58,.45,20.1,2.35,1.84-5.68,4.27-11.16,7.47-16.31,6.82-10.92,19.34-24.23,33.47-22.69,14.01,1.53,23.97,15.3,29.63,27.01,4.18,8.63,6.77,17.78,8.47,27.14,4.46-3.65,9.42-6.69,14.86-8.99-1.2-11.95-3.53-23.8-7.23-35.21-3.24-10.01-8.48-18.85-15.99-25.56-2.58-.03-5.17-.07-7.75-.12-18.07-.34-36.12-1.22-54.11-2.46-16.58,12.24-25.23,33.71-28.94,54.83Z" style="fill:#ff8199;"/><path d="M116.23,278.92c.36-.05,.72-.09,1.08-.12,1.36-.12,2.74-.12,4.13,.03,1.01,.11,2,.29,2.97,.53,.75,.18,1.49,.39,2.21,.64,11.3,3.86,19.51,15.64,24.45,25.84,4.63,9.57,7.33,19.8,8.99,30.22,5.07,1.21,10.17,2.28,15.29,3.23-.41-17.09-2.9-34.23-8.18-50.51-2.25-6.96-5.48-13.34-9.76-18.84-2.63-3.38-5.65-6.43-9.1-9.07-2.69-2.06-5.62-3.88-8.84-5.41-3.03-1.44-6.21-2.52-9.46-3.27-1.71-.4-3.43-.7-5.17-.91-1.81-.22-3.64-.34-5.47-.36-1.81-.02-3.62,.06-5.42,.24-5.52,.54-10.95,2-15.99,4.35-.44,.21-.89,.4-1.32,.62-3.01,1.52-5.79,3.32-8.38,5.34-4.05,3.15-7.6,6.85-10.72,10.97-1.47,1.94-2.85,3.97-4.13,6.08-.43,.71-.84,1.43-1.25,2.16,1.88,2.74,3.85,5.41,5.92,8.01,2.65,3.33,5.46,6.53,8.43,9.59,.3,.31,.6,.64,.9,.95,.41,.41,.83,.8,1.24,1.2,6.05-9.31,16.06-19.92,27.57-21.52Z" style="fill:#ff8199;"/><path d="M394.66,157.84c-10.98-2.42-21.5,11.92-26.05,20.13-3.08,5.57-5.19,11.53-6.64,17.67,3.4,3.05,6.39,6.48,9.02,10.18,.06,.09,.12,.18,.18,.27,2.17,3.09,4.07,6.38,5.74,9.83,.17,.35,.35,.7,.52,1.06,1.69,3.62,3.12,7.39,4.32,11.28,2.27,7.44,4.02,15.05,5.31,22.75,2.46-12.07,6.45-23.83,12.19-34.68,.31-.58,.63-1.15,.95-1.72,.07-.12,.13-.24,.2-.36,1.98-3.5,4.21-6.83,6.66-9.95,.69-.88,1.39-1.75,2.12-2.59,3.1-3.6,6.53-6.88,10.31-9.73-.9-3.13-1.93-6.21-3.18-9.21-3.81-9.18-10.99-22.57-21.63-24.92Z" style="fill:#ff8199;"/><path d="M24.96,135.15c.81,3.28,1.6,6.58,2.35,9.88,.98,4.28,1.91,8.56,2.83,12.86,.45,2.11,.89,4.22,1.33,6.33-1.32-9.85-3.45-19.6-6.51-29.05,0,0,0-.02,0-.02Z" style="fill:#582a20;"/><path d="M229.71,210.13c-2.01-3.09-4.32-5.96-6.92-8.55-2.95-2.94-6.31-5.52-10.06-7.69-1.16-.67-2.35-1.32-3.59-1.91-2.11-1-4.3-1.82-6.52-2.49-6.11-1.84-12.56-2.44-18.9-1.82-3.76,.36-7.47,1.15-11.06,2.36-1.83,.61-3.62,1.34-5.36,2.17-.33,.16-.66,.3-.98,.46-3.53,1.78-6.76,3.94-9.72,6.4-12.44,10.33-20.06,26.1-24.31,42.61,5.42,1.25,10.69,3.23,15.6,5.96,1.33,.74,2.59,1.53,3.84,2.35,1.6-4.12,3.54-8.12,5.91-11.93,6.82-10.92,19.34-24.23,33.47-22.69,14.01,1.53,23.97,15.3,29.63,27.01,1.62,3.34,3,6.77,4.19,10.25,1.49-.65,3.01-1.26,4.58-1.8,4.19-1.43,8.52-2.35,12.88-2.81-1.31-7.69-3.13-15.29-5.54-22.71-1.77-5.46-4.13-10.57-7.13-15.18Z" style="fill:#ff8199;"/><path d="M489.83,88.88c-.68,.46-1.36,.89-2.06,1.29-2.44,1.4-4.99,2.6-7.6,3.69-5.27,2.2-10.79,3.9-16.16,5.63-2.47,.8-4.95,1.57-7.44,2.32-6.6,2-13.24,3.85-19.92,5.55-.65,.17-1.3,.32-1.95,.48-6.81,1.7-13.65,3.25-20.51,4.66,2.3,.92,4.55,1.97,6.73,3.18,15.64,8.68,25.18,23.33,30.32,40.13,2.26,7.38,4,14.93,5.28,22.57,2.45-12.12,6.46-23.92,12.21-34.81,2.95-5.58,6.49-10.77,10.59-15.39,.17-.62,.33-1.24,.5-1.85,2.59-9.11,5.71-18.04,9.62-26.7,1.53-3.39,3.19-6.74,4.98-10.05,1.53-2.82,3.14-5.61,4.88-8.36,.63-.99,.88-1.96,.86-2.87-2.65,4.17-6.3,7.83-10.32,10.54Z" style="fill:#ff8199;"/><path d="M325.18,230.3c-10.98-2.42-21.5,11.92-26.05,20.13-2.92,5.27-4.96,10.89-6.4,16.68,2.41,2.67,4.56,5.56,6.49,8.6,.79,1.24,1.55,2.51,2.27,3.8,1.4,2.54,2.65,5.18,3.78,7.89,.26,.62,.51,1.24,.75,1.87,.77,1.99,1.46,4.01,2.09,6.07,2.73,8.92,4.7,18.1,6.02,27.38,2.46-12.04,6.45-23.77,12.17-34.59,.74-1.4,1.54-2.77,2.35-4.12,.46-.76,.92-1.52,1.4-2.27,1.59-2.45,3.33-4.79,5.17-7.03,1.17-1.42,2.38-2.81,3.65-4.13,3.14-3.26,6.58-6.19,10.33-8.72-.71-2.24-1.49-4.47-2.4-6.64-3.81-9.18-10.99-22.57-21.63-24.92Z" style="fill:#ff8199;"/><path d="M432.32,249.68c-3.45,6.23-5.68,12.96-7.14,19.88,1.05,1.09,2.05,2.22,3.02,3.38,2.22,2.66,4.2,5.52,5.99,8.51,.19,.32,.4,.64,.59,.96,.36,.63,.72,1.25,1.07,1.89,1.39-2.07,2.72-4.18,4-6.32,2.53-4.24,4.85-8.63,6.98-13.15,.95-2.02,1.85-4.08,2.73-6.15,.55-1.3,1.1-2.61,1.62-3.93,.16-.41,.33-.81,.49-1.22,.31-.8,.61-1.61,.9-2.42,.42-1.16,.84-2.32,1.24-3.49,.91-2.62,1.76-5.27,2.57-7.92,1-3.3,1.91-6.62,2.78-9.96-.26-.07-.51-.14-.78-.2-10.98-2.42-21.5,11.92-26.05,20.13Z" style="fill:#ff8199;"/><path d="M251.55,297.38c-10.98-2.42-21.5,11.92-26.05,20.13-4.68,8.45-7.12,17.82-8.41,27.34,2.99,.27,5.98,.52,8.97,.76,.34,.03,.68,.06,1.02,.09,.26,.02,.53,.04,.79,.06,2.1,.16,4.19,.3,6.29,.44,1.24,.09,2.48,.18,3.72,.26,.3,.02,.6,.04,.9,.06,3.29,.21,6.59,.42,9.88,.61,2.5,.15,5,.28,7.51,.4,1.44,.07,2.88,.12,4.32,.19,2.02,.09,4.03,.19,6.05,.26,.24,0,.49,.01,.73,.02,.47,.02,.93,.02,1.4,.04,2.14,.07,4.27,.13,6.41,.17,1.58,.03,3.16,.04,4.74,.06-1.22-8.87-3.2-17.68-6.62-25.95-3.81-9.18-10.99-22.57-21.63-24.92Z" style="fill:#ff8199;"/><path d="M35.99,134.15c.89,2.92,1.7,5.88,2.44,8.85,1.56-3.88,3.31-7.68,5.26-11.38,5.49-10.39,13-19.44,22.45-25.94-1.39-.28-2.78-.55-4.17-.86-8.75-1.96-17.35-4.54-25.41-8.13-.33-.15-.67-.29-1-.44-1.22,.38-2.64,.22-4.07-.79-3.37-2.36-6.8-4.66-10.2-6.99-4.03-2.76-8.03-5.57-11.84-8.58-1.87-1.48-3.42-2.95-4.7-4.43-.31,1.17-.21,2.49,.48,3.85,3.43,6.71,6.38,13.58,9.01,20.54,10.68,8.74,17.65,20.83,21.77,34.32Z" style="fill:#ff8199;"/><path d="M205.09,343.64c.42,.05,.84,.08,1.26,.13,1.64-12.19,4.95-24.14,11.52-34.67,5.96-9.56,16.3-20.94,28.26-22.6,1.71-.24,3.45-.28,5.22-.08,1.01,.11,2,.29,2.97,.53,12.45,2.99,21.4,15.62,26.66,26.48,5.31,10.97,8.08,22.79,9.66,34.8,2.67-.04,5.34-.11,8-.21,2.21-.09,4.42-.2,6.63-.33-.35-17.36-2.83-34.79-8.19-51.32-1.71-5.28-3.98-10.22-6.84-14.71-2.6-4.08-5.69-7.77-9.3-10.98-3.39-3-7.23-5.58-11.56-7.63-2.01-.96-4.09-1.74-6.2-2.39-2.75-.85-5.57-1.45-8.43-1.79-.71-.09-1.41-.16-2.12-.21-2.92-.23-5.85-.19-8.76,.1-5.52,.54-10.95,2-15.99,4.35-.44,.21-.89,.4-1.32,.62-3.01,1.52-5.79,3.32-8.38,5.34-4.05,3.15-7.6,6.85-10.72,10.97-1.47,1.94-2.85,3.97-4.13,6.08-9.86,16.31-14.15,37.15-15.11,55.35,.23,.03,.46,.07,.7,.11,5.37,.79,10.77,1.48,16.17,2.08Z" style="fill:#ff8199;"/><path d="M468.63,181.34c.24-1.47,.49-2.94,.73-4.41,.55-3.34,1.11-6.67,1.68-10,.28-1.62,.57-3.23,.85-4.84-2.18,6.13-3.82,12.51-5.01,18.88,.59,.11,1.17,.25,1.75,.38Z" style="fill:#ff8199;"/><path d="M148.61,333.02c-1.22-6.26-2.91-12.42-5.35-18.3-3.81-9.18-10.99-22.57-21.63-24.92-10.04-2.22-19.7,9.59-24.75,17.91,1.55,1.24,3.14,2.43,4.75,3.59,.19,.14,.38,.28,.57,.42,.89,.63,1.8,1.24,2.71,1.84,.75,.49,1.49,.98,2.25,1.46,.45,.29,.91,.55,1.37,.83,1.91,1.17,3.85,2.3,5.81,3.37,.86,.47,1.72,.96,2.59,1.42,1.43,.74,2.87,1.45,4.32,2.15,1.89,.9,3.8,1.76,5.72,2.59,.75,.32,1.5,.66,2.26,.97,1.88,.77,3.79,1.5,5.7,2.21,.26,.1,.53,.19,.8,.28,1.19,.44,2.38,.87,3.58,1.28,.19,.06,.37,.13,.56,.2,2.65,.9,5.33,1.72,8.02,2.51,.24,.07,.48,.14,.73,.21Z" style="fill:#ff8199;"/><path d="M191.29,226.33c-10.98-2.42-21.5,11.92-26.05,20.13-1.91,3.44-3.43,7.04-4.67,10.73,2.52,2.51,4.79,5.24,6.84,8.13,.29,.41,.58,.8,.86,1.22,1.75,2.59,3.32,5.31,4.73,8.14,1.55,3.1,2.9,6.33,4.06,9.66,.4,1.13,.77,2.28,1.13,3.43,1.99,6.5,3.57,13.14,4.8,19.85,2.36-8.12,5.48-16.01,9.42-23.46,1.16-2.19,2.42-4.32,3.76-6.38,.1-.15,.21-.3,.31-.45,1.95-2.96,4.09-5.78,6.41-8.41,.69-.78,1.39-1.55,2.11-2.3,3.14-3.25,6.58-6.19,10.33-8.72-.71-2.24-1.49-4.47-2.4-6.64-3.81-9.18-10.99-22.57-21.63-24.92Z" style="fill:#ff8199;"/><path d="M412.51,123.51c-13.41-6.37-29.6-6-42.83,.67-20.9,10.54-31.5,34.09-35.94,57.54,6.16,1.19,12.14,3.34,17.68,6.42,.41,.23,.79,.47,1.19,.71,1.92-6.74,4.61-13.24,8.38-19.27,6.82-10.92,19.34-24.23,33.47-22.69,14.01,1.53,23.97,15.3,29.63,27.01,1.92,3.98,3.51,8.06,4.83,12.23,2.37-1.18,4.82-2.24,7.39-3.11,3.14-1.07,6.36-1.85,9.6-2.38-1.33-8.06-3.2-16.03-5.72-23.8-4.72-14.57-13.66-26.65-27.7-33.32Z" style="fill:#ff8199;"/><path d="M42.53,165.54c.22,1.84,.42,3.68,.6,5.53,6.48-1.73,13.19-2.32,19.82-1.82,1.65-4.39,3.68-8.64,6.2-12.68,6.82-10.92,19.34-24.23,33.47-22.69,14.01,1.53,23.97,15.3,29.63,27.01,5.7,11.77,8.47,24.52,9.99,37.41,4.07-4.69,8.72-8.81,13.92-12.16-.92-14.35-3.38-28.64-7.81-42.31-4.02-12.41-11.12-23.02-21.82-30.01-4.02-.45-8.04-.89-12.06-1.36-9.08-1.07-18.14-2.19-27.2-3.36-.1-.01-.2-.03-.3-.04-1.01-.13-2.04-.28-3.05-.42-2.08,.71-4.12,1.55-6.09,2.54-19.95,10.06-30.53,31.99-35.3,54.36Z" style="fill:#ff8199;"/><path d="M385.43,301.34c-10.98-2.42-21.5,11.92-26.05,20.13-3.31,5.97-5.49,12.4-6.95,19.02,1.13-.31,2.26-.62,3.39-.95,1.09-.31,2.18-.62,3.26-.95,1.39-.43,2.77-.87,4.15-1.33,.46-.15,.91-.32,1.37-.47,.72-.25,1.44-.49,2.15-.74,2.21-.79,4.41-1.64,6.58-2.52,1.07-.43,2.14-.86,3.19-1.31,1.42-.61,2.84-1.23,4.25-1.88,1.56-.72,3.1-1.46,4.63-2.23,1.38-.69,2.73-1.41,4.09-2.15,.7-.38,1.4-.76,2.09-1.14,1.58-.89,3.15-1.79,4.7-2.74,0,0,.02-.01,.03-.02,2.26-1.38,4.47-2.84,6.64-4.35-4.1-7.38-9.93-14.68-17.53-16.36Z" style="fill:#ff8199;"/><path d="M166.61,180.76c.87-.34,1.75-.68,2.64-.98,1.59-.54,3.21-1,4.84-1.4,2.28-14.13,6.59-27.95,13.25-40.55,3.3-6.25,7.34-12,12.08-17.01-13.88-1.09-27.77-2.32-41.65-3.68-4.23-.41-8.45-.84-12.68-1.28,6.57,7.68,11.22,16.93,14.28,26.96,3.76,12.3,6.1,25.09,7.23,37.95Z" style="fill:#ff8199;"/><path d="M132,203.85c-1.07-11.57-3.08-23.3-7.56-34.09-3.81-9.18-10.99-22.57-21.63-24.92-10.98-2.42-21.5,11.92-26.05,20.13-1.1,1.98-2.07,4.02-2.93,6.1,3.05,.8,6.03,1.84,8.93,3.12,1.13,.5,2.25,1.04,3.35,1.61,.51,.26,1.02,.51,1.51,.79,1.55,.86,3.03,1.8,4.46,2.77,.32,.22,.63,.45,.95,.68,5.66,4.02,10.39,8.9,14.28,14.43,1.28,1.82,2.47,3.72,3.58,5.67,.89,1.56,1.73,3.15,2.5,4.79,1.79,3.77,3.3,7.71,4.54,11.79,.08,.26,.15,.53,.23,.79,1.88,6.25,3.39,12.62,4.57,19.06,2.36-8.12,5.48-16.01,9.42-23.46,.87-1.64,1.79-3.24,2.76-4.81-1.53-.81-2.72-2.3-2.92-4.45Z" style="fill:#ff8199;"/><path d="M421.77,97.67c-39.47-18.22-83.32-22.57-126.12-26.5-44.4-4.08-89.36-5.71-133.54,1.55-23.29,3.83-49.13,9.2-69.07,22.46-.21,.14-.39,.28-.57,.43-1.09,.92-1.66,2.06-1.84,3.25,4.93,.58,9.84,1.09,14.69,1.6,2.79,.29,5.56,.59,8.3,.9,.14,.02,.28,.03,.42,.05,5.29,.6,10.57,1.19,15.86,1.77,1.87,.21,3.73,.42,5.6,.63,25.22,2.77,50.48,5.27,75.79,7.08,4.31,.31,8.62,.6,12.93,.86,4.55,.28,9.1,.53,13.66,.75,5.26,.26,10.52,.48,15.79,.66,8.77,.3,17.54,.49,26.32,.54,42.52,.25,85.07-2.62,126.77-10.74,5.7-1.11,11.39-2.32,17.06-3.63-.45-.65-1.12-1.23-2.06-1.66Z" style="fill:#0099a9;"/><path d="M254.33,286.94c-.97-.23-1.96-.42-2.97-.53-1.77-.19-3.51-.15-5.22,.08-11.96,1.66-22.3,13.05-28.26,22.6-6.57,10.53-9.88,22.49-11.52,34.67,2.95,.32,5.9,.63,8.85,.91,.63,.06,1.25,.1,1.88,.16,1.29-9.52,3.73-18.88,8.41-27.34,4.55-8.21,15.07-22.55,26.05-20.13,10.64,2.35,17.82,15.75,21.63,24.92,3.43,8.26,5.4,17.08,6.62,25.95,3.14,.03,6.28,.04,9.42,0,.48,0,.95-.02,1.43-.03-1.58-12-4.35-23.82-9.66-34.8-5.26-10.86-14.21-23.49-26.66-26.48Z" style="fill:#000c40;"/><path d="M388.21,290.91c-.97-.23-1.96-.42-2.97-.53-1.77-.19-3.51-.15-5.22,.08-11.96,1.66-22.3,13.05-28.26,22.6-5.75,9.22-9,19.53-10.82,30.12,1.36-.28,2.73-.57,4.09-.88,1.13-.25,2.25-.51,3.38-.78,1.35-.33,2.69-.68,4.03-1.04,1.46-6.62,3.65-13.05,6.95-19.02,4.55-8.21,15.07-22.55,26.05-20.13,7.59,1.68,13.43,8.98,17.53,16.36,.86-.59,1.73-1.17,2.57-1.79,.94-.68,1.87-1.38,2.79-2.08,1.1-.85,2.18-1.72,3.25-2.6-5.39-9.06-13.21-17.89-23.35-20.33Z" style="fill:#000c40;"/><path d="M339.78,351.59c-3.71,.56-7.43,1.08-11.15,1.55-2.41,.3-4.81,.58-7.22,.85-1.76,.2-3.52,.37-5.29,.55-1.35,.14-2.69,.28-4.04,.4-.14,.01-.29,.03-.43,.04-2.07,.19-4.14,.35-6.21,.51-4.62,.36-9.25,.65-13.88,.88-3.59,.18-7.18,.32-10.77,.42-4.01,.11-8.03,.15-12.05,.17-1.57,0-3.15,.02-4.72,0-.86,0-1.72-.02-2.57-.03-.69,0-1.38-.01-2.08-.02-7.69-.13-15.38-.43-23.06-.92-1.1-.07-2.2-.16-3.3-.24-.8-.06-1.6-.11-2.4-.17-1.89-.14-3.78-.31-5.66-.47-2.94-.26-5.87-.53-8.8-.84-3.58-.38-7.16-.8-10.74-1.26-6.03-.78-12.05-1.67-18.05-2.67-.76-.13-1.52-.25-2.27-.38-2.62-.45-5.23-.92-7.84-1.42,0,0,0,0,0,0-.55-.1-1.09-.22-1.64-.33-4.79-.93-9.56-1.94-14.32-3.01-3.73-.84-7.45-1.72-11.15-2.65-3.14-.79-6.27-1.6-9.4-2.45,.53,4.09,1.35,8.21,2.78,11.93,.54,1.4,1.16,2.75,1.88,4.01,3.97,6.9,13.07,8.1,20.1,9.97,17.74,4.73,35.81,8.07,54.04,10.18,37.33,4.32,75.26,2.9,112.19-4.05,8.24-1.55,17.02-3.42,22.46-10.38,.46-.58,.87-1.19,1.25-1.8,2.21-3.54,3.23-7.54,3.62-11.65-2.73,.52-5.47,1.02-8.21,1.49-3.68,.64-7.36,1.22-11.05,1.77Z" style="fill:#ff8199;"/><path d="M121.63,289.8c10.64,2.35,17.82,15.75,21.63,24.92,2.44,5.88,4.13,12.04,5.35,18.3,.78,.23,1.55,.46,2.33,.68,2.43,.68,4.86,1.32,7.31,1.92,.13,.03,.27,.07,.4,.1,.47,.12,.94,.22,1.42,.33-1.66-10.42-4.36-20.65-8.99-30.22-4.94-10.21-13.15-21.98-24.45-25.84-.72-.25-1.46-.46-2.21-.64-.97-.23-1.96-.42-2.97-.53-1.39-.15-2.77-.15-4.13-.03-.36,.03-.72,.07-1.08,.12-11.51,1.6-21.52,12.2-27.57,21.52,1.44,1.41,2.9,2.78,4.41,4.09,1.25,1.09,2.52,2.14,3.81,3.17,5.05-8.31,14.71-20.12,24.75-17.91Z" style="fill:#000c40;"/><path d="M71.11,263.55c1.27-1.56,2.58-3.07,3.97-4.51,.98-1.01,2-1.98,3.03-2.93,2.29-2.1,4.72-4.05,7.3-5.79-.71-2.24-1.49-4.47-2.4-6.64-3.81-9.18-10.99-22.57-21.63-24.92-5.45-1.2-10.8,1.73-15.35,6,1.18,3.79,2.46,7.55,3.82,11.28,.23,.63,.44,1.27,.68,1.9,0,0,0,.01,0,.02,.43,1.16,.88,2.33,1.33,3.49,.41,1.06,.84,2.11,1.26,3.17,0,.02,.01,.04,.02,.06,.45,1.1,.91,2.19,1.37,3.29,1.87,4.43,3.88,8.8,6.05,13.09,.58,1.14,1.17,2.28,1.77,3.4,1.13,2.13,2.31,4.24,3.53,6.33,.12-.2,.26-.38,.38-.58,1.5-2.31,3.13-4.53,4.85-6.65Z" style="fill:#ff8199;"/><path d="M387.19,251.85c-.05-.28-.09-.56-.14-.84-.06,.27-.11,.55-.16,.82,.1,0,.2,.01,.3,.02Z" style="fill:#ff5c89;"/><path d="M413.53,273.54c-3.06-2.53-6.47-4.74-10.26-6.54-2.4-1.14-4.9-2.06-7.45-2.77-2.35-.66-4.76-1.12-7.18-1.42-1.15-.14-2.3-.24-3.46-.3-2.47-.12-4.96-.06-7.42,.18-5.52,.54-10.95,2-15.99,4.35-.44,.21-.89,.4-1.32,.62-3.01,1.52-5.79,3.32-8.38,5.34-4.05,3.15-7.6,6.85-10.72,10.97-1.47,1.94-2.85,3.97-4.13,6.08-10,16.53-14.27,37.73-15.15,56.11,2.34-.28,4.68-.59,7.01-.93,2.32-.34,4.64-.71,6.95-1.12,.88-.16,1.77-.3,2.65-.47,.76-.14,1.51-.3,2.26-.46,1.82-10.6,5.07-20.91,10.82-30.12,5.96-9.56,16.3-20.94,28.26-22.6,1.71-.24,3.45-.28,5.22-.08,1.01,.11,2,.29,2.97,.53,10.14,2.44,17.96,11.27,23.35,20.33,1.31-1.08,2.61-2.19,3.86-3.32,4.79-4.3,9.16-8.94,13.17-13.85-1.53-3.52-3.35-6.85-5.46-9.94-2.7-3.96-5.9-7.52-9.61-10.59Z" style="fill:#ff8199;"/><path d="M458.17,190.73c-1.21-.06-2.41-.09-3.62-.06-2.41,.05-4.81,.29-7.19,.68-4.84,.81-9.57,2.31-13.98,4.53-.56,.28-1.1,.59-1.65,.9-3.5,1.93-6.69,4.23-9.61,6.84-13.62,12.2-21.15,31.09-24.7,49.91,4.94,1.26,9.74,3.14,14.25,5.65,1.49,.83,2.91,1.73,4.3,2.66,1.94-7.2,4.73-14.15,8.73-20.56,5.59-8.96,15.04-19.53,26.05-22.18,2.22-.53,4.51-.74,6.84-.55,.19,.02,.39,.02,.58,.04,1.19,.13,2.35,.35,3.48,.65,.07-.31,.14-.62,.21-.94,.62-2.82,1.19-5.65,1.75-8.49,.25-1.26,.48-2.51,.72-3.77,.21-1.09,.42-2.18,.62-3.27,.66-3.6,1.28-7.2,1.89-10.81-.52-.12-1.04-.24-1.56-.35-2.35-.47-4.73-.76-7.13-.89Z" style="fill:#ff8199;"/><path d="M456.5,178.38c-1.28-7.64-3.02-15.19-5.28-22.57-5.14-16.8-14.68-31.45-30.32-40.13-2.18-1.21-4.43-2.26-6.73-3.18-8.93,1.84-17.89,3.44-26.88,4.81-10.94,1.67-21.92,3.01-32.93,4.06-7.77,6.22-14.07,14.22-18.84,23.25-5.94,11.25-10.01,23.47-12.44,36.01-4.46-.06-8.93,.36-13.32,1.3-1.26-11.16-3.46-22.22-6.73-32.92-2.75-8.99-6.78-17.35-12.31-24.53-2.2,.01-4.4,.04-6.6,.04-2.7,0-5.4-.02-8.1-.05,7.51,6.71,12.75,15.55,15.99,25.56,3.7,11.41,6.03,23.26,7.23,35.21-5.44,2.29-10.4,5.34-14.86,8.99-1.69-9.35-4.29-18.51-8.47-27.14-5.67-11.71-15.63-25.48-29.63-27.01-14.13-1.54-26.66,11.77-33.47,22.69-3.21,5.14-5.64,10.62-7.47,16.31-6.52-1.91-13.33-2.7-20.1-2.35,3.71-21.12,12.35-42.59,28.94-54.83-.84-.06-1.69-.11-2.54-.17-2.52-.18-5.04-.36-7.56-.56-1.55-.12-3.1-.25-4.65-.37-4.74,5.02-8.78,10.77-12.08,17.01-6.66,12.6-10.96,26.43-13.25,40.55-1.63,.4-3.24,.85-4.84,1.4-.89,.3-1.77,.64-2.64,.98-1.13-12.87-3.47-25.65-7.23-37.95-3.07-10.03-7.72-19.28-14.28-26.96-3.61-.38-7.21-.76-10.82-1.15-2.58-.28-5.16-.59-7.74-.88,10.7,6.99,17.8,17.6,21.82,30.01,4.43,13.67,6.89,27.95,7.81,42.31-5.21,3.36-9.85,7.47-13.92,12.16-1.52-12.9-4.29-25.64-9.99-37.41-5.67-11.71-15.63-25.48-29.63-27.01-14.13-1.54-26.66,11.77-33.47,22.69-2.52,4.04-4.55,8.29-6.2,12.68-6.63-.5-13.34,.1-19.82,1.82-.17-1.84-.37-3.69-.6-5.53,4.77-22.37,15.35-44.3,35.3-54.36,1.97-.99,4.01-1.83,6.09-2.54-5.89-.81-11.85-1.76-17.79-2.96-9.45,6.51-16.96,15.56-22.45,25.94-1.95,3.7-3.7,7.5-5.26,11.38-.74-2.97-1.54-5.93-2.44-8.85-4.12-13.49-11.1-25.58-21.77-34.32,.26,.69,.54,1.38,.79,2.07,1.27,3.45,2.46,6.92,3.57,10.42,2.4,7.52,4.48,15.15,6.38,22.83,0,0,0,.01,0,.02,3.06,9.45,5.18,19.19,6.51,29.05,.06,.46,.12,.92,.17,1.38,.02-.09,.04-.18,.06-.27,.32,1.53,.65,3.07,.97,4.6,.32,1.52,.64,3.04,.96,4.56,.76,3.62,1.53,7.23,2.31,10.84,.15-.08,.3-.17,.46-.25,1.13-.57,2.29-1.08,3.47-1.56,1.31-.54,2.64-1.02,3.99-1.44,5.13-1.59,10.51-2.33,15.86-2.21,3.62,.08,7.22,.55,10.73,1.43,3.01,.75,5.96,1.77,8.78,3.11,.21,.1,.41,.21,.62,.32,3.81,1.87,7.23,4.15,10.29,6.77,7.94,6.79,13.44,15.88,16.79,26.24,2.4,7.42,4.22,15.02,5.54,22.71-4.36,.45-8.68,1.38-12.88,2.81-1.57,.53-3.08,1.15-4.58,1.8-1.18-3.48-2.57-6.91-4.19-10.25-5.38-11.12-14.65-24.1-27.57-26.68-.68-.14-1.37-.25-2.07-.33-.79-.09-1.57-.12-2.34-.12-5.77,.02-11.22,2.42-16.07,5.97,.56,2.05,1.14,4.09,1.74,6.12,.49,1.66,1,3.32,1.51,4.98,4.55-4.27,9.9-7.2,15.35-6,10.64,2.35,17.83,15.75,21.63,24.92,.9,2.18,1.68,4.4,2.4,6.64-2.58,1.74-5,3.69-7.3,5.79-1.04,.95-2.05,1.92-3.03,2.93-1.39,1.44-2.7,2.95-3.97,4.51-1.72,2.12-3.35,4.33-4.85,6.65-.13,.19-.26,.38-.38,.58,.23,.39,.46,.77,.69,1.16,1.07,1.8,2.17,3.58,3.3,5.33,.34,.53,.7,1.05,1.04,1.57,.41,.62,.83,1.24,1.25,1.86,.41-.73,.82-1.45,1.25-2.16,1.28-2.11,2.66-4.14,4.13-6.08,3.12-4.12,6.67-7.83,10.72-10.97,2.59-2.02,5.38-3.82,8.38-5.34,.44-.22,.88-.41,1.32-.62,5.04-2.35,10.47-3.81,15.99-4.35,1.8-.18,3.61-.26,5.42-.24,1.83,.02,3.65,.14,5.47,.36,1.74,.21,3.46,.51,5.17,.91,3.25,.76,6.43,1.83,9.46,3.27,3.21,1.53,6.15,3.35,8.84,5.41,3.45,2.64,6.48,5.69,9.1,9.07,4.28,5.51,7.5,11.89,9.76,18.84,5.27,16.27,7.77,33.41,8.18,50.51,.71,.13,1.42,.27,2.14,.39,.34,.06,.68,.13,1.03,.19,2.56,.45,5.12,.87,7.69,1.27,.67,.1,1.34,.21,2.02,.31,.96-18.21,5.24-39.05,15.11-55.35,1.28-2.11,2.66-4.14,4.13-6.08,3.12-4.12,6.67-7.83,10.72-10.97,2.59-2.02,5.38-3.82,8.38-5.34,.44-.22,.88-.41,1.32-.62,5.04-2.35,10.47-3.81,15.99-4.35,2.91-.29,5.85-.32,8.76-.1,.71,.06,1.42,.13,2.12,.21,2.85,.35,5.68,.94,8.43,1.79,2.12,.65,4.19,1.44,6.2,2.39,4.33,2.06,8.17,4.63,11.56,7.63,3.61,3.2,6.7,6.9,9.3,10.98,2.86,4.49,5.13,9.43,6.84,14.71,5.36,16.53,7.84,33.96,8.19,51.32,1.97-.12,3.94-.26,5.91-.42,.37-.03,.74-.05,1.1-.08,1.27-.11,2.53-.22,3.8-.35,1.99-.19,3.98-.41,5.97-.65,.88-18.38,5.15-39.58,15.15-56.11,1.28-2.11,2.66-4.14,4.13-6.08,3.12-4.12,6.67-7.83,10.72-10.97,2.59-2.02,5.38-3.82,8.38-5.34,.44-.22,.88-.41,1.32-.62,5.04-2.35,10.47-3.81,15.99-4.35,2.47-.24,4.95-.31,7.42-.18,1.16,.06,2.31,.16,3.46,.3,2.42,.29,4.83,.76,7.18,1.42,2.55,.71,5.04,1.63,7.45,2.77,3.79,1.8,7.19,4.01,10.26,6.54,3.71,3.07,6.91,6.63,9.61,10.59,2.11,3.09,3.93,6.42,5.46,9.94,.96-1.18,1.92-2.35,2.83-3.56,1.32-1.74,2.58-3.52,3.81-5.32,.2-.29,.4-.58,.6-.87-.34-.64-.71-1.27-1.07-1.89-.19-.33-.4-.64-.59-.96-1.78-3-3.77-5.85-5.99-8.51-.97-1.16-1.96-2.29-3.02-3.38,1.46-6.92,3.68-13.65,7.14-19.88,4.55-8.21,15.07-22.55,26.05-20.13,.26,.06,.52,.13,.78,.2,.17-.67,.36-1.34,.53-2.01,.71-2.82,1.36-5.66,1.99-8.5-1.13-.3-2.29-.52-3.48-.65-.19-.02-.39-.03-.58-.04-2.33-.19-4.62,.02-6.84,.55-11.02,2.65-20.46,13.21-26.05,22.18-4,6.42-6.79,13.36-8.73,20.56-1.38-.93-2.8-1.83-4.3-2.66-4.51-2.5-9.3-4.39-14.25-5.65,3.54-18.82,11.07-37.71,24.7-49.91,2.92-2.61,6.11-4.91,9.61-6.84,.55-.3,1.09-.61,1.65-.9,4.4-2.22,9.13-3.73,13.98-4.53,2.38-.4,4.78-.63,7.19-.68,1.21-.03,2.41,0,3.62,.06,2.39,.12,4.78,.41,7.13,.89,.52,.1,1.04,.23,1.56,.35,.17-1.02,.35-2.05,.52-3.07,.42-2.52,.83-5.03,1.25-7.55-.58-.13-1.16-.27-1.75-.38,1.19-6.37,2.83-12.75,5.01-18.88,.52-2.93,1.06-5.85,1.62-8.76,1.05-5.42,2.19-10.81,3.47-16.15,.72-3.02,1.5-6.01,2.33-9-4.1,4.62-7.64,9.81-10.59,15.39-5.75,10.89-9.76,22.69-12.21,34.81ZM122.75,236.56c-1.18-6.44-2.69-12.81-4.57-19.06-.08-.26-.15-.53-.23-.79-1.25-4.07-2.76-8.02-4.54-11.79-.78-1.64-1.62-3.23-2.5-4.79-1.11-1.95-2.29-3.85-3.58-5.67-3.89-5.53-8.62-10.41-14.28-14.43-.32-.23-.63-.46-.95-.68-1.43-.98-2.91-1.91-4.46-2.77-.5-.28-1.01-.53-1.51-.79-1.1-.57-2.22-1.11-3.35-1.61-2.9-1.28-5.88-2.32-8.93-3.12,.87-2.07,1.83-4.11,2.93-6.1,4.55-8.21,15.07-22.55,26.05-20.13,10.64,2.35,17.82,15.75,21.63,24.92,4.48,10.79,6.48,22.52,7.56,34.09,.2,2.15,1.39,3.63,2.92,4.45-.97,1.57-1.89,3.17-2.76,4.81-3.94,7.45-7.05,15.34-9.42,23.46Zm82.25,30.05c-.72,.75-1.42,1.52-2.11,2.3-2.32,2.63-4.45,5.44-6.41,8.41-.1,.15-.21,.3-.31,.45-1.34,2.06-2.6,4.19-3.76,6.38-3.94,7.45-7.05,15.34-9.42,23.46-1.23-6.71-2.81-13.35-4.8-19.85-.35-1.16-.73-2.3-1.13-3.43-1.16-3.33-2.52-6.56-4.06-9.66-1.41-2.83-2.98-5.55-4.73-8.14-.28-.41-.57-.81-.86-1.22-2.05-2.89-4.31-5.62-6.84-8.13,1.24-3.69,2.77-7.29,4.67-10.73,4.55-8.21,15.07-22.55,26.05-20.13,10.64,2.35,17.83,15.75,21.63,24.92,.9,2.18,1.68,4.4,2.4,6.64-3.75,2.53-7.19,5.47-10.33,8.72Zm24.51-15.79c-1.57,.53-3.08,1.15-4.58,1.8-1.18-3.48-2.57-6.91-4.19-10.25-5.67-11.71-15.63-25.48-29.63-27.01-14.13-1.54-26.66,11.77-33.47,22.69-2.38,3.81-4.31,7.81-5.91,11.93-1.24-.82-2.51-1.62-3.84-2.35-4.92-2.73-10.18-4.71-15.6-5.96,4.25-16.52,11.87-32.28,24.31-42.61,2.96-2.46,6.19-4.62,9.72-6.4,.32-.16,.66-.31,.98-.46,1.74-.83,3.54-1.55,5.36-2.17,3.58-1.2,7.3-1.99,11.06-2.36,6.35-.61,12.8-.02,18.9,1.82,2.23,.67,4.41,1.49,6.52,2.49,1.24,.59,2.43,1.24,3.59,1.91,3.75,2.17,7.1,4.75,10.06,7.69,2.6,2.59,4.91,5.46,6.92,8.55,3,4.61,5.36,9.72,7.13,15.18,2.4,7.42,4.22,15.02,5.54,22.71-4.36,.45-8.68,1.38-12.88,2.81Zm25.17-2.82c-.46-.05-.91-.08-1.37-.12-1.29-7.99-3.09-15.89-5.44-23.59-2.42-7.92-5.85-15.34-10.41-21.9-1.15-1.66-2.36-3.27-3.66-4.81-.87-1.03-1.78-2.02-2.72-2.99-2.18-2.25-4.54-4.36-7.1-6.27-2.02-1.5-4.15-2.9-6.42-4.17-.71-.4-1.44-.76-2.17-1.13,1.3-4.09,2.94-8.07,5.04-11.86,4.55-8.21,15.07-22.55,26.05-20.13,10.64,2.35,17.82,15.75,21.63,24.92,3.65,8.8,5.65,18.22,6.84,27.68-2.7,3.28-5.13,6.82-7.29,10.55-.55,.95-1.09,1.9-1.61,2.87-2.08,3.93-3.92,7.99-5.55,12.14-2.4,6.1-4.34,12.39-5.82,18.79Zm84.2,22.58c-1.27,1.32-2.48,2.71-3.65,4.13-1.84,2.23-3.58,4.57-5.17,7.03-.48,.74-.94,1.51-1.4,2.27-.82,1.35-1.61,2.71-2.35,4.12-5.72,10.82-9.71,22.55-12.17,34.59-1.32-9.28-3.29-18.46-6.02-27.38-.63-2.06-1.33-4.09-2.09-6.07-.24-.63-.5-1.25-.75-1.87-1.12-2.72-2.38-5.35-3.78-7.89-.71-1.3-1.48-2.56-2.27-3.8-1.93-3.05-4.08-5.93-6.49-8.6,1.44-5.79,3.49-11.42,6.4-16.68,4.55-8.21,15.07-22.55,26.05-20.13,10.64,2.35,17.82,15.75,21.63,24.92,.9,2.18,1.68,4.4,2.4,6.64-3.75,2.53-7.19,5.47-10.33,8.72Zm24.51-15.79c-1.57,.53-3.08,1.15-4.58,1.8-1.18-3.48-2.57-6.91-4.19-10.25-5.67-11.71-15.63-25.48-29.63-27.01-14.13-1.54-26.66,11.77-33.47,22.69-3.35,5.36-5.84,11.1-7.71,17.04-1.9-1.38-3.89-2.68-6.01-3.85-4.03-2.23-8.29-3.96-12.67-5.21,2.78-12.56,7.41-24.91,14.51-35.06,1.98-2.83,4.16-5.5,6.54-7.94,4.02-4.12,8.62-7.62,13.88-10.3,.05-.02,.09-.05,.14-.07,3.34-1.69,6.87-2.97,10.5-3.84,3.51-.84,7.1-1.31,10.7-1.38,3.6-.07,7.21,.25,10.74,.96,3.75,.75,7.41,1.94,10.89,3.59,2.53,1.2,4.88,2.58,7.08,4.12,3.65,2.54,6.85,5.53,9.65,8.86,4.88,5.83,8.51,12.74,10.97,20.34,2.4,7.42,4.22,15.02,5.54,22.71-4.36,.45-8.68,1.38-12.88,2.81Zm45.78-53.09c-.73,.84-1.43,1.71-2.12,2.59-2.45,3.12-4.68,6.45-6.66,9.95-.07,.12-.13,.24-.2,.36-.32,.57-.65,1.14-.95,1.72-5.73,10.85-9.73,22.6-12.19,34.68,.05,.28,.09,.56,.14,.84-.1,0-.2-.01-.3-.02,.05-.27,.11-.55,.16-.82-1.28-7.7-3.03-15.31-5.31-22.75-1.19-3.89-2.63-7.67-4.32-11.28-.17-.36-.35-.7-.52-1.06-1.67-3.44-3.57-6.74-5.74-9.83-.06-.09-.12-.18-.18-.27-2.62-3.7-5.61-7.12-9.02-10.18,1.45-6.14,3.56-12.11,6.64-17.67,4.55-8.21,15.07-22.55,26.05-20.13,10.64,2.35,17.82,15.75,21.63,24.92,1.25,3,2.28,6.09,3.18,9.21-3.77,2.85-7.2,6.13-10.31,9.73Zm27.16-18.7c-2.57,.87-5.02,1.93-7.39,3.11-1.32-4.17-2.9-8.26-4.83-12.23-5.67-11.71-15.63-25.48-29.63-27.01-14.13-1.54-26.66,11.77-33.47,22.69-3.76,6.03-6.45,12.53-8.38,19.27-.4-.23-.78-.48-1.19-.71-5.54-3.08-11.53-5.23-17.68-6.42,4.43-23.44,15.04-47,35.94-57.54,13.23-6.67,29.42-7.04,42.83-.67,14.04,6.67,22.98,18.76,27.7,33.32,2.52,7.77,4.39,15.74,5.72,23.8-3.25,.52-6.46,1.3-9.6,2.38Z" style="fill:#000c40;"/><path d="M38.34,198.26c.17,0,.35,0,.52,0-.05-.21-.09-.41-.14-.62-.11,.22-.24,.43-.38,.63Z" style="fill:#a8d5f3;"/><path d="M61.19,207.79c.7,.08,1.39,.19,2.07,.33,12.92,2.58,22.18,15.56,27.57,26.68,1.62,3.34,3,6.77,4.19,10.25,1.49-.65,3.01-1.26,4.58-1.8,4.19-1.43,8.52-2.35,12.88-2.81-1.31-7.69-3.13-15.29-5.54-22.71-3.35-10.36-8.86-19.45-16.79-26.24-3.06-2.62-6.48-4.9-10.29-6.77-.21-.1-.41-.22-.62-.32-2.82-1.34-5.77-2.36-8.78-3.11-3.51-.87-7.11-1.35-10.73-1.43-5.36-.12-10.74,.62-15.86,2.21-1.35,.42-2.68,.91-3.99,1.44-1.17,.48-2.33,.99-3.47,1.56-.16,.08-.3,.17-.46,.25,.89,4.11,1.81,8.21,2.78,12.3,.05,.21,.09,.41,.14,.62,.05,.19,.09,.39,.13,.58,1.18,4.96,2.43,9.9,3.78,14.81,4.85-3.56,10.3-5.95,16.07-5.97,.78,0,1.56,.03,2.34,.12Z" style="fill:#ff8199;"/><path d="M267.65,214.2c2.16-3.73,4.59-7.28,7.29-10.55-1.2-9.45-3.19-18.88-6.84-27.68-3.81-9.18-10.99-22.57-21.63-24.92-10.98-2.42-21.5,11.92-26.05,20.13-2.1,3.79-3.74,7.77-5.04,11.86,.73,.37,1.45,.73,2.17,1.13,2.27,1.26,4.4,2.66,6.42,4.17,2.57,1.91,4.93,4.01,7.1,6.27,.94,.97,1.85,1.96,2.72,2.99,1.3,1.54,2.51,3.15,3.66,4.81,4.56,6.56,7.99,13.98,10.41,21.9,2.36,7.71,4.15,15.6,5.44,23.59,.46,.04,.91,.07,1.37,.12,1.48-6.4,3.42-12.69,5.82-18.79,1.63-4.14,3.47-8.2,5.55-12.14,.51-.97,1.06-1.92,1.61-2.87Z" style="fill:#ff8199;"/></g></g></svg>