<?xml version="1.0" encoding="UTF-8"?><svg id="Layer_2" xmlns="http://www.w3.org/2000/svg" viewBox="0 0 613.41 360.47"><g id="Layer_1-2"><g><path d="M592.48,42.33c-15.53-5.76-32.15-9.52-48.26-13.29-16.44-3.84-33.02-7.06-49.71-9.65-35.02-5.43-70.34-7.45-105.74-8.23-34.44-.76-68.92-1.15-103.35,.16-34.68,1.32-69.36,4.45-103.45,11.15-7.86,1.55-15.71,3.21-23.46,5.23-6.58,1.71-13.51,3.8-18.94,8.07-.88,.69-1.7,1.43-2.44,2.22-3.1,3.28-4.88,7.37-4.49,12.13,.35,4.28,2.24,8.06,6.16,9.51,1.47,1.12,3.02,2.06,4.37,2.76,.32,.17,.64,.25,.95,.29,1.29,.54,2.58,1.07,3.87,1.6,.36-.53,.5-1.22,.27-2.03-2.04-7.15,6.63-11.66,11.99-14.14,7.12-3.29,14.57-5.89,22.1-8.06,1.63-.47,3.27-.92,4.92-1.35,3.38-.88,6.78-1.68,10.2-2.4,9.34-1.99,18.8-3.45,28.27-4.63,3.87-.48,7.73-.94,11.61-1.37,3.49-.39,6.99-.75,10.49-1.1,13.88-1.37,27.79-2.39,41.71-3.14,3.47-.19,6.95-.36,10.42-.51,5.34-.23,10.68-.44,16.02-.6,6.16-.18,12.32-.28,18.47-.35,3.47-.04,6.94-.07,10.41-.08,14.66,0,29.33,.31,43.98,.94,3.45,.15,6.91,.34,10.36,.52,9.53,.51,19.06,1.16,28.57,1.94,1.67,.14,3.34,.25,5,.4,1.8,.16,3.59,.33,5.38,.5,4.33,.4,8.66,.83,12.99,1.29,5.51,.58,11.02,1.23,16.52,1.9,3.43,.42,6.86,.85,10.29,1.3,7.93,1.05,15.84,2.19,23.74,3.44,1.29,.2,2.59,.41,3.88,.62,3.41,.55,6.82,1.12,10.23,1.72,9.22,1.63,18.4,3.52,27.39,6.1,1.96,.56,3.91,1.16,5.85,1.79,1.36,.44,2.74,.91,4.15,1.4,12.19,4.28,25.52,10.74,29.49,23.76,.14,.45,.36,.8,.63,1.08,1.2-.69,2.38-1.4,3.55-2.13,.26-.16,.52-.33,.77-.49,4.22-2.71,8.55-6.07,11.61-10.2,.65-1.18,1.28-2.38,1.93-3.56,.23-.41,.48-.76,.76-1.06,.03-.07,.07-.14,.1-.21,3.01-7.24-3.58-11.02-9.53-13.23Z" style="fill:#0099a9;"/><path d="M237.34,30.28c-3.87,.43-7.74,.88-11.61,1.37-9.47,1.19-18.93,2.65-28.27,4.63,1.44,16.14,4.32,32.05,8.58,47.67,2.26,.62,4.53,1.22,6.8,1.8,2.91,.75,5.83,1.49,8.76,2.19,3.19,.77,6.4,1.51,9.6,2.22,1.01,.22,2.03,.43,3.04,.65,1.94-.44,3.89-.85,5.84-1.24-2.17-19.7-4.19-39.5-2.75-59.29Z" style="fill:#fff;"/><path d="M553.17,48.37c-1.67,13.18-3.34,26.36-5.01,39.55,1.07-.33,2.14-.67,3.21-1.01,11.01-3.56,21.93-7.92,31.92-13.7-.27-.28-.5-.63-.63-1.08-3.96-13.01-17.3-19.48-29.49-23.76Z" style="fill:#fff;"/><path d="M386.36,78.16c.23-17.59,1.04-35.17,2.47-52.71-14.65-.63-29.31-.94-43.98-.94-1.54,18.27-2.47,36.58-2.81,54.91,14.75-1.01,29.53-1.44,44.32-1.27Z" style="fill:#fff;"/><path d="M457.3,86c.34,.03,.68,.06,1.01,.1,1.63,.18,3.25,.4,4.86,.66,1.35-18.26,2.84-36.52,4.49-54.75-5.5-.67-11.01-1.32-16.52-1.9-4.33-.46-8.66-.88-12.99-1.29-.2,17.49-1.42,34.92-3.55,52.27,7.69,1.12,15.29,2.7,22.71,4.92Z" style="fill:#fff;"/><path d="M424.36,79.85c2.12-17.23,3.23-34.56,3.4-51.93-9.51-.78-19.04-1.43-28.57-1.94-1.4,17.42-2.21,34.88-2.43,52.36,9.17,.21,18.42,.61,27.61,1.51Z" style="fill:#fff;"/><path d="M299.72,82.41c7.53-.49,15.06-.89,22.56-1.29,3.11-.32,6.22-.62,9.34-.89,.33-18.57,1.27-37.12,2.83-55.64-6.16,.07-12.32,.17-18.47,.35-5.34,.15-10.68,.36-16.02,.6-.66,18.95-.74,37.91-.24,56.87Z" style="fill:#fff;"/><path d="M250.28,87.71c12.91-2.15,25.97-3.54,39.06-4.56-.52-19.03-.45-38.07,.2-57.1-13.92,.75-27.84,1.77-41.71,3.14-1.56,19.53,.32,39.07,2.46,58.52Z" style="fill:#fff;"/><path d="M499.44,97.51c2.04-20.05,4.08-40.1,6.12-60.14-1.3-.21-2.59-.42-3.88-.62-7.9-1.25-15.81-2.39-23.74-3.44-1.66,18.49-3.16,36.99-4.52,55.51,8.87,2.17,17.52,5.24,26.02,8.7Z" style="fill:#fff;"/><path d="M515.79,39.09c-1.96,19.28-3.92,38.55-5.89,57.83,3.34-.57,6.67-1.18,9.99-1.85,5.86-1.18,11.69-2.52,17.47-4.05,1.94-15.28,3.87-30.56,5.81-45.84-8.99-2.58-18.17-4.47-27.39-6.1Z" style="fill:#fff;"/><path d="M182.34,40.03c-7.53,2.17-14.98,4.77-22.1,8.06-5.37,2.48-14.03,6.98-11.99,14.14,.23,.81,.09,1.5-.27,2.03,4.23,1.75,8.48,3.45,12.77,5.07,11.1,4.19,22.35,7.95,33.7,11.32-3.44-13.79-5.83-27.81-7.19-41.97-1.64,.43-3.28,.87-4.92,1.35Z" style="fill:#fff;"/><path d="M437.82,304.33h0c1.14-.21,2.27-.41,3.41-.63-1.13,.21-2.27,.43-3.41,.63Z" style="fill:#b0795a;"/><path d="M451.5,301.49c-3.39,.82-6.82,1.55-10.27,2.2-1.13,.22-2.27,.43-3.41,.63,.11,2.59,.1,5.32-.29,7.96-.52,3.53-1.72,6.89-4.26,9.54-4.55,4.74-11.93,5.38-18.03,6.54-8.13,1.55-16.32,2.8-24.54,3.75-1.35,.16-2.71,.31-4.06,.45-1.77,.18-3.55,.35-5.33,.51-3.23,.28-6.46,.52-9.69,.71-1.05,.06-2.1,.13-3.15,.18-.8,.04-1.6,.08-2.4,.11-4.36,.2-8.78,.37-13.21,.44-.66,.01-1.33,.02-1.99,.02-4.18,.03-8.38-.03-12.55-.25-6.05-.32-12.05-.97-17.9-2.11-5.12-1-10.51-2.52-14.69-5.75-.74-.57-1.44-1.19-2.1-1.87-2.12-2.21-3.43-4.83-4.26-7.63-.6-2.03-.96-4.15-1.14-6.29-.05-.56-.06-1.13-.09-1.69-.01-.21-.02-.41-.03-.62-.02-.25-.04-.5-.04-.75,.19,.04,.38,.07,.57,.1l.02-.02-2.09-.43c-2.42-7.9,4.01-16.83,13.05-16.97,4.67-.07,9.18,2.96,10.78,7.32,1.32,2.6,1.8,5.68,.98,8.81-.39,1.48-1.03,2.94-1.86,4.29,1.23,.12,2.47,.21,3.7,.32,9.26,.32,18.55,.25,27.83,0-1.92-6-4.22-11.87-6.91-17.56-2.62-5.53-5.44-12.06-10.47-15.85-5.39-4.05-12.31-2.92-18.37-1.18-11.77,3.39-27.64,12.1-32.38,24.19-.44,1.13-.74,2.21-.93,3.25-1.96-.54-3.92-1.1-5.87-1.7-3.33-1.03-6.64-2.14-9.93-3.35-7.38,15.05,.13,32.21,12.92,41.8,14.19,10.64,33.78,14.62,51.18,17.2,.9,.13,1.8,.27,2.68,.39,1.14,.16,2.29,.31,3.43,.46,5.5,.7,11.01,1.2,16.52,1.5,8.15,.44,16.32,.44,24.47,0,2.11-.12,4.22-.26,6.33-.43,3.66-.31,7.32-.7,10.97-1.19,1.45-.19,2.91-.4,4.39-.62,4.36-.63,8.81-1.36,13.26-2.24,2.31-.46,4.62-.95,6.92-1.5,11.32-2.68,22.41-6.54,31.86-12.56,14.84-9.45,25.13-28.17,17.3-45.08-3.3,1.18-6.65,2.23-10.03,3.19-2.28,.65-4.58,1.23-6.89,1.79Z" style="fill:#fff;"/><path d="M301.85,306.51c-.41-1.43-.27-3.2,.32-4.63,.32-1.12,.86-2.18,1.74-2.97,1.3-1.16,3.14-2.15,4.94-1.94,.68,.08,1.41,.17,2.08,.36,1.12,.31,2.29,1.06,3.11,1.89,.74,.75,1.14,1.47,1.51,2.4,.5,1.26,.59,2.41,.38,3.72-.25,1.6-1,3.14-2.2,4.26-.14,.13-.3,.25-.45,.38,2.08,.26,4.16,.5,6.25,.71,.84-1.35,1.47-2.81,1.86-4.29,.82-3.13,.34-6.21-.98-8.81-1.61-4.36-6.12-7.39-10.78-7.32-9.04,.14-15.46,9.07-13.05,16.97l2.09,.43-.02,.02c1.35,.26,2.7,.5,4.06,.73-.36-.58-.64-1.2-.85-1.91Z" style="fill:#ff4300;"/><path d="M142.65,169.2c-4.44-1.2-8.87-2.47-13.26-3.84-2.32-.72-4.63-1.47-6.93-2.25-3.94-1.34-7.84-2.77-11.7-4.32-1.65-.66-3.28-1.35-4.91-2.05-2.06-.89-4.11-1.81-6.13-2.78-1.08-.52-2.15-1.05-3.21-1.6-9.17-4.68-17.71-10.36-25.21-17.49-8.24-7.84-15.32-16.8-22.31-25.75-7.44-9.52-14.09-19.66-14.45-32.16-.15-5.13,1.45-9.33,4.13-12.75,3.67-4.68,9.37-7.89,15.42-10,.95-.33,1.91-.64,2.87-.92,3.64-1.05,7.13-1.29,10.18-.18,.19,.04,.39,.07,.57,.12,1.12,.31,2.29,1.06,3.11,1.89,.36,.36,.64,.72,.87,1.1,.45,.5,.89,1.04,1.3,1.66,1.55,2.31,2.83,4.84,4.03,7.41,1.18,2.53,2.3,5.1,3.52,7.55,2.53,5.04,4.99,10.93,8.12,16.24,1.98,3.35,4.22,6.46,6.91,8.98,.67,.63,1.36,1.24,2.09,1.79,3.84,2.9,8.42,4.55,13.01,5.89,.36,.11,.72,.21,1.08,.31,1.43,.41,2.89,.82,4.36,1.21,3.99,1.06,8.09,1.91,12.19,1.91,.44,0,.88,.01,1.32-.01,.89-.04,1.77-.16,2.65-.32,.66-.12,1.31-.27,1.96-.45,2.13-.59,4.15-1.52,5.93-2.74,.52-.36,1.02-.74,1.5-1.15-4.43-10.63-9.01-21.19-13.75-31.69-.94,.9-1.98,1.65-3.09,2.2-2.14,1.07-4.51,1.45-6.85,.92-.88-.2-1.76-.52-2.62-.99-.93-.51-1.84-1.17-2.71-2.03-5.88-5.83-6.81-15.8-9.28-23.36-1.97-6.05-3.9-13.58-7.77-18.75-3.78-5.06-11.04-5.82-16.85-6.57-25.17-3.27-53.43,6.34-69.31,26.68C2.01,60.43-2.68,73.13,1.67,85c4.42,12.02,15.68,19.96,21.46,31.28,3.37,6.6,5.5,13.67,7.64,20.73,1.64,5.42,3.77,11.62,9.72,13.62,2.78,.94,4.91,.16,7.67-.38,4.91-.96,8.41,1.63,12.35,4.15,6.68,4.27,13.4,8.49,20.22,12.54,6.36,3.77,12.81,7.39,19.37,10.81,1.79,.93,3.59,1.85,5.4,2.75,18.83,9.37,38.54,16.8,59.3,20.57-2.84-9.45-5.67-18.9-8.51-28.36-4.55-1.13-9.1-2.28-13.63-3.51Z" style="fill:#ffb003;"/><path d="M610.87,43.13c-3.3-5.38-9.28-8.43-14.97-10.6-8.34-3.18-17.19-5.35-25.8-7.69-17.89-4.86-35.98-8.98-54.21-12.33-37.22-6.85-74.83-10.21-112.64-11.38-38.24-1.18-76.59-1.67-114.83-.33-37.26,1.31-74.56,4.67-111.16,12.02-14.59,2.93-31.6,5.31-43.77,14.62-.22,.17-.45,.32-.67,.49-3.08,2.45-5.58,5.47-7.39,8.8-.93,1.71-1.67,3.51-2.21,5.36-.61,2.11-.96,4.28-1.02,6.48-.04,1.45,.07,2.92,.3,4.38,.01,.08,.02,.17,.03,.25,.42,2.49,1.23,4.97,2.49,7.36,.71,1.36,1.59,2.59,2.58,3.72,.39,.44,.79,.87,1.22,1.27,.42,.4,.86,.79,1.33,1.15,.24,.52,.62,1,1.13,1.42,.35,.29,.74,.55,1.23,.77,1.1,.49,2.21,.96,3.31,1.43,.48,.21,.96,.41,1.44,.61,3.2,1.37,6.42,2.71,9.64,4.01,15.01,6.04,30.27,11.31,45.74,15.87,1.65,.49,3.31,.96,4.97,1.44,.37,.11,.74,.22,1.11,.32,1.38,.39,2.76,.76,4.15,1.14,1.62,.44,3.24,.88,4.87,1.31,1.88,.5,3.76,.99,5.64,1.46,40.3,10.18,81.75,15.86,123.35,18.15,21.21,1.17,42.45,1.46,63.69,1.08,2.35-.04,4.69-.09,7.04-.15,6.04-.15,12.08-.36,18.12-.61,6.15-.26,12.31-.56,18.45-.92,1.43-.08,2.87-.17,4.3-.26,2.1-.13,4.19-.26,6.29-.4,5.84-.39,11.7-.82,17.54-1.33,4.11-.36,8.23-.75,12.34-1.19,2.55-.27,5.09-.56,7.63-.87,2.28-.28,4.56-.57,6.84-.88,3.25-.44,6.49-.94,9.72-1.46,3.36-.54,6.71-1.11,10.05-1.75,3.34-.64,6.68-1.31,10-2.05,2.42-.54,4.82-1.12,7.22-1.72,3.61-.9,7.2-1.87,10.77-2.92,.39-.12,.79-.22,1.18-.34,13.46-4.03,27.34-9.03,39.69-16.1,1.99-1.14,3.95-2.33,5.86-3.58,4.86-3.2,10.58-7.94,14.65-13.46,5.02-6.82,7.53-14.82,2.77-22.59Zm-8.86,12.42c-.03,.07-.07,.14-.1,.21-.7,1.64-1.62,3.18-2.69,4.62-3.07,4.13-7.4,7.49-11.61,10.2-.26,.17-.52,.33-.77,.49-1.17,.73-2.36,1.44-3.55,2.13-9.99,5.77-20.9,10.14-31.92,13.7-1.07,.35-2.14,.68-3.21,1.01-1.6,.5-3.2,.98-4.8,1.45-.27,.08-.54,.15-.8,.22-1.73,.5-3.46,.97-5.19,1.43-5.78,1.54-11.61,2.88-17.47,4.05-3.32,.67-6.65,1.28-9.99,1.85-2.85,.48-5.71,.94-8.57,1.36-.67,.1-1.33,.19-2,.28-5.94,.84-11.91,1.56-17.88,2.18-3.63,.37-7.27,.7-10.9,1.02-1.92,.16-3.84,.33-5.76,.48-5.68,.44-11.36,.83-17.03,1.18-.58,.04-1.15,.06-1.73,.1-2.3,.14-4.6,.27-6.9,.39-.37,.02-.73,.04-1.1,.06-2.2,.12-4.39,.22-6.59,.33-1.8,.09-3.61,.17-5.41,.25-6.39,.27-12.79,.49-19.19,.64-18.67,.45-37.36,.4-56.02-.3-34.01-1.28-68.04-4.72-101.5-11.02-2.86-.54-5.71-1.1-8.55-1.68-2.18-.44-4.36-.9-6.53-1.37-1.01-.22-2.03-.43-3.04-.65-3.21-.71-6.41-1.46-9.6-2.22-2.93-.7-5.84-1.44-8.76-2.19-2.27-.59-4.54-1.19-6.8-1.8-3.88-1.05-7.74-2.16-11.59-3.3-11.35-3.37-22.59-7.12-33.7-11.32-4.29-1.62-8.54-3.32-12.77-5.07-1.29-.53-2.58-1.06-3.87-1.6-.31-.04-.62-.12-.95-.29-1.35-.7-2.91-1.64-4.37-2.76-3.92-1.44-5.81-5.22-6.16-9.51-.39-4.76,1.39-8.84,4.49-12.13,.74-.79,1.56-1.53,2.44-2.22,5.43-4.26,12.36-6.35,18.94-8.07,7.75-2.02,15.61-3.68,23.46-5.23,34.09-6.71,68.76-9.83,103.45-11.15,34.43-1.31,68.92-.91,103.35-.16,35.4,.78,70.72,2.8,105.74,8.23,16.68,2.59,33.27,5.81,49.71,9.65,16.11,3.76,32.73,7.53,48.26,13.29,5.95,2.21,12.54,5.99,9.53,13.23Z" style="fill:#000c40;"/><path d="M512.17,236.48c1.62,2.2,3.2,4.42,4.73,6.67-.03-.94,.41-1.89,1.53-2.37,7.21-3.11,14.43-6.21,21.64-9.32,.98-.42,1.97-.86,2.97-1.3,1.56-3.13,2.96-6.31,4.26-9.53-7.37,4.8-15.2,8.95-23.33,12.3-2.64,1.09-8.16,4.11-11.8,3.56Z" style="fill:#ffb003;"/><path d="M593.46,79.18c-1.91,1.25-3.86,2.44-5.86,3.58-12.35,7.06-26.23,12.07-39.69,16.1-.39,.12-.79,.23-1.18,.34-3.57,1.05-7.16,2.02-10.77,2.92-2.4,.6-4.81,1.18-7.22,1.72-3.32,.74-6.66,1.41-10,2.05-3.34,.63-6.69,1.21-10.05,1.75-3.24,.52-6.48,1.01-9.72,1.46-2.28,.31-4.55,.61-6.84,.88,3.19,2.86,7.64,6.8,6.59,10.94-1.11,4.38-6.91,9.01-10.71,11.01-4.59,2.41-9.66,2.29-14.31,.1-5.82-2.73-9.88-8.07-13.99-12.81-1.7-1.95-3.4-3.91-5.09-5.86-2.1,.14-4.2,.27-6.29,.4,5.26,6.18,9.98,12.84,14.1,19.82,3.11,5.27,6.94,11.27,7.24,17.57,.33,6.74-4.49,11.83-9.34,15.87-9.41,7.84-25.52,16.09-38.19,13.23-14.5-3.28-12.66-19.55-9.47-30.43,3.49-11.92,7.57-23.68,12.9-34.87-6.04,.26-12.08,.46-18.12,.61-2.35,.06-4.69,.11-7.04,.15-21.23,.38-42.48,.08-63.69-1.08-41.6-2.29-83.05-7.97-123.35-18.15-1.88-.48-3.76-.97-5.64-1.46-1.62-.43-3.25-.87-4.87-1.31-.16,1.09-.74,2.2-1.47,2.93-.17,.17-.37,.32-.57,.46-.89,.66-2.02,1.06-3.11,1.06h-.35c-1.41,0-2.66-.59-3.68-1.52-1.02-.94-1.46-2.33-1.52-3.68-.03-.7,.16-1.46,.48-2.15-15.46-4.56-30.73-9.83-45.74-15.87-3.23-1.3-6.44-2.64-9.64-4.01-.25,.8-.52,1.58-.83,2.34-.3,.74-.64,1.45-1,2.14,.26,.43,.53,.85,.78,1.28,.6-.23,1.2-.45,1.81-.65,3.8-1.27,7.63-1.83,10.57-.27,7.55,4,1.17,10.64-3.04,13.86-.43,.33-.86,.65-1.3,.98,.03,.09,.06,.18,.1,.27,4.76,.48,9.61,2.48,13.88,5.1,6.07,3.72,11.7,8.24,16.83,13.17,3.01,2.89,9.29,7.45,8.07,12.29-1.11,4.38-6.91,9.01-10.71,11.01-4.59,2.41-9.66,2.29-14.31,.1-.88-.41-1.72-.9-2.53-1.42,2.51,11.63,4.58,23.43,6.9,35.05,.57,2.83,1.15,5.66,1.75,8.47,.41,1.89,.84,3.78,1.27,5.66,1.28,5.47,2.68,10.86,4.29,16.13,.03,.09,.06,.19,.09,.28,.56,1.83,1.16,3.65,1.77,5.46,1.97,5.81,4.23,11.53,6.76,17.11,6.06,13.32,13.76,25.83,23.35,36.82,.12-.14,.24-.29,.36-.43,7.3-8.67,19.84-19.21,30.59-8.94,9.39,8.97,11.43,26.96,10.1,39.13-.08,.75-.18,1.5-.29,2.26,2.83,1.53,5.71,2.95,8.62,4.33,.19-1.05,.75-2.11,1.46-2.82,.94-.94,2.34-1.52,3.68-1.52h.35c1.41,0,2.66,.59,3.68,1.52,1.02,.94,1.46,2.33,1.52,3.68,.05,1.13-.46,2.41-1.2,3.31,1.77,.72,3.55,1.42,5.34,2.08,.07,.03,.14,.05,.21,.07,3.29,1.21,6.6,2.33,9.93,3.35,1.95,.6,3.91,1.16,5.87,1.7,.19-1.04,.49-2.12,.93-3.25,4.74-12.09,20.61-20.8,32.38-24.19,6.07-1.75,12.98-2.88,18.37,1.18,5.04,3.79,7.86,10.33,10.47,15.85,2.69,5.68,4.99,11.56,6.91,17.56,1.78-.05,3.56-.1,5.34-.17-.63-2.36-1.25-4.72-1.88-7.09-1.61-6.06-3.76-12.42-2.75-18.77,.81-5.08,3.54-9.34,8.12-11.79,3.79-2.02,10.88-4.23,15.13-2.68,4.69,1.71,4.94,9.46,5.65,13.57,1.2,7.01,1.77,14.21,1.45,21.32-.07,1.46-.23,2.93-.45,4.39,10.97-.51,21.94-1.16,32.85-2.26-.22-.61-.35-1.26-.38-1.9-.06-1.3,.62-2.78,1.52-3.68s2.34-1.52,3.68-1.52h.35c1.41,0,2.66,.59,3.68,1.52,1.02,.94,1.46,2.33,1.52,3.68,.01,.23-.01,.47-.05,.72,4.35-.57,8.69-1.23,13.01-2.01h0c1.14-.2,2.27-.42,3.41-.63,3.45-.65,6.88-1.38,10.27-2.2,2.31-.56,4.61-1.14,6.89-1.79,3.38-.96,6.73-2.01,10.03-3.19,1.9-.68,3.79-1.41,5.66-2.17-.1-1.94,.14-3.92,.73-5.89,1.85-6.16,6.54-10.95,10.62-15.72,4.4-5.13,8.79-10.27,13.19-15.4,.71-.83,1.43-1.66,2.14-2.5,.16-.18,.32-.32,.5-.45-.15-.19-.3-.39-.45-.59-1.04-1.33-2.04-2.69-3-4.08-1.48,3.09-4.73,6.29-6.2,8.07-5.97,7.22-12.71,13.83-19.99,19.72-4.76,3.85-10.13,8.51-16.31,9.74-6.62,1.31-12.36-2.7-17.07-6.91-9.14-8.16-19.66-22.89-18.68-35.84,1.12-14.83,17.48-15.39,28.71-13.83,14.21,1.97,28.31,4.73,41.86,9.42,.77,.26,1.52,.55,2.29,.83-.11-.2-.23-.41-.34-.61-.18-.35-.37-.73-.57-1.14-1.36-2.76-3.12-6.76-3.84-10.55-.08-.32-.18-.63-.26-.95-.1-.42-.11-.82-.04-1.18-.06-.79-.05-1.56,.02-2.3-3.53-2.1-6.99-4.29-10.39-6.59-2.77-1.88,.57-5.86,3.32-4,3.05,2.06,6.16,4.02,9.32,5.9,.84-.77,1.75-1.18,2.69-1.3,.74-4.73,1.41-9.47,1.96-14.23,.39-3.34,5.52-2.47,5.13,.84-.58,4.97-1.28,9.93-2.06,14.87,2.6,1.65,4.97,4.26,6.39,5.99,1.09,1.32,2.16,2.65,3.23,3.99,.23-.16,.46-.31,.68-.47-.79-15.33,.79-30.61,3.29-45.74,1.85-11.19,7.24-26.65,21.73-23.31,10.94,2.52,20.6,13.64,26.3,23.81,3.61-12.17,7.54-24.24,11.89-36.16,2.16-5.93,4.44-11.8,6.79-17.65-9.21-4.14-17.94-11.27-13.53-22.5,4.74-12.09,20.61-20.8,32.38-24.19,.87-.25,1.75-.48,2.65-.69,2.9-5.73,5.87-11.43,8.94-17.07-4.07,5.52-9.79,10.27-14.65,13.46ZM196.01,199.35c-.94,.94-2.34,1.52-3.68,1.52h-.35c-1.41,0-2.66-.59-3.68-1.52-1.02-.94-1.46-2.33-1.52-3.68-.06-1.3,.62-2.78,1.52-3.68,.94-.94,2.34-1.52,3.68-1.52h.35c1.41,0,2.66,.59,3.68,1.52,1.02,.94,1.46,2.33,1.52,3.68,.06,1.3-.62,2.78-1.52,3.68Zm111.39-72.85c.94-.94,2.34-1.52,3.68-1.52h.35c1.41,0,2.66,.59,3.68,1.52,1.02,.94,1.46,2.33,1.52,3.68,.06,1.3-.62,2.78-1.52,3.68-.94,.94-2.34,1.52-3.68,1.52h-.35c-1.41,0-2.66-.59-3.68-1.52-1.02-.94-1.46-2.33-1.52-3.68-.06-1.3,.62-2.78,1.52-3.68Zm60.02,68.07c-2.75,5.68-6.53,11.58-13.15,12.89-6.19,1.22-12.93-1.05-18.79-2.8-8.98-2.67-17.73-6.23-26-10.63-2.52-1.34-8.37-3.66-10.27-6.82-.66,2.65-1.36,5.28-2.12,7.9,.71-.63,1.72-.89,2.8-.34,7,3.57,13.99,7.14,20.99,10.71,5.59,2.85,11.75,5.5,15.8,10.49,3.24,3.99,4.59,8.88,3.35,13.92-1.02,4.17-4.12,10.92-8.11,13.05-4.4,2.35-10.34-2.64-13.87-4.87-6.02-3.79-11.76-8.17-16.83-13.16-2.93-2.88-5.55-6.24-7.28-9.84-.71-1.47-1.28-2.99-1.65-4.52-.44,1.3-.92,2.6-1.47,3.86-1.6,3.67-3.73,6.91-6.86,8.05-8.02,2.94-8.7-6.23-8.28-11.52,.04-.54,.09-1.08,.14-1.62-.09-.04-.18-.07-.26-.11-3.54,3.22-8.26,5.5-13.06,6.93-6.82,2.03-13.94,3.21-21.04,3.73-4.16,.31-11.75,1.94-14.54-2.21-2.52-3.75-2.09-11.16-1.04-15.33,1.27-5.03,4.75-8.71,9.48-10.72,5.92-2.51,12.6-1.96,18.87-1.86,6.76,.11,13.52,.22,20.28,.33,1.1,.02,2.19,.04,3.29,.05,.24,0,.46,.04,.66,.1,.05-.24,.11-.48,.17-.72,.36-1.65,.78-3.29,1.22-4.91-3.32,.83-7.86,.38-10.17,.38-9.37,0-18.76-.96-27.94-2.81-6-1.21-13.02-2.37-17.91-6.34-5.23-4.26-5.8-11.24-5.57-17.55,.45-12.24,5.08-29.74,15.67-37.25,12.13-8.6,23.01,3.64,28.97,13.28,7.55,12.2,14.42,24.81,19.46,38.24,.28,.76,.55,1.53,.82,2.29,.09-.22,.17-.44,.26-.65,.15-.36,.33-.75,.51-1.16,1.26-2.81,3.21-6.71,5.67-9.69,.19-.27,.37-.54,.56-.81,.26-.35,.56-.6,.89-.78,.57-.55,1.17-1.04,1.78-1.45-.64-4.05-1.16-8.12-1.56-12.2-.32-3.33,4.88-3.3,5.2,0,.36,3.66,.84,7.31,1.41,10.94,1.13,.15,2.02,.59,2.71,1.24,4.11-2.45,8.19-4.96,12.21-7.57,2.82-1.83,5.42,2.67,2.62,4.49-4.2,2.73-8.46,5.35-12.77,7.9,.39,3.05-.11,6.55-.53,8.74-.32,1.68-.66,3.36-1.02,5.03,.27,.07,.53,.15,.8,.22,11.3-10.4,24.07-18.92,37.31-26.65,9.79-5.72,25.14-11.43,31.82,1.86,5.83,11.6,1.71,29.23-3.63,40.25Zm29.47,23.7c-.94,.94-2.34,1.52-3.68,1.52h-.35c-1.41,0-2.66-.59-3.68-1.52-1.02-.94-1.46-2.33-1.52-3.68-.06-1.3,.62-2.78,1.52-3.68,.94-.94,2.34-1.52,3.68-1.52h.35c1.41,0,2.66,.59,3.68,1.52,1.02,.94,1.46,2.33,1.52,3.68,.06,1.3-.62,2.78-1.52,3.68Zm140.6-81.93c-.94,.94-2.34,1.52-3.68,1.52h-.35c-1.41,0-2.66-.59-3.68-1.52-1.02-.94-1.46-2.33-1.52-3.68-.06-1.3,.62-2.78,1.52-3.68,.94-.94,2.34-1.52,3.68-1.52h.35c1.41,0,2.66,.59,3.68,1.52,1.02,.94,1.46,2.33,1.52,3.68,.06,1.3-.62,2.78-1.52,3.68Z" style="fill:#ffb003;"/><path d="M599.23,60.38c1.07-1.44,1.98-2.98,2.69-4.62-.27,.3-.53,.65-.76,1.06-.65,1.18-1.29,2.37-1.93,3.56Z" style="fill:#0099a9;"/><path d="M297.88,159.05c-.57-3.64-1.05-7.28-1.41-10.94-.32-3.3-5.52-3.33-5.2,0,.4,4.08,.92,8.15,1.56,12.2,1.11-.74,2.28-1.21,3.51-1.3,.56-.04,1.07-.02,1.54,.04Z" style="fill:#000c40;"/><path d="M315.43,157.21c2.8-1.82,.19-6.32-2.62-4.49-4.02,2.61-8.09,5.12-12.21,7.57,1.21,1.13,1.82,2.89,2.07,4.83,4.31-2.55,8.57-5.18,12.77-7.9Z" style="fill:#000c40;"/><path d="M282,177.82c.1-.28,.2-.55,.31-.82,.12-.31,.25-.63,.37-.94,.16-.4,.32-.8,.48-1.2-.27-.76-.54-1.53-.82-2.29-5.04-13.43-11.91-26.05-19.46-38.24-5.97-9.64-16.84-21.88-28.97-13.28-10.59,7.51-15.22,25.01-15.67,37.25-.23,6.31,.34,13.29,5.57,17.55,4.89,3.98,11.92,5.14,17.91,6.34,9.18,1.85,18.58,2.81,27.94,2.81,2.31,0,6.85,.45,10.17-.38,.6-2.16,1.25-4.31,2.02-6.41,.05-.13,.1-.26,.14-.39Zm-33.2-20.84c-2.84,1.55-5.94,1.83-8.78,1.17-4.62-.51-8.65-4.15-9.7-8.7-2.46-10.62,8.4-20.65,18.5-15.29,4.26,2.26,7.82,6.51,7.62,11.56-.19,4.73-3.59,9.05-7.63,11.27Z" style="fill:#ff4300;"/><path d="M248.82,134.15c-10.1-5.36-20.96,4.67-18.5,15.29,1.06,4.55,5.09,8.19,9.7,8.7,2.84,.65,5.95,.38,8.78-1.17,4.04-2.22,7.45-6.53,7.63-11.27,.2-5.04-3.35-9.29-7.62-11.56Zm1.25,14.62c-.8,1.44-2.11,2.54-3.61,3.17-1.22,.52-2.35,.71-3.7,.53-.99-.13-1.78-.35-2.69-.89-.99-.59-2.01-1.55-2.58-2.56-.34-.6-.6-1.28-.85-1.93-.64-1.7-.12-3.73,.69-5.27,.55-1.05,1.45-1.83,2.47-2.4,1.25-.92,2.93-1.48,4.41-1.43,1.57,.06,2.91,.52,4.14,1.47,.74,.48,1.33,1.12,1.76,1.92,.23,.54,.46,1.09,.69,1.63,.11,.72,.26,1.43,.25,2.15-.02,1.25-.38,2.51-.99,3.61Z" style="fill:#fff;"/><path d="M246.06,198.24c-6.35-2.06-13.22,4.76-10.55,11.08,1.41,3.33,4.84,5.36,8.46,4.47,.03,0,.07-.02,.1-.03,.51-.08,1.02-.19,1.51-.36,3.19-1.15,5.89-4.17,5.91-7.71,.02-3.44-2.15-6.39-5.43-7.46Zm-2.35,11.48c-4.88,0-4.87-7.57,0-7.57s4.87,7.57,0,7.57Z" style="fill:#0099a9;"/><path d="M250.12,141.38c-.43-.8-1.02-1.44-1.76-1.92-1.23-.95-2.57-1.41-4.14-1.47-1.49-.06-3.17,.51-4.41,1.43-1.01,.58-1.91,1.36-2.47,2.4-.81,1.54-1.33,3.57-.69,5.27,.24,.64,.51,1.33,.85,1.93,.57,1.01,1.59,1.97,2.58,2.56,.91,.54,1.7,.75,2.69,.89,1.35,.18,2.48-.01,3.7-.53,1.49-.63,2.81-1.73,3.61-3.17,.61-1.1,.97-2.36,.99-3.61,.01-.72-.15-1.44-.25-2.15-.23-.54-.46-1.09-.69-1.63Z" style="fill:#ffbe00;"/><path d="M243.71,202.15c-4.87,0-4.88,7.57,0,7.57s4.88-7.57,0-7.57Z" style="fill:#ffbe00;"/><path d="M339.23,152.46c-13.24,7.73-26.02,16.26-37.31,26.65-.35,.32-.7,.63-1.05,.96-.28,1.3-.57,2.6-.88,3.9-.25,1.08-.51,2.16-.78,3.24,1.9,3.16,7.75,5.48,10.27,6.82,8.27,4.4,17.02,7.95,26,10.63,5.86,1.75,12.61,4.01,18.79,2.8,6.62-1.3,10.4-7.21,13.15-12.89,5.34-11.02,9.46-28.65,3.63-40.25-6.68-13.29-22.03-7.57-31.82-1.86Zm21.67,28.63c-3.06,3.52-8.33,4.85-12.65,3.14-2.81-.75-5.43-2.45-7.21-5.15-2.53-3.85-3.51-9.26-1.46-13.53,2.19-4.55,7.32-6.64,12.15-6.63,11.44,0,16.33,13.95,9.17,22.18Z" style="fill:#ff4300;"/><path d="M351.72,158.91c-4.83,0-9.96,2.09-12.15,6.63-2.06,4.27-1.07,9.68,1.46,13.53,1.78,2.7,4.39,4.4,7.21,5.15,4.32,1.71,9.59,.38,12.65-3.14,7.16-8.23,2.27-22.18-9.17-22.18Zm4.68,17.13c-.52,.45-1.07,.94-1.65,1.31-.98,.63-2.33,1-3.48,1.05-1.05,.05-1.85-.13-2.79-.48-1.27-.47-2.18-1.17-3.02-2.2-1.02-1.26-1.67-2.84-1.7-4.49-.02-1.25,.25-2.53,.82-3.65,.33-.64,.8-1.2,1.23-1.78,.46-.37,.92-.75,1.37-1.12,.75-.5,1.57-.79,2.45-.87,1.53-.26,2.93-.04,4.34,.65,1.34,.65,2.56,1.93,3.23,3.33,.62,.99,1.05,2.1,1.05,3.28,0,1.74-.5,3.78-1.86,4.97Z" style="fill:#fff;"/><path d="M318.59,231.45s.05,.05,.08,.07c2.77,2.48,6.76,2.3,9.56,.02,5.32-4.33,2.46-13.57-4.12-14.74-3.39-.6-6.7,.99-8.29,4.04-1.64,3.13-.67,7.07,1.61,9.58,.35,.39,.75,.72,1.16,1.03Zm5.77-10.09c4.3,2.28,.76,8.98-3.55,6.69-4.3-2.28-.76-8.98,3.55-6.69Z" style="fill:#0099a9;"/><path d="M353.99,164.46c-1.42-.68-2.82-.91-4.34-.65-.88,.08-1.7,.37-2.45,.87-.46,.37-.92,.75-1.37,1.12-.43,.58-.9,1.14-1.23,1.78-.57,1.12-.85,2.4-.82,3.65,.03,1.64,.68,3.23,1.7,4.49,.84,1.03,1.75,1.73,3.02,2.2,.94,.35,1.74,.53,2.79,.48,1.15-.06,2.5-.43,3.48-1.05,.58-.37,1.13-.85,1.65-1.31,1.36-1.2,1.86-3.23,1.86-4.97,0-1.18-.43-2.29-1.05-3.28-.67-1.4-1.89-2.68-3.23-3.33Z" style="fill:#ffbe00;"/><path d="M320.8,228.05c4.31,2.29,7.85-4.4,3.55-6.69-4.31-2.29-7.85,4.4-3.55,6.69Z" style="fill:#ffbe00;"/><path d="M281.5,196.2c-1.3-.49-2.6-1.01-3.9-1.53-.48,2.63-.91,5.26-1.28,7.88-.05,.36-.03,.7,.04,1.01-.02,.14-.03,.27-.04,.41,.9,.38,1.81,.74,2.72,1.1,4.25,1.65,8.59,3.07,12.98,4.29,.2,.05,.39,.11,.59,.16,.78-2.43,1.4-4.74,2-6.5,.27-.79,.52-1.58,.77-2.38-.8-.21-1.59-.45-2.39-.67-3.9-1.09-7.73-2.35-11.51-3.77Z" style="fill:#0099a9;"/><path d="M302.13,173.86c.42-2.2,.92-5.69,.53-8.74-.25-1.94-.85-3.69-2.07-4.83-.69-.65-1.58-1.09-2.71-1.24-.47-.06-.98-.08-1.54-.04-1.23,.09-2.4,.57-3.51,1.3-.61,.41-1.21,.9-1.78,1.45-.32,.18-.63,.43-.89,.78-.2,.27-.37,.54-.56,.81-2.46,2.98-4.42,6.88-5.67,9.69,5.59,2.35,11.33,4.28,17.18,5.86,.35-1.68,.7-3.35,1.02-5.03Z" style="fill:#0099a9;"/><path d="M275.67,210.94c-.42,5.29,.26,14.47,8.28,11.52,3.13-1.15,5.26-4.38,6.86-8.05-5.1-1.41-10.09-3.12-15-5.09-.05,.54-.1,1.08-.14,1.62Z" style="fill:#0099a9;"/><path d="M298.93,183.68c-5-1.38-9.89-3.04-14.71-4.96-.74-.3-1.48-.6-2.22-.9-.05,.13-.1,.26-.14,.39-.77,2.1-1.43,4.24-2.02,6.41-.45,1.62-.86,3.26-1.22,4.91,5.75,2.41,11.64,4.38,17.67,5.97,.21,.06,.43,.12,.64,.18,0,0,0,0,0,0,.05-.19,.1-.37,.16-.56,.76-2.62,1.46-5.25,2.12-7.9,.27-1.08,.53-2.16,.78-3.24-.35-.09-.7-.2-1.05-.3Z" style="fill:#0099a9;"/><path d="M282.31,176.99c-.1,.27-.2,.55-.31,.82,.74,.31,1.48,.61,2.22,.9,4.81,1.92,9.71,3.58,14.71,4.96,.35,.1,.7,.2,1.05,.3,.3-1.3,.59-2.6,.88-3.9,.35-.32,.7-.64,1.05-.96-.27-.07-.53-.15-.8-.22-5.85-1.57-11.59-3.5-17.18-5.86-.18,.41-.36,.8-.51,1.16-.09,.21-.17,.43-.26,.65-.16,.4-.32,.8-.48,1.2-.13,.31-.25,.63-.37,.94Z" style="fill:#000c40;"/><path d="M295.39,200.65c-.26,.79-.51,1.59-.77,2.38-.59,1.76-1.22,4.08-2,6.5-.11,.34-.23,.69-.34,1.03,.38,1.54,.94,3.05,1.65,4.52,1.74,3.6,4.35,6.96,7.28,9.84,5.08,4.99,10.81,9.37,16.83,13.16,3.53,2.22,9.47,7.22,13.87,4.87,3.98-2.13,7.08-8.88,8.11-13.05,1.24-5.04-.11-9.92-3.35-13.92-4.05-4.99-10.21-7.64-15.8-10.49-7-3.57-13.99-7.14-20.99-10.71-1.09-.56-2.1-.29-2.8,.34-.05,.19-.1,.37-.16,.56-.49,1.66-1,3.32-1.53,4.97Zm20.42,20.2c1.6-3.05,4.9-4.64,8.29-4.04,6.57,1.16,9.44,10.4,4.12,14.74-2.81,2.28-6.79,2.47-9.56-.02-.03-.02-.05-.05-.08-.07-.42-.31-.81-.64-1.16-1.03-2.28-2.51-3.25-6.45-1.61-9.58Z" style="fill:#fff;"/><path d="M277.6,194.67c1.29,.53,2.59,1.04,3.9,1.53,3.78,1.42,7.61,2.68,11.51,3.77,.8,.22,1.58,.46,2.39,.67,.53-1.65,1.05-3.31,1.53-4.97,0,0,0,0,0,0-.21-.06-.43-.12-.64-.18-6.02-1.59-11.92-3.56-17.67-5.97-.05,.24-.11,.48-.17,.72-.28,1.34-.54,2.69-.78,4.04-.02,.13-.04,.26-.07,.39Z" style="fill:#000c40;"/><path d="M276.32,203.97c.01-.14,.03-.27,.04-.41-.07-.31-.09-.65-.04-1.01,.37-2.62,.8-5.25,1.28-7.88,.02-.13,.04-.26,.07-.39,.24-1.35,.5-2.7,.78-4.04-.21-.05-.42-.09-.66-.1-1.1-.02-2.19-.04-3.29-.05-6.76-.11-13.52-.22-20.28-.33-6.27-.1-12.96-.65-18.87,1.86-4.73,2.01-8.21,5.69-9.48,10.72-1.05,4.16-1.48,11.58,1.04,15.33,2.79,4.14,10.38,2.51,14.54,2.21,7.09-.52,14.22-1.7,21.04-3.73,4.8-1.43,9.52-3.7,13.06-6.93,.1-.09,.2-.18,.3-.27,.14-1.66,.3-3.31,.48-4.97Zm-30.74,9.43c-.49,.18-1,.28-1.51,.36-.03,0-.07,.02-.1,.03-3.61,.89-7.05-1.14-8.46-4.47-2.67-6.32,4.19-13.14,10.55-11.08,3.28,1.06,5.45,4.01,5.43,7.46-.02,3.54-2.72,6.56-5.91,7.71Z" style="fill:#fff;"/><path d="M292.02,209.36c-4.4-1.22-8.73-2.63-12.98-4.29-.91-.35-1.81-.72-2.72-1.1-.18,1.66-.34,3.32-.48,4.97-.1,.09-.2,.18-.3,.27,.09,.04,.18,.07,.26,.11,4.91,1.97,9.9,3.67,15,5.09,.55-1.26,1.03-2.56,1.47-3.86,.12-.34,.23-.69,.34-1.03-.2-.05-.39-.11-.59-.16Z" style="fill:#000c40;"/><path d="M489.64,219.52c-3.16-1.88-6.28-3.84-9.32-5.9-2.75-1.86-6.09,2.13-3.32,4,3.4,2.3,6.86,4.49,10.39,6.59,.14-1.32,.52-2.53,1.24-3.53,.33-.46,.67-.84,1.02-1.16Z" style="fill:#000c40;"/><path d="M497.36,219.71c.78-4.94,1.48-9.9,2.06-14.87,.39-3.31-4.74-4.18-5.13-.84-.55,4.76-1.22,9.5-1.96,14.23,1.64-.21,3.38,.44,5.03,1.49Z" style="fill:#000c40;"/><path d="M493.95,243.72c-.15-.25-.3-.51-.44-.76-.16-.3-.33-.59-.49-.89-.21-.38-.41-.75-.62-1.13-.76-.28-1.52-.56-2.29-.83-13.55-4.69-27.65-7.45-41.86-9.42-11.23-1.56-27.6-1-28.71,13.83-.97,12.95,9.54,27.68,18.68,35.84,4.71,4.2,10.45,8.22,17.07,6.91,6.18-1.23,11.56-5.9,16.31-9.74,7.28-5.89,14.02-12.51,19.99-19.72,1.47-1.78,4.72-4.98,6.2-8.07-1.28-1.84-2.52-3.71-3.64-5.65-.07-.12-.14-.24-.21-.36Zm-37.23,12.26c-.61,3.18-2.39,5.74-4.7,7.51-3.34,3.23-8.72,4.01-12.89,1.92-9.75-4.88-10.54-19.64,.03-24,4.46-1.84,10-1.86,13.76,1.51,3.53,3.16,4.68,8.54,3.8,13.07Z" style="fill:#ff4300;"/><path d="M439.16,241.41c-10.57,4.36-9.78,19.12-.03,24,4.17,2.09,9.55,1.31,12.89-1.92,2.31-1.77,4.09-4.33,4.7-7.51,.88-4.53-.28-9.9-3.8-13.07-3.76-3.37-9.3-3.35-13.76-1.51Zm12.19,13.16c-.38,1.27-.96,2.26-1.95,3.18-.74,.68-1.4,1.15-2.4,1.51-1.09,.39-2.47,.56-3.62,.35-.67-.12-1.37-.36-2.02-.58-1.72-.59-2.95-2.28-3.61-3.89-.45-1.09-.48-2.28-.28-3.43,.09-1.55,.72-3.2,1.72-4.31,1.05-1.17,2.26-1.91,3.77-2.25,.85-.27,1.71-.31,2.6-.13,.57,.17,1.13,.34,1.7,.51,.62,.38,1.27,.71,1.82,1.18,.95,.81,1.7,1.89,2.15,3.06,.6,1.53,.6,3.24,.14,4.8Z" style="fill:#fff;"/><path d="M486.75,284.43c-2.12,1.34-3.32,3.54-3.64,5.87,3.82-1.89,7.57-3.99,11.24-6.31-2.4-1.17-5.24-1.05-7.6,.44Z" style="fill:#0099a9;"/><path d="M449.07,246.71c-.55-.47-1.2-.8-1.82-1.18-.57-.17-1.13-.34-1.7-.51-.89-.18-1.75-.13-2.6,.13-1.51,.34-2.72,1.08-3.77,2.25-.99,1.11-1.63,2.76-1.72,4.31-.2,1.15-.17,2.34,.28,3.43,.67,1.61,1.9,3.3,3.61,3.89,.65,.22,1.35,.46,2.02,.58,1.14,.21,2.53,.04,3.62-.35,1-.35,1.66-.83,2.4-1.51,1-.92,1.57-1.91,1.95-3.18,.47-1.55,.46-3.26-.14-4.8-.45-1.17-1.2-2.25-2.15-3.06Z" style="fill:#ffbe00;"/><path d="M532.68,160.17c-14.49-3.34-19.89,12.12-21.73,23.31-2.5,15.13-4.09,30.41-3.29,45.74,.02,.47,.04,.95,.07,1.42,.82,1.05,1.64,2.1,2.45,3.16,.67,.88,1.34,1.78,2,2.67,3.64,.55,9.16-2.47,11.8-3.56,8.14-3.34,15.96-7.49,23.33-12.3,3.78-9.37,6.62-19.1,9.4-28.87,.74-2.6,1.51-5.18,2.28-7.77-5.7-10.17-15.35-21.29-26.3-23.81Zm8.48,36.64c-2.38,1.68-5.35,2.62-8.57,2.26-4.58-.51-9.37-3.2-11.35-7.51-2.1-4.59-.44-9.87,2.64-13.59,7.3-8.8,21.16-3.67,22.93,7.1,.76,4.61-1.58,9.51-5.66,11.74Z" style="fill:#ff4300;"/><path d="M523.89,177.98c-3.08,3.72-4.75,9-2.64,13.59,1.97,4.31,6.76,7,11.35,7.51,3.22,.36,6.19-.58,8.57-2.26,4.07-2.23,6.41-7.13,5.66-11.74-1.77-10.76-15.63-15.9-22.93-7.1Zm16.13,9.43c-.14,1.15-.72,2.43-1.41,3.35-.63,.85-1.29,1.34-2.15,1.84-1.18,.68-2.29,.93-3.62,.92-1.62-.01-3.25-.53-4.54-1.55-.98-.78-1.79-1.81-2.29-2.96-.29-.66-.41-1.38-.59-2.09,0-.59,.01-1.18,.02-1.77,.09-.9,.39-1.71,.9-2.44,.77-1.34,1.84-2.28,3.27-2.93,1.35-.62,3.12-.74,4.62-.36,1.16,.15,2.29,.53,3.19,1.28,1.34,1.11,2.59,2.79,2.64,4.61,.02,.69,.04,1.43-.05,2.11Z" style="fill:#fff;"/><path d="M537.43,180.7c-.91-.76-2.04-1.14-3.19-1.28-1.5-.38-3.27-.26-4.62,.36-1.43,.66-2.5,1.59-3.27,2.93-.5,.73-.8,1.54-.9,2.44,0,.59-.01,1.18-.02,1.77,.17,.7,.3,1.42,.59,2.09,.5,1.15,1.31,2.18,2.29,2.96,1.29,1.02,2.92,1.54,4.54,1.55,1.33,.01,2.45-.24,3.62-.92,.87-.5,1.52-1,2.15-1.84,.69-.93,1.27-2.2,1.41-3.35,.08-.68,.07-1.42,.05-2.11-.05-1.81-1.3-3.49-2.64-4.61Z" style="fill:#ffbe00;"/><path d="M507.79,255.85c-1.21,.69-2.43,1.36-3.67,2.02,1.72,2.05,3.47,4.05,5.25,6.01,.25,.27,.52,.47,.8,.61,.1,.1,.19,.2,.29,.3,.87-.45,1.73-.92,2.58-1.39,3.99-2.22,7.84-4.65,11.59-7.26,.17-.12,.34-.23,.5-.35-1.37-2.15-2.75-4.11-3.73-5.69-.44-.71-.89-1.41-1.34-2.11-.67,.48-1.36,.94-2.04,1.41-3.33,2.3-6.74,4.45-10.25,6.45Z" style="fill:#0099a9;"/><path d="M503.75,225.7c-1.42-1.72-3.8-4.34-6.39-5.99-1.65-1.05-3.39-1.7-5.03-1.49-.94,.12-1.84,.52-2.69,1.3-.35,.32-.69,.7-1.02,1.16-.71,1-1.1,2.21-1.24,3.53-.08,.73-.08,1.5-.02,2.3-.07,.36-.07,.76,.04,1.18,.08,.32,.18,.63,.26,.95,.72,3.8,2.48,7.79,3.84,10.55,5.38-2.8,10.52-5.99,15.47-9.49-1.06-1.34-2.14-2.68-3.23-3.99Z" style="fill:#0099a9;"/><path d="M517.22,243.63s0,0,0,0c-.11-.16-.22-.32-.33-.48-1.53-2.26-3.11-4.48-4.73-6.67-.66-.89-1.32-1.78-2-2.67-.3,.21-.6,.41-.9,.62-4.26,2.97-8.66,5.68-13.21,8.16-.7,.38-1.4,.76-2.11,1.13,.07,.12,.14,.24,.21,.36,1.13,1.93,2.36,3.81,3.64,5.65,.96,1.38,1.96,2.74,3,4.08,5.52-2.89,10.8-6.17,15.87-9.79,.18-.13,.37-.25,.54-.38Z" style="fill:#0099a9;"/><path d="M493.51,242.96c.14,.25,.29,.51,.44,.76,.71-.37,1.41-.75,2.11-1.13,4.55-2.48,8.95-5.19,13.21-8.16,.3-.21,.6-.41,.9-.62-.81-1.06-1.62-2.12-2.45-3.16-.03-.47-.04-.95-.07-1.42-.23,.16-.46,.31-.68,.47-4.95,3.5-10.09,6.69-15.47,9.49,.2,.41,.39,.79,.57,1.14,.11,.21,.22,.41,.34,.61,.21,.38,.41,.75,.62,1.13,.16,.3,.32,.59,.49,.89Z" style="fill:#000c40;"/><path d="M518.43,240.78c-1.12,.48-1.56,1.43-1.53,2.37,.11,.16,.22,.32,.33,.48,.97,1.44,1.92,2.89,2.85,4.35,.45,.7,.9,1.4,1.34,2.11,.98,1.58,2.36,3.54,3.73,5.69,.16,.25,.31,.5,.47,.75,6.24-7.4,11.71-15.46,16.24-24.05,.41-.77,.8-1.55,1.19-2.33-1,.44-1.99,.88-2.97,1.3-7.21,3.11-14.43,6.21-21.64,9.32Z" style="fill:#fff;"/><path d="M504.12,257.87c1.23-.66,2.46-1.33,3.67-2.02,3.51-2,6.92-4.15,10.25-6.45,.68-.47,1.37-.93,2.04-1.41-.93-1.46-1.88-2.92-2.85-4.35,0,0,0,0,0,0-.18,.13-.36,.25-.54,.38-5.07,3.62-10.35,6.91-15.87,9.79,.15,.19,.29,.39,.45,.59,.85,1.08,1.72,2.14,2.62,3.18,.08,.1,.17,.2,.26,.3Z" style="fill:#000c40;"/><path d="M510.47,264.79c-.1-.1-.19-.2-.29-.3-.28-.15-.56-.34-.8-.61-1.78-1.96-3.54-3.96-5.25-6.01-.08-.1-.17-.2-.26-.3-.89-1.05-1.76-2.11-2.62-3.18-.17,.12-.34,.27-.5,.45-.71,.83-1.43,1.66-2.14,2.5-4.4,5.13-8.79,10.27-13.19,15.4-4.08,4.76-8.77,9.56-10.62,15.72-.59,1.97-.83,3.95-.73,5.89,3.05-1.24,6.06-2.57,9.02-4.04,.32-2.33,1.52-4.53,3.64-5.87,2.36-1.5,5.2-1.62,7.6-.44,1.27-.81,2.53-1.63,3.78-2.5,5.59-3.86,10.9-8.14,15.89-12.78,0-.13-.01-.25-.02-.38-1.18-1.17-2.36-2.35-3.52-3.54Z" style="fill:#fff;"/><path d="M524.63,256.14c-3.75,2.61-7.6,5.04-11.59,7.26-.85,.47-1.71,.94-2.58,1.39,1.16,1.2,2.34,2.38,3.52,3.54,0,.13,.01,.25,.02,.38,4.1-3.82,7.98-7.88,11.6-12.18-.16-.25-.31-.5-.47-.75-.17,.12-.34,.23-.5,.35Z" style="fill:#000c40;"/><path d="M422.13,180.26c12.67,2.86,28.78-5.38,38.19-13.23,4.85-4.04,9.67-9.13,9.34-15.87-.31-6.3-4.14-12.3-7.24-17.57-4.12-6.98-8.84-13.64-14.1-19.82-1.44,.09-2.87,.18-4.3,.26-6.15,.36-12.3,.66-18.45,.92-5.33,11.2-9.4,22.95-12.9,34.87-3.19,10.88-5.03,27.15,9.47,30.43Zm3.31-33.25c3.65-3.02,9.13-3.38,13.48-1.85,3.05,1.07,5.33,3.2,6.74,5.75,2.7,3.78,2.68,9.21,0,13.03-6.26,8.93-20.98,7.55-23.74-3.55-1.17-4.68-.37-10.17,3.51-13.39Z" style="fill:#ff4300;"/><path d="M445.67,163.96c2.68-3.82,2.7-9.26,0-13.03-1.41-2.55-3.69-4.68-6.74-5.75-4.35-1.53-9.84-1.18-13.48,1.85-3.88,3.22-4.68,8.7-3.51,13.39,2.76,11.1,17.48,12.48,23.74,3.55Zm-19.22-9.34c.25-.53,.5-1.07,.75-1.6,.46-.56,.89-1.15,1.43-1.63,.95-.82,2.12-1.4,3.35-1.68,1.6-.36,3.3-.12,4.76,.57,1.2,.56,2.1,1.28,2.86,2.4,.56,.83,.94,1.56,1.14,2.6,.22,1.13,.19,2.53-.18,3.63-.22,.65-.55,1.31-.87,1.92-.83,1.61-2.69,2.58-4.38,3-1.15,.29-2.33,.14-3.44-.23-1.52-.31-3.06-1.19-4.01-2.33-1.01-1.21-1.56-2.51-1.67-4.06-.14-.88-.05-1.74,.25-2.59Z" style="fill:#fff;"/><path d="M471.46,119.65c2.71,6.1,12.37,6.65,15.29,.44,1.53-3.25,.76-7.13-2.27-9.23-4.11,.44-8.22,.84-12.34,1.19-1.53,2.2-1.83,5.04-.69,7.6Zm10.12-5.92c3.26,3.63-2.38,8.68-5.64,5.06-3.26-3.63,2.38-8.68,5.64-5.06Z" style="fill:#0099a9;"/><path d="M427.86,161.27c.95,1.14,2.49,2.02,4.01,2.33,1.11,.37,2.29,.52,3.44,.23,1.69-.42,3.55-1.39,4.38-3,.32-.61,.65-1.27,.87-1.92,.37-1.1,.41-2.5,.18-3.63-.2-1.04-.58-1.77-1.14-2.6-.76-1.12-1.66-1.84-2.86-2.4-1.47-.69-3.16-.93-4.76-.57-1.22,.28-2.4,.86-3.35,1.68-.54,.47-.97,1.07-1.43,1.63-.25,.53-.5,1.07-.75,1.6-.31,.85-.39,1.71-.25,2.59,.11,1.55,.67,2.85,1.67,4.06Z" style="fill:#ffbe00;"/><path d="M481.58,113.73c-3.25-3.63-8.9,1.43-5.64,5.06,3.26,3.63,8.9-1.43,5.64-5.06Z" style="fill:#ffbe00;"/><path d="M473.42,88.81c-3.18-.78-6.4-1.44-9.64-1.97-.2-.03-.41-.06-.61-.09-1.61-.25-3.23-.48-4.86-.66-.34-.04-.67-.06-1.01-.1-7.42-2.23-15.02-3.8-22.71-4.92-3.39-.49-6.81-.9-10.23-1.23-9.18-.9-18.43-1.3-27.61-1.51-2.9-.07-5.79-.12-8.67-.16-.58,0-1.15,0-1.73-.01-14.79-.17-29.57,.26-44.32,1.27-3.48,.24-6.95,.5-10.42,.8-3.12,.27-6.23,.57-9.34,.89-7.51,.4-15.03,.8-22.56,1.29-3.46,.23-6.92,.47-10.38,.74-13.09,1.02-26.15,2.4-39.06,4.56-3.41,.57-6.81,1.19-10.2,1.87-1.95,.39-3.9,.81-5.84,1.24,2.18,.47,4.35,.92,6.53,1.37,2.85,.58,5.7,1.14,8.55,1.68,33.46,6.3,67.49,9.75,101.5,11.02,18.67,.7,37.35,.75,56.02,.3,6.4-.16,12.79-.37,19.19-.64,1.8-.08,3.61-.16,5.41-.25,2.2-.11,4.39-.21,6.59-.33,.37-.02,.73-.04,1.1-.06,2.3-.13,4.6-.25,6.9-.39,.58-.04,1.15-.06,1.73-.1,5.67-.35,11.35-.74,17.03-1.18,1.92-.15,3.84-.32,5.76-.48,3.64-.31,7.27-.64,10.9-1.02,5.98-.62,11.94-1.34,17.88-2.18,.04-.35,.07-.7,.11-1.05-8.5-3.45-17.15-6.53-26.02-8.7Z" style="fill:#000c40;"/><path d="M473.69,132.04c4.66,2.18,9.72,2.31,14.31-.1,3.8-2,9.61-6.63,10.71-11.01,1.05-4.14-3.4-8.08-6.59-10.94-2.54,.31-5.09,.6-7.63,.87,3.03,2.1,3.8,5.98,2.27,9.23-2.92,6.21-12.58,5.66-15.29-.44-1.14-2.56-.84-5.39,.69-7.6-5.85,.51-11.7,.94-17.54,1.33,1.7,1.95,3.4,3.91,5.09,5.86,4.11,4.73,8.17,10.08,13.99,12.81Z" style="fill:#fff;"/><path d="M299.38,316.93c.83,2.8,2.14,5.42,4.26,7.63,.65,.68,1.36,1.3,2.1,1.87,4.18,3.23,9.57,4.75,14.69,5.75,5.85,1.14,11.85,1.79,17.9,2.11,4.17,.22,8.37,.29,12.55,.25,.66,0,1.33-.01,1.99-.02,4.43-.07,8.85-.23,13.21-.44,.8-.04,1.6-.08,2.4-.11,1.05-.05,2.1-.12,3.15-.18,3.23-.19,6.46-.42,9.69-.71,1.78-.16,3.55-.32,5.33-.51,1.35-.14,2.71-.29,4.06-.45,8.22-.95,16.41-2.2,24.54-3.75,6.1-1.16,13.48-1.8,18.03-6.54,2.54-2.65,3.74-6.01,4.26-9.54-21.86,3.79-44.11,4.82-66.27,5.76-23.99,1.02-48.04,1.81-71.88-1.11Z" style="fill:#ffb003;"/><path d="M375.36,289.65c.05-.52,.04-1.04-.01-1.55,0-.04,0-.07,0-.11,0-3.72-2.8-6.57-6.38-7.13-6.78-1.07-11.74,7.24-8.22,12.91,1.82,2.93,5.21,4.32,8.54,3.47,3.43-.87,5.71-4.22,6.05-7.6Zm-11.37,.9c-1.17-4.73,6.17-6.56,7.35-1.83,1.17,4.73-6.17,6.56-7.35,1.83Z" style="fill:#fff;"/><path d="M315.92,305.33c.21-1.31,.12-2.45-.38-3.72-.37-.93-.77-1.65-1.51-2.4-.81-.82-1.99-1.57-3.11-1.89-.66-.18-1.39-.27-2.08-.36-1.8-.22-3.65,.78-4.94,1.94-.88,.79-1.42,1.85-1.74,2.97-.59,1.43-.74,3.2-.32,4.63,.2,.71,.49,1.34,.85,1.91,1.95,.33,3.91,.65,5.86,.94,1.56,.23,3.14,.42,4.7,.61,.15-.12,.31-.24,.45-.38,1.2-1.12,1.95-2.66,2.2-4.26Z" style="fill:#ffbe00;"/><path d="M363.99,290.55c1.18,4.74,8.52,2.9,7.35-1.83-1.18-4.74-8.52-2.9-7.35,1.83Z" style="fill:#ffbe00;"/><path d="M381.64,309.78c.22-1.46,.39-2.93,.45-4.39,.32-7.11-.25-14.31-1.45-21.32-.7-4.11-.95-11.87-5.65-13.57-4.24-1.54-11.34,.66-15.13,2.68-4.57,2.45-7.31,6.71-8.12,11.79-1.01,6.35,1.14,12.7,2.75,18.77,.63,2.36,1.25,4.72,1.88,7.09,4.92-.17,9.84-.37,14.75-.58,3.5-.15,7-.3,10.5-.46Zm-20.88-16.01c-3.53-5.67,1.44-13.97,8.22-12.91,3.57,.56,6.37,3.41,6.38,7.13,0,.04,0,.07,0,.11,.05,.51,.07,1.03,.01,1.55-.34,3.38-2.63,6.72-6.05,7.6-3.34,.85-6.73-.55-8.54-3.47Z" style="fill:#ff4300;"/><path d="M171.16,120.6c1.54-3.27,.76-7.18-2.32-9.28-.03-.02-.06-.04-.09-.06-.4-.33-.82-.63-1.28-.88-2.99-1.61-7.04-1.6-9.68,.75-2.57,2.29-3.32,5.87-1.92,9.02,2.71,6.1,12.37,6.65,15.29,.44Zm-5.18-6.36c3.26,3.63-2.38,8.68-5.64,5.06-3.26-3.63,2.38-8.68,5.64-5.06Z" style="fill:#fff;"/><path d="M165.99,114.24c-3.25-3.63-8.9,1.43-5.64,5.06,3.25,3.63,8.9-1.43,5.64-5.06Z" style="fill:#ffbe00;"/><path d="M70.82,55.11c-.81-.82-1.99-1.57-3.11-1.89-.18-.05-.38-.08-.57-.12,1.66,.6,3.2,1.61,4.55,3.1-.23-.38-.51-.73-.87-1.1Z" style="fill:#a46b4f;"/><path d="M135.42,75.43c.36-.69,.7-1.41,1-2.14,.31-.76,.58-1.55,.83-2.34-.48-.21-.96-.41-1.44-.61-1.1-.48-2.21-.95-3.31-1.43-.49-.22-.88-.48-1.23-.77-.51-.42-.89-.9-1.13-1.42-.46-.36-.9-.74-1.33-1.15,.13,.26,.26,.51,.39,.77,.6,.78,1.18,1.56,1.75,2.35,1.13,1.57,2.23,3.16,3.26,4.77,.42,.65,.8,1.31,1.2,1.96Z" style="fill:#fff;"/><path d="M143.52,91.15c.95,2.21,1.86,4.44,2.7,6.7,3.99,10.69,6.88,21.89,9.34,33.27,.81,.52,1.65,1.01,2.53,1.42,4.66,2.18,9.72,2.31,14.31-.1,3.8-2,9.61-6.63,10.71-11.01,1.22-4.84-5.06-9.4-8.07-12.29-5.13-4.93-10.76-9.44-16.83-13.17-4.27-2.62-9.12-4.61-13.88-5.1-.13-.01-.27-.03-.4-.04-.14,.1-.28,.2-.42,.31Zm14.27,19.98c2.65-2.35,6.7-2.36,9.68-.75,.46,.25,.88,.55,1.28,.88,.03,.02,.06,.04,.09,.06,3.08,2.09,3.86,6,2.32,9.28-2.92,6.21-12.58,5.66-15.29-.44-1.4-3.15-.66-6.74,1.92-9.02Z" style="fill:#ff4300;"/><path d="M143.52,91.15c.14-.1,.28-.2,.42-.31,.13,.01,.27,.02,.4,.04-.03-.09-.06-.18-.1-.27,.43-.33,.87-.65,1.3-.98,4.22-3.22,10.59-9.86,3.04-13.86-2.94-1.56-6.78-.99-10.57,.27-.61,.2-1.21,.42-1.81,.65,2.66,4.48,5.01,9.12,7.09,13.89,.08,.19,.15,.37,.23,.56Z" style="fill:#0099a9;"/><path d="M232.72,246.74c-10.75-10.27-23.29,.26-30.59,8.94-.12,.14-.24,.29-.36,.43,1.62,1.85,3.28,3.67,5,5.43,.57,.59,1.17,1.15,1.75,1.73,1.72-2.66,4.54-4.64,7.54-5.71,10.77-3.84,20.06,7.66,16.08,17.81-.69,1.76-1.84,3.29-3.27,4.49,4.41,2.98,8.97,5.74,13.65,8.28,.11-.76,.21-1.51,.29-2.26,1.33-12.18-.71-30.16-10.1-39.13Z" style="fill:#ff4300;"/><path d="M232.14,275.37c3.98-10.15-5.31-21.65-16.08-17.81-3,1.07-5.82,3.05-7.54,5.71,1.3,1.28,2.63,2.54,3.98,3.77,.1-.34,.21-.67,.31-1.01,.31-.51,.61-1.01,.92-1.52,.54-.73,1.21-1.27,2.02-1.64,1.35-.76,2.74-1.02,4.31-.85,1.48,.16,3.06,.96,4.16,2.05,.92,.72,1.7,1.62,2.09,2.74,.58,1.64,.8,3.72-.08,5.31-.34,.6-.7,1.24-1.12,1.79-.54,.69-1.32,1.32-2.13,1.77,1.93,1.44,3.9,2.83,5.89,4.18,1.43-1.2,2.58-2.74,3.27-4.49Z" style="fill:#fff;"/><path d="M225.11,273.9c.42-.54,.78-1.18,1.12-1.79,.88-1.58,.66-3.67,.08-5.31-.39-1.11-1.17-2.02-2.09-2.74-1.1-1.09-2.68-1.89-4.16-2.05-1.57-.17-2.96,.09-4.31,.85-.81,.37-1.48,.92-2.02,1.64-.31,.51-.61,1.01-.92,1.52-.1,.34-.21,.67-.31,1.01,3.36,3.05,6.86,5.93,10.48,8.64,.81-.46,1.59-1.08,2.13-1.77Z" style="fill:#ffbe00;"/><path d="M564.14,107.67c-4.4,11.24,4.32,18.36,13.53,22.5,1.33-3.31,2.7-6.61,4.09-9.9-.46-.41-.89-.84-1.3-1.3-7.64-8.51-.52-21.47,10.38-21.64,.39,0,.78,.02,1.16,.05,2.32-4.9,4.71-9.77,7.16-14.61-.89,.21-1.78,.44-2.65,.69-11.77,3.39-27.64,12.1-32.38,24.19Z" style="fill:#fff;"/><path d="M580.46,118.98c.41,.45,.84,.89,1.3,1.3,.7-1.64,1.38-3.29,2.09-4.92-.32-.54-.58-1.12-.77-1.77-.41-1.43-.27-3.2,.32-4.63,.32-1.12,.86-2.18,1.74-2.97,1.01-.9,2.36-1.7,3.75-1.91,1.03-2.23,2.06-4.46,3.11-6.69-.39-.04-.77-.06-1.16-.05-10.9,.17-18.02,13.13-10.38,21.64Z" style="fill:#ff4300;"/><path d="M583.4,108.96c-.59,1.43-.74,3.2-.32,4.63,.19,.65,.45,1.23,.77,1.77,1.64-3.78,3.32-7.53,5.04-11.27-1.4,.21-2.74,1-3.75,1.91-.88,.79-1.42,1.85-1.74,2.97Z" style="fill:#ffbe00;"/><path d="M323.22,311c-1.23-.11-2.47-.2-3.7-.32-2.09-.21-4.17-.45-6.25-.71-1.57-.2-3.14-.39-4.7-.61-1.96-.29-3.91-.6-5.86-.94-1.36-.23-2.71-.48-4.06-.73-.19-.04-.38-.07-.57-.1,0,.25,.03,.5,.04,.75,.01,.21,.02,.41,.03,.62,.03,.56,.05,1.13,.09,1.69,.18,2.14,.54,4.26,1.14,6.29,23.84,2.92,47.89,2.13,71.88,1.11,22.17-.94,44.42-1.97,66.27-5.76,.39-2.64,.4-5.37,.29-7.96-4.32,.78-8.66,1.44-13.01,2.01-2.48,.33-4.97,.64-7.46,.91-.96,.1-1.91,.18-2.87,.28-10.91,1.1-21.88,1.75-32.85,2.26-3.5,.16-7,.31-10.5,.46-4.91,.21-9.83,.41-14.75,.58-1.78,.06-3.56,.12-5.34,.17-9.28,.26-18.56,.33-27.83,0Z" style="fill:#010000;"/><path d="M393.21,209.39h-.35c-1.33,0-2.73,.58-3.68,1.52-.9,.9-1.58,2.38-1.52,3.68,.06,1.35,.5,2.74,1.52,3.68,1.02,.93,2.27,1.52,3.68,1.52h.35c1.33,0,2.73-.58,3.68-1.52,.9-.9,1.58-2.38,1.52-3.68-.06-1.34-.5-2.74-1.52-3.68-1.02-.93-2.27-1.52-3.68-1.52Z" style="fill:#fff;"/><path d="M533.81,127.46h-.35c-1.33,0-2.73,.58-3.68,1.52-.9,.9-1.58,2.38-1.52,3.68,.06,1.35,.5,2.74,1.52,3.68,1.02,.93,2.27,1.52,3.68,1.52h.35c1.33,0,2.73-.58,3.68-1.52s1.58-2.38,1.52-3.68c-.06-1.35-.5-2.74-1.52-3.68-1.02-.93-2.27-1.52-3.68-1.52Z" style="fill:#fff;"/><path d="M311.07,135.38h.35c1.33,0,2.73-.58,3.68-1.52,.9-.9,1.58-2.38,1.52-3.68-.06-1.34-.5-2.74-1.52-3.68-1.02-.93-2.27-1.52-3.68-1.52h-.35c-1.33,0-2.73,.58-3.68,1.52-.9,.9-1.58,2.38-1.52,3.68,.06,1.34,.5,2.74,1.52,3.68,1.02,.93,2.27,1.52,3.68,1.52Z" style="fill:#fff;"/><path d="M192.33,190.47h-.35c-1.33,0-2.73,.58-3.68,1.52-.9,.9-1.58,2.38-1.52,3.68,.06,1.35,.5,2.74,1.52,3.68,1.02,.93,2.27,1.52,3.68,1.52h.35c1.33,0,2.73-.58,3.68-1.52,.9-.9,1.58-2.38,1.52-3.68-.06-1.35-.5-2.74-1.52-3.68-1.02-.93-2.27-1.52-3.68-1.52Z" style="fill:#fff;"/><path d="M193.68,96.65c1.02,.93,2.27,1.52,3.68,1.52h.35c1.09,0,2.21-.4,3.11-1.06,.2-.15,.4-.29,.57-.46,.73-.73,1.31-1.84,1.47-2.93-1.38-.38-2.77-.75-4.15-1.14-.37-.1-.74-.21-1.11-.32-1.66-.47-3.31-.95-4.97-1.44-.32,.69-.51,1.44-.48,2.15,.06,1.34,.5,2.74,1.52,3.68Z" style="fill:#fff;"/><path d="M424.82,306.34c.03-.24,.06-.48,.05-.72-.06-1.34-.5-2.74-1.52-3.68-1.02-.93-2.27-1.52-3.68-1.52h-.35c-1.33,0-2.73,.58-3.68,1.52s-1.58,2.38-1.52,3.68c.03,.64,.15,1.29,.38,1.9,.96-.1,1.92-.17,2.87-.28,2.49-.27,4.97-.58,7.46-.91Z" style="fill:#fff;"/><path d="M260.3,289.64c-1.02-.93-2.27-1.52-3.68-1.52h-.35c-1.33,0-2.73,.58-3.68,1.52-.71,.71-1.27,1.77-1.46,2.82,3.13,1.48,6.28,2.88,9.48,4.17,.73-.91,1.25-2.18,1.2-3.31-.06-1.34-.5-2.74-1.52-3.68Z" style="fill:#fff;"/><path d="M549.02,46.97c-1.94-.63-3.89-1.23-5.85-1.79-1.94,15.28-3.87,30.56-5.81,45.84,1.74-.46,3.47-.93,5.19-1.43,.27-.08,.54-.15,.8-.22,1.6-.47,3.2-.95,4.8-1.45,1.67-13.18,3.34-26.36,5.01-39.55-1.4-.49-2.79-.96-4.15-1.4Z" style="fill:#ff4300;"/><path d="M505.56,37.37c-2.04,20.05-4.08,40.1-6.12,60.14-.04,.35-.07,.7-.11,1.05,.67-.09,1.33-.18,2-.28,2.86-.42,5.72-.87,8.57-1.36,1.96-19.28,3.92-38.55,5.89-57.83-3.41-.6-6.82-1.17-10.23-1.72Z" style="fill:#ff4300;"/><path d="M463.78,86.85c3.24,.52,6.45,1.19,9.64,1.97,1.36-18.52,2.86-37.02,4.52-55.51-3.43-.46-6.86-.88-10.29-1.3-1.64,18.24-3.14,36.49-4.49,54.75,.2,.03,.41,.06,.61,.09Z" style="fill:#ff4300;"/><path d="M434.59,81.08c2.14-17.34,3.35-34.77,3.55-52.27-1.79-.17-3.59-.34-5.38-.5-1.67-.15-3.34-.26-5-.4-.16,17.37-1.28,34.7-3.4,51.93,3.42,.34,6.83,.74,10.23,1.23Z" style="fill:#ff4300;"/><path d="M388.09,78.17c2.88,.04,5.77,.09,8.67,.16,.22-17.47,1.03-34.93,2.43-52.36-3.45-.18-6.9-.37-10.36-.52-1.42,17.54-2.24,35.11-2.47,52.71,.58,0,1.15,0,1.73,.01Z" style="fill:#ff4300;"/><path d="M342.04,79.43c.34-18.33,1.28-36.64,2.81-54.91-3.47,0-6.94,.04-10.41,.08-1.55,18.51-2.5,37.06-2.83,55.64,3.47-.3,6.95-.57,10.42-.8Z" style="fill:#ff4300;"/><path d="M289.33,83.15c3.46-.27,6.92-.51,10.38-.74-.5-18.96-.42-37.92,.24-56.87-3.47,.15-6.95,.32-10.42,.51-.65,19.03-.72,38.07-.2,57.1Z" style="fill:#ff4300;"/><path d="M240.08,89.58c3.39-.68,6.79-1.3,10.2-1.87-2.13-19.45-4.01-38.99-2.46-58.52-3.5,.34-6.99,.71-10.49,1.1-1.45,19.79,.57,39.59,2.75,59.29Z" style="fill:#ff4300;"/><path d="M187.26,38.69c1.36,14.16,3.75,28.18,7.19,41.97,3.85,1.14,7.71,2.25,11.59,3.3-4.27-15.62-7.14-31.53-8.58-47.67-3.42,.73-6.82,1.52-10.2,2.4Z" style="fill:#ff4300;"/><path d="M169.79,196.44c-1.61-5.27-3.01-10.66-4.29-16.13-.44-1.88-.86-3.76-1.27-5.66-2.65-.64-5.29-1.29-7.94-1.94,2.84,9.45,5.67,18.9,8.51,28.36,2.27,.41,4.56,.79,6.85,1.11-.62-1.81-1.21-3.63-1.77-5.46-.03-.09-.06-.18-.09-.28Z" style="fill:#000c40;"/><path d="M145.68,99.25c.2-.45,.39-.91,.54-1.39-.84-2.26-1.75-4.49-2.7-6.7-.08-.19-.15-.37-.23-.56-2.07-4.77-4.42-9.4-7.09-13.89-.25-.43-.52-.85-.78-1.28-.4-.65-.78-1.32-1.2-1.96-1.04-1.62-2.13-3.2-3.26-4.77-.09,.19-.2,.36-.3,.55-.75,1.37-1.68,2.57-2.74,3.58,4.74,10.5,9.32,21.06,13.75,31.69,1.71-1.46,3.1-3.22,4.01-5.26Z" style="fill:#000c40;"/><path d="M127.6,64.3c.55,.68,1.08,1.36,1.6,2.04-.13-.26-.26-.51-.39-.77-.42-.41-.83-.83-1.22-1.27Z" style="fill:#006740;"/></g></g></svg>