<?xml version="1.0" encoding="UTF-8"?><svg id="Layer_2" xmlns="http://www.w3.org/2000/svg" viewBox="0 0 585.13 360.57"><g id="Layer_1-2"><g><path d="M18.44,51.45c2.09-.79,3.91-1.77,5.52-2.89-1.04-.37-2.09-.72-3.13-1.1-1.97-.71-3.93-1.45-5.89-2.19-1.39-.53-2.78-1.06-4.17-1.61-2.28-.9-4.56-1.81-6.83-2.75-2.2-.92-2.93-2.67-2.68-4.41-.08-.14-.16-.28-.23-.42-.14-.3-.26-.6-.37-.9-.18,5.67-.12,11.34,.11,16.99,5.78,1.47,11.82,1.5,17.68-.71Z" style="fill:#ff4300;"/><polygon points="5.9 58.21 5.9 58.21 5.9 58.21 5.9 58.21" style="fill:#fefbf1;"/><path d="M10.13,32.11c.08-.06,.17-.09,.25-.14,.03,.07,.06,.15,.1,.22,1.35,2.52,6.11,3.69,8.47,4.64,4.24,1.71,8.59,2.94,13.06,3.84,12.43,4.25,25.06,7.88,37.82,10.93,.73,.17,1.47,.34,2.2,.51,19.59-1.3,39.19-2.31,58.81-3,43.86-1.55,88.08-2.36,131.91,.31,21.76,1.33,43.19,3.74,65.04,3.26,7.14-.16,14.18,.02,21.18,.46,2.75-.44,5.5-.89,8.24-1.37,1.84-.32,3.68-.63,5.52-.97,3.82-.71,7.62-1.49,11.41-2.33,8.7-1.94,17.31-4.26,25.73-7.18,6.47-2.24,12.82-4.82,18.94-7.88,2.93-1.46,15.04-7.86,7.35-11.3-5.97-2.68-14.25-2.9-20.71-3.67-6.44-.76-12.91-1.26-19.37-1.71-14.82-1.05-29.66-1.94-44.49-2.72-58.24-3.08-116.58-4.28-174.9-3.59-29.36,.34-58.73,1.12-88.06,2.47-12.83,.59-25.75,1.37-38.3,4.23-2.47,.56-4.92,1.19-7.36,1.92-3.6,.74-7.16,1.65-10.62,2.88-3.26,1.16-14.29,4.54-12.06,9.88-.07,.18-.13,.3-.17,.32Z" style="fill:#fff;"/><path d="M585.07,96.54c-.45-15.76-1.87-35.18-11.98-48.01-10.25-13.01-26.68-18.41-42.74-19.01-29.68-1.09-61.79,8.95-83.73,29.55-.85,1.44-1.66,2.9-2.45,4.37-.29,.54-.57,1.1-.86,1.64-.47,.91-.94,1.82-1.39,2.74-.35,.71-.7,1.43-1.03,2.14-.26,.56-.52,1.12-.77,1.68-.07,.16-.15,.32-.22,.48-.39,.87-.78,1.73-1.15,2.6-.08,.2-.17,.4-.25,.6-.05,.12-.1,.23-.14,.35-1.57,3.78-2.98,7.62-4.21,11.53-.02,.07-.04,.14-.07,.21-.43,1.39-.85,2.78-1.24,4.18-.39,1.4-.76,2.8-1.12,4.21-.34,1.36-.65,2.73-.95,4.1-.03,.14-.07,.27-.09,.41-.27,1.27-.51,2.54-.74,3.81-.08,.42-.15,.84-.22,1.26-.15,.87-.29,1.75-.42,2.62-.07,.48-.15,.95-.21,1.43-.15,1.1-.29,2.21-.42,3.32-.09,.76-.16,1.51-.23,2.27-.04,.42-.08,.84-.12,1.27-.05,.55-.09,1.1-.13,1.66-.02,.31-.05,.63-.07,.94,0,.03,0,.07,0,.1-.14,2.05-.23,4.11-.27,6.17-.03,1.64-.04,3.29-.02,4.93,0,.09,0,.18,0,.27,.03,1.69,.08,3.38,.17,5.07,.45,8.25,1.14,18.01,4.55,26.1,5.52,3.78,12.68,4.91,19.4,1.85,13.35-6.07,13.68-20.17,9.4-32.3-2.43-6.87-5-13.37-2.99-20.72,1.99-7.25,7.01-13.18,12.75-17.83,11.57-9.4,26.27-16.38,40.24-21.33,6.98-2.47,14.25-4.57,21.59-5.64,7.52-1.09,13.72,.08,16.75,7.77,5.55,14.07,1.44,30.47-5.22,43.38-13.06,25.31-36.64,43.48-61.79,55.79-15.99,7.82-32.99,13.42-50.09,18.23-3.52,.99-7.25,1.97-10.94,3.15-3.73,1.19-7.42,2.58-10.77,4.37,0,0-.08,.04-.22,.12-.05,.03-.1,.06-.16,.09,0,0-.02,.01-.03,.02-.08,.05-.18,.11-.29,.19-.05,.03-.1,.06-.15,.1-.05,.03-.1,.07-.15,.11-.05,.04-.11,.08-.17,.12-.06,.04-.12,.09-.18,.13-.06,.04-.12,.09-.18,.13-.26,.19-.55,.41-.85,.67-.06,.05-.11,.09-.17,.14-.1,.08-.2,.17-.31,.26-.05,.04-.1,.09-.15,.13-.12,.1-.24,.21-.36,.32-.02,.02-.03,.03-.05,.05-.44,.4-.9,.85-1.38,1.35-.02,.02-.03,.03-.05,.05-.16,.17-.33,.35-.49,.53,0,0-.01,.02-.02,.02-3.13,3.45-6.91,9.16-9.19,18.03-.17,.67-.34,1.37-.49,2.08,0,.04-.02,.07-.02,.11-.14,.65-.27,1.32-.4,2-.02,.11-.04,.21-.06,.31-.11,.62-.21,1.27-.31,1.92-.02,.16-.05,.31-.07,.46-.11,.79-.21,1.6-.3,2.43,.83,2.84,2.11,5.54,3.77,7.98,3.85,5.68,9.76,9.91,16.97,11.08,7.17,1.16,15.05-.95,18.25-7.99,1.6-3.52,2.06-7.36,3.89-10.84,2.05-3.9,4.81-7.32,7.93-10.41,24.91-24.68,63.62-27.93,93.71-43.72,14.06-7.38,27-17.56,35.16-31.39,8.55-14.48,11.2-31.71,10.72-48.31Z" style="fill:#fff;"/><path d="M213.29,315.31c-9.45-.21-19.05-.56-28.69-1.18-2.54-.16-5.07-.34-7.61-.54-15.63-1.24-31.28-3.27-46.51-6.61-1.36-.3-2.72-.6-4.08-.92,.19,2.42,.39,4.84,.58,7.26,.45,5.63,.9,11.25,1.35,16.88,.55,6.76,1.15,13.89,6.78,18.49,5.68,4.64,14.08,5.27,21.03,6.47,8.76,1.52,17.57,2.7,26.42,3.57,34.99,3.47,71.5,2.21,105.89-5.5,8.42-1.89,10.76-7,11.6-15.04,.93-8.85,1.61-17.73,2.13-26.62-29.55,2.76-59.22,4.38-88.9,3.73Z" style="fill:#000c40;"/><path d="M1.26,36.48c-.25,1.74,.48,3.5,2.68,4.41,2.27,.94,4.55,1.86,6.83,2.75,1.39,.55,2.78,1.08,4.17,1.61,1.96,.75,3.92,1.48,5.89,2.19,1.04,.38,2.09,.73,3.14,1.1,2.21,.78,4.43,1.55,6.66,2.29,.04,.01,.08,.03,.12,.04,2.14,.72,4.29,1.42,6.44,2.1,.51,.16,1.02,.32,1.53,.48,1.73,.54,3.45,1.08,5.18,1.6,2.33,.7,4.67,1.38,7.01,2.03,2.73,.77,5.48,1.5,8.22,2.22,2.92,.76,5.86,1.49,8.8,2.2,1.21,.29,2.41,.58,3.62,.86,2.27,.52,4.56,1.01,6.84,1.5,.59,.13,1.17,.26,1.76,.39,.52,.11,1.03,.22,1.54,.33,.65,.14,1.31,.26,1.97,.39,.59,.12,1.18,.23,1.77,.35,3.03,.6,6.06,1.18,9.11,1.72,1.35,.24,2.7,.49,4.06,.72,1.2,.21,2.39,.41,3.59,.6,2.75,.45,5.49,.89,8.25,1.29,3.56,.52,7.12,1.02,10.69,1.47,3.12,.39,6.25,.75,9.38,1.1,3.1,.33,6.19,.64,9.3,.93,1.15,.11,2.3,.21,3.45,.31,1.25,.11,2.51,.2,3.76,.3,2.35,.19,4.69,.36,7.04,.52,2.68,.18,5.36,.36,8.04,.5,1.83,.1,3.66,.18,5.49,.27,.77,.03,1.54,.08,2.31,.11,2.05,.08,4.09,.15,6.14,.22,2.8,.09,5.59,.16,8.39,.21,2.38,.04,4.76,.07,7.13,.09,.17,0,.35,0,.52,0,2.14,.01,4.28,.02,6.42,.01,2.94,0,5.88-.03,8.82-.07,.04,0,.08,0,.11,0,1.94-.03,3.89-.07,5.83-.11,1.02-.02,2.03-.03,3.05-.06,.4,0,.8-.02,1.2-.03,1.29-.03,2.58-.06,3.88-.1,.18,0,.37,0,.55-.01,.08,0,.16,0,.24,0,1.79-.06,3.58-.14,5.37-.21,2.29-.09,4.58-.2,6.86-.31,.53-.02,1.05-.05,1.58-.07,3.57-.17,7.15-.37,10.72-.58,.04,0,.08,0,.12,0,3.59-.22,7.19-.45,10.78-.71,0,0,.02,0,.03,0,.57-.04,1.14-.09,1.71-.13,.75-.05,1.49-.12,2.24-.17,2.12-.16,4.24-.32,6.35-.49,3.5-.29,6.99-.6,10.49-.92,1.01-.09,2.02-.17,3.03-.27,1.59-.15,3.19-.3,4.79-.46,3.69-.35,7.39-.71,11.09-1.08,.49-.05,.98-.1,1.47-.15,3.4-.34,6.8-.69,10.21-1.06,.1-.01,.2-.02,.31-.03,3.4-.37,6.81-.74,10.21-1.14,.64-.07,1.28-.15,1.92-.23,1.35-.16,2.7-.32,4.05-.48,.47-.06,.94-.11,1.42-.17,2.54-.32,5.07-.64,7.61-.99,.16-.02,.32-.04,.48-.06,.88-.12,1.75-.25,2.63-.37,0,0,0,0,0,0,2.22-.31,4.45-.63,6.67-.96,.86-.13,1.72-.27,2.58-.4,1.52-.23,3.04-.46,4.56-.7,2.4-.39,4.8-.8,7.2-1.23,.23-.04,.45-.08,.68-.12,2.34-.42,4.68-.85,7.02-1.31,2.76-.54,5.52-1.09,8.27-1.68,1.7-.36,3.4-.75,5.09-1.15,.9-.21,1.79-.42,2.69-.64,.89-.22,1.78-.45,2.67-.68,.3-.08,.61-.15,.91-.23,1.43-.37,2.86-.76,4.28-1.16,.27-.08,.54-.15,.81-.23,1.21-.34,2.41-.69,3.61-1.05,.2-.06,.4-.12,.6-.18,1.31-.4,2.61-.81,3.91-1.23,.09-.03,.19-.06,.28-.09,1.42-.47,2.84-.95,4.25-1.44,2.01-.71,4.02-1.45,6.01-2.22,0,0,0,0,0,0,1.77-.69,3.54-1.41,5.29-2.16,.43-.18,.87-.36,1.3-.55,.07-.03,.14-.06,.21-.09,.42-.19,.85-.37,1.3-.57,0,0,0,0,0,0,0,0,.01,0,.02,0,.54-.24,1.11-.49,1.68-.75,.69-.31,1.4-.64,2.11-.98,.13-.06,.27-.13,.4-.19,.74-.36,1.49-.73,2.24-1.12,.05-.02,.09-.05,.14-.07,.67-.35,1.34-.72,2.01-1.1,.18-.1,.37-.21,.55-.32,.72-.42,1.43-.85,2.13-1.3,.58-.37,1.14-.76,1.69-1.16,.44-.31,.87-.63,1.28-.96,.27-.21,.53-.43,.79-.65,.24-.21,.48-.42,.72-.64,.08-.07,.16-.15,.23-.22,.15-.14,.3-.29,.45-.43,.09-.09,.18-.19,.27-.28,.13-.13,.25-.26,.37-.39,.1-.1,.19-.21,.28-.31,.11-.12,.22-.25,.32-.38,.1-.11,.19-.23,.28-.34,.1-.12,.19-.24,.29-.37,.09-.12,.18-.24,.27-.36,.09-.12,.17-.24,.25-.36,.09-.13,.18-.26,.27-.39,.07-.11,.13-.22,.2-.32,.33-.55,.63-1.11,.88-1.7,.04-.09,.08-.18,.12-.26,.07-.17,.13-.34,.19-.52,.04-.1,.07-.2,.11-.3,.06-.17,.11-.35,.16-.53,.03-.1,.06-.21,.08-.31,.05-.18,.09-.36,.12-.54,.02-.1,.04-.21,.06-.31,.03-.19,.06-.37,.09-.56,.01-.1,.02-.2,.03-.3,.02-.2,.04-.39,.05-.59,0-.09,0-.18,0-.27,0-.22,.01-.43,0-.65h0c0-.31-.02-.63-.05-.95-.03-.32-.07-.65-.13-.98-.16-.96-.43-1.96-.82-2.99-1.99-5.19-7.06-7.31-12.09-8.49-7.99-1.87-16.24-2.83-24.4-3.67-15.88-1.63-31.87-2.43-47.81-3.34C287.3,.65,220.8-.72,154.35,.36c-18.31,.3-36.61,.78-54.91,1.45-16.73,.61-33.6,.92-50.19,3.34-14.39,2.1-30.75,5.83-42.55,14.9C2.1,23.59-1.54,29.37,.66,35.17c.11,.3,.23,.6,.37,.9,.07,.14,.15,.28,.23,.42Zm21.1-14.58c3.46-1.23,7.02-2.14,10.62-2.88,2.43-.72,4.89-1.35,7.36-1.92,12.56-2.86,25.47-3.64,38.3-4.23,29.33-1.34,58.7-2.12,88.06-2.47,58.32-.68,116.66,.52,174.9,3.59,14.84,.78,29.67,1.67,44.49,2.72,6.47,.46,12.93,.95,19.37,1.71,6.46,.76,14.73,.99,20.71,3.67,7.69,3.44-4.42,9.84-7.35,11.3-6.13,3.06-12.48,5.64-18.94,7.88-8.42,2.92-17.03,5.24-25.73,7.18-3.79,.84-7.6,1.62-11.41,2.33-1.84,.34-3.68,.65-5.52,.97-2.74,.48-5.49,.93-8.24,1.37-22.46,3.6-45.19,5.99-67.81,8.07-1.3,.12-2.61,.24-3.91,.36-28.89,2.62-57.9,4.16-86.91,3.88-7.55-.07-15.1-.29-22.66-.63-1.03-.05-2.05-.09-3.08-.14-15.06-.75-30.11-2.07-45.07-4.02-1.09-.14-2.19-.28-3.28-.43-.54-.07-1.07-.14-1.61-.21-10.35-1.45-20.65-3.21-30.88-5.31-3.92-.81-7.83-1.68-11.73-2.59-.73-.17-1.47-.33-2.2-.51-12.77-3.05-25.39-6.68-37.82-10.93-4.48-.9-8.82-2.13-13.06-3.84-2.36-.95-7.11-2.12-8.47-4.64-.04-.07-.07-.15-.1-.22-.08,.05-.17,.08-.25,.14,.03-.02,.09-.15,.17-.32-2.23-5.34,8.8-8.71,12.06-9.88Z" style="fill:#ffb003;"/><path d="M327.79,52.68c-21.85,.49-43.27-1.93-65.04-3.26-43.83-2.67-88.05-1.86-131.91-.31-19.62,.69-39.22,1.7-58.81,3,3.9,.91,7.81,1.78,11.73,2.59,10.23,2.11,20.53,3.86,30.88,5.31,.54,.07,1.07,.14,1.61,.21,1.09,.15,2.19,.29,3.28,.43,14.96,1.95,30.01,3.27,45.07,4.02,1.03,.05,2.05,.1,3.08,.14,7.56,.34,15.11,.56,22.66,.63,29.01,.28,58.03-1.26,86.91-3.88,1.3-.12,2.61-.24,3.91-.36,22.62-2.08,45.35-4.46,67.81-8.07-7-.44-14.04-.62-21.18-.46Z" style="fill:#ff8199;"/><path d="M309.81,303.16c-.73,.07-1.45,.14-2.18,.21-.72,.07-1.44,.14-2.16,.21-.87,.08-1.74,.17-2.62,.25-1.04,.1-2.09,.2-3.13,.3-.14,.01-.29,.03-.43,.04,0,0-.01,0-.02,0-.47,.04-.94,.08-1.42,.12-1.07,.1-2.15,.18-3.22,.27-5.59,.49-11.18,.94-16.77,1.33,0,0,0,0,0,0h0c-4.23,.29-8.47,.55-12.7,.78-.22,.01-.43,.02-.65,.04-4.11,.22-8.22,.4-12.34,.56-.19,0-.39,.02-.58,.03-1.54,.06-3.09,.12-4.63,.17-.47,.01-.93,.03-1.4,.04-1.96,.06-3.92,.1-5.88,.14-.72,.01-1.44,.03-2.16,.04-1.73,.03-3.46,.05-5.19,.07-.8,0-1.6,.02-2.4,.02-1.74,0-3.48,0-5.22,0-.74,0-1.47,0-2.21,0-2.44-.02-4.89-.04-7.33-.09-1.69-.03-3.39-.07-5.09-.11-.23,0-.46,0-.7-.02-1.23-.03-2.46-.07-3.68-.11-.68-.02-1.36-.04-2.04-.06-1.61-.05-3.22-.11-4.83-.18-.28-.01-.57-.02-.85-.03-1.8-.07-3.6-.16-5.41-.25-.06,0-.12,0-.18,0-.03,0-.06,0-.09,0-.83-.04-1.66-.09-2.49-.14-.27-.02-.55-.03-.83-.05-1.1-.06-2.19-.12-3.29-.19-.4-.03-.81-.06-1.21-.09-.23-.01-.45-.03-.68-.04-.61-.04-1.23-.08-1.84-.12-.96-.07-1.92-.14-2.88-.22-.35-.03-.69-.05-1.04-.07-.31-.02-.61-.05-.92-.08-.37-.03-.74-.05-1.11-.09-.38-.03-.76-.07-1.15-.1-.76-.07-1.52-.13-2.28-.2-1.09-.1-2.18-.19-3.27-.3,0,0,0,0,0,0-.03,0-.06,0-.1,0-.46-.05-.92-.09-1.39-.14-.6-.06-1.19-.11-1.79-.18,0,0,0,0,0,0-1.73-.19-3.46-.41-5.19-.62-.92-.11-1.84-.21-2.76-.33-.39-.05-.78-.1-1.17-.16-2.27-.3-4.52-.63-6.78-.98-.21-.03-.42-.06-.62-.09-.13-.02-.26-.04-.39-.06-.57-.09-1.14-.17-1.7-.26-.48-.08-.95-.17-1.43-.25-1.15-.19-2.29-.4-3.44-.6-.67-.12-1.35-.23-2.02-.36-.58-.11-1.16-.23-1.75-.34-1.34-.26-2.68-.54-4.01-.81-.03,0-.06-.01-.09-.02-.38-.08-.76-.15-1.14-.23-.63-.13-1.25-.27-1.87-.41-1.79-.4-3.58-.81-5.36-1.25-.5-.12-.99-.24-1.49-.36-2.45-.61-4.88-1.25-7.3-1.94,2.96,1.7,5.97,3.34,9.04,4.88-.13,.29-.22,.6-.29,.94-.09,.45-.13,.93-.08,1.47,.08,.98,.16,1.96,.24,2.95,1.35,.32,2.72,.62,4.08,.92,15.23,3.34,30.88,5.36,46.51,6.61,2.54,.2,5.08,.38,7.61,.54,9.64,.62,19.24,.98,28.69,1.18,29.69,.65,59.35-.97,88.9-3.73,.01-.25,.03-.49,.04-.74,.07-1.15,.14-2.29,.2-3.44,1.94-.47,3.88-.97,5.81-1.49,4.36-1.16,8.7-2.44,12.95-3.94-3.3,.36-6.6,.7-9.9,1.04-.5,.05-.99,.1-1.49,.15Z" style="fill:#fff;"/><path d="M124.81,297.77c.5,.12,.99,.24,1.49,.36,1.78,.44,3.57,.85,5.36,1.25,.62,.14,1.25,.28,1.87,.41,.38,.08,.76,.15,1.14,.23,.03,0,.06,.01,.09,.02,.21,.05,.42,.1,.63,.13,1.13,.23,2.25,.47,3.38,.69,.58,.11,1.16,.23,1.75,.34,.67,.13,1.35,.24,2.02,.36,1.14,.2,2.29,.41,3.44,.6,.48,.08,.95,.17,1.43,.25,.57,.09,1.14,.17,1.7,.26,.13,.02,.26,.04,.39,.06,.21,.03,.42,.06,.62,.09,2.26,.35,4.52,.68,6.78,.98,.39,.05,.78,.11,1.17,.16,.92,.12,1.84,.22,2.76,.33,1.49-1.28,3.16-2.4,4.87-3.39-1.65-2.24-1.94-5.53-.33-8.2,3.34-5.55,10.2-4.45,15.16-6.94,3.29-15.09,8.07-29.76,14.26-43.88-1.72-.45-3.43-1.03-5.09-1.41-3.57-.82-7.15-1.51-10.78-1.94-7.07-.85-14.23-.86-21.3-.03-7.2,.84-14.34,2.5-21.16,4.97-3.44,1.24-6.78,2.73-10.07,4.34-1.58,.77-3.32,2-5.12,2.7,4.11,2.02,7.55,6.33,9.52,9.91,.68,1.23-.64,3.08-2.05,2.48-1.38-.59-2.71-1.25-3.97-2.01,.22,1.26,.29,2.54,.2,3.83-.1,1.52-.43,3.59-1.41,5,.31,3.06,.09,6.15-.77,9.16,.68,5.37-3.27,12.19-6.29,15.66-.14,.16-.29,.31-.43,.46,.47,.28,.95,.56,1.42,.84,.19,.05,.37,.1,.56,.15,2.24,.63,4.49,1.23,6.74,1.79Z" style="fill:#000c40;"/><path d="M265.63,83.34c-.96,6.45-2.78,12.67-5.44,18.61,7.59,8.14,14.07,17.75,18.34,28.03,.81-3.63,1.87-7.21,3.21-10.68,1.55-4.02,3.46-8.12,5.73-12.07,1.21-2.53,2.51-5.01,3.92-7.45-4.91-8.15-6.04-18.95-5.18-28.82-1.59,.15-3.18,.31-4.77,.46-1.01,.1-2.02,.18-3.03,.27-3.49,.32-6.99,.63-10.49,.92-.35,.03-.71,.05-1.06,.08-.08,3.72-.77,7.56-1.23,10.66Zm5.72-5.15s0,0,0,0c0,0,0,0,0,0,0,0,0,0,0,0Z" style="fill:#000c40;"/><path d="M222.5,307.77c.74,0,1.47,0,2.21,0,1.74,0,3.48,0,5.22,0,.8,0,1.6-.01,2.4-.02,1.73-.02,3.46-.04,5.19-.07,.72-.01,1.44-.02,2.16-.04,1.96-.04,3.92-.09,5.88-.14,.47-.01,.93-.02,1.4-.04,1.54-.05,3.09-.11,4.63-.17-2.47-3.6-3.5-8.34-3.87-12.93-3.12,.61-6.68-.71-8.65-3.68-4.85-7.32,2.38-15.17-.34-22.57-.02-.05-.02-.1-.04-.15-.51-.39-1.02-.77-1.53-1.17-5.73-4.46-11.19-9.28-16.49-14.26-1.21-.99-2.43-1.97-3.63-2.97-4.88-4.01-9.63-8.19-13.93-12.76-1,2.46-2.28,4.89-3.21,7.2-1.84,4.56-3.53,9.19-5.07,13.86-2.75,8.37-4.65,16.98-6.36,25.61-.1,.49-.19,.97-.28,1.46,8.28,6.45,15.74,14.09,21.89,22.64,1.7,.04,3.4,.08,5.09,.11,2.44,.05,4.89,.07,7.33,.09Z" style="fill:#000c40;"/><path d="M20.4,117.83c2.47-1.37,4.6-1.02,6.53,.04,.49,.27,.96,.58,1.43,.93-.3-.99-.54-2.03-.64-3-.19-1.89,.15-3.53,1.7-4.07,3.31-1.15,3.79,3.65,3.78,7.04,.84-.83,1.79-1.51,2.83-2.06,1.05-.56,2.18-.97,3.36-1.23,1.43-.32,2.92-.42,4.39-.3,.01-.01,.03-.03,.04-.04,2.94-2.88,5.75-6.11,6.52-10.28,.83-4.51-.75-9-2.72-12.99-1.7-3.44-3.52-7.02-6.26-9.76-7.02-7.01-15.41-1.17-21.63,3.8-6.55,5.24-12.19,13.3-10.64,22.11,1.22,6.97,6.06,10.56,11.84,12.56-.29-.32-.57-.64-.84-.97-.4-.49-.26-1.45,.31-1.77Zm18.57-19.9c.71-.86,2.06-1.16,3.15-.41,.8,.54,1.2,1.48,1.55,2.34,.35,.85,.69,1.81,.7,2.74,.02,2.25-2.59,3.43-4.1,1.64-1.2-1.43-1.81-3.23-1.82-5.09,0-.54,.2-.95,.52-1.22Zm-4.7-13.7s0,0,0,0h0s0,0,0,0Zm-2.98,2.61c.71-.86,2.06-1.16,3.15-.41,.8,.54,1.2,1.48,1.55,2.34,.35,.85,.69,1.81,.7,2.74,.02,2.25-2.59,3.43-4.1,1.64-1.2-1.43-1.81-3.23-1.82-5.09,0-.54,.2-.95,.52-1.22Zm-2.45-2.42h0s0,0,0,0c0,0,0,0,0,0Zm-1.39,17.52c.71-.86,2.06-1.16,3.15-.41,.8,.54,1.2,1.48,1.55,2.34,.35,.85,.69,1.81,.7,2.74,.02,2.25-2.59,3.43-4.1,1.64-1.2-1.43-1.81-3.23-1.82-5.09,0-.54,.2-.95,.52-1.22Zm-1.92-17.98h0s0,0,0,0c0,0,0,0,0,0Z" style="fill:#ff4300;"/><path d="M103.55,206.53c.91-2.67,2.71-3.84,4.86-4.34,.54-.13,1.1-.22,1.68-.27-.89-.53-1.76-1.14-2.49-1.79-1.41-1.27-2.25-2.72-1.47-4.15,1.68-3.07,5.25,.16,7.51,2.68,.06-1.17,.31-2.32,.71-3.42,.41-1.12,.97-2.18,1.66-3.16,.84-1.19,1.88-2.27,3.05-3.16,0-.02,0-.04,0-.06,.25-4.1,.17-8.37-2.06-11.98-2.4-3.89-6.58-6.16-10.72-7.79-3.56-1.4-7.31-2.84-11.17-3.03-9.89-.49-12.19,9.45-13.46,17.3-1.34,8.27-.12,18,6.93,23.49,5.57,4.34,11.55,3.76,17.17,1.36-.43-.04-.85-.09-1.27-.16-.62-.1-1.17-.9-.96-1.52Zm-13.41-7.8c-1.2-1.43-1.81-3.23-1.82-5.09,0-.54,.2-.95,.52-1.22,.71-.86,2.06-1.16,3.15-.41,.8,.54,1.2,1.48,1.55,2.34,.35,.85,.69,1.81,.7,2.74,.02,2.25-2.59,3.43-4.1,1.64Zm3.84-15.1c-1.2-1.43-1.81-3.23-1.82-5.09,0-.54,.2-.95,.52-1.22,.71-.86,2.06-1.16,3.15-.41,.8,.54,1.2,1.48,1.55,2.34,.35,.85,.69,1.81,.7,2.74,.02,2.25-2.59,3.43-4.1,1.64Zm7.68,11.09c-1.2-1.43-1.81-3.23-1.82-5.09,0-.54,.2-.95,.52-1.22,.71-.86,2.06-1.16,3.15-.41,.8,.54,1.2,1.48,1.55,2.34,.35,.85,.69,1.81,.7,2.74,.02,2.25-2.59,3.43-4.1,1.64Z" style="fill:#ff4300;"/><path d="M139.8,73.15c-3.1-.29-6.2-.59-9.3-.93-3.13-.34-6.26-.7-9.38-1.1-3.57-.45-7.13-.95-10.69-1.47-2.75-.41-5.5-.84-8.25-1.29-1.2-.2-2.39-.4-3.59-.6-1.35-.23-2.71-.47-4.06-.72-3.04-.55-6.08-1.12-9.11-1.72,.3,.84,.53,1.73,.54,2.6,.02,2.89-3.32,4.41-5.26,2.1-1.46-1.73-2.22-3.9-2.32-6.15-2.28-.49-4.57-.98-6.84-1.5-1-.23-2-.47-3-.71-.68,1.24-1.29,2.52-1.82,3.83-7.71,18.86-1.55,39.3,5.68,57.24,3.27,8.13,8.77,15.43,18.51,14.31,8.82-1.02,16.7-7.51,23.33-12.93,7.73-6.32,14.74-13.55,20.7-21.57,2.25-3.03,4.5-6.23,6.46-9.6,3-5.18,5.27-10.75,5.61-16.71,.05-.83,.04-1.66,0-2.47-1.25-.1-2.51-.19-3.76-.3-1.15-.1-2.3-.2-3.45-.31Zm-64.02,16.25c-1.54-1.83-2.32-4.15-2.34-6.53,0-.7,.26-1.22,.66-1.56,.91-1.1,2.64-1.48,4.05-.53,1.03,.7,1.54,1.9,1.99,3,.45,1.09,.88,2.32,.89,3.51,.02,2.89-3.32,4.41-5.26,2.1Zm13.69,16.5c-1.84-2.18-2.76-4.95-2.79-7.79,0-.83,.31-1.45,.79-1.86,1.08-1.31,3.15-1.77,4.83-.63,1.23,.83,1.83,2.26,2.38,3.58,.54,1.3,1.05,2.77,1.07,4.19,.03,3.44-3.96,5.26-6.28,2.51Zm1.1-21.64c-1.54-1.83-2.32-4.15-2.34-6.53,0-.7,.26-1.22,.66-1.56,.91-1.1,2.64-1.48,4.05-.53,1.03,.7,1.54,1.9,1.99,3,.45,1.09,.88,2.32,.89,3.51,.02,2.88-3.32,4.41-5.26,2.1Zm18.01,9.16h0c.08,.14,.16,.28,.23,.42-.08-.14-.16-.28-.23-.42Zm2.34-5.16c-1.54-1.83-2.32-4.15-2.34-6.53,0-.7,.26-1.22,.66-1.56,.91-1.1,2.64-1.48,4.05-.53,1.03,.7,1.54,1.9,1.99,3,.45,1.09,.88,2.32,.89,3.51,.02,2.89-3.32,4.41-5.26,2.1Zm7.57-9.94s0,0,0,0c0,0,0,0,0,0t0,0Zm11.12,11.63s0,0,0,0c0,0,0,0,0,0,0,0,0,0,0,0Zm5.55,2.18s0,0,0,0c0,0,0,0,0,0,0,0,0,0,0,0Zm4.67,.76c-.24-.02-.48-.04-.71-.06,.24,.02,.48,.03,.73,.05,.41,.03,.82,.07,1.23,.08-.42,0-.83-.03-1.25-.06Z" style="fill:#ff4300;"/><path d="M296.92,175.56c-3.56,1.66-6.47,.98-9.05-.68-.65-.42-1.28-.9-1.89-1.42,.32,1.41,.56,2.87,.6,4.23,.09,2.64-.55,4.88-2.74,5.47-4.7,1.28-4.9-5.42-4.57-10.11-1.24,1.07-2.63,1.93-4.12,2.58-1.51,.67-3.13,1.13-4.78,1.39-2.01,.3-4.08,.3-6.11,0-.02,.02-.04,.04-.07,.06-4.35,3.71-8.56,7.92-10.02,13.63-1.58,6.17,.18,12.55,2.53,18.27,2.03,4.92,4.2,10.07,7.74,14.13,9.06,10.39,21.25,3.1,30.34-3.2,9.59-6.64,18.17-17.27,16.86-29.64-1.03-9.78-7.39-15.21-15.21-18.53,.37,.47,.74,.94,1.07,1.43,.5,.72,.23,2.04-.6,2.43Zm-30.36,32.14c-1.2-1.43-1.81-3.23-1.82-5.09,0-.54,.2-.95,.52-1.22,.71-.86,2.06-1.16,3.15-.41,.8,.54,1.2,1.48,1.55,2.34,.35,.85,.69,1.81,.7,2.74,.02,2.25-2.59,3.43-4.1,1.64Zm3.84-15.1c-1.2-1.43-1.81-3.23-1.82-5.09,0-.54,.2-.95,.52-1.22,.71-.86,2.06-1.16,3.15-.41,.8,.54,1.2,1.48,1.55,2.34,.35,.85,.69,1.81,.7,2.74,.02,2.25-2.59,3.43-4.1,1.64Zm6.38,4.79c.71-.86,2.06-1.16,3.15-.41,.8,.54,1.2,1.48,1.55,2.34,.35,.85,.69,1.81,.7,2.74,.02,2.25-2.59,3.43-4.1,1.64-1.2-1.43-1.81-3.23-1.82-5.09,0-.54,.2-.95,.52-1.22Zm2.29,23c-1.2-1.43-1.81-3.23-1.82-5.09,0-.54,.2-.95,.52-1.22,.71-.86,2.06-1.16,3.15-.41,.8,.54,1.2,1.48,1.55,2.34,.35,.85,.69,1.81,.7,2.74,.02,2.25-2.59,3.43-4.1,1.64Zm11.62-14.85c-1.2-1.43-1.81-3.23-1.82-5.09,0-.54,.2-.95,.52-1.22,.71-.86,2.06-1.16,3.15-.41,.8,.54,1.2,1.48,1.55,2.34,.35,.85,.69,1.81,.7,2.74,.02,2.25-2.59,3.43-4.1,1.64Zm.96-14.16c-1.2-1.43-1.81-3.23-1.82-5.09,0-.54,.2-.95,.52-1.22,.71-.86,2.06-1.16,3.15-.41,.8,.54,1.2,1.48,1.55,2.34,.35,.85,.69,1.81,.7,2.74,.02,2.25-2.59,3.43-4.1,1.64Z" style="fill:#ff4300;"/><path d="M358.62,61.93c-2.4,.43-4.8,.84-7.2,1.23-1.52,.25-3.04,.47-4.56,.7-.11,.06-.2,.13-.32,.18-18.05,7.69-32.6,20.76-46.78,34-3.61,3.37-9.04-2.05-5.42-5.42,9.85-9.2,19.93-18.37,31.14-25.81-1.35,.16-2.7,.32-4.05,.48-.64,.08-1.28,.15-1.92,.23-3.4,.4-6.81,.77-10.21,1.14-.1,.01-.2,.02-.31,.03-3.4,.36-6.81,.72-10.21,1.06-.49,.05-.98,.1-1.47,.15-3.7,.37-7.4,.73-11.09,1.08,0,0,0,0-.01,0-.87,9.86,.26,20.66,5.18,28.82-1.4,2.44-2.71,4.92-3.92,7.45-2.26,3.95-4.18,8.04-5.73,12.07-1.34,3.47-2.39,7.05-3.21,10.68-4.28-10.28-10.75-19.89-18.34-28.03,2.66-5.93,4.48-12.15,5.44-18.61,.46-3.09,1.15-6.94,1.23-10.66-1.76,.14-3.53,.27-5.3,.41-.75,.06-1.49,.12-2.24,.17-.57,.04-1.14,.09-1.71,.13,0,0,0,0,0,0,0,0-.02,0-.02,0-3.59,.26-7.18,.49-10.78,.71-.04,0-.08,0-.12,0-3.57,.21-7.15,.41-10.72,.58-.53,.03-1.05,.05-1.58,.07-2.29,.11-4.57,.22-6.86,.31-1.79,.07-3.58,.15-5.37,.21-.08,0-.16,0-.24,0-.18,0-.37,0-.55,.01-1.29,.04-2.58,.07-3.88,.1-.4,0-.8,.02-1.2,.03-1.02,.03-2.03,.04-3.05,.06,12.74,5.07,24.97,11.33,36.56,18.73,4.15,2.65,.3,9.29-3.87,6.62-16.12-10.3-33.4-18.31-51.68-23.91-4.06,.4-9.58,.69-10.49,.78-6.01,.61-15.32,1.78-14.1,10.14,1.37,9.4,14.44,10.7,21.82,11.63,6.47,.82,12.95,.88,19.38,.28-1.17,.72-2.35,1.45-3.52,2.17-3.44,2.11-7.6,4.14-9.69,7.79-4.14,7.26,3.58,11.78,9.78,12.37,17.38,1.68,35.75-4.17,49.35-15.03,8.45,9.7,14.87,20.63,19.91,32.69,.06,.15,.14,.28,.22,.41-.11,1.12-.2,2.24-.26,3.36-.22,3.91-.36,8.46,.08,12.9,.05,2.96,.22,5.92,.51,8.88-5.82,1.25-11.02,4.23-14.82,8.99-.65,.82-.49,2.22,.69,2.47,.38,.08,.77,.15,1.16,.21,2.03,.31,4.1,.31,6.11,0,1.66-.25,3.27-.71,4.78-1.39,1.49-.66,2.88-1.52,4.12-2.58-.34,4.69-.13,11.39,4.57,10.11,2.19-.6,2.83-2.83,2.74-5.47-.05-1.36-.28-2.82-.6-4.23,.61,.52,1.24,1,1.89,1.42,2.58,1.66,5.49,2.35,9.05,.68,.83-.39,1.1-1.7,.6-2.43-.34-.49-.7-.96-1.07-1.43-3.47-4.35-8.38-7.73-14.05-7.84-.1-1.14-.26-2.27-.42-3.41-.97-18.43,2.83-36.66,11.15-53.13,.86-1.37,1.75-2.71,2.68-4.03,3.65,3.69,7.65,6.98,11.8,10.11,3.79,2.85,8.64,6.59,13.75,5.39,4.27-1,6.52-5.11,6.25-9.3-.11-1.71-.64-3.26-1.42-4.68,1.81,.41,3.65,.69,5.51,.86,1.26,.12,2.52,.2,3.79,.21,4.45,.03,10.35-.2,13.55-3.78,2.69-3.01,2.45-7.78,.74-11.19-2.14-4.27-6.44-6.35-10.39-8.73,6.91-3.5,13.2-7.98,18.91-13.27,2.32-2.14,5.64-5.09,8.01-8.4-2.33,.45-4.67,.89-7.02,1.31-.23,.04-.45,.08-.68,.12Zm-184.4,19.43s0,0,0,0c0,0,0,0,0,0,0,0,0,0,0,0Zm85.27,11.03s0,0,0,0c0,0,0,0,0,0,0,0,0,0,0,0Z" style="fill:#0099a9;"/><path d="M122.8,278.87c.86-3.01,1.08-6.1,.77-9.16-.5,.71-1.16,1.26-2.04,1.48-3.16,.77-3.95-2.61-4.27-4.98-.3-2.22-.59-4.46-.85-6.7-.59,.57-1.27,1.07-2.09,1.49-2.01,1.02-4.6,1.31-6.84,.69-.55-.15-1.08-.34-1.57-.61-.63-.34-1.13-.79-1.5-1.31-1.08-1.5-.98-3.53,.82-4.84,1.23-.89,2.8-1.14,4.29-1.4-1.56-.61-3.08-1.35-4.52-2.26-2.4-1.51-7.66-4.75-5.85-8.25,.48-.94,1.15-1.48,1.91-1.74-4.64-1.91-9.7-2.98-14.55-2.63-8.21,.6-13.59,5.75-17.16,12.86-.47,.93-.92,1.87-1.36,2.82,.13,.15,.25,.31,.38,.46,1.39,1.64,2.81,3.24,4.25,4.83,.88-1.82,2.31-3.32,4.06-4.36,.6-.36,1.18-.39,1.68-.21,1.41,.23,2.61,1.54,2.5,3.23-.08,1.24-.86,2.28-1.59,3.24-.7,.92-1.53,1.89-2.53,2.5,2.36,2.44,4.78,4.8,7.27,7.11,.03-.12,.06-.24,.1-.37,.81-2.26,2.42-4.09,4.46-5.31,.6-.36,1.18-.39,1.68-.21,1.41,.23,2.61,1.54,2.5,3.23-.08,1.24-.86,2.28-1.59,3.24-.71,.94-1.56,1.93-2.59,2.54-.24,.15-.49,.25-.74,.32,1.67,1.47,3.36,2.91,5.08,4.32,.37,.3,.75,.6,1.12,.9,.46,.37,.92,.74,1.38,1.11,0,0,.01,.01,.02,.02,.28,.22,.57,.44,.85,.66,1.52,1.18,3.06,2.34,4.62,3.48,.55,.4,1.1,.8,1.65,1.19,.91,.65,1.82,1.29,2.74,1.92,.5,.34,1,.68,1.51,1.02,.73,.49,1.47,.96,2.2,1.43,.93,.61,1.87,1.21,2.81,1.8,1.19,.74,2.38,1.48,3.59,2.2,.23,.14,.46,.27,.68,.4,.14-.16,.29-.31,.43-.46,3.02-3.47,6.96-10.29,6.29-15.66Zm-24.32-22.87c-.71,.94-1.56,1.93-2.59,2.54-2.48,1.47-5.48-.65-4.47-3.49,.81-2.26,2.42-4.09,4.46-5.31,.6-.36,1.18-.39,1.68-.21,1.41,.23,2.61,1.54,2.5,3.23-.08,1.24-.86,2.28-1.59,3.24Zm10.11,19.69c-.71,.94-1.56,1.93-2.59,2.54-2.48,1.47-5.48-.65-4.47-3.49,.81-2.26,2.42-4.09,4.46-5.31,.6-.36,1.18-.39,1.68-.21,1.41,.23,2.61,1.54,2.5,3.23-.08,1.24-.86,2.28-1.59,3.24Z" style="fill:#ff4300;"/><path d="M59.73,205.07c2.03-3.49,.85-8.11-1.51-11.11-2.96-3.76-7.58-4.94-11.93-6.48,6.07-4.81,11.34-10.46,15.88-16.78,3.86-5.38,11.38-15.1,5.6-21.63-5.33-6.01-15.34-.15-20.34,3.34-5.63,3.93-10.01,9.2-13.25,15.17-.98-2.99-.85-6.5-2-9.48,1.23-4.63,1.81-9.29,1.94-13.98,0-.05,.01-.1,.02-.15,.37-3.76,.52-7.55,.36-11.32-.11-2.55,.01-5.62-1.19-7.92,.01-.03,.03-.05,.05-.08,4.83-.96,9.07-3.53,11.9-7.62,.43-.62,.25-1.62-.62-1.74-.28-.04-.56-.07-.84-.09-1.47-.12-2.96-.02-4.39,.3-1.17,.26-2.31,.67-3.36,1.23-1.03,.55-1.99,1.23-2.83,2.06,.01-3.39-.47-8.19-3.78-7.04-1.54,.54-1.89,2.18-1.7,4.07,.1,.97,.34,2.01,.64,3-.47-.34-.94-.66-1.43-.93-1.94-1.07-4.06-1.41-6.53-.04-.58,.32-.71,1.28-.31,1.77,.27,.33,.55,.66,.84,.97,1.85,2.01,4.15,3.67,6.73,4.46,.54,3.76,.99,7.53,1.23,11.3-.03,2.39-.14,4.78-.36,7.16-.29,3.11-.75,6.2-1.35,9.27-1.28-.5-2.69-.62-4.18-.2-1.01,.29-1.96,.8-2.85,1.45,.86,2.98,1.74,5.96,2.65,8.93,.78,2.57,1.59,5.14,2.41,7.7,.99,3.09,2.03,6.17,3.08,9.23,3.69-4.51,7.69-8.74,12.05-12.66,3.66-3.3,9.1,2.11,5.42,5.42-5.34,4.81-10.16,10.05-14.44,15.77,.04,.12,.09,.24,.13,.36,.29,.78,.57,1.55,.86,2.32,1.96,5.22,4.02,10.39,6.22,15.48,.82,1.9,1.67,3.78,2.55,5.64,2.05-.11,4.1-.34,6.14-.75,4.36-.86,10.1-2.26,12.52-6.41Z" style="fill:#0099a9;"/><path d="M174.65,219.15c-.73-.61-1.3-1.33-1.66-2.18-.09-.22-.18-.44-.24-.68-.44-1.8-.02-2.96,.98-3.67,3.18-2.25,12.21,.18,17.8,1.99-2.1-5.09-4.15-12.42-1.08-15.09,.54-.47,1.22-.8,2.1-.94,.65-.11,1.24-.1,1.78,0,3.97,.79,4.97,7.05,4.93,12.47,3.87-4.77,8.46-8.65,14.89-9.81,1.28-.23,2.57,.94,1.9,2.3-.35,.71-.73,1.4-1.12,2.09,6.69-8.13,8.99-20.18,6.64-31.2-4.35-20.4-21.01-34.3-37.13-45.46-7.31-5.06-15.97-8.16-23.35-1.68-6.68,5.86-9.49,15.84-11.88,24.22-2.78,9.75-4.45,19.88-4.81,30.07-.34,9.75-.13,20.53,4.98,29.21,4.48,7.62,12.44,11.72,20.76,12.79-.05-2.08,2.32-3.58,4.52-4.43Zm26.54-46.16c1.08-1.31,3.15-1.77,4.83-.63,1.23,.83,1.83,2.26,2.38,3.58,.54,1.3,1.05,2.77,1.07,4.19,.03,3.44-3.96,5.26-6.28,2.51-1.84-2.18-2.76-4.95-2.79-7.79,0-.83,.31-1.45,.79-1.86Zm-17.24-18.36c1.08-1.31,3.15-1.77,4.83-.63,1.23,.83,1.83,2.26,2.38,3.58,.54,1.3,1.05,2.77,1.07,4.19,.03,3.44-3.96,5.26-6.28,2.51-1.84-2.18-2.76-4.95-2.79-7.79,0-.83,.31-1.45,.79-1.86Zm-7.56,26.4c1.08-1.31,3.15-1.77,4.83-.63,1.23,.83,1.83,2.26,2.38,3.58,.54,1.3,1.05,2.77,1.07,4.19,.03,3.44-3.96,5.26-6.28,2.51-1.84-2.18-2.76-4.95-2.79-7.79,0-.83,.31-1.45,.79-1.86Zm-11.76-40.27c1.08-1.31,3.15-1.77,4.83-.63,1.23,.83,1.83,2.26,2.38,3.58,.54,1.3,1.05,2.77,1.07,4.19,.03,3.44-3.96,5.26-6.28,2.51-1.84-2.18-2.76-4.95-2.79-7.79,0-.83,.31-1.45,.79-1.86Zm-3.88,56.05c-1.84-2.18-2.76-4.95-2.79-7.79,0-.83,.31-1.45,.79-1.86,1.08-1.31,3.15-1.77,4.83-.63,1.23,.83,1.83,2.26,2.38,3.58,.54,1.3,1.05,2.77,1.07,4.19,.03,3.44-3.96,5.26-6.28,2.51Zm5.88-23.11c-1.84-2.18-2.76-4.95-2.79-7.79,0-.83,.31-1.45,.79-1.86,1.08-1.31,3.15-1.77,4.83-.63,1.23,.83,1.83,2.26,2.38,3.58,.54,1.3,1.05,2.77,1.07,4.19,.03,3.44-3.96,5.26-6.28,2.51Z" style="fill:#ff4300;"/><path d="M313.57,291.55c2.41-1.01,4.52-2.51,5.78-4.86,2.34-4.34,.58-9.44-3-12.51-4.43-3.79-11.32-5.01-16.91-5.87-3.62-.56-7.28-.83-10.95-.83,1.68-.81,3.42-1.55,4.81-2.63,2.08-1.62,3.57-3.71,3.99-6.35,1.08-6.72-5.11-8.69-10.53-8.2-15.47,1.4-30.69,6.01-44.54,12.97-.46-.34-.92-.67-1.37-1-.3-.23-.61-.45-.91-.68-6.01-4.84-12.02-9.69-18-14.57-.73-.59-1.45-1.19-2.18-1.79-.77-.7-1.54-1.41-2.29-2.13-4.08-3.89-8.03-7.91-11.85-12.06-2.16-2.34-4.23-5.23-6.58-7.65,4.21,1.66,9.46,1.14,13.39-.38,1.88-.72,2.37-3.59,.35-4.6-1.91-.95-4.21-1.86-6.57-2.4,3.04-2.45,5.64-5.5,7.75-8.84,.04-.04,.07-.08,.11-.12,.18-.2,.31-.43,.39-.67,.15-.25,.29-.5,.43-.75,.39-.69,.77-1.39,1.12-2.09,.67-1.36-.62-2.53-1.9-2.3-6.43,1.16-11.02,5.04-14.89,9.81,.04-5.42-.96-11.68-4.93-12.47-.54-.11-1.13-.12-1.78,0-.87,.15-1.56,.47-2.1,.94-3.07,2.67-1.02,10,1.08,15.09-5.59-1.81-14.62-4.24-17.8-1.99-1,.71-1.43,1.87-.98,3.67,.06,.24,.15,.46,.24,.68,.36,.85,.93,1.58,1.66,2.18-2.19,.84-4.57,2.34-4.52,4.43,.02,.69,.3,1.43,.93,2.24,2.68,3.4,10.38,.76,13.68-.13,2.35-.63,5.25-1.49,7.9-2.73,1.93,3.34,4.13,6.47,6.55,9.41-.71,1.45-1.41,2.91-2.09,4.38-.09-.04-.18-.09-.28-.13-10.97-3.75-22.48-5.27-33.88-4.71-.64-1.16-1.42-2.26-2.1-3.27-1.47-2.22-3.14-4.33-4.9-6.32-3.7-4.21-7.98-7.94-12.6-11.11-4.55-3.11-9.47-5.64-14.66-7.52-.95-.34-1.91-.66-2.88-.96-2.2-.76-4.44-1.43-6.71-2.04,1.94-3.45,2.81-7.35,2.27-11.39-.1-.74-.9-1.36-1.62-.87-.23,.16-.46,.32-.69,.49-1.17,.9-2.21,1.97-3.05,3.16-.69,.98-1.26,2.04-1.66,3.16-.4,1.1-.65,2.24-.71,3.42-2.26-2.51-5.83-5.75-7.51-2.68-.78,1.43,.06,2.88,1.47,4.15,.72,.65,1.6,1.26,2.49,1.79-.58,.06-1.14,.15-1.68,.27-2.15,.51-3.95,1.67-4.86,4.34-.21,.62,.33,1.42,.96,1.52,.42,.07,.85,.12,1.27,.16,3.77,.35,7.73-.42,10.59-2.96,8.21,2.15,16.04,4.87,22.87,10.26,6.19,4.87,11.31,10.92,16.22,17.06-11.36,1.5-22.45,5.11-32.58,10.76-1.83,.92-3.8,1.94-5.11,3.43-1.62-3.58-4.69-6.75-7.68-8.76-1.42-.96-3.43,.83-2.52,2.34,.71,1.18,1.42,2.37,2.12,3.55-.27-.15-.54-.3-.79-.44-2.02-1.1-5.44-3.03-7.85-2.18-.76,.27-1.42,.81-1.91,1.74-1.81,3.5,3.45,6.74,5.85,8.25,1.45,.91,2.96,1.65,4.52,2.26-1.49,.26-3.06,.51-4.29,1.4-1.8,1.31-1.91,3.34-.82,4.84,.37,.51,.88,.97,1.5,1.31,.49,.27,1.02,.46,1.57,.61,2.24,.63,4.83,.34,6.84-.69,.81-.41,1.5-.92,2.09-1.49,.26,2.24,.56,4.48,.85,6.7,.32,2.38,1.11,5.75,4.27,4.98,.89-.22,1.55-.76,2.04-1.48,.98-1.41,1.31-3.47,1.41-5,.09-1.29,.02-2.58-.2-3.83,1.26,.76,2.59,1.43,3.97,2.01,1.41,.6,2.73-1.25,2.05-2.48-1.97-3.58-5.41-7.89-9.52-9.91,1.8-.7,3.54-1.92,5.12-2.7,3.29-1.61,6.63-3.09,10.07-4.34,6.82-2.47,13.96-4.13,21.16-4.97,7.07-.82,14.23-.81,21.3,.03,3.63,.43,7.22,1.13,10.78,1.94,1.66,.38,3.37,.96,5.09,1.41-6.18,14.13-10.96,28.8-14.26,43.88-4.96,2.48-11.82,1.39-15.16,6.94-1.61,2.67-1.32,5.97,.33,8.2-1.71,.98-3.38,2.11-4.87,3.39,1.73,.21,3.46,.43,5.19,.62,0,0,0,0,0,0,.6,.06,1.19,.12,1.79,.18,.33,.03,.67,.07,1,.1,.13,.01,.26,.03,.39,.04,.03,0,.06,0,.1,0,0,0,0,0,0,0,1.09,.11,2.18,.2,3.27,.3,.76,.07,1.52,.13,2.28,.2,.38,.03,.76,.07,1.15,.1,.37,.03,.74,.06,1.11,.09,.31,.02,.61,.05,.92,.07,.39-2.43,.82-4.86,1.31-7.28,.99-4.84,8.38-2.78,7.4,2.04-.39,1.92-.74,3.85-1.06,5.78,1.1,.07,2.19,.14,3.29,.2,.28,.02,.55,.04,.83,.05,.83,.05,1.66,.1,2.49,.14,.03,0,.06,0,.09,0,.06,0,.12,0,.18,0,1.8,.09,3.61,.17,5.41,.25,.28,.01,.57,.02,.85,.03,1.61,.06,3.22,.13,4.83,.18,.68,.02,1.36,.04,2.04,.06,1.23,.04,2.46,.08,3.68,.11,.23,0,.46,0,.7,.02-6.15-8.55-13.61-16.18-21.89-22.64,.09-.49,.18-.97,.28-1.46,1.71-8.64,3.61-17.24,6.36-25.61,1.54-4.68,3.23-9.3,5.07-13.86,.93-2.31,2.21-4.74,3.21-7.2,4.3,4.57,9.06,8.75,13.93,12.76,1.21,.99,2.42,1.98,3.63,2.97,5.3,4.98,10.75,9.81,16.49,14.26,.51,.39,1.02,.78,1.53,1.17,.02,.05,.02,.1,.04,.15,2.72,7.4-4.51,15.25,.34,22.57,1.97,2.97,5.53,4.29,8.65,3.68,.37,4.59,1.4,9.33,3.87,12.93,.19,0,.39-.02,.58-.03,4.11-.16,8.23-.34,12.34-.56,.22-.01,.43-.02,.65-.04,4.24-.23,8.47-.49,12.7-.78h0s0,0,0,0c1.46-.1,2.91-.22,4.36-.33,.73-.05,1.46-.11,2.19-.16,3.4-.26,6.81-.55,10.21-.84-13.98-11.3-28.59-21.78-43.79-31.4-4.17-2.64-.31-9.27,3.87-6.62,17.73,11.22,34.67,23.6,50.77,37.04,.72-.07,1.44-.14,2.16-.21,.73-.07,1.45-.14,2.18-.21,.5-.05,.99-.1,1.49-.15,3.3-.33,6.6-.68,9.9-1.04,1.13-.4,2.25-.81,3.36-1.24-3.27-3.57-7.01-6.69-10.99-9.19Z" style="fill:#0099a9;"/><path d="M354.2,161.34c-.16-.15-.3-.35-.37-.56,.07,.21,.21,.41,.37,.56Z" style="fill:#582a20;"/><path d="M349.98,267.3c1.11-2.56,3.16-4.29,5.69-5.38,1.69-.73,3.64-1.03,5.55-1.41-3.71-.95-7.34-2.18-10.86-3.68-5.42-2.32-12.08-5.35-15.57-10.33-.44-.63-.82-1.31-1.14-2-1.36-2.96-1.56-6.38-.13-9.26h0c.38-.76,.87-1.49,1.48-2.16,1.89-2.04,4.42-3.01,7.11-3.41-3.42-3.61-6.44-7.81-8.85-12.34-4.64-8.76-6.98-18.76-5.5-28.16,.64-4.05,2.58-5.57,5.02-5.69,4.2-.21,9.9,3.69,13.09,5.95,6.04,4.26,11.62,9.29,16.52,14.89,.56-2.12,1.55-4.12,3.12-5.81,3.08-3.33,8.2-4.89,12.47-3.04,5.72,2.48,7.98,10.08,9.79,15.46,1.29,3.83,2.3,7.75,3.04,11.72,1.62-1.05,3.52-1.69,5.49-1.81,2.28-8.88,6.06-14.58,9.19-18.03,0,0,.01-.02,.02-.02,.17-.18,.33-.36,.49-.53,.02-.02,.03-.03,.05-.05,.48-.51,.95-.95,1.38-1.35,.02-.02,.03-.03,.05-.05,.12-.11,.24-.22,.36-.32,.05-.04,.1-.09,.15-.13,.1-.09,.21-.18,.31-.26,.06-.05,.11-.09,.17-.14,.31-.25,.6-.47,.85-.67,.06-.04,.12-.09,.18-.13,.06-.05,.12-.09,.18-.13,.06-.04,.11-.08,.17-.12,.05-.04,.11-.07,.15-.11,.05-.03,.1-.07,.15-.1,.11-.07,.21-.13,.29-.19,0,0,.02-.01,.03-.02,.06-.04,.11-.07,.16-.09-1.24-1.7-2.34-3.57-3.3-5.5-1.77-3.56-3.5-7.22-5.08-10.97-3.89-4.64-8.01-9.09-12.77-12.84-6.84-5.38-14.66-8.11-22.87-10.26-2.86,2.54-6.82,3.31-10.59,2.96-.43-.04-.85-.09-1.27-.16-.2-.03-.4-.14-.56-.29,.16,.15,.36,.26,.56,.29,.42,.07,.85,.12,1.27,.16-5.62,2.39-11.6,2.97-17.17-1.36-7.05-5.49-8.27-15.22-6.93-23.49,1.27-7.84,3.57-17.78,13.46-17.3,3.86,.19,7.61,1.63,11.17,3.03,4.13,1.63,8.31,3.9,10.71,7.79,2.23,3.6,2.31,7.88,2.06,11.98,0,.02,0,.04,0,.06,.22-.17,.45-.34,.69-.49,.72-.49,1.52,.13,1.62,.87,.53,4.04-.34,7.94-2.27,11.39,2.27,.62,4.51,1.29,6.71,2.04,.97,.3,1.93,.62,2.88,.96,5.19,1.88,10.11,4.4,14.66,7.52,1.24,.85,2.45,1.75,3.64,2.68-2.68-10.22-3.37-20.77-.04-31.18,3.35-10.48,11.26-19.56,21.1-23.19,.25-.14,.49-.29,.75-.43,.19-.16,.41-.3,.67-.38,.05-.02,.1-.03,.15-.05,2.93-1.52,6.08-2.69,9.31-3.38,.04-.28,.08-.55,.12-.83,.05-.33,.11-.65,.16-.98-1.17-1.23-2.21-2.53-3.06-3.76-1.27-1.84,.57-4.03,2.56-3.72,.59,.09,1.2,.21,1.81,.36,.29-1.37,.61-2.74,.95-4.1,.35-1.41,.72-2.81,1.12-4.21,.39-1.4,.8-2.79,1.24-4.18,.02-.07,.04-.14,.07-.21,1.23-3.91,2.64-7.76,4.21-11.53,.05-.12,.1-.23,.14-.35-3.86-5.55-8.16-10.76-12.59-15.87-.27-.31-.54-.62-.81-.93-10.89,2.76-22.37,3.65-33.54,2.22-2.93-.37-5.96-1.8-6.52-4.42-.89,.23-1.78,.46-2.67,.68-.89,.22-1.79,.43-2.69,.64-1.69,.4-3.39,.79-5.09,1.15-2.75,.59-5.51,1.14-8.27,1.68-2.38,3.31-5.7,6.26-8.01,8.4-5.71,5.28-12,9.76-18.91,13.27,3.95,2.38,8.25,4.46,10.39,8.73,1.71,3.42,1.95,8.18-.74,11.19-3.2,3.58-9.1,3.81-13.55,3.78-1.27,0-2.54-.09-3.79-.21-1.86-.18-3.69-.46-5.51-.86,.78,1.42,1.31,2.97,1.42,4.68,.28,4.19-1.98,8.3-6.25,9.3-5.12,1.2-9.96-2.54-13.75-5.39-4.15-3.13-8.16-6.42-11.8-10.11-.93,1.32-1.82,2.66-2.68,4.03-8.32,16.47-12.12,34.7-11.15,53.13,.16,1.14,.31,2.27,.42,3.41,5.67,.11,10.58,3.49,14.05,7.84,7.82,3.32,14.18,8.76,15.21,18.53,1.3,12.37-7.28,23-16.86,29.64-9.1,6.3-21.28,13.59-30.34,3.2-3.54-4.06-5.71-9.2-7.74-14.13-2.36-5.72-4.11-12.1-2.53-18.27,1.46-5.71,5.67-9.92,10.02-13.63,.02-.02,.04-.04,.07-.06-.39-.06-.77-.13-1.16-.21-1.18-.25-1.34-1.65-.69-2.47,3.8-4.76,9-7.74,14.82-8.99-.29-2.96-.46-5.93-.51-8.88-.44-4.43-.3-8.99-.08-12.9,.06-1.12,.15-2.24,.26-3.36-.08-.13-.16-.26-.22-.41-5.04-12.06-11.45-22.99-19.91-32.69-13.6,10.86-31.96,16.7-49.35,15.03-6.19-.6-13.92-5.12-9.78-12.37,2.08-3.65,6.25-5.68,9.69-7.79,1.18-.72,2.35-1.45,3.52-2.17-6.43,.6-12.91,.54-19.38-.28-7.38-.94-20.45-2.24-21.82-11.63-1.22-8.36,8.09-9.53,14.1-10.14,.91-.09,6.43-.38,10.49-.78-.13-.04-.26-.09-.39-.13-.78-.24-1.36-.65-1.79-1.14-.17,0-.35,0-.52,0-2.38-.02-4.75-.04-7.13-.09-2.8-.05-5.59-.13-8.39-.21-2.05-.06-4.09-.13-6.14-.22-.77-.03-1.54-.07-2.31-.11-1.83-.08-3.66-.17-5.49-.27-2.68-.14-5.36-.32-8.04-.5-2.35-.16-4.7-.34-7.04-.52,.04,.82,.05,1.64,0,2.47-.34,5.96-2.62,11.53-5.61,16.71,.07,0,.14,0,.21,0h0c-.07,0-.14,0-.2,0-1.95,3.37-4.21,6.58-6.46,9.6-5.95,8.02-12.97,15.25-20.7,21.57-6.63,5.42-14.52,11.91-23.33,12.93-9.74,1.13-15.24-6.18-18.51-14.31-7.22-17.94-13.38-38.38-5.68-57.24,.54-1.31,1.15-2.59,1.82-3.83-.21-.05-.41-.1-.62-.15-2.94-.7-5.87-1.43-8.8-2.2-2.75-.71-5.49-1.45-8.22-2.22-2.34-.66-4.68-1.34-7.01-2.03-1.73-.52-3.46-1.06-5.18-1.6-.51-.16-1.02-.31-1.53-.48-2.15-.68-4.3-1.38-6.44-2.1-.04-.01-.08-.03-.12-.04-2.22-.75-4.44-1.51-6.66-2.29,0,0,0,0,0,0-1.61,1.13-3.44,2.1-5.52,2.89-5.86,2.21-11.9,2.18-17.68,.71,.03,.87,.06,1.74,.11,2.61,.09,1.76,.19,3.52,.32,5.28,.01,.17,.03,.34,.04,.51,.07,1,.17,1.99,.25,2.98,.29,3.57,.65,7.13,1.07,10.68,.2,1.67,.42,3.33,.65,4.99,.13,.98,.26,1.96,.4,2.94,.66,4.54,1.42,9.07,2.26,13.58,.07,.4,.15,.8,.22,1.19,.17,.92,.34,1.83,.52,2.75,.46,2.36,.94,4.72,1.45,7.07,.18,.85,.38,1.71,.57,2.56,.04,.17,.07,.33,.11,.5,.61,2.75,1.25,5.5,1.91,8.24,.3,1.22,.58,2.45,.89,3.67,1.72,6.89,3.5,13.81,5.38,20.72,1.05,3.86,2.13,7.72,3.24,11.58,.89-.65,1.84-1.16,2.85-1.45,1.49-.43,2.91-.3,4.18,.2,.6-3.07,1.06-6.16,1.35-9.27,.22-2.39,.32-4.77,.36-7.16-.24-3.77-.69-7.54-1.23-11.3-2.57-.79-4.88-2.44-6.73-4.46-5.78-2-10.62-5.59-11.84-12.56-1.55-8.82,4.09-16.87,10.64-22.11,6.22-4.97,14.61-10.81,21.63-3.8,2.74,2.74,4.56,6.32,6.26,9.76,1.97,3.99,3.55,8.49,2.72,12.99-.77,4.17-3.58,7.4-6.52,10.28-.01,.01-.03,.03-.04,.04,.28,.02,.56,.05,.84,.09,.86,.12,1.04,1.12,.62,1.74-2.83,4.1-7.06,6.66-11.9,7.62-.01,.03-.03,.06-.05,.08,1.21,2.31,1.08,5.38,1.19,7.92,.16,3.77,0,7.56-.36,11.32,0,.05-.01,.1-.02,.15-.13,4.68-.7,9.35-1.94,13.98,1.15,2.98,1.02,6.49,2,9.48,3.24-5.97,7.62-11.24,13.25-15.17,5-3.49,15.01-9.34,20.34-3.34,5.79,6.52-1.73,16.25-5.6,21.63-4.54,6.32-9.81,11.97-15.88,16.78,4.35,1.55,8.97,2.72,11.93,6.48,2.36,3.01,3.55,7.63,1.51,11.11-2.42,4.15-8.16,5.55-12.52,6.41-2.04,.4-4.09,.64-6.14,.75,2.28,4.87,4.76,9.63,7.43,14.26,1.76,3.05,3.59,6.05,5.51,8.99,4.28,6.57,8.94,12.86,13.97,18.83,.44-.95,.89-1.89,1.36-2.82,3.57-7.11,8.95-12.26,17.16-12.86,4.86-.36,9.92,.72,14.55,2.63,2.41-.85,5.83,1.07,7.85,2.18,.25,.14,.52,.29,.79,.44-.7-1.19-1.4-2.37-2.12-3.55-.91-1.51,1.09-3.29,2.52-2.34,3,2.02,6.07,5.18,7.68,8.76,1.32-1.49,3.29-2.51,5.11-3.43,10.14-5.65,21.22-9.26,32.58-10.76-4.91-6.13-10.03-12.18-16.22-17.06-6.84-5.38-14.66-8.11-22.87-10.26-2.86,2.54-6.82,3.31-10.59,2.96-5.62,2.39-11.6,2.97-17.17-1.36-7.05-5.49-8.27-15.22-6.93-23.49,1.27-7.84,3.57-17.78,13.46-17.3,3.86,.19,7.61,1.63,11.17,3.03,4.13,1.63,8.31,3.9,10.72,7.79,2.23,3.6,2.31,7.88,2.06,11.98,0,.02,0,.04,0,.06,.22-.17,.45-.34,.69-.49,.72-.49,1.52,.13,1.62,.87,.53,4.04-.34,7.94-2.27,11.39,2.27,.62,4.51,1.29,6.71,2.04,.97,.3,1.93,.62,2.88,.96,5.19,1.88,10.11,4.4,14.66,7.52,4.62,3.17,8.9,6.9,12.6,11.11,1.76,2,3.42,4.1,4.9,6.32,.68,1.02,1.45,2.12,2.1,3.27,11.39-.56,22.91,.96,33.88,4.71,.1,.04,.19,.09,.28,.13,.68-1.46,1.38-2.93,2.09-4.38-2.42-2.94-4.62-6.07-6.55-9.41-2.66,1.24-5.56,2.1-7.9,2.73-3.3,.89-11,3.54-13.68,.13-.64-.81-.92-1.56-.93-2.24-8.33-1.06-16.28-5.17-20.76-12.79-5.11-8.68-5.32-19.46-4.98-29.21,.35-10.19,2.03-20.32,4.81-30.07,2.39-8.37,5.2-18.35,11.88-24.22,7.38-6.48,16.05-3.38,23.35,1.68,16.12,11.16,32.78,25.06,37.13,45.46,2.35,11.02,.05,23.07-6.64,31.2-.14,.25-.28,.51-.43,.75-.08,.24-.21,.47-.39,.67-.03,.04-.07,.08-.11,.12-2.1,3.34-4.71,6.39-7.75,8.84,2.37,.54,4.66,1.45,6.57,2.4,2.02,1.01,1.52,3.88-.35,4.6-3.93,1.52-9.18,2.04-13.39,.38,2.34,2.42,4.42,5.31,6.58,7.65,3.82,4.15,7.77,8.17,11.85,12.06,.76,.72,1.52,1.43,2.29,2.13,.72,.6,1.45,1.2,2.18,1.79,5.98,4.88,11.99,9.73,18,14.57,.3,.23,.61,.45,.91,.68,.45,.34,.91,.67,1.37,1,13.86-6.96,29.07-11.57,44.54-12.97,5.41-.49,11.6,1.48,10.53,8.2-.42,2.64-1.91,4.73-3.99,6.35-1.39,1.08-3.13,1.82-4.81,2.63,3.66,0,7.33,.27,10.95,.83,5.58,.86,12.48,2.08,16.91,5.87,3.58,3.07,5.34,8.17,3,12.51-1.26,2.35-3.38,3.85-5.78,4.86,3.98,2.49,7.72,5.62,10.99,9.19,4.88-1.87,9.63-4.05,14.17-6.68,1.9-1.1,3.74-2.29,5.55-3.53,.95-.65,1.91-1.3,2.84-1.99,1.55-1.14,3.07-2.34,4.55-3.57,2.52-2.08,4.93-4.28,7.27-6.57-.15-.02-.3-.04-.44-.07-5.6-.91-11.35-4.51-8.52-11.02Zm76.87-198.27s0,0,0,0c0,0,0,0,0,0,0,0,0,0,0,0Zm-27.95,8.96h0s0,0,0,0c0,0,0,0,0,0Zm-6.44-3.19s0,0,0,0c0,0,0,0,0,0,0,0,0,0,0,0Zm-41.55,16.1s0-.05,.01-.07h0c.08,.02,.17,.04,.25,.07h-.26ZM5.9,58.21h0s0,0,0,0c0,0,0,0,0,0Zm5.47-1.63s0,0,0,0c0,0,0,0,0,0,0,0,0,0,0,0Zm32.74,24.26s0,0,0,0c0,0,0,0,0,0,0,0,0,0,0,0Zm88.51,86.41s0,0,0,0c0,0,0,0,0,0h0Zm5.77-5.49h0s0,0,0,0c0,0,0,0,0,0Zm10.43-70.03s0,0,0,0c0,0,0,0,0,0,0,0,0,0,0,0Zm38.87,32.38s0,0,0,0h0s0,0,0,0Zm37.71,17.41c.08,.74,.13,1.49,.15,2.26-.02-.77-.07-1.52-.15-2.26Z" style="fill:#000c40;"/><path d="M356.1,150.63c-.02,.94,.54,1.86,1.39,2.71-.85-.85-1.41-1.78-1.39-2.71Z" style="fill:#ffbfad;"/><path d="M360.35,155.5h0c-.89-.53-1.76-1.14-2.49-1.79-.13-.12-.26-.24-.38-.36,.12,.12,.25,.24,.38,.36,.72,.65,1.6,1.26,2.49,1.79Z" style="fill:#ffbfad;"/><path d="M428.34,55.79s0-.07,0-.11c-.77-5.66,5.58-10.09,3.28-16.02-.22-.56-.51-1.06-.86-1.51-.55,.4-1.12,.78-1.69,1.16-.69,.45-1.41,.88-2.13,1.3-.18,.11-.37,.21-.55,.32-.67,.38-1.34,.75-2.01,1.1-.05,.02-.09,.05-.14,.07-.75,.39-1.5,.76-2.24,1.12-.14,.07-.27,.13-.4,.19-.71,.34-1.42,.67-2.11,.98-.57,.26-1.13,.51-1.68,.75,0,0-.01,0-.02,0,0,0,0,0,0,0-.45,.2-.88,.39-1.3,.57-.07,.03-.14,.06-.21,.09-.43,.19-.87,.36-1.3,.55-1.75,.75-3.52,1.47-5.29,2.16,0,0,0,0,0,0,0,0,0,0,0,0-1.99,.78-3.99,1.51-6.01,2.22-1.41,.5-2.83,.98-4.25,1.44-.09,.03-.19,.06-.28,.09-1.3,.42-2.6,.83-3.91,1.23-.2,.06-.4,.12-.6,.18-1.2,.36-2.41,.71-3.61,1.05-.27,.08-.54,.16-.81,.23-1.42,.4-2.85,.79-4.28,1.16-.3,.08-.61,.15-.91,.23,.56,2.62,3.59,4.05,6.52,4.42,11.17,1.43,22.65,.54,33.54-2.22,.27,.31,.54,.61,.81,.93,4.43,5.1,8.74,10.32,12.59,15.87,.08-.2,.16-.4,.25-.6,.37-.87,.76-1.74,1.15-2.6,.07-.16,.15-.32,.22-.48-3.4-5.1-6.97-10.1-10.88-14.81-.3-.36-.6-.71-.9-1.06Z" style="fill:#0099a9;"/><path d="M416.83,117.19c-1.23-.43-1.78-2.05-.53-2.87,.65-.43,1.33-.83,2.01-1.23-9.83,3.62-17.74,12.71-21.1,23.19-3.33,10.41-2.64,20.96,.04,31.18,1.29,4.92,3.04,9.75,5.03,14.46,1.58,3.75,3.31,7.41,5.08,10.97,.96,1.93,2.05,3.8,3.3,5.5,.14-.08,.22-.12,.22-.12,.5-1.11,.99-2.21,1.47-3.33,.49-1.13,.98-2.26,1.46-3.4,.17-.39,.34-.78,.5-1.18,1.01-2.38,1.99-4.78,2.94-7.18,2.74-6.89,5.26-13.86,7.56-20.9,.7-2.13,1.38-4.27,2.04-6.42,1.55,2.26,3.49,4.18,5.69,5.69-3.4-8.09-4.09-17.85-4.55-26.1-.09-1.69-.15-3.38-.17-5.07,0-.09,0-.18,0-.27-.02-1.64-.02-3.29,.02-4.93,.04-2.06,.13-4.12,.27-6.17,0-.03,0-.07,0-.1,.02-.31,.05-.63,.07-.94-3.7,.66-7.48,.57-11.37-.78Zm-15.58,42.43c-1.54-1.83-2.32-4.15-2.34-6.53,0-.7,.26-1.22,.66-1.56,.91-1.1,2.64-1.48,4.05-.53,1.03,.7,1.54,1.9,1.99,3,.45,1.09,.88,2.32,.89,3.51,.02,2.88-3.32,4.41-5.26,2.1Zm4.93-19.38c-1.54-1.83-2.32-4.15-2.34-6.53,0-.7,.26-1.22,.66-1.56,.91-1.1,2.64-1.48,4.05-.53,1.03,.7,1.54,1.9,1.99,3,.45,1.09,.88,2.32,.89,3.51,.02,2.88-3.32,4.41-5.26,2.1Zm6.06,33.28c-1.54-1.83-2.32-4.15-2.34-6.53,0-.7,.26-1.22,.66-1.56,.91-1.1,2.64-1.48,4.05-.53,1.03,.7,1.54,1.9,1.99,3,.45,1.09,.88,2.32,.89,3.51,.02,2.88-3.32,4.41-5.26,2.1Zm3.8-19.05c-1.54-1.83-2.32-4.15-2.34-6.53,0-.7,.26-1.22,.66-1.56,.91-1.1,2.64-1.48,4.05-.53,1.03,.7,1.54,1.9,1.99,3,.45,1.09,.88,2.32,.89,3.51,.02,2.89-3.32,4.41-5.26,2.1Zm10.15-23.8c.02,2.88-3.32,4.41-5.26,2.1-1.54-1.83-2.32-4.15-2.34-6.53,0-.7,.26-1.22,.66-1.56,.91-1.1,2.64-1.48,4.05-.53,1.03,.7,1.54,1.9,1.99,3,.45,1.09,.88,2.32,.89,3.51Z" style="fill:#ff4300;"/><path d="M426.4,103.29c.85,1.23,1.89,2.53,3.06,3.76,.09-.55,.17-1.09,.26-1.64,.07-.42,.14-.84,.22-1.26,.23-1.27,.47-2.55,.74-3.81,.03-.14,.07-.27,.09-.41-.61-.15-1.22-.27-1.81-.36-1.99-.3-3.84,1.89-2.56,3.72Z" style="fill:#0099a9;"/><path d="M419.87,112.23s-.1,.03-.15,.05c-.26,.09-.48,.22-.67,.38-.25,.14-.5,.29-.75,.43-.68,.39-1.36,.8-2.01,1.23-1.25,.82-.7,2.44,.53,2.87,3.89,1.35,7.67,1.44,11.37,.78,.04-.55,.08-1.11,.13-1.66,.04-.42,.08-.84,.12-1.27,.07-.76,.15-1.51,.23-2.27,.13-1.11,.26-2.21,.42-3.32,.03-.2,.06-.4,.09-.6-3.23,.68-6.38,1.85-9.31,3.38Z" style="fill:#0099a9;"/><path d="M438.95,24.88h0c0,.22,0,.44,0,.65,0,.09,0,.18,0,.27-.01,.2-.03,.4-.05,.59-.01,.1-.02,.2-.03,.3-.02,.19-.06,.38-.09,.56-.02,.1-.04,.21-.06,.31-.04,.18-.08,.36-.12,.54-.03,.1-.06,.21-.08,.31-.05,.18-.1,.35-.16,.53-.03,.1-.07,.2-.11,.3-.06,.17-.12,.35-.19,.52-.04,.09-.08,.18-.12,.26-.25,.58-.55,1.15-.88,1.7-.07,.11-.13,.22-.2,.32-.09,.13-.18,.26-.27,.39-.08,.12-.16,.24-.25,.36-.09,.12-.18,.24-.27,.36-.09,.12-.19,.25-.29,.37-.09,.11-.19,.23-.28,.34-.11,.13-.21,.25-.32,.38-.09,.11-.19,.21-.28,.31-.12,.13-.25,.26-.37,.39-.09,.09-.18,.19-.27,.28-.15,.15-.3,.29-.45,.43-.08,.07-.15,.15-.23,.22-.23,.22-.47,.43-.72,.64-.26,.22-.52,.44-.79,.65-.41,.33-.84,.65-1.28,.96,.35,.45,.64,.96,.86,1.51,2.29,5.94-4.05,10.36-3.28,16.02,0,.04,0,.07,0,.11,.3,.35,.6,.71,.9,1.06,3.91,4.71,7.48,9.71,10.88,14.81,.25-.56,.51-1.12,.77-1.68,.34-.72,.68-1.43,1.03-2.14,.45-.92,.92-1.83,1.39-2.74,.29-.55,.57-1.1,.86-1.64,.79-1.47,1.6-2.93,2.45-4.37-1.47,1.38-2.89,2.81-4.27,4.28,.14-3.99,.2-7.99,.2-11.99-.05,0-.1-.01-.16-.02,.05-.08,.1-.16,.15-.24,0-1.61,0-3.21-.03-4.82-.08-5.36-.28-10.72-.61-16.07-.06-.98-.12-1.97-.18-2.95-.15-2.18-1.39-3.62-2.96-4.33,.06,.33,.1,.66,.13,.98,.03,.32,.05,.64,.05,.95Z" style="fill:#000c40;"/><path d="M395.04,227.24c.1-.65,.2-1.29,.31-1.92,.02-.11,.04-.21,.06-.31,.12-.68,.26-1.35,.4-2,0-.04,.02-.07,.02-.11,.16-.71,.32-1.4,.49-2.08-1.97,.12-3.88,.76-5.49,1.81-.75-3.97-1.75-7.89-3.04-11.72-1.81-5.37-4.07-12.98-9.79-15.46-4.27-1.85-9.39-.3-12.47,3.04-1.57,1.69-2.56,3.69-3.12,5.81-4.9-5.59-10.48-10.62-16.52-14.89-3.19-2.25-8.89-6.16-13.09-5.95-2.45,.12-4.38,1.64-5.02,5.69-1.48,9.4,.86,19.4,5.5,28.16,2.4,4.53,5.42,8.74,8.85,12.34-2.69,.39-5.22,1.37-7.11,3.41-.62,.67-1.1,1.4-1.48,2.16h0c-1.43,2.88-1.23,6.3,.13,9.26,.32,.7,.7,1.37,1.14,2,3.49,4.98,10.15,8.01,15.57,10.33,3.51,1.51,7.15,2.73,10.86,3.68-1.91,.38-3.87,.68-5.55,1.41-2.53,1.09-4.58,2.82-5.69,5.38-2.83,6.51,2.91,10.11,8.52,11.02,.15,.02,.3,.04,.44,.07,.21-.21,.43-.4,.64-.61,.6-.59,1.2-1.17,1.78-1.78,2.2-2.27,4.33-4.62,6.37-7.02,1.05-1.24,2.08-2.51,3.11-3.78,.66-.81,1.32-1.62,1.96-2.45,3.24-4.12,6.33-8.36,9.31-12.7-14.64-11.79-28.13-24.86-40.34-39.16-3.19-3.74,2.21-9.18,5.42-5.42,11.89,13.91,24.99,26.67,39.18,38.21,.5-.77,1.01-1.54,1.5-2.31,1.08-1.7,2.15-3.41,3.19-5.14,.59-.97,1.15-1.95,1.73-2.92,.63-1.06,1.27-2.12,1.88-3.19,.09-.83,.19-1.64,.3-2.43,.02-.16,.05-.31,.07-.46Z" style="fill:#0099a9;"/><path d="M350.92,90.84s0,.05-.01,.07h.26c-.08-.03-.17-.05-.25-.07Z" style="fill:#ff512c;"/><path d="M139.12,92.82c.24,.02,.48,.04,.71,.06,0,0,0,0,.01-.01-.24-.02-.49-.02-.73-.05Z" style="fill:#fefbf1;"/><path d="M108.59,93.42c.08,.14,.16,.28,.23,.42-.08-.14-.16-.28-.23-.42h0Z" style="fill:#fefbf1;"/><path d="M139.83,92.88c.41,.03,.83,.06,1.25,.06-.42,0-.82-.05-1.23-.08,0,0,0,0-.01,.01Z" style="fill:#ffaf00;"/><path d="M163.58,186.52c-1.68-1.14-3.74-.68-4.83,.63-.48,.41-.8,1.03-.79,1.86,.03,2.84,.95,5.6,2.79,7.79,2.31,2.75,6.31,.93,6.28-2.51-.01-1.42-.53-2.89-1.07-4.19-.55-1.32-1.15-2.75-2.38-3.58Z" style="fill:#fff;"/><path d="M172.9,171.19c-.01-1.42-.53-2.89-1.07-4.19-.55-1.32-1.15-2.75-2.38-3.58-1.68-1.14-3.74-.68-4.83,.63-.48,.41-.8,1.03-.79,1.86,.03,2.84,.95,5.6,2.79,7.79,2.31,2.75,6.31,.93,6.28-2.51Z" style="fill:#fff;"/><path d="M192.23,161.76c-.01-1.42-.53-2.89-1.07-4.19-.55-1.32-1.15-2.75-2.38-3.58-1.68-1.13-3.74-.68-4.83,.63-.48,.41-.8,1.03-.79,1.86,.03,2.84,.95,5.6,2.79,7.79,2.31,2.75,6.31,.93,6.28-2.51Z" style="fill:#fff;"/><path d="M172.9,147.89c-.01-1.42-.53-2.89-1.07-4.19-.55-1.32-1.15-2.75-2.38-3.58-1.68-1.14-3.74-.68-4.83,.63-.48,.41-.8,1.03-.79,1.86,.03,2.84,.95,5.6,2.79,7.79,2.31,2.75,6.31,.93,6.28-2.51Z" style="fill:#fff;"/><path d="M209.47,180.12c-.01-1.42-.53-2.89-1.07-4.19-.55-1.32-1.15-2.75-2.38-3.58-1.68-1.14-3.74-.68-4.83,.63-.48,.41-.8,1.03-.79,1.86,.03,2.84,.95,5.6,2.79,7.79,2.31,2.75,6.31,.93,6.28-2.51Z" style="fill:#fff;"/><path d="M92.31,95.62c-1.68-1.14-3.74-.68-4.83,.63-.48,.41-.8,1.03-.79,1.86,.03,2.84,.95,5.6,2.79,7.79,2.31,2.75,6.31,.93,6.28-2.51-.01-1.42-.53-2.89-1.07-4.19-.55-1.32-1.15-2.75-2.38-3.58Z" style="fill:#fff;"/><path d="M184.67,188.16c-.01-1.42-.53-2.89-1.07-4.19-.55-1.32-1.15-2.75-2.38-3.58-1.68-1.14-3.74-.68-4.83,.63-.48,.41-.8,1.03-.79,1.86,.03,2.84,.95,5.6,2.79,7.79,2.31,2.75,6.31,.93,6.28-2.51Z" style="fill:#fff;"/><path d="M268.41,200.98c-1.1-.74-2.45-.44-3.15,.41-.31,.27-.52,.67-.52,1.22,.02,1.86,.62,3.66,1.82,5.09,1.51,1.79,4.12,.61,4.1-1.64,0-.93-.35-1.89-.7-2.74-.36-.86-.75-1.8-1.55-2.34Z" style="fill:#fff;"/><path d="M272.26,185.88c-1.1-.74-2.45-.44-3.15,.41-.31,.27-.52,.67-.52,1.22,.02,1.86,.62,3.66,1.82,5.09,1.51,1.79,4.12,.61,4.1-1.64,0-.93-.35-1.89-.7-2.74-.36-.86-.75-1.8-1.55-2.34Z" style="fill:#fff;"/><path d="M282.19,202.06c0-.93-.35-1.89-.7-2.74-.36-.86-.75-1.8-1.55-2.34-1.1-.74-2.45-.44-3.15,.41-.31,.27-.52,.67-.52,1.22,.02,1.86,.62,3.66,1.82,5.09,1.51,1.79,4.12,.61,4.1-1.64Z" style="fill:#fff;"/><path d="M293.51,184.66c-1.1-.74-2.45-.44-3.15,.41-.31,.27-.52,.67-.52,1.22,.02,1.86,.62,3.66,1.82,5.09,1.51,1.79,4.12,.61,4.1-1.64,0-.93-.35-1.89-.7-2.74-.36-.86-.75-1.8-1.55-2.34Z" style="fill:#fff;"/><path d="M292.55,198.82c-1.1-.74-2.45-.44-3.15,.41-.31,.27-.52,.67-.52,1.22,.02,1.86,.62,3.66,1.82,5.09,1.51,1.79,4.12,.61,4.1-1.64,0-.93-.35-1.89-.7-2.74-.36-.86-.75-1.8-1.55-2.34Z" style="fill:#fff;"/><path d="M280.93,213.67c-1.1-.74-2.45-.44-3.15,.41-.31,.27-.52,.67-.52,1.22,.02,1.86,.62,3.66,1.82,5.09,1.51,1.79,4.12,.61,4.1-1.64,0-.93-.35-1.89-.7-2.74-.36-.86-.75-1.8-1.55-2.34Z" style="fill:#fff;"/><path d="M91.99,192.01c-1.1-.74-2.45-.44-3.15,.41-.31,.27-.52,.67-.52,1.22,.02,1.86,.62,3.66,1.82,5.09,1.51,1.79,4.12,.61,4.1-1.64,0-.93-.35-1.89-.7-2.74-.36-.86-.75-1.8-1.55-2.34Z" style="fill:#fff;"/><path d="M95.83,176.91c-1.1-.74-2.45-.44-3.15,.41-.31,.27-.52,.67-.52,1.22,.02,1.86,.62,3.66,1.82,5.09,1.51,1.79,4.12,.61,4.1-1.64,0-.93-.35-1.89-.7-2.74-.36-.86-.75-1.8-1.55-2.34Z" style="fill:#fff;"/><path d="M105.76,193.08c0-.93-.35-1.89-.7-2.74-.36-.86-.75-1.8-1.55-2.34-1.1-.74-2.45-.44-3.15,.41-.31,.27-.52,.67-.52,1.22,.02,1.86,.62,3.66,1.82,5.09,1.51,1.79,4.12,.61,4.1-1.64Z" style="fill:#fff;"/><path d="M353.77,160.35c0-.08,.02-.16,.05-.24,.91-2.67,2.71-3.84,4.86-4.34,.54-.13,1.1-.22,1.68-.27-.89-.53-1.76-1.14-2.49-1.79-.13-.12-.26-.24-.38-.36-.85-.85-1.41-1.78-1.39-2.71,0-.36,.1-.71,.3-1.07,1.68-3.07,5.25,.16,7.51,2.68,.06-1.17,.31-2.32,.71-3.42,.41-1.12,.97-2.18,1.66-3.16,.85-1.19,1.88-2.27,3.05-3.16,0-.02,0-.04,0-.06,.25-4.1,.17-8.37-2.06-11.98-2.4-3.89-6.58-6.16-10.71-7.79-3.56-1.4-7.31-2.84-11.17-3.03-9.89-.49-12.19,9.45-13.46,17.3-1.34,8.27-.12,18,6.93,23.49,5.57,4.34,11.55,3.76,17.17,1.36-.43-.04-.85-.09-1.27-.16-.2-.03-.4-.14-.56-.29-.16-.15-.3-.35-.37-.56-.05-.14-.07-.29-.07-.43Zm-13.37-8.04c-1.2-1.43-1.81-3.23-1.82-5.09,0-.54,.2-.95,.52-1.22,.71-.86,2.06-1.16,3.15-.41,.8,.54,1.2,1.48,1.55,2.34,.35,.85,.69,1.81,.7,2.74,.02,2.25-2.59,3.43-4.1,1.64Zm3.84-15.1c-1.2-1.43-1.81-3.23-1.82-5.09,0-.54,.2-.95,.52-1.22,.71-.86,2.06-1.16,3.15-.41,.8,.54,1.2,1.48,1.55,2.34,.35,.85,.69,1.81,.7,2.74,.02,2.25-2.59,3.43-4.1,1.64Zm7.68,11.09c-1.2-1.43-1.81-3.23-1.82-5.09,0-.54,.2-.95,.52-1.22,.71-.86,2.06-1.16,3.15-.41,.8,.54,1.2,1.48,1.55,2.34,.35,.85,.69,1.81,.7,2.74,.02,2.25-2.59,3.43-4.1,1.64Z" style="fill:#ff4300;"/><path d="M393.61,164.79c-4.55-3.11-9.47-5.64-14.66-7.52-.95-.34-1.91-.66-2.88-.96-2.2-.76-4.44-1.43-6.71-2.04,1.94-3.45,2.81-7.35,2.27-11.39-.1-.74-.9-1.36-1.62-.87-.23,.16-.46,.32-.69,.49-1.17,.9-2.21,1.97-3.05,3.16-.69,.98-1.26,2.04-1.66,3.16-.4,1.1-.65,2.24-.71,3.42-2.26-2.51-5.83-5.75-7.51-2.68-.2,.36-.29,.72-.3,1.07-.02,.94,.54,1.86,1.39,2.71,.12,.12,.25,.24,.38,.36,.72,.65,1.6,1.26,2.49,1.79h0c-.58,.06-1.14,.15-1.68,.27-2.15,.51-3.95,1.67-4.86,4.34-.03,.08-.04,.16-.05,.24,0,.14,.02,.29,.07,.43,.07,.21,.21,.41,.37,.56,.16,.15,.36,.26,.56,.29,.42,.07,.85,.12,1.27,.16,3.77,.35,7.73-.42,10.59-2.96,8.21,2.15,16.04,4.87,22.87,10.26,4.76,3.75,8.89,8.2,12.77,12.84-1.99-4.71-3.74-9.55-5.03-14.46-1.19-.93-2.4-1.83-3.64-2.68Z" style="fill:#0099a9;"/><path d="M342.25,145.59c-1.1-.74-2.45-.44-3.15,.41-.31,.27-.52,.67-.52,1.22,.02,1.86,.62,3.66,1.82,5.09,1.51,1.79,4.12,.61,4.1-1.64,0-.93-.35-1.89-.7-2.74-.36-.86-.75-1.8-1.55-2.34Z" style="fill:#fff;"/><path d="M346.09,130.5c-1.1-.74-2.45-.44-3.15,.41-.31,.27-.52,.67-.52,1.22,.02,1.86,.62,3.66,1.82,5.09,1.51,1.79,4.12,.61,4.1-1.64,0-.93-.35-1.89-.7-2.74-.36-.86-.75-1.8-1.55-2.34Z" style="fill:#fff;"/><path d="M356.02,146.67c0-.93-.35-1.89-.7-2.74-.36-.86-.75-1.8-1.55-2.34-1.1-.74-2.45-.44-3.15,.41-.31,.27-.52,.67-.52,1.22,.02,1.86,.62,3.66,1.82,5.09,1.51,1.79,4.12,.61,4.1-1.64Z" style="fill:#fff;"/><path d="M32.85,106.61c0-.93-.35-1.89-.7-2.74-.36-.86-.75-1.8-1.55-2.34-1.1-.74-2.45-.44-3.15,.41-.31,.27-.52,.67-.52,1.22,.02,1.86,.62,3.66,1.82,5.09,1.51,1.79,4.12,.61,4.1-1.64Z" style="fill:#fff;"/><path d="M36.69,91.51c0-.93-.35-1.89-.7-2.74-.36-.86-.75-1.8-1.55-2.34-1.1-.74-2.45-.44-3.15,.41-.31,.27-.52,.67-.52,1.22,.02,1.86,.62,3.66,1.82,5.09,1.51,1.79,4.12,.61,4.1-1.64Z" style="fill:#fff;"/><path d="M44.37,102.6c0-.93-.35-1.89-.7-2.74-.36-.86-.75-1.8-1.55-2.34-1.1-.74-2.45-.44-3.15,.41-.31,.27-.52,.67-.52,1.22,.02,1.86,.62,3.66,1.82,5.09,1.51,1.79,4.12,.61,4.1-1.64Z" style="fill:#fff;"/><path d="M403.62,151c-1.41-.95-3.14-.57-4.05,.53-.4,.35-.67,.86-.66,1.56,.02,2.38,.8,4.7,2.34,6.53,1.94,2.3,5.29,.78,5.26-2.1-.01-1.19-.44-2.43-.89-3.51-.46-1.11-.97-2.31-1.99-3Z" style="fill:#fff;"/><path d="M411.44,138.14c-.01-1.19-.44-2.43-.89-3.51-.46-1.11-.97-2.31-1.99-3-1.41-.95-3.14-.57-4.05,.53-.4,.35-.67,.86-.66,1.56,.02,2.38,.8,4.7,2.34,6.53,1.94,2.3,5.29,.78,5.26-2.1Z" style="fill:#fff;"/><path d="M414.61,164.9c-1.41-.95-3.14-.57-4.05,.53-.4,.35-.67,.86-.66,1.56,.02,2.38,.8,4.7,2.34,6.53,1.94,2.3,5.29,.78,5.26-2.1,0-1.19-.44-2.43-.89-3.51-.46-1.11-.97-2.31-1.99-3Z" style="fill:#fff;"/><path d="M418.41,145.86c-1.41-.95-3.14-.57-4.05,.53-.4,.34-.67,.86-.66,1.56,.02,2.38,.8,4.7,2.34,6.53,1.94,2.3,5.29,.78,5.26-2.1-.01-1.19-.44-2.43-.89-3.51-.46-1.11-.97-2.31-1.99-3Z" style="fill:#fff;"/><path d="M423.3,124.16c-1.41-.95-3.14-.57-4.05,.53-.4,.35-.67,.86-.66,1.56,.02,2.38,.8,4.7,2.34,6.53,1.94,2.3,5.29,.78,5.26-2.1-.01-1.19-.44-2.43-.89-3.51-.46-1.11-.97-2.31-1.99-3Z" style="fill:#fff;"/><path d="M78.16,80.78c-1.41-.95-3.14-.57-4.05,.53-.4,.35-.67,.86-.66,1.56,.02,2.38,.8,4.7,2.34,6.53,1.94,2.3,5.29,.78,5.26-2.1-.01-1.19-.44-2.43-.89-3.51-.46-1.11-.97-2.31-1.99-3Z" style="fill:#fff;"/><path d="M85.98,67.92c0-.87-.24-1.76-.54-2.6-.59-.12-1.18-.23-1.77-.35-.65-.13-1.31-.25-1.97-.39-.52-.11-1.03-.22-1.54-.33-.59-.12-1.17-.26-1.76-.39,.1,2.25,.86,4.42,2.32,6.15,1.94,2.3,5.29,.78,5.26-2.1Z" style="fill:#fff;"/><path d="M92.95,75.64c-1.41-.95-3.14-.57-4.05,.53-.4,.35-.67,.86-.66,1.56,.02,2.38,.8,4.7,2.34,6.53,1.94,2.3,5.29,.78,5.26-2.1-.01-1.19-.44-2.43-.89-3.51-.46-1.11-.97-2.31-1.99-3Z" style="fill:#fff;"/><path d="M113.3,79.64c-1.41-.95-3.14-.57-4.05,.53-.4,.35-.67,.86-.66,1.56,.02,2.38,.8,4.7,2.34,6.53,1.94,2.3,5.29,.78,5.26-2.1-.01-1.19-.44-2.43-.89-3.51-.46-1.11-.97-2.31-1.99-3Z" style="fill:#fff;"/><path d="M79.25,261.49c.73-.95,1.51-2,1.59-3.24,.11-1.7-1.09-3-2.5-3.23-.5-.17-1.08-.14-1.68,.21-1.75,1.04-3.18,2.54-4.06,4.36,1.35,1.49,2.72,2.96,4.12,4.4,1-.61,1.83-1.58,2.53-2.5Z" style="fill:#fff;"/><path d="M97.57,249.53c-.5-.17-1.08-.14-1.68,.21-2.05,1.22-3.66,3.05-4.46,5.31-1.01,2.84,1.99,4.96,4.47,3.49,1.03-.61,1.87-1.6,2.59-2.54,.73-.95,1.51-2,1.59-3.24,.11-1.7-1.09-3-2.5-3.23Z" style="fill:#fff;"/><path d="M107.69,269.22c-.5-.17-1.08-.14-1.68,.21-2.05,1.22-3.66,3.05-4.46,5.31-1.01,2.84,1.99,4.96,4.47,3.49,1.03-.61,1.87-1.6,2.59-2.54,.73-.95,1.51-2,1.59-3.24,.11-1.7-1.09-3-2.5-3.23Z" style="fill:#fff;"/><path d="M91.14,271.69c.73-.95,1.51-2,1.59-3.24,.11-1.7-1.09-3-2.5-3.23-.5-.17-1.08-.14-1.68,.21-2.05,1.22-3.66,3.05-4.46,5.31-.04,.12-.07,.25-.1,.37,1.26,1.17,2.53,2.31,3.82,3.44,.25-.08,.5-.18,.74-.32,1.03-.61,1.87-1.6,2.59-2.54Z" style="fill:#fff;"/><path d="M299.76,98.04c14.18-13.24,28.73-26.31,46.78-34,.12-.05,.21-.12,.32-.18-.86,.13-1.72,.27-2.58,.4-2.22,.33-4.44,.65-6.67,.96,0,0,0,0,0,0-.88,.12-1.75,.25-2.63,.37-.16,.02-.32,.04-.48,.06-2.53,.34-5.07,.67-7.61,.99-.47,.06-.94,.11-1.42,.17-11.22,7.44-21.3,16.62-31.14,25.81-3.62,3.38,1.82,8.79,5.42,5.42Z" style="fill:#007678;"/><path d="M249.81,94.23c-11.59-7.4-23.82-13.66-36.56-18.73-1.94,.04-3.89,.09-5.83,.11-.04,0-.08,0-.11,0-2.94,.04-5.88,.07-8.82,.07-2.14,0-4.28,0-6.42-.01,.43,.5,1.01,.91,1.79,1.14,.13,.04,.26,.09,.39,.13,18.29,5.6,35.57,13.61,51.68,23.91,4.17,2.67,8.02-3.97,3.87-6.62Z" style="fill:#007678;"/><path d="M347.19,205.48c-3.21-3.76-8.62,1.69-5.42,5.42,12.22,14.3,25.71,27.37,40.34,39.16,.32-.46,.64-.92,.96-1.39,.37-.55,.76-1.09,1.13-1.65,.04-.06,.08-.12,.11-.18,.7-1.05,1.37-2.11,2.06-3.16-14.19-11.54-27.29-24.3-39.18-38.21Z" style="fill:#007678;"/><path d="M297.86,304.29c.47-.04,.94-.08,1.42-.12,0,0,.01,0,.02,0,.14-.01,.29-.03,.43-.04,1.04-.1,2.09-.2,3.13-.3,.87-.08,1.74-.17,2.62-.25-16.1-13.44-33.04-25.82-50.77-37.04-4.18-2.65-8.04,3.99-3.87,6.62,15.2,9.62,29.81,20.1,43.79,31.4,0,0,0,0,0,0,1.07-.09,2.15-.18,3.22-.27Z" style="fill:#007678;"/><path d="M45.76,172.65c3.68-3.31-1.76-8.72-5.42-5.42-4.35,3.92-8.36,8.15-12.05,12.66,.22,.65,.44,1.3,.67,1.95,.18,.51,.36,1.03,.54,1.54,.17,.49,.34,.98,.52,1.47,.43,1.19,.87,2.38,1.3,3.57,4.28-5.72,9.1-10.96,14.44-15.77Z" style="fill:#007678;"/><path d="M179.08,306.07c.96,.08,1.92,.15,2.88,.22,.61,.04,1.23,.08,1.84,.12,.23,.02,.45,.03,.68,.04,.4,.03,.81,.06,1.21,.09,0,0,0,0,0-.01,.32-1.93,.67-3.86,1.06-5.78,.98-4.82-6.41-6.88-7.4-2.04-.49,2.42-.92,4.85-1.31,7.28,0,0,0,0,0,0,.35,.03,.69,.05,1.04,.07Z" style="fill:#007678;"/></g></g></svg>