<?xml version="1.0" encoding="UTF-8"?><svg id="Layer_2" xmlns="http://www.w3.org/2000/svg" viewBox="0 0 652.51 371.86"><g id="Layer_1-2"><g><path d="M67.46,96.81c.65-.99,1.51-1.85,2.57-2.5,1.73-1.05,3.72-1.25,5.58-.8,1.11,.15,2.18,.63,3.09,1.32,19.15-6.86,39.89-8.15,59.62-4.15,7.98-1.8,16.06-3.23,24.2-4.34,3.22-.44,6.45-.84,9.68-1.21,8.08-.93,16.19-1.66,24.31-2.26,1.93-.14,3.86-.28,5.79-.4,6.66-.44,13.33-.81,20-1.12,4.18-.2,8.37-.38,12.54-.55,25.9-1.04,51.45,.09,77.12,3.68,4.19,.59,8.39,1.21,12.58,1.85-.07-2.89,1.36-5.75,3.97-7.34,1.73-1.05,3.72-1.25,5.58-.8,1.66,.22,3.24,1.17,4.29,2.48,.46,.49,.87,1.02,1.19,1.6,1.17,2.09,1.18,4.49,.39,6.56,3.02,.52,6.04,1.06,9.05,1.63,8.38,1.56,16.74,3.28,25.05,5.2,4.86,1.12,9.69,2.32,14.51,3.59,3.65,.96,7.28,1.97,10.9,3.02,9.95,2.88,19.78,6.13,29.46,9.77,13.68-10.73,29.02-19.17,45.28-25.06-1.34-.69-2.5-1.73-3.23-3.1-2.06-3.86-.71-8.72,3.01-10.99,1.73-1.05,3.72-1.25,5.58-.8,1.66,.22,3.24,1.17,4.29,2.48,.46,.49,.87,1.02,1.19,1.6,1.3,2.34,1.17,5.07,.07,7.29,10.18-2.9,20.64-4.84,31.22-5.7,4.8-.8,9.63-1.42,14.5-1.82,3.1-11.64,6.21-25.03-2.83-34.83-.94-1.02-1.95-1.96-3-2.83,.44,3.71-1.88,7.53-5.54,8.57-3.48,1.19-7.66-.31-9.42-3.61-2.06-3.86-.71-8.72,3.01-10.99,.13-.08,.26-.14,.4-.21-5.21-1.8-10.79-2.76-16.17-3.35-10.49-1.15-21.82-2.26-32.83-1.57,.09,.13,.18,.26,.26,.4,2.42,4.35-.07,10.02-4.66,11.32-3.48,1.19-7.66-.31-9.42-3.61-1-1.88-1.19-4-.7-5.95-6.58,1.66-12.84,4.32-18.48,8.44-2.17,1.58-5.22,.63-7.04-.91-13.44-11.32-30.61-17.94-48.12-19.07-1.06-.07-2.13-.12-3.19-.15,.09,.1,.18,.2,.27,.3,.46,.49,.87,1.02,1.19,1.6,2.42,4.35-.07,10.02-4.66,11.32-3.48,1.19-7.66-.31-9.42-3.61-1.62-3.03-1.13-6.67,.96-9.2-3.74,.38-7.45,1-11.12,1.89-3.91,.96-7.8,2.17-11.52,3.7-3.87,1.59-7.36,4.58-11.64,3.36-5.09-1.45-10.04-4.36-15.04-6.21-4.66-1.72-9.38-3.27-14.16-4.61-10.32-2.88-20.9-4.73-31.64-4.89-.23,0-.46,0-.68,0,.04,.07,.1,.14,.14,.21,2.42,4.35-.07,10.02-4.66,11.32-3.48,1.19-7.66-.31-9.42-3.61-1.19-2.23-1.24-4.79-.35-6.99-13.96,1.97-27.45,7.1-38.44,16.13-2.1,1.72-4.54,2.22-7.04,.91-16.85-8.81-35.91-12.1-54.79-10.21-7.65,.76-15.29,2.52-22.57,5.1,.85,.44,1.61,1.06,2.21,1.8,.46,.49,.87,1.02,1.19,1.6,2.42,4.35-.07,10.02-4.66,11.32-3.48,1.19-7.66-.31-9.42-3.61-1.06-1.99-1.21-4.24-.61-6.26-2.02,1.04-4.01,2.15-5.95,3.33-3.37,2.05-6.95,5.95-11.09,5.66-4.07-.29-8.07-1.52-12.19-1.76-4.35-.26-8.73-.17-13.07,.28-8.71,.91-17.45,3.36-25.4,7.02-13.35,6.16-24.78,15.59-33,27.62,19.23,2.56,37.39,11.44,50.92,25.7ZM400.42,62.95c1.73-1.05,3.72-1.25,5.58-.8,1.66,.22,3.24,1.17,4.29,2.48,.46,.49,.87,1.02,1.19,1.6,2.42,4.35-.07,10.02-4.66,11.32-3.48,1.19-7.66-.31-9.42-3.61-2.06-3.86-.71-8.72,3.01-10.99Zm-125.96-18.73c1.73-1.05,3.72-1.25,5.58-.8,1.66,.22,3.24,1.17,4.29,2.48,.46,.49,.87,1.02,1.19,1.6,2.42,4.35-.07,10.02-4.66,11.32-3.48,1.19-7.66-.31-9.42-3.61-2.06-3.86-.71-8.72,3.01-10.99Zm-83.5,5.05c1.73-1.05,3.72-1.25,5.58-.8,1.66,.22,3.24,1.17,4.29,2.48,.46,.49,.87,1.02,1.19,1.6,2.42,4.35-.07,10.02-4.66,11.32-3.48,1.19-7.66-.31-9.42-3.61-2.06-3.86-.71-8.72,3.01-10.99Zm-62.12,21.7c1.73-1.05,3.72-1.25,5.58-.8,1.66,.22,3.24,1.17,4.29,2.48,.46,.49,.87,1.02,1.19,1.6,2.42,4.35-.08,10.02-4.66,11.32-3.48,1.19-7.66-.31-9.42-3.61-2.06-3.86-.71-8.72,3.01-10.99Zm-67.97-4.12c-3.48,1.19-7.66-.31-9.42-3.61-2.06-3.86-.71-8.72,3.01-10.99,1.73-1.05,3.72-1.25,5.58-.8,1.66,.22,3.24,1.17,4.29,2.48,.46,.49,.87,1.02,1.19,1.6,2.42,4.35-.07,10.02-4.66,11.32Z" style="fill:#ffb003;"/><path d="M418.83,120.68s.04-.03,.06-.05c-.29-.1-.58-.21-.87-.32,.27,.12,.54,.25,.82,.37Z" style="fill:#ffbfad;"/><path d="M644.97,57.61c-6.62-3.12-13.9-.51-17.99,4.89-6.44-3.71-14.17-4.78-22.17-3.69-15.4,2.11-30,10.41-42.53,19.21-8.89,6.24-17.18,13.25-25.22,20.53-2.05,1.86-4.09,3.73-6.12,5.61-1.84,3.34-3.53,6.76-5.11,10.23-.87,1.91-1.7,3.84-2.5,5.78-.68,1.66-1.34,3.34-1.98,5.02-.46,1.22-.92,2.45-1.36,3.68,1.6,.29,3.34-.07,4.89-1.43,2.43-2.15,4.88-4.26,7.35-6.35,5.08-4.3,10.27-8.48,15.55-12.54,3.03-2.32,6.08-4.61,9.18-6.85,9.93-7.16,20.4-15.21,32.01-19.41,11.2-4.06,24.89-3.77,32.45,6.72,6.1,8.47,6.93,19.95,5.54,29.97-3.48,25.1-20.26,45.7-37.65,62.99-17.34,17.23-35.58,34.47-56.16,47.79-11.61,7.52-24.01,13.57-37.39,17.2-4.96,1.34-10.73,2.34-16.08,4.06-.95,1.83-1.91,3.66-2.91,5.47-2.92,5.29-6.05,10.48-9.39,15.54,1.27,1.35,3.14,2.13,5.45,1.62,52.84-11.76,100.37-42.62,135.03-83.9,18-21.44,35.62-46.68,38.4-75.31,1.07-11.02-.41-23.32-4.87-33.92,2.15,.06,4.37-.54,6.35-2,7.76-5.69,5.45-17.06-2.79-20.94Z" style="fill:#0099a9;"/><path d="M479.7,251.05c12.54-24.25,20.55-50.15,27.31-76.58,2.45-9.57,4.86-19.29,7.65-28.9-12.06-5.32-18.71-19.9-13.6-33.06,5.25-13.51,21-20.05,33.8-14.95,1.78-2.82,3.67-5.58,5.71-8.27-29.11-2.11-58.25,4.31-83.59,18.12,.04,.1,.1,.19,.13,.31,4.55,18.71,1.45,38.06-8.69,54.26,10.82-9.87,25.75-19.26,40.27-17.68,2.76,.3,2.86,3.68,1.22,5.22-6.87,6.45-14.01,12.63-22.38,17.07-2.88,1.53-7.64,3.95-12.27,5.25,7.1,14.77-2.08,32.87-18.4,36.15-16.94,3.4-33.56-11.09-30.97-28.56,.17-1.17,.42-2.29,.74-3.36,.47-3.31,1.99-6.55,4.86-9.75,6.97-7.77,17.51-10.49,26.85-8.18-3.92-14.5-3.41-30.23,4.96-42.27-5.82,4.04-11.38,8.49-16.6,13.37-.77,.72-1.6,1.17-2.44,1.4-1.36,2.73-4.62,4.62-8.08,2.74-11.13-6.06-23.22-10-35.58-11.83-3.76,.95-7.68,1.11-11.48,.44,6.32,18.34,5.43,39.24-10.79,52.6-1.31,1.08-3.92,.82-4.51-1.03-5.61-17.74-4.13-36.57,4.12-53.02-.29,.02-.58,.04-.88,.06-9.98,9.94-23.45,19.17-37.24,18.62-2.77-.11-3.1-3.47-1.57-5.12,1.92-2.07,3.87-4.1,5.87-6.09-3.93,1.56-7.78,3.35-11.53,5.39-1.37,.75-2.71,.9-3.91,.64-1.09,.14-2.28-.05-3.49-.71-31.09-16.85-67.43-21.55-101.63-13.89,2.77,12.3,1.16,25.07-7.77,35.85-1.08,1.31-3.7,1.55-4.62-.16-5.23-9.65-8.1-20.13-8.55-30.75-.46-.19-.88-.45-1.25-.77-.73-.23-1.45-.61-2.13-1.19-2.31-1.95-4.73-3.77-7.21-5.47-6.06,5.52-13.05,9.71-20.73,10.87-2.74,.41-3.7-2.83-2.51-4.73,2.99-4.79,6.12-9.5,9.64-13.89-24.39-11.34-53.41-12.42-78.49-2.5-2.01,.8-4,1.66-5.96,2.6-1.1,.53-2.19,1.07-3.27,1.64-2.11,1.12-5.4,1.13-7.04-.91-15.15-18.84-38.98-29.75-63.07-28.13,.33,.56,.79,1.1,1.43,1.59,14.55,11.29,24.8,25.39,32.64,40.96,.72-.34,1.45-.66,2.18-.93,2.94-1.59,6.45-2.28,10.74-1.86,10.39,1.01,18.83,7.89,22.49,16.78,12.09-15.17,30.2-25.63,50.18-19.1,1.61,.53,2.8,2.87,1.55,4.36-12.38,14.75-29.8,23.72-48.86,25.15,14.37,2.87,30.77,9.33,38.11,21.96,1.39,2.4-1.27,4.48-3.48,4.07-9.27-1.71-18.48-3.8-27.02-7.91-2.94-1.41-7.71-3.81-11.5-6.78-3.57,6.72-9.79,11.03-16.67,12.61,5.38,18.84,10.04,37.93,16.44,55.56,1.6,4.42,3.35,8.76,5.22,13.02,4.05-3.43,9.19-5.69,14.94-6.07,17.24-1.13,31.8,15.43,26.91,32.41-.33,1.13-.72,2.21-1.18,3.24-.9,3.22-2.84,6.23-6.11,9.03-2.29,1.96-4.83,3.45-7.5,4.51,3.5,3.96,7.24,7.76,11.24,11.36,16.99,15.31,36.94,26.92,58.15,35.3,.85,.34,1.7,.68,2.55,1,.42,2.85,.85,5.7,1.27,8.55,.29,1.94,.58,3.89,.87,5.83,.56,3.77,.74,7.76,3.39,10.77,4.93,5.6,16.56,6.65,23.44,8.17,18.59,4.1,37.66,5.98,56.67,6.32,10.58,.19,21.15-.1,31.7-.71,7.46-.43,14.91-1.04,22.35-1.76,1.21-.12,2.42-.23,3.63-.36,4.98-.51,9.95-1.08,14.92-1.68,14.39-1.75,28.74-3.83,43.05-5.91,2.44-.35,4.32-3.29,4.27-5.6-.05-2.34-.1-4.67-.16-7.01-.05-2.44-.11-4.89-.16-7.33,1.68-.54,3.35-1.11,5.02-1.71,11.1-3.96,21.76-9.02,31.78-15.27-6.83-1.87-12.88-6.46-16.1-13.57-.49-1.07-.88-2.15-1.2-3.23-1.4-3.04-1.88-6.58-1.2-10.83,1.65-10.31,9.04-18.3,18.14-21.41-14.4-13-23.71-31.73-15.96-51.27,.63-1.58,3.04-2.62,4.44-1.28,13.95,13.27,21.83,31.21,22.08,50.32,3.75-14.16,11.21-30.13,24.28-36.67,2.48-1.24,4.39,1.55,3.85,3.73-2.28,9.14-4.94,18.21-9.57,26.47-1.59,2.85-4.28,7.46-7.47,11.06,6.97,4.27,10.98,11.44,11.77,18.99,7.06-7.69,13.48-15.99,19.24-24.71,3.34-5.06,6.48-10.25,9.39-15.54,1-1.81,1.97-3.64,2.91-5.47Zm-322.67,1.32c-1.03-.57-1.99-1.2-2.89-1.87-2.94-1.6-5.43-4.16-7.42-7.98-4.83-9.25-3.67-20.08,1.78-28.01-19.31-1.84-37.96-11.31-43.4-31.62-.44-1.64,.87-3.91,2.8-3.68,19.11,2.32,36.15,12.02,47.74,27.2-5.44-13.6-8.98-30.87-2.4-43.92,1.25-2.48,4.45-1.38,5.31,.69,3.62,8.7,6.9,17.56,8.12,26.95,.42,3.24,1.02,8.54,.6,13.34,16.32-1.46,30.05,13.5,27.39,29.93-2.76,17.05-22.17,27.53-37.62,18.96Zm98.1,11.52c-5.1,7.92-10.53,15.65-17.57,21.99-2.42,2.18-6.45,5.69-10.63,8.07,10.47,12.61,5.96,32.4-9.08,39.54-15.6,7.41-35.25-2.62-36.97-20.2-.11-1.17-.14-2.32-.1-3.44-.35-3.33,.34-6.84,2.35-10.64,4.87-9.23,14.44-14.43,24.06-14.44-9.45-16.94-12.24-37.67,1.38-53.68,1.1-1.29,3.72-1.5,4.62,.22,8.95,17.05,10.64,36.58,4.72,54.74,8.11-12.2,20.31-24.93,34.78-26.92,2.75-.38,3.66,2.88,2.44,4.77Zm7.74-25.5c-.88,1.45-3.43,2.07-4.6,.51-11.51-15.43-16.25-34.45-13.27-53.32-6.09,13.33-16.14,27.81-30.12,32.05-2.66,.81-4.07-2.26-3.16-4.32,3.79-8.63,7.94-17.11,13.9-24.48,2.05-2.54,5.48-6.63,9.23-9.64-12.32-10.8-10.97-31.06,2.76-40.47,14.25-9.77,35.22-2.96,39.68,14.14,.3,1.14,.51,2.27,.64,3.38,.87,3.23,.74,6.8-.65,10.88-3.36,9.88-12,16.52-21.49,18.05,11.99,15.25,18.01,35.28,7.08,53.23Zm92.12,103.06c-6.73,.34-13.47,.61-20.21,.83-1.93,.06-3.86,.12-5.8,.17-.61,.02-1.22,.03-1.84,.05-2.95,.07-5.9,.14-8.85,.19-4.86,.08-9.72,.13-14.59,.13-2.24-11.02,2.96-23.17,13.94-28.57,15.51-7.61,35.28,2.15,37.23,19.71,.13,1.17,.17,2.32,.14,3.44,.16,1.31,.14,2.66-.04,4.04Zm10.89-96.84c-8.06,4.88-16.33,9.45-25.44,12.06-3.14,.9-8.29,2.28-13.1,2.59,3.88,15.92-8.85,31.73-25.5,31.55-17.27-.18-30.54-17.81-24.37-34.36,.41-1.1,.89-2.15,1.42-3.14,1.14-3.14,3.3-5.99,6.78-8.53,8.43-6.16,19.3-6.63,27.96-2.43-1.07-19.37,5.51-39.22,24.77-47.64,1.56-.68,4,.28,4.06,2.22,.57,19.25-6.47,37.54-19.76,51.27,12.63-7.41,29.18-13.5,43.06-8.94,2.64,.87,2.03,4.19,.11,5.35Z" style="fill:#ff8199;"/><path d="M164.5,203.88c.93-.19,1.86-.31,2.78-.39,.41-4.8-.18-10.1-.6-13.34-1.22-9.39-4.5-18.26-8.12-26.95-.86-2.08-4.06-3.17-5.31-.69-6.58,13.05-3.04,30.32,2.4,43.92-11.6-15.19-28.63-24.88-47.74-27.2-1.93-.23-3.24,2.04-2.8,3.68,5.44,20.3,24.09,29.77,43.4,31.62,3.61-5.25,9.1-9.24,16-10.63Z" style="fill:#0099a9;"/><path d="M194.66,233.41c2.66-16.43-11.06-31.39-27.39-29.93-.92,.08-1.84,.21-2.78,.39-6.9,1.4-12.39,5.38-16,10.63-5.45,7.93-6.61,18.75-1.78,28.01,1.99,3.82,4.49,6.38,7.42,7.98,.9,.67,1.86,1.3,2.89,1.87,15.45,8.57,34.86-1.91,37.62-18.96Zm-20.67,5.99c-1.9-1.3-3.8-2.59-5.7-3.89-.65,1.72-1.29,3.44-1.94,5.17-1.31,3.47-6.92,1.96-5.6-1.54,.87-2.33,1.75-4.65,2.62-6.98-2.12-1.44-4.24-2.89-6.35-4.33-3.08-2.1-.16-7.13,2.93-5.02,1.84,1.25,3.68,2.51,5.52,3.76,.89-2.38,1.79-4.76,2.69-7.14,1.31-3.47,6.92-1.96,5.6,1.55-1.12,2.98-2.24,5.97-3.37,8.95,2.18,1.49,4.36,2.97,6.54,4.46,3.08,2.1,.17,7.13-2.93,5.02Z" style="fill:#fff;"/><path d="M176.92,234.39c-2.18-1.49-4.36-2.97-6.54-4.46,1.12-2.98,2.24-5.97,3.37-8.95,1.32-3.5-4.3-5.02-5.6-1.55-.89,2.38-1.79,4.76-2.69,7.14-1.84-1.25-3.68-2.51-5.52-3.76-3.1-2.11-6.01,2.92-2.93,5.02,2.12,1.44,4.23,2.89,6.35,4.33-.87,2.33-1.75,4.65-2.62,6.98-1.32,3.5,4.3,5.02,5.6,1.54,.65-1.72,1.29-3.44,1.94-5.17,1.9,1.3,3.8,2.59,5.7,3.89,3.1,2.11,6.01-2.92,2.93-5.02Z" style="fill:#ff4300;"/><path d="M237.06,180.92c-.78-.54-1.51-1.13-2.2-1.74-3.76,3.01-7.18,7.1-9.23,9.64-5.96,7.37-10.11,15.86-13.9,24.48-.91,2.06,.51,5.13,3.16,4.32,13.98-4.24,24.03-18.73,30.12-32.05-2.99,18.87,1.75,37.89,13.27,53.32,1.16,1.56,3.71,.94,4.6-.51,10.94-17.95,4.92-37.98-7.08-53.23-6.29,1.01-12.97-.21-18.74-4.24Z" style="fill:#0099a9;"/><path d="M277.29,167.11c1.39-4.08,1.52-7.65,.65-10.88-.13-1.12-.34-2.24-.64-3.38-4.46-17.09-25.44-23.91-39.68-14.14-13.73,9.41-15.08,29.67-2.76,40.47,.69,.61,1.42,1.19,2.2,1.74,5.77,4.03,12.44,5.25,18.74,4.24,9.5-1.53,18.13-8.16,21.49-18.05Zm-12.12-7.81c-2.29,.97-4.57,1.94-6.86,2.92,.42,2.53,.83,5.06,1.25,7.59,.61,3.67-5.05,5.04-5.66,1.34-.36-2.2-.72-4.39-1.09-6.59-2.34,1-4.68,1.99-7.02,2.99-3.42,1.45-6.2-3.66-2.75-5.12,2.93-1.25,5.87-2.5,8.8-3.74-.43-2.6-.86-5.2-1.29-7.81-.61-3.67,5.05-5.04,5.66-1.34,.37,2.27,.75,4.54,1.12,6.81,1.69-.72,3.39-1.44,5.08-2.16,3.42-1.45,6.2,3.66,2.75,5.12Z" style="fill:#fff;"/><path d="M262.42,154.18c-1.69,.72-3.39,1.44-5.08,2.16-.37-2.27-.75-4.54-1.12-6.81-.61-3.7-6.26-2.33-5.66,1.34,.43,2.6,.86,5.2,1.29,7.81-2.93,1.25-5.87,2.5-8.8,3.74-3.45,1.47-.67,6.57,2.75,5.12,2.34-1,4.68-1.99,7.02-2.99,.36,2.2,.72,4.39,1.09,6.59,.61,3.7,6.26,2.33,5.66-1.34-.42-2.53-.83-5.06-1.25-7.59,2.29-.97,4.57-1.94,6.86-2.92,3.45-1.47,.67-6.57-2.75-5.12Z" style="fill:#ff4300;"/><path d="M70.25,157.66c-.35,.88-.75,1.73-1.19,2.54,3.79,2.97,8.56,5.36,11.5,6.78,8.54,4.11,17.75,6.2,27.02,7.91,2.21,.41,4.87-1.67,3.48-4.07-7.34-12.64-23.74-19.1-38.11-21.96,19.05-1.42,36.48-10.4,48.86-25.15,1.25-1.49,.06-3.83-1.55-4.36-19.98-6.53-38.1,3.93-50.18,19.1,2.43,5.89,2.77,12.67,.17,19.21Z" style="fill:#0099a9;"/><path d="M69.06,160.2c.43-.81,.83-1.66,1.19-2.54,2.6-6.54,2.26-13.32-.17-19.21-3.67-8.89-12.11-15.77-22.49-16.78-4.29-.41-7.79,.28-10.74,1.86-.73,.27-1.46,.58-2.18,.93,1.67,3.32,3.24,6.7,4.7,10.14,1.05-.66,2.42-.66,3.39,.66,1.47,2,2.94,4,4.41,6.01,2.37-.99,4.73-1.97,7.1-2.96,3.44-1.43,6.06,3.75,2.6,5.2-2.06,.86-4.11,1.71-6.17,2.57,1.51,2.05,3.01,4.1,4.52,6.15,2.2,2.99-2.14,6.87-4.35,3.85-1.89-2.57-3.78-5.14-5.66-7.71-.14,.06-.29,.12-.43,.18,2.81,7.95,5.28,16.08,7.62,24.26,6.88-1.58,13.1-5.89,16.67-12.61Z" style="fill:#fff;"/><path d="M50.87,156.08c2.22,3.02,6.55-.86,4.35-3.85-1.51-2.05-3.01-4.1-4.52-6.15,2.05-.86,4.11-1.71,6.17-2.57,3.46-1.44,.83-6.63-2.6-5.2-2.37,.99-4.73,1.97-7.1,2.96-1.47-2-2.94-4-4.41-6.01-.97-1.32-2.33-1.32-3.39-.66,1.95,4.56,3.74,9.22,5.41,13.95,.14-.06,.29-.12,.43-.18,1.89,2.57,3.78,5.14,5.66,7.71Z" style="fill:#ff4300;"/><path d="M114.73,270.97c.45-1.03,.85-2.11,1.18-3.24,4.89-16.98-9.68-33.54-26.91-32.41-5.75,.38-10.89,2.63-14.94,6.07,2.6,5.92,5.48,11.68,8.66,17.25,2.78,.37,5.55,.74,8.33,1.12,.96-2.46,1.92-4.91,2.88-7.37,1.35-3.47,6.91-1.76,5.55,1.73-.84,2.14-1.67,4.29-2.51,6.43,1.82,.24,3.65,.49,5.47,.73,3.68,.49,3.46,6.31-.25,5.81-2.46-.33-4.92-.66-7.39-.99-.92,2.35-1.84,4.71-2.76,7.06,2.83,3.92,5.86,7.7,9.09,11.34,2.66-1.06,5.2-2.55,7.5-4.51,3.27-2.8,5.21-5.8,6.11-9.03Z" style="fill:#fff;"/><path d="M86.52,264.99c.51,.8,1.04,1.59,1.56,2.39,.27-.69,.54-1.38,.81-2.07-.79-.11-1.58-.21-2.37-.32Z" style="fill:#a8d5f3;"/><path d="M102.19,267.09c3.71,.5,3.93-5.31,.25-5.81-1.82-.24-3.65-.49-5.47-.73,.84-2.14,1.67-4.29,2.51-6.43,1.36-3.49-4.19-5.2-5.55-1.73-.96,2.46-1.92,4.91-2.88,7.37-2.78-.37-5.55-.75-8.33-1.12,1.22,2.14,2.48,4.27,3.8,6.35,.79,.11,1.58,.21,2.37,.32-.27,.69-.54,1.38-.81,2.07,1.28,1.95,2.6,3.89,3.97,5.79,.92-2.35,1.84-4.71,2.76-7.06,2.46,.33,4.92,.66,7.39,.99Z" style="fill:#ff4300;"/><path d="M433.93,276.43c.86,.41,1.68,.86,2.46,1.34,3.19-3.6,5.88-8.21,7.47-11.06,4.63-8.27,7.28-17.33,9.57-26.47,.54-2.18-1.37-4.97-3.85-3.73-13.07,6.54-20.53,22.51-24.28,36.67-.24-19.1-8.12-37.05-22.08-50.32-1.41-1.34-3.82-.3-4.44,1.28-7.75,19.54,1.56,38.27,15.96,51.27,6.03-2.06,12.82-1.98,19.18,1.02Z" style="fill:#0099a9;"/><path d="M436.39,277.77c-.79-.48-1.6-.94-2.46-1.34-6.37-2.99-13.15-3.08-19.18-1.02-9.1,3.11-16.49,11.11-18.14,21.41-.68,4.25-.2,7.8,1.2,10.83,.32,1.08,.72,2.16,1.2,3.23,3.22,7.11,9.27,11.69,16.1,13.57,4.72-2.94,9.3-6.14,13.71-9.62,6.95-5.47,13.37-11.56,19.35-18.07-.79-7.55-4.8-14.72-11.77-18.99Zm-5.24,17.91c-2.68,1.73-5.36,3.45-8.04,5.18,.86,2.49,1.72,4.98,2.59,7.48,1.22,3.52-4.12,5.82-5.35,2.28-.75-2.17-1.5-4.35-2.26-6.52-1.55,1-3.09,1.99-4.64,2.99-3.12,2.01-6.72-2.56-3.57-4.58,2.09-1.34,4.18-2.69,6.27-4.03-.84-2.42-1.68-4.84-2.51-7.27-1.22-3.52,4.12-5.82,5.35-2.28,.73,2.1,1.46,4.21,2.18,6.31,2.14-1.38,4.28-2.75,6.42-4.13,3.12-2.01,6.72,2.56,3.57,4.58Z" style="fill:#fff;"/><path d="M427.57,291.09c-2.14,1.38-4.28,2.75-6.42,4.13-.73-2.1-1.46-4.21-2.18-6.31-1.23-3.54-6.57-1.24-5.35,2.28,.84,2.42,1.68,4.84,2.51,7.27-2.09,1.34-4.18,2.69-6.27,4.03-3.15,2.03,.45,6.59,3.57,4.58,1.55-1,3.09-1.99,4.64-2.99,.75,2.17,1.5,4.35,2.26,6.52,1.23,3.54,6.57,1.24,5.35-2.28-.86-2.49-1.72-4.98-2.59-7.48,2.68-1.73,5.36-3.45,8.04-5.18,3.15-2.03-.45-6.59-3.57-4.58Z" style="fill:#ff4300;"/><path d="M327.15,342.5c.61-.02,1.22-.03,1.84-.05,0-.14,0-.29,0-.43-.61,.16-1.22,.32-1.83,.48Z" style="fill:#a8d5f3;"/><path d="M354.89,333.97c-1.95-17.56-21.73-27.32-37.23-19.71-10.99,5.4-16.19,17.55-13.94,28.57,4.86,0,9.72-.05,14.59-.13-.99-1.46-.84-3.62,1.32-4.19,3.08-.81,6.17-1.62,9.25-2.44-.05-2.64-.1-5.27-.15-7.91-.07-3.72,5.72-4.26,5.79-.51,.04,2.3,.09,4.6,.13,6.9,1.78-.47,3.56-.94,5.34-1.41,3.59-.95,5.6,4.51,1.98,5.46-2.4,.63-4.81,1.27-7.21,1.9,.01,.59,.02,1.19,.03,1.78,6.74-.22,13.48-.5,20.21-.83,.19-1.38,.2-2.73,.04-4.04,.03-1.12-.01-2.27-.14-3.44Z" style="fill:#fff;"/><path d="M341.95,338.6c3.62-.95,1.61-6.41-1.98-5.46-1.78,.47-3.56,.94-5.34,1.41-.04-2.3-.09-4.6-.13-6.9-.07-3.75-5.86-3.21-5.79,.51,.05,2.64,.1,5.27,.15,7.91-3.08,.81-6.17,1.62-9.25,2.44-2.16,.57-2.3,2.73-1.32,4.19,2.95-.05,5.9-.12,8.85-.19,.61-.16,1.22-.32,1.83-.48,0,.14,0,.29,0,.43,1.93-.05,3.86-.11,5.8-.17-.01-.59-.02-1.19-.03-1.78,2.4-.63,4.81-1.27,7.21-1.9Z" style="fill:#ff4300;"/><path d="M148.79,123.1c-1.19,1.91-.24,5.15,2.51,4.73,7.68-1.16,14.67-5.35,20.73-10.87-4.32-2.96-8.87-5.55-13.6-7.75-3.52,4.39-6.64,9.1-9.64,13.89Z" style="fill:#0099a9;"/><path d="M182.62,124.39c.46,10.61,3.33,21.1,8.55,30.75,.92,1.71,3.54,1.46,4.62,.16,8.93-10.78,10.54-23.55,7.77-35.85-5.8,1.3-11.54,2.94-17.17,4.95-1.45,.52-2.72,.44-3.77,0Z" style="fill:#0099a9;"/><path d="M501.06,112.51c-5.11,13.16,1.53,27.74,13.6,33.06,1.33-4.6,2.77-9.17,4.32-13.7-.58-.75-.75-1.77-.06-2.85,.81-1.27,1.62-2.54,2.44-3.81,.64-1.68,1.3-3.36,1.98-5.02-1.58-1.65-3.15-3.3-4.73-4.95-2.57-2.69,1.32-7.01,3.91-4.3,1.1,1.15,2.21,2.31,3.31,3.46,1.58-3.47,3.27-6.89,5.11-10.23,1.24-2.25,2.55-4.45,3.92-6.62-12.81-5.1-28.55,1.44-33.8,14.95Z" style="fill:#fff;"/><path d="M518.98,131.87c.34-.99,.67-1.99,1.02-2.98,.44-1.23,.89-2.46,1.36-3.68-.81,1.27-1.62,2.54-2.44,3.81-.69,1.08-.53,2.1,.06,2.85Z" style="fill:#ff4300;"/><path d="M518.61,115.25c1.58,1.65,3.15,3.3,4.73,4.95,.8-1.94,1.63-3.87,2.5-5.78-1.1-1.15-2.21-2.31-3.31-3.46-2.59-2.71-6.49,1.61-3.91,4.3Z" style="fill:#ff4300;"/><path d="M438.33,158.12c6.19,1.53,11.85,5.28,15.58,11.24,.5,.81,.94,1.63,1.34,2.46,4.64-1.3,9.39-3.72,12.27-5.25,8.37-4.44,15.51-10.63,22.38-17.07,1.64-1.54,1.54-4.92-1.22-5.22-14.53-1.58-29.45,7.81-40.27,17.68,10.14-16.19,13.24-35.55,8.69-54.26-.03-.11-.09-.21-.13-.31-4.7,2.56-9.28,5.38-13.69,8.45-8.36,12.04-8.87,27.77-4.96,42.27Z" style="fill:#0099a9;"/><path d="M438.33,158.12c-9.34-2.32-19.88,.4-26.85,8.18-2.87,3.21-4.39,6.44-4.86,9.75-.31,1.08-.57,2.2-.74,3.36-2.6,17.48,14.03,31.97,30.97,28.56,16.32-3.28,25.5-21.39,18.4-36.15-.4-.83-.84-1.65-1.34-2.46-3.73-5.97-9.39-9.71-15.58-11.24Zm2.82,25.92c-3.19,0-6.38,0-9.57,0-.62,2.56-1.25,5.12-1.88,7.69-.88,3.62-6.62,2.66-5.73-.98,.55-2.24,1.09-4.47,1.64-6.71-1.84,0-3.68,0-5.52,0-3.71,0-4.27-5.79-.52-5.79,2.48,0,4.97,0,7.45,0,.61-2.49,1.21-4.98,1.82-7.47,.88-3.62,6.62-2.66,5.73,.98-.53,2.16-1.06,4.33-1.58,6.49,2.54,0,5.09,0,7.63,0,3.71,0,4.27,5.79,.52,5.79Z" style="fill:#fff;"/><path d="M440.63,178.25c-2.54,0-5.09,0-7.63,0,.53-2.16,1.06-4.33,1.58-6.49,.89-3.64-4.85-4.6-5.73-.98-.61,2.49-1.21,4.98-1.82,7.47-2.48,0-4.97,0-7.45,0-3.74,0-3.19,5.79,.52,5.79,1.84,0,3.68,0,5.52,0-.55,2.24-1.09,4.47-1.64,6.71-.89,3.64,4.85,4.6,5.73,.98,.63-2.56,1.25-5.12,1.88-7.69,3.19,0,6.38,0,9.57,0,3.74,0,3.19-5.79-.52-5.79Z" style="fill:#ff4300;"/><path d="M318.24,134.09c-1.53,1.65-1.2,5.01,1.57,5.12,13.79,.55,27.26-8.67,37.24-18.62-11.25,.75-22.39,3.22-32.94,7.41-2,1.98-3.95,4.02-5.87,6.09Z" style="fill:#0099a9;"/><path d="M357.93,120.54c-8.25,16.45-9.73,35.27-4.12,53.02,.59,1.85,3.2,2.11,4.51,1.03,16.22-13.36,17.12-34.26,10.79-52.6-1.87-.33-3.7-.89-5.47-1.62-1.91,.01-3.81,.07-5.71,.18Z" style="fill:#0099a9;"/><path d="M388.58,99.25c-4.82-1.27-9.65-2.46-14.51-3.59-8.31-1.92-16.67-3.64-25.05-5.2-3.01-.56-6.03-1.1-9.05-1.63-5.14-.89-10.28-1.72-15.42-2.51-4.19-.64-8.39-1.27-12.58-1.85-25.67-3.59-51.23-4.71-77.12-3.68-4.18,.17-8.36,.35-12.54,.55-6.66,.31-13.33,.68-20,1.12-1.93,.13-3.86,.26-5.79,.4-8.12,.6-16.23,1.33-24.31,2.26-3.23,.37-6.46,.77-9.68,1.21-8.14,1.11-16.22,2.53-24.2,4.34,16.98,3.44,33.21,10.77,47.01,21.81,40.51-13.8,85.74-10.09,123.63,9.7,31.07-16.07,68.15-17.66,100.41-4.78,2.89,.94,5.77,1.9,8.64,2.91,.29,.1,.58,.21,.87,.32,3.24-3.01,6.6-5.87,10.06-8.58-9.69-3.65-19.52-6.89-29.46-9.77-3.62-1.05-7.25-2.06-10.9-3.02Z" style="fill:#fff;"/><path d="M369.11,121.98c3.79,.67,7.72,.51,11.48-.44-5.61-.83-11.28-1.22-16.95-1.19,1.77,.74,3.6,1.29,5.47,1.62Z" style="fill:#fff;"/><path d="M365.77,239.25c-13.88-4.56-30.43,1.53-43.06,8.94,13.28-13.74,20.32-32.03,19.76-51.27-.06-1.94-2.5-2.9-4.06-2.22-19.26,8.42-25.84,28.27-24.77,47.64,5.73,2.78,10.49,7.62,12.91,14.23,.33,.89,.59,1.79,.8,2.69,4.8-.31,9.96-1.69,13.1-2.59,9.11-2.61,17.38-7.18,25.44-12.06,1.92-1.17,2.53-4.49-.11-5.35Z" style="fill:#0099a9;"/><path d="M313.63,242.34c-8.65-4.2-19.53-3.73-27.96,2.43-3.48,2.54-5.63,5.39-6.78,8.53-.53,.99-1.01,2.03-1.42,3.14-6.16,16.56,7.1,34.18,24.37,34.36,16.65,.18,29.38-15.63,25.5-31.55-.22-.9-.48-1.79-.8-2.69-2.41-6.61-7.17-11.45-12.91-14.23Zm-2.62,25.94c-3.12-.66-6.24-1.33-9.36-1.99-1.14,2.38-2.29,4.75-3.43,7.13-1.61,3.35-7.03,1.23-5.4-2.15,1-2.07,1.99-4.15,2.99-6.22-1.8-.38-3.6-.77-5.4-1.15-3.63-.77-2.97-6.55,.69-5.77,2.43,.52,4.86,1.03,7.29,1.55,1.11-2.31,2.22-4.62,3.33-6.93,1.61-3.35,7.03-1.23,5.4,2.15-.96,2.01-1.93,4.01-2.89,6.02,2.49,.53,4.98,1.06,7.46,1.59,3.63,.77,2.97,6.55-.69,5.77Z" style="fill:#fff;"/><path d="M311.71,262.51c-2.49-.53-4.98-1.06-7.46-1.59,.96-2.01,1.93-4.01,2.89-6.02,1.62-3.38-3.79-5.5-5.4-2.15-1.11,2.31-2.22,4.62-3.33,6.93-2.43-.52-4.86-1.03-7.29-1.55-3.66-.78-4.32,5-.69,5.77,1.8,.38,3.6,.77,5.4,1.15-1,2.07-1.99,4.15-2.99,6.22-1.62,3.38,3.79,5.5,5.4,2.15,1.14-2.38,2.29-4.75,3.43-7.13,3.12,.66,6.24,1.33,9.36,1.99,3.66,.78,4.32-5,.69-5.77Z" style="fill:#ff4300;"/><path d="M252.69,259.12c-14.48,1.99-26.68,14.72-34.78,26.92,5.91-18.17,4.22-37.7-4.72-54.74-.9-1.72-3.52-1.51-4.62-.22-13.62,16.01-10.83,36.74-1.38,53.68,6.38-.01,12.77,2.25,17.84,7.13,.68,.66,1.31,1.35,1.9,2.06,4.18-2.38,8.21-5.89,10.63-8.07,7.04-6.34,12.47-14.07,17.57-21.99,1.22-1.89,.3-5.14-2.44-4.77Z" style="fill:#0099a9;"/><path d="M207.19,284.76c-9.62,.02-19.19,5.21-24.06,14.44-2.01,3.81-2.7,7.32-2.35,10.64-.04,1.12-.02,2.27,.1,3.44,1.72,17.58,21.36,27.61,36.97,20.2,15.04-7.14,19.55-26.93,9.08-39.54-.59-.71-1.22-1.4-1.9-2.06-5.07-4.88-11.46-7.14-17.84-7.13Zm9.02,24.46c-3.09,.77-6.19,1.54-9.28,2.31,.01,2.64,.03,5.27,.04,7.91,.02,3.72-5.77,4.19-5.8,.44-.01-2.3-.03-4.6-.04-6.9-1.79,.45-3.57,.89-5.36,1.34-3.6,.9-5.54-4.58-1.91-5.49,2.41-.6,4.82-1.2,7.23-1.8-.01-2.56-.03-5.13-.04-7.69-.02-3.72,5.78-4.19,5.8-.44,.01,2.23,.03,4.45,.04,6.68,2.47-.62,4.94-1.23,7.4-1.85,3.6-.9,5.54,4.58,1.91,5.49Z" style="fill:#fff;"/><path d="M214.3,303.73c-2.47,.62-4.94,1.23-7.4,1.85-.01-2.23-.03-4.45-.04-6.68-.02-3.75-5.82-3.29-5.8,.44,.01,2.56,.03,5.13,.04,7.69-2.41,.6-4.82,1.2-7.23,1.8-3.63,.91-1.69,6.39,1.91,5.49,1.78-.45,3.57-.89,5.36-1.34,.01,2.3,.03,4.6,.04,6.9,.02,3.75,5.82,3.29,5.8-.44-.01-2.64-.03-5.27-.04-7.91,3.09-.77,6.19-1.54,9.28-2.31,3.63-.91,1.69-6.39-1.91-5.49Z" style="fill:#ff4300;"/><path d="M63.67,110.04c1.64,2.04,4.94,2.02,7.04,.91,1.08-.57,2.17-1.11,3.27-1.64,1.96-.94,3.94-1.8,5.96-2.6,25.09-9.93,54.1-8.84,78.49,2.5,4.73,2.2,9.28,4.79,13.6,7.75,2.48,1.7,4.9,3.52,7.21,5.47,.68,.58,1.4,.96,2.13,1.19,.37,.32,.79,.57,1.25,.77,1.05,.44,2.32,.52,3.77,0,5.64-2.01,11.38-3.65,17.17-4.95,34.2-7.66,70.54-2.96,101.63,13.89,1.21,.66,2.4,.85,3.49,.71,1.2,.25,2.54,.11,3.91-.64,3.74-2.04,7.6-3.83,11.53-5.39,10.55-4.19,21.69-6.66,32.94-7.41,.29-.02,.58-.04,.88-.06,1.9-.11,3.81-.17,5.71-.18,5.67-.04,11.34,.35,16.95,1.19,12.37,1.83,24.45,5.77,35.58,11.83,3.46,1.88,6.72,0,8.08-2.74,.84-.24,1.66-.68,2.44-1.4,5.22-4.88,10.78-9.34,16.6-13.37,4.42-3.07,8.99-5.88,13.69-8.45,25.35-13.81,54.49-20.22,83.59-18.12,.19-.25,.38-.51,.58-.77,1.87-2.41,1.57-5.24,.26-7.31,0-.04,0-.08,0-.11,.16-.34,.3-.7,.41-1.1,.19-.73,.39-1.46,.58-2.19,3.41-13.18,5.86-27.73-2.11-39.79-7.49-11.33-20.27-17.23-33.27-19.61-13.71-2.51-28.42-3.44-42.35-2.77-12.6,.6-25.14,3.21-35.86,9.9C400.45,4.08,361.45-.09,329.25,15.27c-38.79-16.77-85.21-24.48-121.09,2.14C173.6,.99,131.16,4.03,99.68,26.07,62.22,19.09,22.28,37.14,3.29,70.35c-.24,.42-.5,.84-.73,1.27-.74,1.34-.9,2.66-.66,3.84-.08,.19-.15,.37-.21,.56-1.58,1.6-2.26,3.88-1.09,5.88,24.1-1.62,47.93,9.29,63.07,28.13Zm-14.13-66.56c7.95-3.67,16.68-6.12,25.4-7.02,4.34-.45,8.72-.54,13.07-.28,4.12,.24,8.12,1.47,12.19,1.76,4.14,.29,7.72-3.61,11.09-5.66,1.94-1.18,3.93-2.29,5.95-3.33,2.27-1.17,4.59-2.25,6.96-3.22,1.42-.58,2.87-1.12,4.33-1.63,7.28-2.58,14.92-4.33,22.57-5.1,18.88-1.88,37.94,1.4,54.79,10.21,2.5,1.31,4.95,.81,7.04-.91,11-9.02,24.48-14.16,38.44-16.13,4.74-.67,9.53-.97,14.3-.93,.23,0,.46,0,.68,0,10.73,.16,21.31,2.01,31.64,4.89,4.78,1.33,9.5,2.89,14.16,4.61,5,1.85,9.95,4.75,15.04,6.21,4.28,1.22,7.77-1.77,11.64-3.36,3.73-1.53,7.61-2.74,11.52-3.7,3.67-.9,7.38-1.51,11.12-1.89,3.87-.39,7.76-.54,11.66-.42,1.06,.03,2.13,.08,3.19,.15,17.51,1.13,34.68,7.75,48.12,19.07,1.82,1.53,4.87,2.49,7.04,.91,5.64-4.12,11.89-6.78,18.48-8.44,4.71-1.19,9.58-1.86,14.52-2.16,11.01-.69,22.34,.42,32.83,1.57,5.39,.59,10.96,1.55,16.17,3.35,4.19,1.45,8.13,3.44,11.55,6.25,1.05,.86,2.06,1.8,3,2.83,9.04,9.8,5.93,23.2,2.83,34.83-4.87,.4-9.7,1.02-14.5,1.82-10.58,.86-21.04,2.8-31.22,5.7-3.68,1.05-7.32,2.22-10.92,3.52-16.26,5.89-31.6,14.32-45.28,25.06-3.46,2.72-6.82,5.58-10.06,8.58-.02,.02-.04,.03-.06,.05-.27-.12-.54-.25-.82-.37-2.86-1.01-5.75-1.97-8.64-2.91-32.26-12.88-69.35-11.29-100.41,4.78-37.89-19.79-83.12-23.5-123.63-9.7-13.8-11.04-30.02-18.37-47.01-21.81-19.72-3.99-40.46-2.71-59.62,4.15-3.2,1.15-6.36,2.43-9.46,3.89-.58-.65-1.19-1.28-1.79-1.91-13.53-14.26-31.69-23.14-50.92-25.7,8.23-12.03,19.65-21.46,33-27.62Z" style="fill:#ff4300;"/><path d="M117.85,35.23c1.76,3.31,5.94,4.81,9.42,3.61,4.59-1.3,7.09-6.97,4.66-11.32-.33-.59-.73-1.12-1.19-1.6-.6-.74-1.36-1.36-2.21-1.8-1.46,.52-2.9,1.05-4.33,1.63-2.36,.96-4.68,2.05-6.96,3.22-.6,2.03-.45,4.28,.61,6.26Z" style="fill:#fff;"/><path d="M251.72,19.19c1.76,3.31,5.94,4.81,9.42,3.61,4.59-1.3,7.09-6.97,4.66-11.32-.04-.07-.09-.14-.14-.21-4.77-.04-9.56,.26-14.3,.93-.88,2.2-.84,4.76,.35,6.99Z" style="fill:#fff;"/><path d="M280.87,58.83c4.59-1.3,7.09-6.97,4.66-11.32-.33-.59-.73-1.12-1.19-1.6-1.06-1.31-2.63-2.26-4.29-2.48-1.86-.44-3.86-.25-5.58,.8-3.73,2.27-5.07,7.13-3.01,10.99,1.76,3.31,5.94,4.81,9.42,3.61Z" style="fill:#fff;"/><path d="M360.51,27.21c1.76,3.31,5.94,4.81,9.42,3.61,4.59-1.3,7.09-6.97,4.66-11.32-.33-.59-.73-1.12-1.19-1.6-.08-.1-.18-.2-.27-.3-3.9-.12-7.79,.02-11.66,.42-2.09,2.53-2.58,6.17-.96,9.2Z" style="fill:#fff;"/><path d="M406.83,77.56c4.59-1.3,7.09-6.97,4.66-11.32-.33-.59-.73-1.12-1.19-1.6-1.06-1.31-2.63-2.26-4.29-2.48-1.86-.44-3.86-.25-5.58,.8-3.73,2.27-5.07,7.13-3.01,10.99,1.76,3.31,5.94,4.81,9.42,3.61Z" style="fill:#fff;"/><path d="M450.65,35.23c1.76,3.31,5.94,4.81,9.42,3.61,4.59-1.3,7.09-6.97,4.66-11.32-.08-.14-.17-.27-.26-.4-4.94,.31-9.81,.98-14.52,2.16-.5,1.94-.31,4.06,.7,5.95Z" style="fill:#fff;"/><path d="M485.07,76.18c-.33-.59-.73-1.12-1.19-1.6-1.06-1.31-2.63-2.26-4.29-2.48-1.86-.44-3.86-.25-5.58,.8-3.73,2.27-5.07,7.13-3.01,10.99,.73,1.37,1.89,2.41,3.23,3.1,3.6-1.3,7.24-2.48,10.92-3.52,1.11-2.22,1.24-4.94-.07-7.29Z" style="fill:#fff;"/><path d="M510.06,43.25c1.76,3.31,5.94,4.81,9.42,3.61,3.66-1.04,5.98-4.86,5.54-8.57-3.42-2.81-7.37-4.8-11.55-6.25-.13,.07-.27,.14-.4,.21-3.73,2.27-5.07,7.13-3.01,10.99Z" style="fill:#fff;"/><path d="M339.59,82.28c-.33-.59-.73-1.12-1.19-1.6-1.06-1.31-2.63-2.26-4.29-2.48-1.86-.44-3.86-.25-5.58,.8-2.61,1.59-4.04,4.44-3.97,7.34,5.14,.79,10.29,1.62,15.42,2.51,.8-2.07,.78-4.47-.39-6.56Z" style="fill:#fff;"/><path d="M70.04,94.32c-1.06,.65-1.92,1.51-2.57,2.5,.6,.63,1.2,1.26,1.79,1.91,3.1-1.46,6.26-2.75,9.46-3.89-.91-.69-1.98-1.17-3.09-1.32-1.86-.44-3.86-.25-5.58,.8Z" style="fill:#fff;"/><path d="M197.38,63.88c4.59-1.3,7.09-6.97,4.66-11.32-.33-.59-.73-1.12-1.19-1.6-1.06-1.31-2.63-2.26-4.29-2.48-1.86-.44-3.86-.25-5.58,.8-3.73,2.27-5.07,7.13-3.01,10.99,1.76,3.31,5.94,4.81,9.42,3.61Z" style="fill:#fff;"/><path d="M135.26,85.58c4.59-1.3,7.09-6.97,4.66-11.32-.33-.59-.73-1.12-1.19-1.6-1.06-1.31-2.63-2.26-4.29-2.48-1.86-.44-3.86-.25-5.58,.8-3.73,2.27-5.07,7.13-3.01,10.99,1.76,3.31,5.94,4.81,9.42,3.61Z" style="fill:#fff;"/><path d="M65.55,55.53c-.33-.59-.73-1.12-1.19-1.6-1.06-1.31-2.63-2.26-4.29-2.48-1.86-.44-3.86-.25-5.58,.8-3.73,2.27-5.07,7.13-3.01,10.99,1.76,3.31,5.94,4.81,9.42,3.61,4.59-1.3,7.09-6.97,4.66-11.32Z" style="fill:#fff;"/></g></g></svg>