<?xml version="1.0" encoding="UTF-8"?><svg id="Layer_1" xmlns="http://www.w3.org/2000/svg" viewBox="0 0 444 214.11"><g><path d="M25.61,79.56c-1.33,0-3.37-.18-4.7-.27v15.77c0,.89,.53,1.42,3.37,1.6l3.19,.35,.27,3.9H0l.26-3.9,2.75-.35c2.13-.18,3.01-.62,3.01-1.68V51.47c0-.8-.44-1.42-3.63-1.68l-2.13-.35-.26-3.9H26.94c15.51,0,23.93,6.12,23.93,15.95,0,11.25-12.32,18.08-25.26,18.08Zm-1.95-30.04h-2.75v25.44c1.33,.18,2.92,.35,4.43,.35,5.67,0,9.3-5.23,9.3-12.5,0-7.89-3.54-13.29-10.99-13.29Z" style="fill:#fff;"/><path d="M85.17,73.09c-3.46,0-5.32-1.68-6.65-4.08-2.13,1.51-4.87,3.81-6.91,6.73v19.59c0,.89,.53,1.33,3.37,1.6l2.57,.18,.27,3.81h-24.55l.27-3.81,1.59-.18c2.13-.18,3.01-.62,3.01-1.68v-20.21c0-5.58-.8-6.38-3.81-7.27l-1.33-.44,.09-3.1,18.52-5.23v10.9h.44c3.1-5.49,6.56-10.9,11.7-10.9,4.34,0,7.27,2.66,7.27,7.44,0,3.46-2.39,6.65-5.85,6.65Z" style="fill:#fff;"/><path d="M113.26,102.25c-13.83,0-21.54-9.75-21.54-21.18,0-12.23,9.93-22.07,23.57-22.07s21.45,9.93,21.45,21.36c0,12.23-9.75,21.89-23.48,21.89Zm4.96-36.69c-1.15-1.33-2.57-1.95-4.17-1.95-4.61,0-7.44,5.94-7.44,15.42,0,8.42,.44,14.27,3.37,17.19,1.06,1.06,3.01,1.6,4.34,1.6,4.7,0,7.53-6.47,7.53-15.42,0-8.06-1.24-14.44-3.63-16.84Z" style="fill:#fff;"/><path d="M155.82,102.25c-7.98,0-12.23-4.7-12.05-13.56l.27-20.83-6.65-.8,.27-3.54,6.82-6.38,6.82-6.47,5.49,.53-.09,10.01h14.36l-.62,6.29h-13.82l-.18,17.02c0,7.36,3.1,9.22,7.09,9.22,2.22,0,5.49-.62,7.53-1.59l.27,2.92c-3.37,4.08-8.86,7.18-15.51,7.18Z" style="fill:#fff;"/><path d="M191.89,102.25c-10.72,0-19.5-7.62-19.5-20.21s9.22-23.04,22.69-23.04c8.6,0,16.04,4.88,16.04,14.18,0,1.42-.18,3.37-.53,4.96l-24.02-.35v.98c.18,9.3,4.25,14.8,11.17,14.8,4.34,0,8.42-2.57,11.43-6.47l2.13,1.15c-2.57,8.95-9.31,14-19.41,14Zm1.86-38.82c-4.08,0-6.91,3.63-7.27,11.25l11.96-.35c.35-7-1.6-10.9-4.7-10.9Z" style="fill:#fff;"/><path d="M234.1,102.25c-10.72,0-19.59-7.62-19.59-20.21s9.48-23.04,23.31-23.04c9.39,0,14.89,3.72,14.89,9.57,0,4.25-2.84,6.12-6.47,6.12-4.96,0-7.36-5.58-6.2-10.46v-.09c-.44-.26-1.51-.53-2.39-.53-4.79,0-8.77,4.43-8.77,14.18s4.16,15.77,11.08,15.77c4.34,0,8.42-2.57,11.43-6.47l2.13,1.15c-2.57,8.95-9.31,14-19.41,14Z" style="fill:#fff;"/><path d="M273.64,102.25c-7.98,0-12.23-4.7-12.05-13.56l.27-20.83-6.65-.8,.27-3.54,6.82-6.38,6.82-6.47,5.49,.53-.09,10.01h14.36l-.62,6.29h-13.82l-.18,17.02c0,7.36,3.1,9.22,7.09,9.22,2.22,0,5.49-.62,7.53-1.59l.27,2.92c-3.37,4.08-8.86,7.18-15.51,7.18Z" style="fill:#fff;"/></g><g><path d="M26.5,168.2H0l.26-3.9,2.75-.35c2.13-.18,3.01-.62,3.01-1.68v-43.51c0-.8-.44-1.42-3.63-1.68l-2.13-.35-.26-3.9,26.23-.35c21.09-.27,33.68,11.08,33.68,26.76s-12.5,28.98-33.41,28.98Zm-2.48-51.31h-3.1v46.26l6.29,1.33c10.28-.44,16.39-10.63,16.39-23.22,0-14.53-5.94-24.37-19.59-24.37Z" style="fill:#fff;"/><path d="M82.64,169.53c-10.72,0-19.5-7.62-19.5-20.21s9.22-23.04,22.69-23.04c8.6,0,16.04,4.88,16.04,14.18,0,1.42-.18,3.37-.53,4.96l-24.02-.35v.98c.18,9.3,4.25,14.8,11.17,14.8,4.34,0,8.42-2.57,11.43-6.47l2.13,1.15c-2.57,8.95-9.31,14-19.41,14Zm1.86-38.82c-4.08,0-6.91,3.63-7.27,11.25l11.96-.35c.35-7-1.6-10.9-4.7-10.9Z" style="fill:#fff;"/><path d="M157.97,168.2l.27-3.81,1.15-.18c2.57-.18,3.01-.8,3.01-1.68v-16.31c0-8.86-2.93-10.46-7.18-10.46-2.22,0-4.25,.89-5.49,1.77v24.99c0,.8,.44,1.24,3.63,1.68l1.06,.18,.27,3.81h-22.86l.35-3.81,1.06-.18c2.57-.18,3.01-.8,3.01-1.68v-16.31c0-8.86-2.92-10.46-7.18-10.46-2.21,0-4.25,.89-5.49,1.77v25.08c0,.89,.53,1.33,3.37,1.6l1.15,.18,.27,3.81h-23.31l.27-3.81,1.77-.18c2.13-.18,3.01-.62,3.01-1.68v-20.21c0-5.58-.8-6.38-3.81-7.27l-1.33-.44,.09-3.1,18.52-5.23v6.74h.44c5.23-4.16,9.66-6.74,14.62-6.74,2.84,0,5.49,1.06,7.8,3.37,.98,.98,1.77,2.3,2.39,3.9h.35c5.41-5.23,10.63-7.27,15.6-7.27,2.84,0,5.49,1.06,7.8,3.37,2.21,2.21,3.28,5.58,3.28,10.46v22.42c0,.8,.44,1.24,3.63,1.68l1.42,.18,.27,3.81h-23.22Z" style="fill:#fff;"/><path d="M203.02,169.53c-13.83,0-21.54-9.75-21.54-21.18,0-12.23,9.93-22.07,23.57-22.07s21.45,9.93,21.45,21.36c0,12.23-9.75,21.89-23.48,21.89Zm4.96-36.69c-1.15-1.33-2.57-1.95-4.17-1.95-4.61,0-7.44,5.94-7.44,15.42,0,8.42,.44,14.27,3.37,17.19,1.06,1.06,3.01,1.6,4.34,1.6,4.7,0,7.53-6.47,7.53-15.42,0-8.06-1.24-14.44-3.63-16.84Z" style="fill:#fff;"/><path d="M250.61,169.53c-10.72,0-19.59-7.62-19.59-20.21s9.48-23.04,23.31-23.04c9.39,0,14.89,3.72,14.89,9.57,0,4.25-2.84,6.12-6.47,6.12-4.96,0-7.36-5.58-6.2-10.46v-.09c-.44-.26-1.51-.53-2.39-.53-4.79,0-8.77,4.43-8.77,14.18s4.16,15.77,11.08,15.77c4.34,0,8.42-2.57,11.43-6.47l2.13,1.15c-2.57,8.95-9.31,14-19.41,14Z" style="fill:#fff;"/><path d="M304.32,140.38c-3.46,0-5.32-1.68-6.65-4.08-2.13,1.51-4.87,3.81-6.91,6.73v19.59c0,.89,.53,1.33,3.37,1.6l2.57,.18,.27,3.81h-24.55l.27-3.81,1.59-.18c2.13-.18,3.01-.62,3.01-1.68v-20.21c0-5.58-.8-6.38-3.81-7.27l-1.33-.44,.09-3.1,18.52-5.23v10.9h.44c3.1-5.49,6.56-10.9,11.7-10.9,4.34,0,7.27,2.66,7.27,7.44,0,3.46-2.39,6.65-5.85,6.65Z" style="fill:#fff;"/><path d="M343.55,169.8c-3.55,0-7.89-2.13-8.15-8.24h-.44c-3.63,4.7-7.09,7.98-12.23,7.98-5.94,0-11.17-3.46-11.17-10.46,0-7.36,7.8-11.79,23.66-16.04v-.62c.18-5.41-2.92-9.75-8.95-9.75-3.01,0-5.67,.98-5.67,1.33s2.48,2.04,2.48,5.32c0,2.13-2.3,4.96-5.76,4.96s-6.11-2.04-6.11-4.96c0-6.03,10.81-12.94,22.42-12.94,8.68,0,15.51,4.08,14.98,16.75l-.62,14.18c-.18,3.28,.35,4.16,2.3,4.16,.89,0,2.39-.98,3.99-2.3l1.33,2.66c-2.75,3.99-7.89,7.98-12.05,7.98Zm-8.51-23.22c-9.3,2.84-11.25,5.85-11.25,9.3s2.66,4.79,5.58,4.79c2.3,0,4.61-1.86,5.41-3.01l.27-11.08Z" style="fill:#fff;"/><path d="M375.66,169.53c-10.72,0-19.59-7.62-19.59-20.21s9.48-23.04,23.31-23.04c9.39,0,14.89,3.72,14.89,9.57,0,4.25-2.84,6.12-6.47,6.12-4.96,0-7.36-5.58-6.2-10.46v-.09c-.44-.26-1.51-.53-2.39-.53-4.79,0-8.77,4.43-8.77,14.18s4.16,15.77,11.08,15.77c4.34,0,8.42-2.57,11.43-6.47l2.13,1.15c-2.57,8.95-9.31,14-19.41,14Z" style="fill:#fff;"/><path d="M442.65,131.42l-2.93,.44c-1.95,.27-3.01,2.22-3.72,4.08l-10.9,28.27-5.05,14.35c-2.75,7.89-6.65,10.99-11.96,10.99-3.9,0-7.53-2.57-7.53-6.2,0-2.92,1.95-5.85,5.58-5.85,3.19,0,5.41,2.39,6.12,4.52,1.51-.53,2.13-.35,3.55-5.14l.97-3.28v-.89l-15.77-37.4c-.62-1.51-1.68-2.22-3.37-2.93l-2.3-.98-.27-3.81h24.46l-.27,3.81-3.1,1.06c-1.33,.44-1.59,1.68-.89,3.55l8.06,20.91,7.18-20.47c.8-2.22,.18-3.46-1.06-3.9l-3.46-1.15-.27-3.81h17.19l-.27,3.81Z" style="fill:#fff;"/></g><rect width="286.71" height="14.36" style="fill:#fff;"/><rect x="310.91" y="42.49" width="133.09" height="14.36" style="fill:#fff;"/><rect x="310.91" y="86.55" width="133.09" height="14.36" style="fill:#fff;"/><rect y="199.74" width="444" height="14.36" style="fill:#fff;"/><rect x="310.91" width="133.09" height="14.36" style="fill:#fff;"/></svg>