<?xml version="1.0" standalone="no"?>
<!DOCTYPE svg PUBLIC "-//W3C//DTD SVG 20010904//EN"
 "http://www.w3.org/TR/2001/REC-SVG-20010904/DTD/svg10.dtd">
<svg version="1.0" xmlns="http://www.w3.org/2000/svg"
 width="1306.000000pt" height="1306.000000pt" viewBox="0 0 1306.000000 1306.000000"
 preserveAspectRatio="xMidYMid meet">
<metadata>
Created by potrace 1.14, written by Peter Selinger 2001-2017
</metadata>
<g transform="translate(0.000000,1306.000000) scale(0.100000,-0.100000)"
fill="#000000" stroke="none">
<path d="M5087 10244 c-3 -3 -33 -7 -67 -10 -34 -2 -65 -6 -69 -9 -4 -2 -32
-7 -61 -10 -30 -4 -58 -9 -62 -11 -4 -3 -16 -7 -26 -9 -165 -31 -435 -150
-573 -251 -26 -19 -54 -34 -63 -34 -9 0 -60 18 -113 40 -53 23 -104 42 -113
44 -8 2 -22 6 -30 9 -20 8 -148 44 -180 50 -14 3 -36 8 -50 11 -14 4 -56 11
-95 17 -38 5 -86 13 -105 16 -48 9 -421 9 -495 0 -52 -6 -151 -22 -250 -42
-16 -3 -39 -9 -50 -12 -11 -4 -26 -8 -33 -9 -7 -1 -64 -19 -125 -39 -130 -43
-337 -141 -452 -214 -64 -41 -86 -50 -110 -46 -153 26 -380 26 -580 1 -102
-13 -325 -76 -430 -122 -22 -10 -42 -18 -45 -19 -12 -2 -194 -98 -219 -114
-36 -25 -81 -54 -100 -66 -19 -11 -90 -67 -135 -105 -55 -47 -181 -175 -221
-225 -22 -27 -43 -52 -46 -55 -11 -10 -110 -160 -116 -178 -4 -9 -13 -23 -20
-30 -12 -13 -18 -40 -14 -70 1 -7 -7 -25 -19 -41 -40 -58 -20 -106 75 -176 70
-52 264 -252 315 -325 14 -19 27 -37 31 -40 3 -3 21 -27 40 -55 18 -27 36 -52
39 -55 3 -3 19 -27 35 -54 17 -28 42 -70 57 -95 26 -43 136 -264 178 -356 43
-96 192 -514 204 -574 2 -9 6 -23 9 -31 6 -13 52 -176 93 -330 8 -30 22 -77
30 -105 9 -27 18 -63 21 -80 3 -16 10 -36 15 -42 6 -7 8 -13 5 -13 -3 0 -1
-15 4 -32 6 -18 12 -40 14 -48 2 -8 4 -15 5 -15 1 0 3 -7 5 -15 2 -8 7 -26 10
-40 3 -14 8 -35 11 -47 2 -12 9 -35 16 -50 6 -16 13 -37 15 -48 2 -11 6 -27
10 -35 3 -8 7 -19 8 -25 11 -47 39 -132 46 -141 5 -6 6 -14 2 -17 -3 -4 -1
-12 4 -19 6 -7 20 -44 32 -83 12 -38 26 -79 30 -90 10 -22 23 -56 26 -67 2 -5
4 -10 5 -13 1 -3 3 -8 5 -12 3 -15 26 -68 41 -97 8 -16 14 -35 14 -43 0 -7 4
-13 8 -13 5 0 9 -6 9 -13 0 -7 31 -76 70 -152 96 -193 125 -242 231 -400 93
-138 189 -259 283 -357 26 -26 45 -48 43 -48 -1 0 23 -24 53 -52 31 -29 73
-69 94 -88 56 -53 94 -83 224 -181 66 -49 125 -92 130 -97 15 -12 182 -115
255 -157 103 -60 250 -135 266 -135 8 0 14 -4 14 -8 0 -5 70 -37 155 -73 166
-68 162 -65 170 -144 2 -22 5 -40 5 -40 1 0 3 -11 5 -25 2 -14 6 -41 9 -60 3
-19 8 -53 12 -75 3 -22 7 -53 9 -70 10 -65 18 -95 26 -95 5 0 9 -8 9 -17 0
-23 69 -86 124 -112 50 -23 171 -58 226 -65 19 -3 35 -5 35 -6 0 -1 9 -3 20
-5 18 -3 75 -15 100 -20 33 -7 125 -25 150 -30 17 -3 41 -7 55 -10 14 -3 40
-7 59 -10 61 -8 116 -16 146 -21 29 -5 77 -11 160 -19 22 -2 65 -6 95 -10 30
-3 91 -8 135 -12 126 -8 818 -11 840 -3 11 4 30 4 43 -1 12 -5 22 -5 22 -1 0
4 19 8 43 8 51 1 227 12 282 19 22 2 72 7 110 10 39 3 84 7 100 9 17 2 62 7
100 10 74 7 114 12 180 21 22 4 57 8 78 10 47 4 214 25 247 31 14 2 45 6 70 9
25 3 61 8 80 11 58 9 132 20 198 29 86 11 202 29 258 39 21 3 47 30 60 61 9
21 11 75 9 181 l-4 150 52 19 c175 60 567 239 567 257 0 4 6 8 13 8 14 0 35
13 207 126 258 170 519 419 765 729 17 21 34 45 39 54 5 9 15 22 22 29 7 7 34
44 60 83 26 38 51 72 55 75 5 3 22 -2 39 -11 29 -15 52 -15 120 0 14 3 35 8
47 11 12 2 33 8 45 13 13 5 28 9 33 10 24 4 63 14 106 28 25 8 52 16 60 17 8
2 21 6 29 9 8 3 62 21 120 40 58 19 119 41 135 47 17 7 39 16 50 20 136 55
297 127 415 187 165 85 153 78 243 132 38 23 71 41 73 41 9 0 349 227 366 244
9 9 21 16 26 16 6 0 12 3 14 8 2 4 41 36 88 72 47 35 94 72 105 81 343 286
598 551 858 889 53 69 101 130 106 136 42 51 231 348 231 364 0 5 5 10 12 10
6 0 8 3 5 7 -4 3 0 15 10 25 9 10 13 18 9 18 -4 0 2 13 13 29 12 16 21 31 21
34 0 3 13 34 29 69 199 430 235 847 107 1223 -13 39 -23 71 -22 72 1 1 15 4
31 7 17 2 31 5 33 6 1 2 5 3 10 4 19 4 58 32 83 58 67 75 75 189 19 282 -19
31 -37 56 -40 56 -4 0 -16 9 -27 20 -30 27 -127 58 -171 54 -37 -4 -75 -11
-79 -14 -2 -2 -6 -3 -10 -4 -21 -3 -104 -59 -122 -82 -19 -25 -21 -25 -48 -10
-15 9 -57 25 -93 38 -80 27 -289 34 -369 13 -27 -7 -52 -11 -55 -8 -2 3 -11 1
-18 -3 -7 -5 -20 -9 -28 -11 -24 -3 -92 -24 -127 -39 -17 -8 -35 -14 -40 -14
-5 0 -27 -9 -49 -19 -21 -10 -68 -33 -104 -50 -132 -62 -364 -207 -442 -276
-10 -8 -18 -13 -18 -10 0 3 -8 -2 -17 -9 -10 -8 -38 -31 -63 -50 -25 -19 -61
-48 -80 -64 -75 -63 -196 -166 -215 -184 -101 -94 -151 -138 -158 -138 -9 0
40 87 60 108 6 6 15 21 18 32 3 11 10 20 15 20 5 0 11 8 15 19 5 17 24 43 58
81 40 44 51 100 32 159 -3 11 5 64 19 118 13 54 27 114 30 133 3 19 8 46 11
60 4 20 15 143 17 195 1 30 -14 145 -24 180 -6 22 -12 45 -14 50 -22 94 -127
236 -239 324 -60 48 -185 125 -185 115 0 -3 -15 3 -32 14 -18 12 -37 21 -43
22 -5 0 -46 12 -90 25 -110 33 -290 64 -475 81 -19 2 -88 6 -153 8 -65 3 -122
8 -128 11 -5 4 -9 1 -9 -5 0 -7 -7 -8 -17 -3 -10 5 -31 7 -48 6 -30 -3 -44 -4
-67 -2 -48 2 -269 -16 -318 -26 -14 -3 -41 -8 -60 -11 -104 -16 -292 -82 -390
-138 l-46 -25 -79 52 c-44 30 -96 62 -115 73 -19 10 -42 24 -50 30 -45 34
-359 156 -438 170 -13 3 -54 12 -91 20 -36 9 -79 18 -96 19 -16 2 -50 7 -75
11 -97 15 -469 7 -530 -11 -8 -3 -29 -7 -45 -9 -112 -16 -322 -80 -421 -128
-54 -26 -48 -27 -144 15 -24 11 -49 20 -55 22 -5 1 -23 8 -40 15 -35 14 -253
90 -275 95 -8 2 -55 14 -105 27 -106 29 -178 47 -220 53 -16 3 -41 8 -55 11
-14 3 -38 8 -55 10 -57 7 -120 16 -145 20 -37 7 -456 14 -463 8z m7099 -1608
c81 -22 142 -56 197 -111 60 -60 63 -64 98 -130 53 -100 72 -191 80 -380 2
-30 -12 -157 -22 -205 -7 -30 -13 -62 -14 -70 -8 -64 -117 -347 -139 -362 -6
-4 -8 -8 -3 -8 4 0 -4 -18 -18 -40 -14 -22 -25 -42 -25 -45 0 -19 -176 -270
-222 -317 -10 -10 -16 -18 -13 -18 5 0 -14 -25 -60 -75 -16 -18 -62 -68 -102
-111 -122 -135 -498 -499 -643 -624 -14 -12 -38 -34 -55 -48 -16 -15 -57 -50
-90 -77 -33 -28 -62 -52 -65 -55 -3 -3 -25 -20 -50 -39 -25 -19 -52 -41 -60
-48 -32 -30 -251 -183 -355 -248 -89 -56 -362 -202 -380 -204 -3 -1 -22 -8
-43 -17 -82 -35 -290 -101 -374 -118 -12 -3 -59 -14 -103 -26 -44 -11 -88 -22
-97 -25 -10 -2 -20 0 -23 6 -4 5 -2 9 3 9 5 0 19 21 30 48 11 26 42 92 68 147
27 55 50 109 51 119 2 11 11 29 21 39 9 11 15 20 13 21 -4 1 52 154 84 231 14
33 115 341 117 355 0 3 5 16 10 30 5 14 11 32 13 40 2 8 10 35 18 60 8 25 18
59 22 75 5 17 9 35 11 40 1 6 21 80 44 165 23 85 44 165 47 179 2 13 8 31 12
40 5 9 9 19 9 24 0 4 3 20 6 35 4 15 8 36 11 47 2 11 21 81 41 155 20 74 37
140 38 145 5 23 29 104 48 163 11 34 21 68 22 75 1 6 8 22 14 35 7 12 11 22 8
22 -2 0 6 28 18 62 21 58 25 63 60 70 37 8 41 11 101 63 18 17 51 45 74 63 22
18 55 46 73 63 18 16 38 32 43 37 8 6 133 105 170 135 5 5 73 55 150 113 77
57 148 111 158 119 9 8 22 15 27 15 6 0 10 5 10 10 0 6 6 10 14 10 8 0 16 3
18 8 2 4 17 16 33 28 17 11 60 41 97 67 38 26 70 47 73 47 2 0 28 15 57 33 75
47 213 111 283 131 33 10 69 21 79 25 34 13 230 11 282 -3z"/>
</g>
</svg>
